G04 #@! TF.GenerationSoftware,KiCad,Pcbnew,(5.1.5)-2*
G04 #@! TF.CreationDate,2019-12-19T08:09:48+01:00*
G04 #@! TF.ProjectId,garden-water-system,67617264-656e-42d7-9761-7465722d7379,rev?*
G04 #@! TF.SameCoordinates,Original*
G04 #@! TF.FileFunction,Copper,L1,Top*
G04 #@! TF.FilePolarity,Positive*
%FSLAX46Y46*%
G04 Gerber Fmt 4.6, Leading zero omitted, Abs format (unit mm)*
G04 Created by KiCad (PCBNEW (5.1.5)-2) date 2019-12-19 08:09:48*
%MOMM*%
%LPD*%
G04 APERTURE LIST*
%ADD10R,2.000000X1.500000*%
%ADD11R,2.000000X3.800000*%
%ADD12R,1.800000X4.400000*%
%ADD13O,1.800000X4.000000*%
%ADD14O,4.000000X1.800000*%
%ADD15O,1.950000X1.700000*%
%ADD16C,0.100000*%
%ADD17O,1.700000X1.950000*%
%ADD18O,1.700000X2.000000*%
%ADD19R,7.175000X4.100000*%
%ADD20O,1.600000X2.400000*%
%ADD21R,1.600000X2.400000*%
%ADD22R,1.550000X1.300000*%
%ADD23R,1.300000X1.550000*%
%ADD24O,1.700000X1.700000*%
%ADD25R,1.700000X1.700000*%
%ADD26C,3.000000*%
%ADD27R,3.000000X3.000000*%
%ADD28C,0.800000*%
%ADD29C,0.300000*%
%ADD30C,0.400000*%
%ADD31C,1.000000*%
%ADD32C,0.250000*%
%ADD33C,0.254000*%
G04 APERTURE END LIST*
D10*
X179350000Y-57700000D03*
X179350000Y-62300000D03*
X179350000Y-60000000D03*
D11*
X185650000Y-60000000D03*
D12*
X176530000Y-41910000D03*
D13*
X182330000Y-41910000D03*
D14*
X179530000Y-37110000D03*
D15*
X120650000Y-29330000D03*
X120650000Y-31830000D03*
X120650000Y-34330000D03*
G04 #@! TA.AperFunction,ComponentPad*
D16*
G36*
X121399504Y-35981204D02*
G01*
X121423773Y-35984804D01*
X121447571Y-35990765D01*
X121470671Y-35999030D01*
X121492849Y-36009520D01*
X121513893Y-36022133D01*
X121533598Y-36036747D01*
X121551777Y-36053223D01*
X121568253Y-36071402D01*
X121582867Y-36091107D01*
X121595480Y-36112151D01*
X121605970Y-36134329D01*
X121614235Y-36157429D01*
X121620196Y-36181227D01*
X121623796Y-36205496D01*
X121625000Y-36230000D01*
X121625000Y-37430000D01*
X121623796Y-37454504D01*
X121620196Y-37478773D01*
X121614235Y-37502571D01*
X121605970Y-37525671D01*
X121595480Y-37547849D01*
X121582867Y-37568893D01*
X121568253Y-37588598D01*
X121551777Y-37606777D01*
X121533598Y-37623253D01*
X121513893Y-37637867D01*
X121492849Y-37650480D01*
X121470671Y-37660970D01*
X121447571Y-37669235D01*
X121423773Y-37675196D01*
X121399504Y-37678796D01*
X121375000Y-37680000D01*
X119925000Y-37680000D01*
X119900496Y-37678796D01*
X119876227Y-37675196D01*
X119852429Y-37669235D01*
X119829329Y-37660970D01*
X119807151Y-37650480D01*
X119786107Y-37637867D01*
X119766402Y-37623253D01*
X119748223Y-37606777D01*
X119731747Y-37588598D01*
X119717133Y-37568893D01*
X119704520Y-37547849D01*
X119694030Y-37525671D01*
X119685765Y-37502571D01*
X119679804Y-37478773D01*
X119676204Y-37454504D01*
X119675000Y-37430000D01*
X119675000Y-36230000D01*
X119676204Y-36205496D01*
X119679804Y-36181227D01*
X119685765Y-36157429D01*
X119694030Y-36134329D01*
X119704520Y-36112151D01*
X119717133Y-36091107D01*
X119731747Y-36071402D01*
X119748223Y-36053223D01*
X119766402Y-36036747D01*
X119786107Y-36022133D01*
X119807151Y-36009520D01*
X119829329Y-35999030D01*
X119852429Y-35990765D01*
X119876227Y-35984804D01*
X119900496Y-35981204D01*
X119925000Y-35980000D01*
X121375000Y-35980000D01*
X121399504Y-35981204D01*
G37*
G04 #@! TD.AperFunction*
D17*
X160180000Y-63500000D03*
X162680000Y-63500000D03*
X165180000Y-63500000D03*
X167680000Y-63500000D03*
G04 #@! TA.AperFunction,ComponentPad*
D16*
G36*
X170804504Y-62526204D02*
G01*
X170828773Y-62529804D01*
X170852571Y-62535765D01*
X170875671Y-62544030D01*
X170897849Y-62554520D01*
X170918893Y-62567133D01*
X170938598Y-62581747D01*
X170956777Y-62598223D01*
X170973253Y-62616402D01*
X170987867Y-62636107D01*
X171000480Y-62657151D01*
X171010970Y-62679329D01*
X171019235Y-62702429D01*
X171025196Y-62726227D01*
X171028796Y-62750496D01*
X171030000Y-62775000D01*
X171030000Y-64225000D01*
X171028796Y-64249504D01*
X171025196Y-64273773D01*
X171019235Y-64297571D01*
X171010970Y-64320671D01*
X171000480Y-64342849D01*
X170987867Y-64363893D01*
X170973253Y-64383598D01*
X170956777Y-64401777D01*
X170938598Y-64418253D01*
X170918893Y-64432867D01*
X170897849Y-64445480D01*
X170875671Y-64455970D01*
X170852571Y-64464235D01*
X170828773Y-64470196D01*
X170804504Y-64473796D01*
X170780000Y-64475000D01*
X169580000Y-64475000D01*
X169555496Y-64473796D01*
X169531227Y-64470196D01*
X169507429Y-64464235D01*
X169484329Y-64455970D01*
X169462151Y-64445480D01*
X169441107Y-64432867D01*
X169421402Y-64418253D01*
X169403223Y-64401777D01*
X169386747Y-64383598D01*
X169372133Y-64363893D01*
X169359520Y-64342849D01*
X169349030Y-64320671D01*
X169340765Y-64297571D01*
X169334804Y-64273773D01*
X169331204Y-64249504D01*
X169330000Y-64225000D01*
X169330000Y-62775000D01*
X169331204Y-62750496D01*
X169334804Y-62726227D01*
X169340765Y-62702429D01*
X169349030Y-62679329D01*
X169359520Y-62657151D01*
X169372133Y-62636107D01*
X169386747Y-62616402D01*
X169403223Y-62598223D01*
X169421402Y-62581747D01*
X169441107Y-62567133D01*
X169462151Y-62554520D01*
X169484329Y-62544030D01*
X169507429Y-62535765D01*
X169531227Y-62529804D01*
X169555496Y-62526204D01*
X169580000Y-62525000D01*
X170780000Y-62525000D01*
X170804504Y-62526204D01*
G37*
G04 #@! TD.AperFunction*
D18*
X158750000Y-51500000D03*
G04 #@! TA.AperFunction,ComponentPad*
D16*
G36*
X161874504Y-50501204D02*
G01*
X161898773Y-50504804D01*
X161922571Y-50510765D01*
X161945671Y-50519030D01*
X161967849Y-50529520D01*
X161988893Y-50542133D01*
X162008598Y-50556747D01*
X162026777Y-50573223D01*
X162043253Y-50591402D01*
X162057867Y-50611107D01*
X162070480Y-50632151D01*
X162080970Y-50654329D01*
X162089235Y-50677429D01*
X162095196Y-50701227D01*
X162098796Y-50725496D01*
X162100000Y-50750000D01*
X162100000Y-52250000D01*
X162098796Y-52274504D01*
X162095196Y-52298773D01*
X162089235Y-52322571D01*
X162080970Y-52345671D01*
X162070480Y-52367849D01*
X162057867Y-52388893D01*
X162043253Y-52408598D01*
X162026777Y-52426777D01*
X162008598Y-52443253D01*
X161988893Y-52457867D01*
X161967849Y-52470480D01*
X161945671Y-52480970D01*
X161922571Y-52489235D01*
X161898773Y-52495196D01*
X161874504Y-52498796D01*
X161850000Y-52500000D01*
X160650000Y-52500000D01*
X160625496Y-52498796D01*
X160601227Y-52495196D01*
X160577429Y-52489235D01*
X160554329Y-52480970D01*
X160532151Y-52470480D01*
X160511107Y-52457867D01*
X160491402Y-52443253D01*
X160473223Y-52426777D01*
X160456747Y-52408598D01*
X160442133Y-52388893D01*
X160429520Y-52367849D01*
X160419030Y-52345671D01*
X160410765Y-52322571D01*
X160404804Y-52298773D01*
X160401204Y-52274504D01*
X160400000Y-52250000D01*
X160400000Y-50750000D01*
X160401204Y-50725496D01*
X160404804Y-50701227D01*
X160410765Y-50677429D01*
X160419030Y-50654329D01*
X160429520Y-50632151D01*
X160442133Y-50611107D01*
X160456747Y-50591402D01*
X160473223Y-50573223D01*
X160491402Y-50556747D01*
X160511107Y-50542133D01*
X160532151Y-50529520D01*
X160554329Y-50519030D01*
X160577429Y-50510765D01*
X160601227Y-50504804D01*
X160625496Y-50501204D01*
X160650000Y-50500000D01*
X161850000Y-50500000D01*
X161874504Y-50501204D01*
G37*
G04 #@! TD.AperFunction*
D18*
X158750000Y-42000000D03*
G04 #@! TA.AperFunction,ComponentPad*
D16*
G36*
X161874504Y-41001204D02*
G01*
X161898773Y-41004804D01*
X161922571Y-41010765D01*
X161945671Y-41019030D01*
X161967849Y-41029520D01*
X161988893Y-41042133D01*
X162008598Y-41056747D01*
X162026777Y-41073223D01*
X162043253Y-41091402D01*
X162057867Y-41111107D01*
X162070480Y-41132151D01*
X162080970Y-41154329D01*
X162089235Y-41177429D01*
X162095196Y-41201227D01*
X162098796Y-41225496D01*
X162100000Y-41250000D01*
X162100000Y-42750000D01*
X162098796Y-42774504D01*
X162095196Y-42798773D01*
X162089235Y-42822571D01*
X162080970Y-42845671D01*
X162070480Y-42867849D01*
X162057867Y-42888893D01*
X162043253Y-42908598D01*
X162026777Y-42926777D01*
X162008598Y-42943253D01*
X161988893Y-42957867D01*
X161967849Y-42970480D01*
X161945671Y-42980970D01*
X161922571Y-42989235D01*
X161898773Y-42995196D01*
X161874504Y-42998796D01*
X161850000Y-43000000D01*
X160650000Y-43000000D01*
X160625496Y-42998796D01*
X160601227Y-42995196D01*
X160577429Y-42989235D01*
X160554329Y-42980970D01*
X160532151Y-42970480D01*
X160511107Y-42957867D01*
X160491402Y-42943253D01*
X160473223Y-42926777D01*
X160456747Y-42908598D01*
X160442133Y-42888893D01*
X160429520Y-42867849D01*
X160419030Y-42845671D01*
X160410765Y-42822571D01*
X160404804Y-42798773D01*
X160401204Y-42774504D01*
X160400000Y-42750000D01*
X160400000Y-41250000D01*
X160401204Y-41225496D01*
X160404804Y-41201227D01*
X160410765Y-41177429D01*
X160419030Y-41154329D01*
X160429520Y-41132151D01*
X160442133Y-41111107D01*
X160456747Y-41091402D01*
X160473223Y-41073223D01*
X160491402Y-41056747D01*
X160511107Y-41042133D01*
X160532151Y-41029520D01*
X160554329Y-41019030D01*
X160577429Y-41010765D01*
X160601227Y-41004804D01*
X160625496Y-41001204D01*
X160650000Y-41000000D01*
X161850000Y-41000000D01*
X161874504Y-41001204D01*
G37*
G04 #@! TD.AperFunction*
D19*
X143510000Y-72500000D03*
X132435000Y-72500000D03*
D20*
X119380000Y-58420000D03*
X152400000Y-66040000D03*
X121920000Y-58420000D03*
X149860000Y-66040000D03*
X124460000Y-58420000D03*
X147320000Y-66040000D03*
X127000000Y-58420000D03*
X144780000Y-66040000D03*
X129540000Y-58420000D03*
X142240000Y-66040000D03*
X132080000Y-58420000D03*
X139700000Y-66040000D03*
X134620000Y-58420000D03*
X137160000Y-66040000D03*
X137160000Y-58420000D03*
X134620000Y-66040000D03*
X139700000Y-58420000D03*
X132080000Y-66040000D03*
X142240000Y-58420000D03*
X129540000Y-66040000D03*
X144780000Y-58420000D03*
X127000000Y-66040000D03*
X147320000Y-58420000D03*
X124460000Y-66040000D03*
X149860000Y-58420000D03*
X121920000Y-66040000D03*
X152400000Y-58420000D03*
D21*
X119380000Y-66040000D03*
D22*
X176365000Y-79720000D03*
X176365000Y-75220000D03*
X184315000Y-75220000D03*
X184315000Y-79720000D03*
X163665000Y-79720000D03*
X163665000Y-75220000D03*
X171615000Y-75220000D03*
X171615000Y-79720000D03*
X150965000Y-79720000D03*
X150965000Y-75220000D03*
X158915000Y-75220000D03*
X158915000Y-79720000D03*
D23*
X124250000Y-70025000D03*
X119750000Y-70025000D03*
X119750000Y-77975000D03*
X124250000Y-77975000D03*
G04 #@! TA.AperFunction,SMDPad,CuDef*
D16*
G36*
X170374505Y-40301204D02*
G01*
X170398773Y-40304804D01*
X170422572Y-40310765D01*
X170445671Y-40319030D01*
X170467850Y-40329520D01*
X170488893Y-40342132D01*
X170508599Y-40356747D01*
X170526777Y-40373223D01*
X170543253Y-40391401D01*
X170557868Y-40411107D01*
X170570480Y-40432150D01*
X170580970Y-40454329D01*
X170589235Y-40477428D01*
X170595196Y-40501227D01*
X170598796Y-40525495D01*
X170600000Y-40549999D01*
X170600000Y-41450001D01*
X170598796Y-41474505D01*
X170595196Y-41498773D01*
X170589235Y-41522572D01*
X170580970Y-41545671D01*
X170570480Y-41567850D01*
X170557868Y-41588893D01*
X170543253Y-41608599D01*
X170526777Y-41626777D01*
X170508599Y-41643253D01*
X170488893Y-41657868D01*
X170467850Y-41670480D01*
X170445671Y-41680970D01*
X170422572Y-41689235D01*
X170398773Y-41695196D01*
X170374505Y-41698796D01*
X170350001Y-41700000D01*
X169699999Y-41700000D01*
X169675495Y-41698796D01*
X169651227Y-41695196D01*
X169627428Y-41689235D01*
X169604329Y-41680970D01*
X169582150Y-41670480D01*
X169561107Y-41657868D01*
X169541401Y-41643253D01*
X169523223Y-41626777D01*
X169506747Y-41608599D01*
X169492132Y-41588893D01*
X169479520Y-41567850D01*
X169469030Y-41545671D01*
X169460765Y-41522572D01*
X169454804Y-41498773D01*
X169451204Y-41474505D01*
X169450000Y-41450001D01*
X169450000Y-40549999D01*
X169451204Y-40525495D01*
X169454804Y-40501227D01*
X169460765Y-40477428D01*
X169469030Y-40454329D01*
X169479520Y-40432150D01*
X169492132Y-40411107D01*
X169506747Y-40391401D01*
X169523223Y-40373223D01*
X169541401Y-40356747D01*
X169561107Y-40342132D01*
X169582150Y-40329520D01*
X169604329Y-40319030D01*
X169627428Y-40310765D01*
X169651227Y-40304804D01*
X169675495Y-40301204D01*
X169699999Y-40300000D01*
X170350001Y-40300000D01*
X170374505Y-40301204D01*
G37*
G04 #@! TD.AperFunction*
G04 #@! TA.AperFunction,SMDPad,CuDef*
G36*
X168324505Y-40301204D02*
G01*
X168348773Y-40304804D01*
X168372572Y-40310765D01*
X168395671Y-40319030D01*
X168417850Y-40329520D01*
X168438893Y-40342132D01*
X168458599Y-40356747D01*
X168476777Y-40373223D01*
X168493253Y-40391401D01*
X168507868Y-40411107D01*
X168520480Y-40432150D01*
X168530970Y-40454329D01*
X168539235Y-40477428D01*
X168545196Y-40501227D01*
X168548796Y-40525495D01*
X168550000Y-40549999D01*
X168550000Y-41450001D01*
X168548796Y-41474505D01*
X168545196Y-41498773D01*
X168539235Y-41522572D01*
X168530970Y-41545671D01*
X168520480Y-41567850D01*
X168507868Y-41588893D01*
X168493253Y-41608599D01*
X168476777Y-41626777D01*
X168458599Y-41643253D01*
X168438893Y-41657868D01*
X168417850Y-41670480D01*
X168395671Y-41680970D01*
X168372572Y-41689235D01*
X168348773Y-41695196D01*
X168324505Y-41698796D01*
X168300001Y-41700000D01*
X167649999Y-41700000D01*
X167625495Y-41698796D01*
X167601227Y-41695196D01*
X167577428Y-41689235D01*
X167554329Y-41680970D01*
X167532150Y-41670480D01*
X167511107Y-41657868D01*
X167491401Y-41643253D01*
X167473223Y-41626777D01*
X167456747Y-41608599D01*
X167442132Y-41588893D01*
X167429520Y-41567850D01*
X167419030Y-41545671D01*
X167410765Y-41522572D01*
X167404804Y-41498773D01*
X167401204Y-41474505D01*
X167400000Y-41450001D01*
X167400000Y-40549999D01*
X167401204Y-40525495D01*
X167404804Y-40501227D01*
X167410765Y-40477428D01*
X167419030Y-40454329D01*
X167429520Y-40432150D01*
X167442132Y-40411107D01*
X167456747Y-40391401D01*
X167473223Y-40373223D01*
X167491401Y-40356747D01*
X167511107Y-40342132D01*
X167532150Y-40329520D01*
X167554329Y-40319030D01*
X167577428Y-40310765D01*
X167601227Y-40304804D01*
X167625495Y-40301204D01*
X167649999Y-40300000D01*
X168300001Y-40300000D01*
X168324505Y-40301204D01*
G37*
G04 #@! TD.AperFunction*
G04 #@! TA.AperFunction,SMDPad,CuDef*
G36*
X121324505Y-79801204D02*
G01*
X121348773Y-79804804D01*
X121372572Y-79810765D01*
X121395671Y-79819030D01*
X121417850Y-79829520D01*
X121438893Y-79842132D01*
X121458599Y-79856747D01*
X121476777Y-79873223D01*
X121493253Y-79891401D01*
X121507868Y-79911107D01*
X121520480Y-79932150D01*
X121530970Y-79954329D01*
X121539235Y-79977428D01*
X121545196Y-80001227D01*
X121548796Y-80025495D01*
X121550000Y-80049999D01*
X121550000Y-80950001D01*
X121548796Y-80974505D01*
X121545196Y-80998773D01*
X121539235Y-81022572D01*
X121530970Y-81045671D01*
X121520480Y-81067850D01*
X121507868Y-81088893D01*
X121493253Y-81108599D01*
X121476777Y-81126777D01*
X121458599Y-81143253D01*
X121438893Y-81157868D01*
X121417850Y-81170480D01*
X121395671Y-81180970D01*
X121372572Y-81189235D01*
X121348773Y-81195196D01*
X121324505Y-81198796D01*
X121300001Y-81200000D01*
X120649999Y-81200000D01*
X120625495Y-81198796D01*
X120601227Y-81195196D01*
X120577428Y-81189235D01*
X120554329Y-81180970D01*
X120532150Y-81170480D01*
X120511107Y-81157868D01*
X120491401Y-81143253D01*
X120473223Y-81126777D01*
X120456747Y-81108599D01*
X120442132Y-81088893D01*
X120429520Y-81067850D01*
X120419030Y-81045671D01*
X120410765Y-81022572D01*
X120404804Y-80998773D01*
X120401204Y-80974505D01*
X120400000Y-80950001D01*
X120400000Y-80049999D01*
X120401204Y-80025495D01*
X120404804Y-80001227D01*
X120410765Y-79977428D01*
X120419030Y-79954329D01*
X120429520Y-79932150D01*
X120442132Y-79911107D01*
X120456747Y-79891401D01*
X120473223Y-79873223D01*
X120491401Y-79856747D01*
X120511107Y-79842132D01*
X120532150Y-79829520D01*
X120554329Y-79819030D01*
X120577428Y-79810765D01*
X120601227Y-79804804D01*
X120625495Y-79801204D01*
X120649999Y-79800000D01*
X121300001Y-79800000D01*
X121324505Y-79801204D01*
G37*
G04 #@! TD.AperFunction*
G04 #@! TA.AperFunction,SMDPad,CuDef*
G36*
X123374505Y-79801204D02*
G01*
X123398773Y-79804804D01*
X123422572Y-79810765D01*
X123445671Y-79819030D01*
X123467850Y-79829520D01*
X123488893Y-79842132D01*
X123508599Y-79856747D01*
X123526777Y-79873223D01*
X123543253Y-79891401D01*
X123557868Y-79911107D01*
X123570480Y-79932150D01*
X123580970Y-79954329D01*
X123589235Y-79977428D01*
X123595196Y-80001227D01*
X123598796Y-80025495D01*
X123600000Y-80049999D01*
X123600000Y-80950001D01*
X123598796Y-80974505D01*
X123595196Y-80998773D01*
X123589235Y-81022572D01*
X123580970Y-81045671D01*
X123570480Y-81067850D01*
X123557868Y-81088893D01*
X123543253Y-81108599D01*
X123526777Y-81126777D01*
X123508599Y-81143253D01*
X123488893Y-81157868D01*
X123467850Y-81170480D01*
X123445671Y-81180970D01*
X123422572Y-81189235D01*
X123398773Y-81195196D01*
X123374505Y-81198796D01*
X123350001Y-81200000D01*
X122699999Y-81200000D01*
X122675495Y-81198796D01*
X122651227Y-81195196D01*
X122627428Y-81189235D01*
X122604329Y-81180970D01*
X122582150Y-81170480D01*
X122561107Y-81157868D01*
X122541401Y-81143253D01*
X122523223Y-81126777D01*
X122506747Y-81108599D01*
X122492132Y-81088893D01*
X122479520Y-81067850D01*
X122469030Y-81045671D01*
X122460765Y-81022572D01*
X122454804Y-80998773D01*
X122451204Y-80974505D01*
X122450000Y-80950001D01*
X122450000Y-80049999D01*
X122451204Y-80025495D01*
X122454804Y-80001227D01*
X122460765Y-79977428D01*
X122469030Y-79954329D01*
X122479520Y-79932150D01*
X122492132Y-79911107D01*
X122506747Y-79891401D01*
X122523223Y-79873223D01*
X122541401Y-79856747D01*
X122561107Y-79842132D01*
X122582150Y-79829520D01*
X122604329Y-79819030D01*
X122627428Y-79810765D01*
X122651227Y-79804804D01*
X122675495Y-79801204D01*
X122699999Y-79800000D01*
X123350001Y-79800000D01*
X123374505Y-79801204D01*
G37*
G04 #@! TD.AperFunction*
D24*
X124460000Y-53340000D03*
X124460000Y-50800000D03*
X124460000Y-48260000D03*
X124460000Y-45720000D03*
D25*
X124460000Y-43180000D03*
D24*
X119380000Y-45720000D03*
X119380000Y-48260000D03*
X119380000Y-50800000D03*
D25*
X119380000Y-53340000D03*
D26*
X129540000Y-30480000D03*
X134620000Y-30480000D03*
D27*
X149860000Y-30480000D03*
D26*
X139700000Y-30480000D03*
X144780000Y-30480000D03*
X171450000Y-30480000D03*
X166370000Y-30480000D03*
D27*
X176530000Y-30480000D03*
D26*
X161290000Y-30480000D03*
X156210000Y-30480000D03*
D17*
X131500000Y-42000000D03*
X134000000Y-42000000D03*
G04 #@! TA.AperFunction,ComponentPad*
D16*
G36*
X137124504Y-41026204D02*
G01*
X137148773Y-41029804D01*
X137172571Y-41035765D01*
X137195671Y-41044030D01*
X137217849Y-41054520D01*
X137238893Y-41067133D01*
X137258598Y-41081747D01*
X137276777Y-41098223D01*
X137293253Y-41116402D01*
X137307867Y-41136107D01*
X137320480Y-41157151D01*
X137330970Y-41179329D01*
X137339235Y-41202429D01*
X137345196Y-41226227D01*
X137348796Y-41250496D01*
X137350000Y-41275000D01*
X137350000Y-42725000D01*
X137348796Y-42749504D01*
X137345196Y-42773773D01*
X137339235Y-42797571D01*
X137330970Y-42820671D01*
X137320480Y-42842849D01*
X137307867Y-42863893D01*
X137293253Y-42883598D01*
X137276777Y-42901777D01*
X137258598Y-42918253D01*
X137238893Y-42932867D01*
X137217849Y-42945480D01*
X137195671Y-42955970D01*
X137172571Y-42964235D01*
X137148773Y-42970196D01*
X137124504Y-42973796D01*
X137100000Y-42975000D01*
X135900000Y-42975000D01*
X135875496Y-42973796D01*
X135851227Y-42970196D01*
X135827429Y-42964235D01*
X135804329Y-42955970D01*
X135782151Y-42945480D01*
X135761107Y-42932867D01*
X135741402Y-42918253D01*
X135723223Y-42901777D01*
X135706747Y-42883598D01*
X135692133Y-42863893D01*
X135679520Y-42842849D01*
X135669030Y-42820671D01*
X135660765Y-42797571D01*
X135654804Y-42773773D01*
X135651204Y-42749504D01*
X135650000Y-42725000D01*
X135650000Y-41275000D01*
X135651204Y-41250496D01*
X135654804Y-41226227D01*
X135660765Y-41202429D01*
X135669030Y-41179329D01*
X135679520Y-41157151D01*
X135692133Y-41136107D01*
X135706747Y-41116402D01*
X135723223Y-41098223D01*
X135741402Y-41081747D01*
X135761107Y-41067133D01*
X135782151Y-41054520D01*
X135804329Y-41044030D01*
X135827429Y-41035765D01*
X135851227Y-41029804D01*
X135875496Y-41026204D01*
X135900000Y-41025000D01*
X137100000Y-41025000D01*
X137124504Y-41026204D01*
G37*
G04 #@! TD.AperFunction*
D17*
X131500000Y-51500000D03*
X134000000Y-51500000D03*
G04 #@! TA.AperFunction,ComponentPad*
D16*
G36*
X137124504Y-50526204D02*
G01*
X137148773Y-50529804D01*
X137172571Y-50535765D01*
X137195671Y-50544030D01*
X137217849Y-50554520D01*
X137238893Y-50567133D01*
X137258598Y-50581747D01*
X137276777Y-50598223D01*
X137293253Y-50616402D01*
X137307867Y-50636107D01*
X137320480Y-50657151D01*
X137330970Y-50679329D01*
X137339235Y-50702429D01*
X137345196Y-50726227D01*
X137348796Y-50750496D01*
X137350000Y-50775000D01*
X137350000Y-52225000D01*
X137348796Y-52249504D01*
X137345196Y-52273773D01*
X137339235Y-52297571D01*
X137330970Y-52320671D01*
X137320480Y-52342849D01*
X137307867Y-52363893D01*
X137293253Y-52383598D01*
X137276777Y-52401777D01*
X137258598Y-52418253D01*
X137238893Y-52432867D01*
X137217849Y-52445480D01*
X137195671Y-52455970D01*
X137172571Y-52464235D01*
X137148773Y-52470196D01*
X137124504Y-52473796D01*
X137100000Y-52475000D01*
X135900000Y-52475000D01*
X135875496Y-52473796D01*
X135851227Y-52470196D01*
X135827429Y-52464235D01*
X135804329Y-52455970D01*
X135782151Y-52445480D01*
X135761107Y-52432867D01*
X135741402Y-52418253D01*
X135723223Y-52401777D01*
X135706747Y-52383598D01*
X135692133Y-52363893D01*
X135679520Y-52342849D01*
X135669030Y-52320671D01*
X135660765Y-52297571D01*
X135654804Y-52273773D01*
X135651204Y-52249504D01*
X135650000Y-52225000D01*
X135650000Y-50775000D01*
X135651204Y-50750496D01*
X135654804Y-50726227D01*
X135660765Y-50702429D01*
X135669030Y-50679329D01*
X135679520Y-50657151D01*
X135692133Y-50636107D01*
X135706747Y-50616402D01*
X135723223Y-50598223D01*
X135741402Y-50581747D01*
X135761107Y-50567133D01*
X135782151Y-50554520D01*
X135804329Y-50544030D01*
X135827429Y-50535765D01*
X135851227Y-50529804D01*
X135875496Y-50526204D01*
X135900000Y-50525000D01*
X137100000Y-50525000D01*
X137124504Y-50526204D01*
G37*
G04 #@! TD.AperFunction*
D17*
X145000000Y-42000000D03*
X147500000Y-42000000D03*
G04 #@! TA.AperFunction,ComponentPad*
D16*
G36*
X150624504Y-41026204D02*
G01*
X150648773Y-41029804D01*
X150672571Y-41035765D01*
X150695671Y-41044030D01*
X150717849Y-41054520D01*
X150738893Y-41067133D01*
X150758598Y-41081747D01*
X150776777Y-41098223D01*
X150793253Y-41116402D01*
X150807867Y-41136107D01*
X150820480Y-41157151D01*
X150830970Y-41179329D01*
X150839235Y-41202429D01*
X150845196Y-41226227D01*
X150848796Y-41250496D01*
X150850000Y-41275000D01*
X150850000Y-42725000D01*
X150848796Y-42749504D01*
X150845196Y-42773773D01*
X150839235Y-42797571D01*
X150830970Y-42820671D01*
X150820480Y-42842849D01*
X150807867Y-42863893D01*
X150793253Y-42883598D01*
X150776777Y-42901777D01*
X150758598Y-42918253D01*
X150738893Y-42932867D01*
X150717849Y-42945480D01*
X150695671Y-42955970D01*
X150672571Y-42964235D01*
X150648773Y-42970196D01*
X150624504Y-42973796D01*
X150600000Y-42975000D01*
X149400000Y-42975000D01*
X149375496Y-42973796D01*
X149351227Y-42970196D01*
X149327429Y-42964235D01*
X149304329Y-42955970D01*
X149282151Y-42945480D01*
X149261107Y-42932867D01*
X149241402Y-42918253D01*
X149223223Y-42901777D01*
X149206747Y-42883598D01*
X149192133Y-42863893D01*
X149179520Y-42842849D01*
X149169030Y-42820671D01*
X149160765Y-42797571D01*
X149154804Y-42773773D01*
X149151204Y-42749504D01*
X149150000Y-42725000D01*
X149150000Y-41275000D01*
X149151204Y-41250496D01*
X149154804Y-41226227D01*
X149160765Y-41202429D01*
X149169030Y-41179329D01*
X149179520Y-41157151D01*
X149192133Y-41136107D01*
X149206747Y-41116402D01*
X149223223Y-41098223D01*
X149241402Y-41081747D01*
X149261107Y-41067133D01*
X149282151Y-41054520D01*
X149304329Y-41044030D01*
X149327429Y-41035765D01*
X149351227Y-41029804D01*
X149375496Y-41026204D01*
X149400000Y-41025000D01*
X150600000Y-41025000D01*
X150624504Y-41026204D01*
G37*
G04 #@! TD.AperFunction*
D17*
X145000000Y-51500000D03*
X147500000Y-51500000D03*
G04 #@! TA.AperFunction,ComponentPad*
D16*
G36*
X150624504Y-50526204D02*
G01*
X150648773Y-50529804D01*
X150672571Y-50535765D01*
X150695671Y-50544030D01*
X150717849Y-50554520D01*
X150738893Y-50567133D01*
X150758598Y-50581747D01*
X150776777Y-50598223D01*
X150793253Y-50616402D01*
X150807867Y-50636107D01*
X150820480Y-50657151D01*
X150830970Y-50679329D01*
X150839235Y-50702429D01*
X150845196Y-50726227D01*
X150848796Y-50750496D01*
X150850000Y-50775000D01*
X150850000Y-52225000D01*
X150848796Y-52249504D01*
X150845196Y-52273773D01*
X150839235Y-52297571D01*
X150830970Y-52320671D01*
X150820480Y-52342849D01*
X150807867Y-52363893D01*
X150793253Y-52383598D01*
X150776777Y-52401777D01*
X150758598Y-52418253D01*
X150738893Y-52432867D01*
X150717849Y-52445480D01*
X150695671Y-52455970D01*
X150672571Y-52464235D01*
X150648773Y-52470196D01*
X150624504Y-52473796D01*
X150600000Y-52475000D01*
X149400000Y-52475000D01*
X149375496Y-52473796D01*
X149351227Y-52470196D01*
X149327429Y-52464235D01*
X149304329Y-52455970D01*
X149282151Y-52445480D01*
X149261107Y-52432867D01*
X149241402Y-52418253D01*
X149223223Y-52401777D01*
X149206747Y-52383598D01*
X149192133Y-52363893D01*
X149179520Y-52342849D01*
X149169030Y-52320671D01*
X149160765Y-52297571D01*
X149154804Y-52273773D01*
X149151204Y-52249504D01*
X149150000Y-52225000D01*
X149150000Y-50775000D01*
X149151204Y-50750496D01*
X149154804Y-50726227D01*
X149160765Y-50702429D01*
X149169030Y-50679329D01*
X149179520Y-50657151D01*
X149192133Y-50636107D01*
X149206747Y-50616402D01*
X149223223Y-50598223D01*
X149241402Y-50581747D01*
X149261107Y-50567133D01*
X149282151Y-50554520D01*
X149304329Y-50544030D01*
X149327429Y-50535765D01*
X149351227Y-50529804D01*
X149375496Y-50526204D01*
X149400000Y-50525000D01*
X150600000Y-50525000D01*
X150624504Y-50526204D01*
G37*
G04 #@! TD.AperFunction*
G04 #@! TA.AperFunction,SMDPad,CuDef*
G36*
X168299505Y-42801204D02*
G01*
X168323773Y-42804804D01*
X168347572Y-42810765D01*
X168370671Y-42819030D01*
X168392850Y-42829520D01*
X168413893Y-42842132D01*
X168433599Y-42856747D01*
X168451777Y-42873223D01*
X168468253Y-42891401D01*
X168482868Y-42911107D01*
X168495480Y-42932150D01*
X168505970Y-42954329D01*
X168514235Y-42977428D01*
X168520196Y-43001227D01*
X168523796Y-43025495D01*
X168525000Y-43049999D01*
X168525000Y-43950001D01*
X168523796Y-43974505D01*
X168520196Y-43998773D01*
X168514235Y-44022572D01*
X168505970Y-44045671D01*
X168495480Y-44067850D01*
X168482868Y-44088893D01*
X168468253Y-44108599D01*
X168451777Y-44126777D01*
X168433599Y-44143253D01*
X168413893Y-44157868D01*
X168392850Y-44170480D01*
X168370671Y-44180970D01*
X168347572Y-44189235D01*
X168323773Y-44195196D01*
X168299505Y-44198796D01*
X168275001Y-44200000D01*
X167624999Y-44200000D01*
X167600495Y-44198796D01*
X167576227Y-44195196D01*
X167552428Y-44189235D01*
X167529329Y-44180970D01*
X167507150Y-44170480D01*
X167486107Y-44157868D01*
X167466401Y-44143253D01*
X167448223Y-44126777D01*
X167431747Y-44108599D01*
X167417132Y-44088893D01*
X167404520Y-44067850D01*
X167394030Y-44045671D01*
X167385765Y-44022572D01*
X167379804Y-43998773D01*
X167376204Y-43974505D01*
X167375000Y-43950001D01*
X167375000Y-43049999D01*
X167376204Y-43025495D01*
X167379804Y-43001227D01*
X167385765Y-42977428D01*
X167394030Y-42954329D01*
X167404520Y-42932150D01*
X167417132Y-42911107D01*
X167431747Y-42891401D01*
X167448223Y-42873223D01*
X167466401Y-42856747D01*
X167486107Y-42842132D01*
X167507150Y-42829520D01*
X167529329Y-42819030D01*
X167552428Y-42810765D01*
X167576227Y-42804804D01*
X167600495Y-42801204D01*
X167624999Y-42800000D01*
X168275001Y-42800000D01*
X168299505Y-42801204D01*
G37*
G04 #@! TD.AperFunction*
G04 #@! TA.AperFunction,SMDPad,CuDef*
G36*
X170349505Y-42801204D02*
G01*
X170373773Y-42804804D01*
X170397572Y-42810765D01*
X170420671Y-42819030D01*
X170442850Y-42829520D01*
X170463893Y-42842132D01*
X170483599Y-42856747D01*
X170501777Y-42873223D01*
X170518253Y-42891401D01*
X170532868Y-42911107D01*
X170545480Y-42932150D01*
X170555970Y-42954329D01*
X170564235Y-42977428D01*
X170570196Y-43001227D01*
X170573796Y-43025495D01*
X170575000Y-43049999D01*
X170575000Y-43950001D01*
X170573796Y-43974505D01*
X170570196Y-43998773D01*
X170564235Y-44022572D01*
X170555970Y-44045671D01*
X170545480Y-44067850D01*
X170532868Y-44088893D01*
X170518253Y-44108599D01*
X170501777Y-44126777D01*
X170483599Y-44143253D01*
X170463893Y-44157868D01*
X170442850Y-44170480D01*
X170420671Y-44180970D01*
X170397572Y-44189235D01*
X170373773Y-44195196D01*
X170349505Y-44198796D01*
X170325001Y-44200000D01*
X169674999Y-44200000D01*
X169650495Y-44198796D01*
X169626227Y-44195196D01*
X169602428Y-44189235D01*
X169579329Y-44180970D01*
X169557150Y-44170480D01*
X169536107Y-44157868D01*
X169516401Y-44143253D01*
X169498223Y-44126777D01*
X169481747Y-44108599D01*
X169467132Y-44088893D01*
X169454520Y-44067850D01*
X169444030Y-44045671D01*
X169435765Y-44022572D01*
X169429804Y-43998773D01*
X169426204Y-43974505D01*
X169425000Y-43950001D01*
X169425000Y-43049999D01*
X169426204Y-43025495D01*
X169429804Y-43001227D01*
X169435765Y-42977428D01*
X169444030Y-42954329D01*
X169454520Y-42932150D01*
X169467132Y-42911107D01*
X169481747Y-42891401D01*
X169498223Y-42873223D01*
X169516401Y-42856747D01*
X169536107Y-42842132D01*
X169557150Y-42829520D01*
X169579329Y-42819030D01*
X169602428Y-42810765D01*
X169626227Y-42804804D01*
X169650495Y-42801204D01*
X169674999Y-42800000D01*
X170325001Y-42800000D01*
X170349505Y-42801204D01*
G37*
G04 #@! TD.AperFunction*
G04 #@! TA.AperFunction,SMDPad,CuDef*
G36*
X170349505Y-48301204D02*
G01*
X170373773Y-48304804D01*
X170397572Y-48310765D01*
X170420671Y-48319030D01*
X170442850Y-48329520D01*
X170463893Y-48342132D01*
X170483599Y-48356747D01*
X170501777Y-48373223D01*
X170518253Y-48391401D01*
X170532868Y-48411107D01*
X170545480Y-48432150D01*
X170555970Y-48454329D01*
X170564235Y-48477428D01*
X170570196Y-48501227D01*
X170573796Y-48525495D01*
X170575000Y-48549999D01*
X170575000Y-49450001D01*
X170573796Y-49474505D01*
X170570196Y-49498773D01*
X170564235Y-49522572D01*
X170555970Y-49545671D01*
X170545480Y-49567850D01*
X170532868Y-49588893D01*
X170518253Y-49608599D01*
X170501777Y-49626777D01*
X170483599Y-49643253D01*
X170463893Y-49657868D01*
X170442850Y-49670480D01*
X170420671Y-49680970D01*
X170397572Y-49689235D01*
X170373773Y-49695196D01*
X170349505Y-49698796D01*
X170325001Y-49700000D01*
X169674999Y-49700000D01*
X169650495Y-49698796D01*
X169626227Y-49695196D01*
X169602428Y-49689235D01*
X169579329Y-49680970D01*
X169557150Y-49670480D01*
X169536107Y-49657868D01*
X169516401Y-49643253D01*
X169498223Y-49626777D01*
X169481747Y-49608599D01*
X169467132Y-49588893D01*
X169454520Y-49567850D01*
X169444030Y-49545671D01*
X169435765Y-49522572D01*
X169429804Y-49498773D01*
X169426204Y-49474505D01*
X169425000Y-49450001D01*
X169425000Y-48549999D01*
X169426204Y-48525495D01*
X169429804Y-48501227D01*
X169435765Y-48477428D01*
X169444030Y-48454329D01*
X169454520Y-48432150D01*
X169467132Y-48411107D01*
X169481747Y-48391401D01*
X169498223Y-48373223D01*
X169516401Y-48356747D01*
X169536107Y-48342132D01*
X169557150Y-48329520D01*
X169579329Y-48319030D01*
X169602428Y-48310765D01*
X169626227Y-48304804D01*
X169650495Y-48301204D01*
X169674999Y-48300000D01*
X170325001Y-48300000D01*
X170349505Y-48301204D01*
G37*
G04 #@! TD.AperFunction*
G04 #@! TA.AperFunction,SMDPad,CuDef*
G36*
X168299505Y-48301204D02*
G01*
X168323773Y-48304804D01*
X168347572Y-48310765D01*
X168370671Y-48319030D01*
X168392850Y-48329520D01*
X168413893Y-48342132D01*
X168433599Y-48356747D01*
X168451777Y-48373223D01*
X168468253Y-48391401D01*
X168482868Y-48411107D01*
X168495480Y-48432150D01*
X168505970Y-48454329D01*
X168514235Y-48477428D01*
X168520196Y-48501227D01*
X168523796Y-48525495D01*
X168525000Y-48549999D01*
X168525000Y-49450001D01*
X168523796Y-49474505D01*
X168520196Y-49498773D01*
X168514235Y-49522572D01*
X168505970Y-49545671D01*
X168495480Y-49567850D01*
X168482868Y-49588893D01*
X168468253Y-49608599D01*
X168451777Y-49626777D01*
X168433599Y-49643253D01*
X168413893Y-49657868D01*
X168392850Y-49670480D01*
X168370671Y-49680970D01*
X168347572Y-49689235D01*
X168323773Y-49695196D01*
X168299505Y-49698796D01*
X168275001Y-49700000D01*
X167624999Y-49700000D01*
X167600495Y-49698796D01*
X167576227Y-49695196D01*
X167552428Y-49689235D01*
X167529329Y-49680970D01*
X167507150Y-49670480D01*
X167486107Y-49657868D01*
X167466401Y-49643253D01*
X167448223Y-49626777D01*
X167431747Y-49608599D01*
X167417132Y-49588893D01*
X167404520Y-49567850D01*
X167394030Y-49545671D01*
X167385765Y-49522572D01*
X167379804Y-49498773D01*
X167376204Y-49474505D01*
X167375000Y-49450001D01*
X167375000Y-48549999D01*
X167376204Y-48525495D01*
X167379804Y-48501227D01*
X167385765Y-48477428D01*
X167394030Y-48454329D01*
X167404520Y-48432150D01*
X167417132Y-48411107D01*
X167431747Y-48391401D01*
X167448223Y-48373223D01*
X167466401Y-48356747D01*
X167486107Y-48342132D01*
X167507150Y-48329520D01*
X167529329Y-48319030D01*
X167552428Y-48310765D01*
X167576227Y-48304804D01*
X167600495Y-48301204D01*
X167624999Y-48300000D01*
X168275001Y-48300000D01*
X168299505Y-48301204D01*
G37*
G04 #@! TD.AperFunction*
G04 #@! TA.AperFunction,SMDPad,CuDef*
G36*
X168234505Y-51371204D02*
G01*
X168258773Y-51374804D01*
X168282572Y-51380765D01*
X168305671Y-51389030D01*
X168327850Y-51399520D01*
X168348893Y-51412132D01*
X168368599Y-51426747D01*
X168386777Y-51443223D01*
X168403253Y-51461401D01*
X168417868Y-51481107D01*
X168430480Y-51502150D01*
X168440970Y-51524329D01*
X168449235Y-51547428D01*
X168455196Y-51571227D01*
X168458796Y-51595495D01*
X168460000Y-51619999D01*
X168460000Y-52520001D01*
X168458796Y-52544505D01*
X168455196Y-52568773D01*
X168449235Y-52592572D01*
X168440970Y-52615671D01*
X168430480Y-52637850D01*
X168417868Y-52658893D01*
X168403253Y-52678599D01*
X168386777Y-52696777D01*
X168368599Y-52713253D01*
X168348893Y-52727868D01*
X168327850Y-52740480D01*
X168305671Y-52750970D01*
X168282572Y-52759235D01*
X168258773Y-52765196D01*
X168234505Y-52768796D01*
X168210001Y-52770000D01*
X167559999Y-52770000D01*
X167535495Y-52768796D01*
X167511227Y-52765196D01*
X167487428Y-52759235D01*
X167464329Y-52750970D01*
X167442150Y-52740480D01*
X167421107Y-52727868D01*
X167401401Y-52713253D01*
X167383223Y-52696777D01*
X167366747Y-52678599D01*
X167352132Y-52658893D01*
X167339520Y-52637850D01*
X167329030Y-52615671D01*
X167320765Y-52592572D01*
X167314804Y-52568773D01*
X167311204Y-52544505D01*
X167310000Y-52520001D01*
X167310000Y-51619999D01*
X167311204Y-51595495D01*
X167314804Y-51571227D01*
X167320765Y-51547428D01*
X167329030Y-51524329D01*
X167339520Y-51502150D01*
X167352132Y-51481107D01*
X167366747Y-51461401D01*
X167383223Y-51443223D01*
X167401401Y-51426747D01*
X167421107Y-51412132D01*
X167442150Y-51399520D01*
X167464329Y-51389030D01*
X167487428Y-51380765D01*
X167511227Y-51374804D01*
X167535495Y-51371204D01*
X167559999Y-51370000D01*
X168210001Y-51370000D01*
X168234505Y-51371204D01*
G37*
G04 #@! TD.AperFunction*
G04 #@! TA.AperFunction,SMDPad,CuDef*
G36*
X170284505Y-51371204D02*
G01*
X170308773Y-51374804D01*
X170332572Y-51380765D01*
X170355671Y-51389030D01*
X170377850Y-51399520D01*
X170398893Y-51412132D01*
X170418599Y-51426747D01*
X170436777Y-51443223D01*
X170453253Y-51461401D01*
X170467868Y-51481107D01*
X170480480Y-51502150D01*
X170490970Y-51524329D01*
X170499235Y-51547428D01*
X170505196Y-51571227D01*
X170508796Y-51595495D01*
X170510000Y-51619999D01*
X170510000Y-52520001D01*
X170508796Y-52544505D01*
X170505196Y-52568773D01*
X170499235Y-52592572D01*
X170490970Y-52615671D01*
X170480480Y-52637850D01*
X170467868Y-52658893D01*
X170453253Y-52678599D01*
X170436777Y-52696777D01*
X170418599Y-52713253D01*
X170398893Y-52727868D01*
X170377850Y-52740480D01*
X170355671Y-52750970D01*
X170332572Y-52759235D01*
X170308773Y-52765196D01*
X170284505Y-52768796D01*
X170260001Y-52770000D01*
X169609999Y-52770000D01*
X169585495Y-52768796D01*
X169561227Y-52765196D01*
X169537428Y-52759235D01*
X169514329Y-52750970D01*
X169492150Y-52740480D01*
X169471107Y-52727868D01*
X169451401Y-52713253D01*
X169433223Y-52696777D01*
X169416747Y-52678599D01*
X169402132Y-52658893D01*
X169389520Y-52637850D01*
X169379030Y-52615671D01*
X169370765Y-52592572D01*
X169364804Y-52568773D01*
X169361204Y-52544505D01*
X169360000Y-52520001D01*
X169360000Y-51619999D01*
X169361204Y-51595495D01*
X169364804Y-51571227D01*
X169370765Y-51547428D01*
X169379030Y-51524329D01*
X169389520Y-51502150D01*
X169402132Y-51481107D01*
X169416747Y-51461401D01*
X169433223Y-51443223D01*
X169451401Y-51426747D01*
X169471107Y-51412132D01*
X169492150Y-51399520D01*
X169514329Y-51389030D01*
X169537428Y-51380765D01*
X169561227Y-51374804D01*
X169585495Y-51371204D01*
X169609999Y-51370000D01*
X170260001Y-51370000D01*
X170284505Y-51371204D01*
G37*
G04 #@! TD.AperFunction*
G04 #@! TA.AperFunction,SMDPad,CuDef*
G36*
X168234505Y-54301204D02*
G01*
X168258773Y-54304804D01*
X168282572Y-54310765D01*
X168305671Y-54319030D01*
X168327850Y-54329520D01*
X168348893Y-54342132D01*
X168368599Y-54356747D01*
X168386777Y-54373223D01*
X168403253Y-54391401D01*
X168417868Y-54411107D01*
X168430480Y-54432150D01*
X168440970Y-54454329D01*
X168449235Y-54477428D01*
X168455196Y-54501227D01*
X168458796Y-54525495D01*
X168460000Y-54549999D01*
X168460000Y-55450001D01*
X168458796Y-55474505D01*
X168455196Y-55498773D01*
X168449235Y-55522572D01*
X168440970Y-55545671D01*
X168430480Y-55567850D01*
X168417868Y-55588893D01*
X168403253Y-55608599D01*
X168386777Y-55626777D01*
X168368599Y-55643253D01*
X168348893Y-55657868D01*
X168327850Y-55670480D01*
X168305671Y-55680970D01*
X168282572Y-55689235D01*
X168258773Y-55695196D01*
X168234505Y-55698796D01*
X168210001Y-55700000D01*
X167559999Y-55700000D01*
X167535495Y-55698796D01*
X167511227Y-55695196D01*
X167487428Y-55689235D01*
X167464329Y-55680970D01*
X167442150Y-55670480D01*
X167421107Y-55657868D01*
X167401401Y-55643253D01*
X167383223Y-55626777D01*
X167366747Y-55608599D01*
X167352132Y-55588893D01*
X167339520Y-55567850D01*
X167329030Y-55545671D01*
X167320765Y-55522572D01*
X167314804Y-55498773D01*
X167311204Y-55474505D01*
X167310000Y-55450001D01*
X167310000Y-54549999D01*
X167311204Y-54525495D01*
X167314804Y-54501227D01*
X167320765Y-54477428D01*
X167329030Y-54454329D01*
X167339520Y-54432150D01*
X167352132Y-54411107D01*
X167366747Y-54391401D01*
X167383223Y-54373223D01*
X167401401Y-54356747D01*
X167421107Y-54342132D01*
X167442150Y-54329520D01*
X167464329Y-54319030D01*
X167487428Y-54310765D01*
X167511227Y-54304804D01*
X167535495Y-54301204D01*
X167559999Y-54300000D01*
X168210001Y-54300000D01*
X168234505Y-54301204D01*
G37*
G04 #@! TD.AperFunction*
G04 #@! TA.AperFunction,SMDPad,CuDef*
G36*
X170284505Y-54301204D02*
G01*
X170308773Y-54304804D01*
X170332572Y-54310765D01*
X170355671Y-54319030D01*
X170377850Y-54329520D01*
X170398893Y-54342132D01*
X170418599Y-54356747D01*
X170436777Y-54373223D01*
X170453253Y-54391401D01*
X170467868Y-54411107D01*
X170480480Y-54432150D01*
X170490970Y-54454329D01*
X170499235Y-54477428D01*
X170505196Y-54501227D01*
X170508796Y-54525495D01*
X170510000Y-54549999D01*
X170510000Y-55450001D01*
X170508796Y-55474505D01*
X170505196Y-55498773D01*
X170499235Y-55522572D01*
X170490970Y-55545671D01*
X170480480Y-55567850D01*
X170467868Y-55588893D01*
X170453253Y-55608599D01*
X170436777Y-55626777D01*
X170418599Y-55643253D01*
X170398893Y-55657868D01*
X170377850Y-55670480D01*
X170355671Y-55680970D01*
X170332572Y-55689235D01*
X170308773Y-55695196D01*
X170284505Y-55698796D01*
X170260001Y-55700000D01*
X169609999Y-55700000D01*
X169585495Y-55698796D01*
X169561227Y-55695196D01*
X169537428Y-55689235D01*
X169514329Y-55680970D01*
X169492150Y-55670480D01*
X169471107Y-55657868D01*
X169451401Y-55643253D01*
X169433223Y-55626777D01*
X169416747Y-55608599D01*
X169402132Y-55588893D01*
X169389520Y-55567850D01*
X169379030Y-55545671D01*
X169370765Y-55522572D01*
X169364804Y-55498773D01*
X169361204Y-55474505D01*
X169360000Y-55450001D01*
X169360000Y-54549999D01*
X169361204Y-54525495D01*
X169364804Y-54501227D01*
X169370765Y-54477428D01*
X169379030Y-54454329D01*
X169389520Y-54432150D01*
X169402132Y-54411107D01*
X169416747Y-54391401D01*
X169433223Y-54373223D01*
X169451401Y-54356747D01*
X169471107Y-54342132D01*
X169492150Y-54329520D01*
X169514329Y-54319030D01*
X169537428Y-54310765D01*
X169561227Y-54304804D01*
X169585495Y-54301204D01*
X169609999Y-54300000D01*
X170260001Y-54300000D01*
X170284505Y-54301204D01*
G37*
G04 #@! TD.AperFunction*
G04 #@! TA.AperFunction,SMDPad,CuDef*
G36*
X180824504Y-50701204D02*
G01*
X180848773Y-50704804D01*
X180872571Y-50710765D01*
X180895671Y-50719030D01*
X180917849Y-50729520D01*
X180938893Y-50742133D01*
X180958598Y-50756747D01*
X180976777Y-50773223D01*
X180993253Y-50791402D01*
X181007867Y-50811107D01*
X181020480Y-50832151D01*
X181030970Y-50854329D01*
X181039235Y-50877429D01*
X181045196Y-50901227D01*
X181048796Y-50925496D01*
X181050000Y-50950000D01*
X181050000Y-52050000D01*
X181048796Y-52074504D01*
X181045196Y-52098773D01*
X181039235Y-52122571D01*
X181030970Y-52145671D01*
X181020480Y-52167849D01*
X181007867Y-52188893D01*
X180993253Y-52208598D01*
X180976777Y-52226777D01*
X180958598Y-52243253D01*
X180938893Y-52257867D01*
X180917849Y-52270480D01*
X180895671Y-52280970D01*
X180872571Y-52289235D01*
X180848773Y-52295196D01*
X180824504Y-52298796D01*
X180800000Y-52300000D01*
X177800000Y-52300000D01*
X177775496Y-52298796D01*
X177751227Y-52295196D01*
X177727429Y-52289235D01*
X177704329Y-52280970D01*
X177682151Y-52270480D01*
X177661107Y-52257867D01*
X177641402Y-52243253D01*
X177623223Y-52226777D01*
X177606747Y-52208598D01*
X177592133Y-52188893D01*
X177579520Y-52167849D01*
X177569030Y-52145671D01*
X177560765Y-52122571D01*
X177554804Y-52098773D01*
X177551204Y-52074504D01*
X177550000Y-52050000D01*
X177550000Y-50950000D01*
X177551204Y-50925496D01*
X177554804Y-50901227D01*
X177560765Y-50877429D01*
X177569030Y-50854329D01*
X177579520Y-50832151D01*
X177592133Y-50811107D01*
X177606747Y-50791402D01*
X177623223Y-50773223D01*
X177641402Y-50756747D01*
X177661107Y-50742133D01*
X177682151Y-50729520D01*
X177704329Y-50719030D01*
X177727429Y-50710765D01*
X177751227Y-50704804D01*
X177775496Y-50701204D01*
X177800000Y-50700000D01*
X180800000Y-50700000D01*
X180824504Y-50701204D01*
G37*
G04 #@! TD.AperFunction*
G04 #@! TA.AperFunction,SMDPad,CuDef*
G36*
X186224504Y-50701204D02*
G01*
X186248773Y-50704804D01*
X186272571Y-50710765D01*
X186295671Y-50719030D01*
X186317849Y-50729520D01*
X186338893Y-50742133D01*
X186358598Y-50756747D01*
X186376777Y-50773223D01*
X186393253Y-50791402D01*
X186407867Y-50811107D01*
X186420480Y-50832151D01*
X186430970Y-50854329D01*
X186439235Y-50877429D01*
X186445196Y-50901227D01*
X186448796Y-50925496D01*
X186450000Y-50950000D01*
X186450000Y-52050000D01*
X186448796Y-52074504D01*
X186445196Y-52098773D01*
X186439235Y-52122571D01*
X186430970Y-52145671D01*
X186420480Y-52167849D01*
X186407867Y-52188893D01*
X186393253Y-52208598D01*
X186376777Y-52226777D01*
X186358598Y-52243253D01*
X186338893Y-52257867D01*
X186317849Y-52270480D01*
X186295671Y-52280970D01*
X186272571Y-52289235D01*
X186248773Y-52295196D01*
X186224504Y-52298796D01*
X186200000Y-52300000D01*
X183200000Y-52300000D01*
X183175496Y-52298796D01*
X183151227Y-52295196D01*
X183127429Y-52289235D01*
X183104329Y-52280970D01*
X183082151Y-52270480D01*
X183061107Y-52257867D01*
X183041402Y-52243253D01*
X183023223Y-52226777D01*
X183006747Y-52208598D01*
X182992133Y-52188893D01*
X182979520Y-52167849D01*
X182969030Y-52145671D01*
X182960765Y-52122571D01*
X182954804Y-52098773D01*
X182951204Y-52074504D01*
X182950000Y-52050000D01*
X182950000Y-50950000D01*
X182951204Y-50925496D01*
X182954804Y-50901227D01*
X182960765Y-50877429D01*
X182969030Y-50854329D01*
X182979520Y-50832151D01*
X182992133Y-50811107D01*
X183006747Y-50791402D01*
X183023223Y-50773223D01*
X183041402Y-50756747D01*
X183061107Y-50742133D01*
X183082151Y-50729520D01*
X183104329Y-50719030D01*
X183127429Y-50710765D01*
X183151227Y-50704804D01*
X183175496Y-50701204D01*
X183200000Y-50700000D01*
X186200000Y-50700000D01*
X186224504Y-50701204D01*
G37*
G04 #@! TD.AperFunction*
G04 #@! TA.AperFunction,SMDPad,CuDef*
G36*
X180434504Y-67701204D02*
G01*
X180458773Y-67704804D01*
X180482571Y-67710765D01*
X180505671Y-67719030D01*
X180527849Y-67729520D01*
X180548893Y-67742133D01*
X180568598Y-67756747D01*
X180586777Y-67773223D01*
X180603253Y-67791402D01*
X180617867Y-67811107D01*
X180630480Y-67832151D01*
X180640970Y-67854329D01*
X180649235Y-67877429D01*
X180655196Y-67901227D01*
X180658796Y-67925496D01*
X180660000Y-67950000D01*
X180660000Y-69050000D01*
X180658796Y-69074504D01*
X180655196Y-69098773D01*
X180649235Y-69122571D01*
X180640970Y-69145671D01*
X180630480Y-69167849D01*
X180617867Y-69188893D01*
X180603253Y-69208598D01*
X180586777Y-69226777D01*
X180568598Y-69243253D01*
X180548893Y-69257867D01*
X180527849Y-69270480D01*
X180505671Y-69280970D01*
X180482571Y-69289235D01*
X180458773Y-69295196D01*
X180434504Y-69298796D01*
X180410000Y-69300000D01*
X177410000Y-69300000D01*
X177385496Y-69298796D01*
X177361227Y-69295196D01*
X177337429Y-69289235D01*
X177314329Y-69280970D01*
X177292151Y-69270480D01*
X177271107Y-69257867D01*
X177251402Y-69243253D01*
X177233223Y-69226777D01*
X177216747Y-69208598D01*
X177202133Y-69188893D01*
X177189520Y-69167849D01*
X177179030Y-69145671D01*
X177170765Y-69122571D01*
X177164804Y-69098773D01*
X177161204Y-69074504D01*
X177160000Y-69050000D01*
X177160000Y-67950000D01*
X177161204Y-67925496D01*
X177164804Y-67901227D01*
X177170765Y-67877429D01*
X177179030Y-67854329D01*
X177189520Y-67832151D01*
X177202133Y-67811107D01*
X177216747Y-67791402D01*
X177233223Y-67773223D01*
X177251402Y-67756747D01*
X177271107Y-67742133D01*
X177292151Y-67729520D01*
X177314329Y-67719030D01*
X177337429Y-67710765D01*
X177361227Y-67704804D01*
X177385496Y-67701204D01*
X177410000Y-67700000D01*
X180410000Y-67700000D01*
X180434504Y-67701204D01*
G37*
G04 #@! TD.AperFunction*
G04 #@! TA.AperFunction,SMDPad,CuDef*
G36*
X185834504Y-67701204D02*
G01*
X185858773Y-67704804D01*
X185882571Y-67710765D01*
X185905671Y-67719030D01*
X185927849Y-67729520D01*
X185948893Y-67742133D01*
X185968598Y-67756747D01*
X185986777Y-67773223D01*
X186003253Y-67791402D01*
X186017867Y-67811107D01*
X186030480Y-67832151D01*
X186040970Y-67854329D01*
X186049235Y-67877429D01*
X186055196Y-67901227D01*
X186058796Y-67925496D01*
X186060000Y-67950000D01*
X186060000Y-69050000D01*
X186058796Y-69074504D01*
X186055196Y-69098773D01*
X186049235Y-69122571D01*
X186040970Y-69145671D01*
X186030480Y-69167849D01*
X186017867Y-69188893D01*
X186003253Y-69208598D01*
X185986777Y-69226777D01*
X185968598Y-69243253D01*
X185948893Y-69257867D01*
X185927849Y-69270480D01*
X185905671Y-69280970D01*
X185882571Y-69289235D01*
X185858773Y-69295196D01*
X185834504Y-69298796D01*
X185810000Y-69300000D01*
X182810000Y-69300000D01*
X182785496Y-69298796D01*
X182761227Y-69295196D01*
X182737429Y-69289235D01*
X182714329Y-69280970D01*
X182692151Y-69270480D01*
X182671107Y-69257867D01*
X182651402Y-69243253D01*
X182633223Y-69226777D01*
X182616747Y-69208598D01*
X182602133Y-69188893D01*
X182589520Y-69167849D01*
X182579030Y-69145671D01*
X182570765Y-69122571D01*
X182564804Y-69098773D01*
X182561204Y-69074504D01*
X182560000Y-69050000D01*
X182560000Y-67950000D01*
X182561204Y-67925496D01*
X182564804Y-67901227D01*
X182570765Y-67877429D01*
X182579030Y-67854329D01*
X182589520Y-67832151D01*
X182602133Y-67811107D01*
X182616747Y-67791402D01*
X182633223Y-67773223D01*
X182651402Y-67756747D01*
X182671107Y-67742133D01*
X182692151Y-67729520D01*
X182714329Y-67719030D01*
X182737429Y-67710765D01*
X182761227Y-67704804D01*
X182785496Y-67701204D01*
X182810000Y-67700000D01*
X185810000Y-67700000D01*
X185834504Y-67701204D01*
G37*
G04 #@! TD.AperFunction*
G04 #@! TA.AperFunction,SMDPad,CuDef*
G36*
X143859505Y-77001204D02*
G01*
X143883773Y-77004804D01*
X143907572Y-77010765D01*
X143930671Y-77019030D01*
X143952850Y-77029520D01*
X143973893Y-77042132D01*
X143993599Y-77056747D01*
X144011777Y-77073223D01*
X144028253Y-77091401D01*
X144042868Y-77111107D01*
X144055480Y-77132150D01*
X144065970Y-77154329D01*
X144074235Y-77177428D01*
X144080196Y-77201227D01*
X144083796Y-77225495D01*
X144085000Y-77249999D01*
X144085000Y-78150001D01*
X144083796Y-78174505D01*
X144080196Y-78198773D01*
X144074235Y-78222572D01*
X144065970Y-78245671D01*
X144055480Y-78267850D01*
X144042868Y-78288893D01*
X144028253Y-78308599D01*
X144011777Y-78326777D01*
X143993599Y-78343253D01*
X143973893Y-78357868D01*
X143952850Y-78370480D01*
X143930671Y-78380970D01*
X143907572Y-78389235D01*
X143883773Y-78395196D01*
X143859505Y-78398796D01*
X143835001Y-78400000D01*
X143184999Y-78400000D01*
X143160495Y-78398796D01*
X143136227Y-78395196D01*
X143112428Y-78389235D01*
X143089329Y-78380970D01*
X143067150Y-78370480D01*
X143046107Y-78357868D01*
X143026401Y-78343253D01*
X143008223Y-78326777D01*
X142991747Y-78308599D01*
X142977132Y-78288893D01*
X142964520Y-78267850D01*
X142954030Y-78245671D01*
X142945765Y-78222572D01*
X142939804Y-78198773D01*
X142936204Y-78174505D01*
X142935000Y-78150001D01*
X142935000Y-77249999D01*
X142936204Y-77225495D01*
X142939804Y-77201227D01*
X142945765Y-77177428D01*
X142954030Y-77154329D01*
X142964520Y-77132150D01*
X142977132Y-77111107D01*
X142991747Y-77091401D01*
X143008223Y-77073223D01*
X143026401Y-77056747D01*
X143046107Y-77042132D01*
X143067150Y-77029520D01*
X143089329Y-77019030D01*
X143112428Y-77010765D01*
X143136227Y-77004804D01*
X143160495Y-77001204D01*
X143184999Y-77000000D01*
X143835001Y-77000000D01*
X143859505Y-77001204D01*
G37*
G04 #@! TD.AperFunction*
G04 #@! TA.AperFunction,SMDPad,CuDef*
G36*
X141809505Y-77001204D02*
G01*
X141833773Y-77004804D01*
X141857572Y-77010765D01*
X141880671Y-77019030D01*
X141902850Y-77029520D01*
X141923893Y-77042132D01*
X141943599Y-77056747D01*
X141961777Y-77073223D01*
X141978253Y-77091401D01*
X141992868Y-77111107D01*
X142005480Y-77132150D01*
X142015970Y-77154329D01*
X142024235Y-77177428D01*
X142030196Y-77201227D01*
X142033796Y-77225495D01*
X142035000Y-77249999D01*
X142035000Y-78150001D01*
X142033796Y-78174505D01*
X142030196Y-78198773D01*
X142024235Y-78222572D01*
X142015970Y-78245671D01*
X142005480Y-78267850D01*
X141992868Y-78288893D01*
X141978253Y-78308599D01*
X141961777Y-78326777D01*
X141943599Y-78343253D01*
X141923893Y-78357868D01*
X141902850Y-78370480D01*
X141880671Y-78380970D01*
X141857572Y-78389235D01*
X141833773Y-78395196D01*
X141809505Y-78398796D01*
X141785001Y-78400000D01*
X141134999Y-78400000D01*
X141110495Y-78398796D01*
X141086227Y-78395196D01*
X141062428Y-78389235D01*
X141039329Y-78380970D01*
X141017150Y-78370480D01*
X140996107Y-78357868D01*
X140976401Y-78343253D01*
X140958223Y-78326777D01*
X140941747Y-78308599D01*
X140927132Y-78288893D01*
X140914520Y-78267850D01*
X140904030Y-78245671D01*
X140895765Y-78222572D01*
X140889804Y-78198773D01*
X140886204Y-78174505D01*
X140885000Y-78150001D01*
X140885000Y-77249999D01*
X140886204Y-77225495D01*
X140889804Y-77201227D01*
X140895765Y-77177428D01*
X140904030Y-77154329D01*
X140914520Y-77132150D01*
X140927132Y-77111107D01*
X140941747Y-77091401D01*
X140958223Y-77073223D01*
X140976401Y-77056747D01*
X140996107Y-77042132D01*
X141017150Y-77029520D01*
X141039329Y-77019030D01*
X141062428Y-77010765D01*
X141086227Y-77004804D01*
X141110495Y-77001204D01*
X141134999Y-77000000D01*
X141785001Y-77000000D01*
X141809505Y-77001204D01*
G37*
G04 #@! TD.AperFunction*
G04 #@! TA.AperFunction,SMDPad,CuDef*
G36*
X132674505Y-77001204D02*
G01*
X132698773Y-77004804D01*
X132722572Y-77010765D01*
X132745671Y-77019030D01*
X132767850Y-77029520D01*
X132788893Y-77042132D01*
X132808599Y-77056747D01*
X132826777Y-77073223D01*
X132843253Y-77091401D01*
X132857868Y-77111107D01*
X132870480Y-77132150D01*
X132880970Y-77154329D01*
X132889235Y-77177428D01*
X132895196Y-77201227D01*
X132898796Y-77225495D01*
X132900000Y-77249999D01*
X132900000Y-78150001D01*
X132898796Y-78174505D01*
X132895196Y-78198773D01*
X132889235Y-78222572D01*
X132880970Y-78245671D01*
X132870480Y-78267850D01*
X132857868Y-78288893D01*
X132843253Y-78308599D01*
X132826777Y-78326777D01*
X132808599Y-78343253D01*
X132788893Y-78357868D01*
X132767850Y-78370480D01*
X132745671Y-78380970D01*
X132722572Y-78389235D01*
X132698773Y-78395196D01*
X132674505Y-78398796D01*
X132650001Y-78400000D01*
X131999999Y-78400000D01*
X131975495Y-78398796D01*
X131951227Y-78395196D01*
X131927428Y-78389235D01*
X131904329Y-78380970D01*
X131882150Y-78370480D01*
X131861107Y-78357868D01*
X131841401Y-78343253D01*
X131823223Y-78326777D01*
X131806747Y-78308599D01*
X131792132Y-78288893D01*
X131779520Y-78267850D01*
X131769030Y-78245671D01*
X131760765Y-78222572D01*
X131754804Y-78198773D01*
X131751204Y-78174505D01*
X131750000Y-78150001D01*
X131750000Y-77249999D01*
X131751204Y-77225495D01*
X131754804Y-77201227D01*
X131760765Y-77177428D01*
X131769030Y-77154329D01*
X131779520Y-77132150D01*
X131792132Y-77111107D01*
X131806747Y-77091401D01*
X131823223Y-77073223D01*
X131841401Y-77056747D01*
X131861107Y-77042132D01*
X131882150Y-77029520D01*
X131904329Y-77019030D01*
X131927428Y-77010765D01*
X131951227Y-77004804D01*
X131975495Y-77001204D01*
X131999999Y-77000000D01*
X132650001Y-77000000D01*
X132674505Y-77001204D01*
G37*
G04 #@! TD.AperFunction*
G04 #@! TA.AperFunction,SMDPad,CuDef*
G36*
X134724505Y-77001204D02*
G01*
X134748773Y-77004804D01*
X134772572Y-77010765D01*
X134795671Y-77019030D01*
X134817850Y-77029520D01*
X134838893Y-77042132D01*
X134858599Y-77056747D01*
X134876777Y-77073223D01*
X134893253Y-77091401D01*
X134907868Y-77111107D01*
X134920480Y-77132150D01*
X134930970Y-77154329D01*
X134939235Y-77177428D01*
X134945196Y-77201227D01*
X134948796Y-77225495D01*
X134950000Y-77249999D01*
X134950000Y-78150001D01*
X134948796Y-78174505D01*
X134945196Y-78198773D01*
X134939235Y-78222572D01*
X134930970Y-78245671D01*
X134920480Y-78267850D01*
X134907868Y-78288893D01*
X134893253Y-78308599D01*
X134876777Y-78326777D01*
X134858599Y-78343253D01*
X134838893Y-78357868D01*
X134817850Y-78370480D01*
X134795671Y-78380970D01*
X134772572Y-78389235D01*
X134748773Y-78395196D01*
X134724505Y-78398796D01*
X134700001Y-78400000D01*
X134049999Y-78400000D01*
X134025495Y-78398796D01*
X134001227Y-78395196D01*
X133977428Y-78389235D01*
X133954329Y-78380970D01*
X133932150Y-78370480D01*
X133911107Y-78357868D01*
X133891401Y-78343253D01*
X133873223Y-78326777D01*
X133856747Y-78308599D01*
X133842132Y-78288893D01*
X133829520Y-78267850D01*
X133819030Y-78245671D01*
X133810765Y-78222572D01*
X133804804Y-78198773D01*
X133801204Y-78174505D01*
X133800000Y-78150001D01*
X133800000Y-77249999D01*
X133801204Y-77225495D01*
X133804804Y-77201227D01*
X133810765Y-77177428D01*
X133819030Y-77154329D01*
X133829520Y-77132150D01*
X133842132Y-77111107D01*
X133856747Y-77091401D01*
X133873223Y-77073223D01*
X133891401Y-77056747D01*
X133911107Y-77042132D01*
X133932150Y-77029520D01*
X133954329Y-77019030D01*
X133977428Y-77010765D01*
X134001227Y-77004804D01*
X134025495Y-77001204D01*
X134049999Y-77000000D01*
X134700001Y-77000000D01*
X134724505Y-77001204D01*
G37*
G04 #@! TD.AperFunction*
D28*
X151000000Y-71500000D03*
X165000000Y-71500000D03*
D29*
X132325000Y-77700000D02*
X132325000Y-72730000D01*
X132435000Y-70200000D02*
X133635000Y-69000000D01*
X132435000Y-72500000D02*
X132435000Y-70200000D01*
X139700000Y-67490000D02*
X139700000Y-66040000D01*
X138190000Y-69000000D02*
X139700000Y-67490000D01*
X133635000Y-69000000D02*
X138190000Y-69000000D01*
D30*
X184315000Y-79720000D02*
X150965000Y-79720000D01*
X124250000Y-70025000D02*
X124250000Y-77975000D01*
X125150000Y-77975000D02*
X124250000Y-77975000D01*
X141460000Y-78400000D02*
X141460000Y-77700000D01*
X142780000Y-79720000D02*
X141460000Y-78400000D01*
X150965000Y-79720000D02*
X142780000Y-79720000D01*
X125150000Y-77975000D02*
X126675000Y-79500000D01*
X133275000Y-79500000D02*
X134375000Y-78400000D01*
X134375000Y-78400000D02*
X134375000Y-77700000D01*
X126675000Y-79500000D02*
X133275000Y-79500000D01*
X141460000Y-77700000D02*
X134375000Y-77700000D01*
X184310000Y-68500000D02*
X186500000Y-70690000D01*
X185340000Y-79720000D02*
X184315000Y-79720000D01*
X186500000Y-78560000D02*
X185340000Y-79720000D01*
X186500000Y-70690000D02*
X186500000Y-78560000D01*
X184700000Y-50700000D02*
X184700000Y-51500000D01*
X184700000Y-43130000D02*
X184700000Y-50700000D01*
X183480000Y-41910000D02*
X184700000Y-43130000D01*
X182330000Y-41910000D02*
X183480000Y-41910000D01*
X184700000Y-55900000D02*
X180600000Y-60000000D01*
X184700000Y-51500000D02*
X184700000Y-55900000D01*
X184310000Y-67700000D02*
X184310000Y-68500000D01*
X184310000Y-63710000D02*
X184310000Y-67700000D01*
X180600000Y-60000000D02*
X184310000Y-63710000D01*
X179350000Y-60000000D02*
X180600000Y-60000000D01*
X167400000Y-41000000D02*
X165900000Y-39500000D01*
X167975000Y-41000000D02*
X167400000Y-41000000D01*
X158750000Y-40750000D02*
X158750000Y-42000000D01*
X160000000Y-39500000D02*
X158750000Y-40750000D01*
X165900000Y-39500000D02*
X160000000Y-39500000D01*
D29*
X143510000Y-72500000D02*
X143510000Y-70010000D01*
X142240000Y-68740000D02*
X142240000Y-66040000D01*
X143510000Y-70010000D02*
X142240000Y-68740000D01*
X143510000Y-77000000D02*
X143510000Y-72500000D01*
X143510000Y-77700000D02*
X143510000Y-77000000D01*
D30*
X178910000Y-62740000D02*
X179350000Y-62300000D01*
X178910000Y-68500000D02*
X178910000Y-62740000D01*
D31*
X175380000Y-41910000D02*
X169470000Y-36000000D01*
X169470000Y-36000000D02*
X153630000Y-36000000D01*
X149860000Y-32230000D02*
X149860000Y-30480000D01*
X153630000Y-36000000D02*
X149860000Y-32230000D01*
X176530000Y-41910000D02*
X175380000Y-41910000D01*
X148110000Y-30480000D02*
X129540000Y-30480000D01*
X149860000Y-30480000D02*
X148110000Y-30480000D01*
X176530000Y-48730000D02*
X179300000Y-51500000D01*
X176530000Y-41910000D02*
X176530000Y-48730000D01*
X179300000Y-57650000D02*
X179350000Y-57700000D01*
X179300000Y-51500000D02*
X179300000Y-57650000D01*
D29*
X167950000Y-54935000D02*
X167885000Y-55000000D01*
X167950000Y-49000000D02*
X167950000Y-54935000D01*
X167885000Y-55700000D02*
X163085000Y-60500000D01*
X167885000Y-55000000D02*
X167885000Y-55700000D01*
X129540000Y-64590000D02*
X129540000Y-66040000D01*
X133630000Y-60500000D02*
X129540000Y-64590000D01*
X163085000Y-60500000D02*
X133630000Y-60500000D01*
X158915000Y-75220000D02*
X150965000Y-75220000D01*
X150965000Y-74320000D02*
X151000000Y-74285000D01*
X150965000Y-75220000D02*
X150965000Y-74320000D01*
X151000000Y-74285000D02*
X151000000Y-71500000D01*
X151000000Y-71500000D02*
X151000000Y-71500000D01*
X169935000Y-55700000D02*
X172500000Y-58265000D01*
X169935000Y-55000000D02*
X169935000Y-55700000D01*
X172500000Y-58265000D02*
X172500000Y-68000000D01*
X158915000Y-74320000D02*
X158915000Y-75220000D01*
X165235000Y-68000000D02*
X158915000Y-74320000D01*
X172500000Y-68000000D02*
X165235000Y-68000000D01*
X151000000Y-71500000D02*
X151000000Y-71500000D01*
X171615000Y-74320000D02*
X173500000Y-72435000D01*
X171615000Y-75220000D02*
X171615000Y-74320000D01*
X170510000Y-52070000D02*
X169935000Y-52070000D01*
X173500000Y-55060000D02*
X170510000Y-52070000D01*
X173500000Y-72435000D02*
X173500000Y-55060000D01*
X170590000Y-75220000D02*
X163665000Y-75220000D01*
X171615000Y-75220000D02*
X170590000Y-75220000D01*
X163665000Y-74320000D02*
X165000000Y-72985000D01*
X163665000Y-75220000D02*
X163665000Y-74320000D01*
X165000000Y-72985000D02*
X165000000Y-71500000D01*
X165000000Y-71500000D02*
X165000000Y-71500000D01*
X184315000Y-75220000D02*
X176365000Y-75220000D01*
X176365000Y-74320000D02*
X175000000Y-72955000D01*
X176365000Y-75220000D02*
X176365000Y-74320000D01*
X170575000Y-49000000D02*
X170000000Y-49000000D01*
X175000000Y-53425000D02*
X170575000Y-49000000D01*
X175000000Y-72955000D02*
X175000000Y-53425000D01*
X144780000Y-56970000D02*
X146000000Y-55750000D01*
X144780000Y-58420000D02*
X144780000Y-56970000D01*
X146000000Y-55750000D02*
X146000000Y-55750000D01*
X146685001Y-55064999D02*
X149935001Y-55064999D01*
X146000000Y-55750000D02*
X146685001Y-55064999D01*
X149935001Y-55064999D02*
X157500000Y-47500000D01*
X170000000Y-48300000D02*
X170000000Y-49000000D01*
X169200000Y-47500000D02*
X170000000Y-48300000D01*
X157500000Y-47500000D02*
X169200000Y-47500000D01*
X167950000Y-44800000D02*
X167950000Y-43500000D01*
X149500000Y-54500000D02*
X157250000Y-46750000D01*
X142240000Y-58420000D02*
X142240000Y-58020000D01*
X166000000Y-46750000D02*
X167950000Y-44800000D01*
X145760000Y-54500000D02*
X149500000Y-54500000D01*
X142240000Y-58020000D02*
X145760000Y-54500000D01*
X157250000Y-46750000D02*
X166000000Y-46750000D01*
X170025000Y-43475000D02*
X170000000Y-43500000D01*
X170025000Y-41000000D02*
X170025000Y-43475000D01*
X152400000Y-64590000D02*
X152400000Y-66040000D01*
X153490000Y-63500000D02*
X152400000Y-64590000D01*
X160180000Y-63500000D02*
X153490000Y-63500000D01*
X149860000Y-64590000D02*
X149860000Y-66040000D01*
X152250010Y-62199990D02*
X149860000Y-64590000D01*
X162680000Y-62275000D02*
X162604990Y-62199990D01*
D32*
X162604990Y-62199990D02*
X152250010Y-62199990D01*
D29*
X162680000Y-63500000D02*
X162680000Y-62275000D01*
X165180000Y-64725000D02*
X161405000Y-68500000D01*
X165180000Y-63500000D02*
X165180000Y-64725000D01*
X147320000Y-67490000D02*
X147320000Y-66040000D01*
X148330000Y-68500000D02*
X147320000Y-67490000D01*
X161405000Y-68500000D02*
X148330000Y-68500000D01*
X167680000Y-64725000D02*
X162905000Y-69500000D01*
X167680000Y-63500000D02*
X167680000Y-64725000D01*
X144780000Y-67490000D02*
X144780000Y-66040000D01*
X146790000Y-69500000D02*
X144780000Y-67490000D01*
X162905000Y-69500000D02*
X146790000Y-69500000D01*
X170180000Y-62525000D02*
X169155000Y-61500000D01*
X170180000Y-63500000D02*
X170180000Y-62525000D01*
X135170000Y-61500000D02*
X132080000Y-64590000D01*
X132080000Y-64590000D02*
X132080000Y-66040000D01*
X169155000Y-61500000D02*
X135170000Y-61500000D01*
X134000000Y-51625000D02*
X131125000Y-54500000D01*
X134000000Y-51500000D02*
X134000000Y-51625000D01*
X129470000Y-54500000D02*
X127000000Y-56970000D01*
X127000000Y-56970000D02*
X127000000Y-58420000D01*
X131125000Y-54500000D02*
X129470000Y-54500000D01*
X134000000Y-45539002D02*
X127000000Y-52539002D01*
X134000000Y-42000000D02*
X134000000Y-45539002D01*
X127000000Y-52539002D02*
X127000000Y-54500000D01*
X124460000Y-56970000D02*
X124460000Y-58420000D01*
X126930000Y-54500000D02*
X124460000Y-56970000D01*
X127000000Y-54500000D02*
X126930000Y-54500000D01*
X161250000Y-52500000D02*
X161250000Y-51500000D01*
X155330000Y-58420000D02*
X161250000Y-52500000D01*
X152400000Y-58420000D02*
X155330000Y-58420000D01*
X121875000Y-34330000D02*
X126000000Y-38455000D01*
X120650000Y-34330000D02*
X121875000Y-34330000D01*
X126000000Y-46720000D02*
X124460000Y-48260000D01*
X126000000Y-38455000D02*
X126000000Y-46720000D01*
X121920000Y-50800000D02*
X121920000Y-58420000D01*
X124460000Y-48260000D02*
X121920000Y-50800000D01*
X120650000Y-41910000D02*
X124460000Y-45720000D01*
X120650000Y-36830000D02*
X120650000Y-41910000D01*
X124460000Y-45720000D02*
X121000000Y-49180000D01*
X121000000Y-55350000D02*
X119380000Y-56970000D01*
X119380000Y-56970000D02*
X119380000Y-58420000D01*
X121000000Y-49180000D02*
X121000000Y-55350000D01*
X118280000Y-53340000D02*
X117500000Y-54120000D01*
X119380000Y-53340000D02*
X118280000Y-53340000D01*
X121920000Y-64590000D02*
X121920000Y-66040000D01*
X117500000Y-60170000D02*
X121920000Y-64590000D01*
X117500000Y-54120000D02*
X117500000Y-60170000D01*
X119380000Y-69655000D02*
X119750000Y-70025000D01*
X119380000Y-66040000D02*
X119380000Y-69655000D01*
X119750000Y-70025000D02*
X119750000Y-77975000D01*
X119750000Y-79000000D02*
X119750000Y-77975000D01*
X119750000Y-79850000D02*
X119750000Y-79000000D01*
X120400000Y-80500000D02*
X119750000Y-79850000D01*
X120975000Y-80500000D02*
X120400000Y-80500000D01*
D33*
G36*
X188373000Y-28552606D02*
G01*
X188373000Y-79447394D01*
X185447394Y-82373000D01*
X139567378Y-82373000D01*
X139642012Y-82261302D01*
X139802953Y-81872756D01*
X139885000Y-81460279D01*
X139885000Y-81039721D01*
X139802953Y-80627244D01*
X139642012Y-80238698D01*
X139408363Y-79889017D01*
X139110983Y-79591637D01*
X138761302Y-79357988D01*
X138372756Y-79197047D01*
X137960279Y-79115000D01*
X137539721Y-79115000D01*
X137127244Y-79197047D01*
X136738698Y-79357988D01*
X136389017Y-79591637D01*
X136091637Y-79889017D01*
X135857988Y-80238698D01*
X135697047Y-80627244D01*
X135615000Y-81039721D01*
X135615000Y-81460279D01*
X135697047Y-81872756D01*
X135857988Y-82261302D01*
X135932622Y-82373000D01*
X119552606Y-82373000D01*
X116627000Y-79447394D01*
X116627000Y-54120000D01*
X116711203Y-54120000D01*
X116715000Y-54158553D01*
X116715001Y-60131437D01*
X116711203Y-60170000D01*
X116726359Y-60323886D01*
X116771246Y-60471859D01*
X116771247Y-60471860D01*
X116844139Y-60608233D01*
X116853335Y-60619438D01*
X116917655Y-60697812D01*
X116917659Y-60697816D01*
X116942237Y-60727764D01*
X116972185Y-60752342D01*
X120523347Y-64303505D01*
X120424180Y-64250498D01*
X120304482Y-64214188D01*
X120180000Y-64201928D01*
X118580000Y-64201928D01*
X118455518Y-64214188D01*
X118335820Y-64250498D01*
X118225506Y-64309463D01*
X118128815Y-64388815D01*
X118049463Y-64485506D01*
X117990498Y-64595820D01*
X117954188Y-64715518D01*
X117941928Y-64840000D01*
X117941928Y-67240000D01*
X117954188Y-67364482D01*
X117990498Y-67484180D01*
X118049463Y-67594494D01*
X118128815Y-67691185D01*
X118225506Y-67770537D01*
X118335820Y-67829502D01*
X118455518Y-67865812D01*
X118580000Y-67878072D01*
X118595001Y-67878072D01*
X118595001Y-68864388D01*
X118569463Y-68895506D01*
X118510498Y-69005820D01*
X118474188Y-69125518D01*
X118461928Y-69250000D01*
X118461928Y-70800000D01*
X118474188Y-70924482D01*
X118510498Y-71044180D01*
X118569463Y-71154494D01*
X118648815Y-71251185D01*
X118745506Y-71330537D01*
X118855820Y-71389502D01*
X118965000Y-71422621D01*
X118965001Y-76577378D01*
X118855820Y-76610498D01*
X118745506Y-76669463D01*
X118648815Y-76748815D01*
X118569463Y-76845506D01*
X118510498Y-76955820D01*
X118474188Y-77075518D01*
X118461928Y-77200000D01*
X118461928Y-78750000D01*
X118474188Y-78874482D01*
X118510498Y-78994180D01*
X118569463Y-79104494D01*
X118648815Y-79201185D01*
X118745506Y-79280537D01*
X118855820Y-79339502D01*
X118965000Y-79372621D01*
X118965000Y-79811447D01*
X118961203Y-79850000D01*
X118965000Y-79888553D01*
X118965000Y-79888560D01*
X118976359Y-80003886D01*
X119021246Y-80151859D01*
X119094138Y-80288232D01*
X119192236Y-80407764D01*
X119222190Y-80432347D01*
X119764341Y-80974498D01*
X119778992Y-81123255D01*
X119829528Y-81289851D01*
X119911595Y-81443387D01*
X120022038Y-81577962D01*
X120156613Y-81688405D01*
X120310149Y-81770472D01*
X120476745Y-81821008D01*
X120649999Y-81838072D01*
X121300001Y-81838072D01*
X121473255Y-81821008D01*
X121639851Y-81770472D01*
X121793387Y-81688405D01*
X121927962Y-81577962D01*
X121933342Y-81571406D01*
X121998815Y-81651185D01*
X122095506Y-81730537D01*
X122205820Y-81789502D01*
X122325518Y-81825812D01*
X122450000Y-81838072D01*
X122739250Y-81835000D01*
X122898000Y-81676250D01*
X122898000Y-80627000D01*
X123152000Y-80627000D01*
X123152000Y-81676250D01*
X123310750Y-81835000D01*
X123600000Y-81838072D01*
X123724482Y-81825812D01*
X123844180Y-81789502D01*
X123954494Y-81730537D01*
X124051185Y-81651185D01*
X124130537Y-81554494D01*
X124189502Y-81444180D01*
X124225812Y-81324482D01*
X124238072Y-81200000D01*
X124235000Y-80785750D01*
X124076250Y-80627000D01*
X123152000Y-80627000D01*
X122898000Y-80627000D01*
X122878000Y-80627000D01*
X122878000Y-80373000D01*
X122898000Y-80373000D01*
X122898000Y-79323750D01*
X122739250Y-79165000D01*
X122450000Y-79161928D01*
X122325518Y-79174188D01*
X122205820Y-79210498D01*
X122095506Y-79269463D01*
X121998815Y-79348815D01*
X121933342Y-79428594D01*
X121927962Y-79422038D01*
X121793387Y-79311595D01*
X121639851Y-79229528D01*
X121473255Y-79178992D01*
X121300001Y-79161928D01*
X120883402Y-79161928D01*
X120930537Y-79104494D01*
X120989502Y-78994180D01*
X121025812Y-78874482D01*
X121038072Y-78750000D01*
X121038072Y-77200000D01*
X121025812Y-77075518D01*
X120989502Y-76955820D01*
X120930537Y-76845506D01*
X120851185Y-76748815D01*
X120754494Y-76669463D01*
X120644180Y-76610498D01*
X120535000Y-76577379D01*
X120535000Y-71422621D01*
X120644180Y-71389502D01*
X120754494Y-71330537D01*
X120851185Y-71251185D01*
X120930537Y-71154494D01*
X120989502Y-71044180D01*
X121025812Y-70924482D01*
X121038072Y-70800000D01*
X121038072Y-69250000D01*
X121025812Y-69125518D01*
X120989502Y-69005820D01*
X120930537Y-68895506D01*
X120851185Y-68798815D01*
X120754494Y-68719463D01*
X120644180Y-68660498D01*
X120524482Y-68624188D01*
X120400000Y-68611928D01*
X120165000Y-68611928D01*
X120165000Y-67878072D01*
X120180000Y-67878072D01*
X120304482Y-67865812D01*
X120424180Y-67829502D01*
X120534494Y-67770537D01*
X120631185Y-67691185D01*
X120710537Y-67594494D01*
X120769502Y-67484180D01*
X120805812Y-67364482D01*
X120807581Y-67346517D01*
X120900393Y-67459608D01*
X121118900Y-67638932D01*
X121368193Y-67772182D01*
X121638692Y-67854236D01*
X121920000Y-67881943D01*
X122201309Y-67854236D01*
X122471808Y-67772182D01*
X122721101Y-67638932D01*
X122939608Y-67459608D01*
X123118932Y-67241101D01*
X123190000Y-67108142D01*
X123261068Y-67241101D01*
X123440393Y-67459608D01*
X123658900Y-67638932D01*
X123908193Y-67772182D01*
X124178692Y-67854236D01*
X124460000Y-67881943D01*
X124741309Y-67854236D01*
X125011808Y-67772182D01*
X125261101Y-67638932D01*
X125479608Y-67459608D01*
X125658932Y-67241101D01*
X125730000Y-67108142D01*
X125801068Y-67241101D01*
X125980393Y-67459608D01*
X126198900Y-67638932D01*
X126448193Y-67772182D01*
X126718692Y-67854236D01*
X127000000Y-67881943D01*
X127281309Y-67854236D01*
X127551808Y-67772182D01*
X127801101Y-67638932D01*
X128019608Y-67459608D01*
X128198932Y-67241101D01*
X128270000Y-67108142D01*
X128341068Y-67241101D01*
X128520393Y-67459608D01*
X128738900Y-67638932D01*
X128988193Y-67772182D01*
X129258692Y-67854236D01*
X129540000Y-67881943D01*
X129821309Y-67854236D01*
X130091808Y-67772182D01*
X130341101Y-67638932D01*
X130559608Y-67459608D01*
X130738932Y-67241101D01*
X130810000Y-67108142D01*
X130881068Y-67241101D01*
X131060393Y-67459608D01*
X131278900Y-67638932D01*
X131528193Y-67772182D01*
X131798692Y-67854236D01*
X132080000Y-67881943D01*
X132361309Y-67854236D01*
X132631808Y-67772182D01*
X132881101Y-67638932D01*
X133099608Y-67459608D01*
X133278932Y-67241101D01*
X133347265Y-67113259D01*
X133497399Y-67342839D01*
X133695105Y-67544500D01*
X133928354Y-67703715D01*
X134188182Y-67814367D01*
X134270961Y-67831904D01*
X134493000Y-67709915D01*
X134493000Y-66167000D01*
X134473000Y-66167000D01*
X134473000Y-65913000D01*
X134493000Y-65913000D01*
X134493000Y-64370085D01*
X134270961Y-64248096D01*
X134188182Y-64265633D01*
X133928354Y-64376285D01*
X133695105Y-64535500D01*
X133497399Y-64737161D01*
X133347265Y-64966741D01*
X133278932Y-64838899D01*
X133126724Y-64653434D01*
X135495158Y-62285000D01*
X151054843Y-62285000D01*
X149332190Y-64007653D01*
X149302236Y-64032236D01*
X149204138Y-64151768D01*
X149131246Y-64288141D01*
X149089879Y-64424509D01*
X149058899Y-64441068D01*
X148840392Y-64620393D01*
X148661068Y-64838900D01*
X148590000Y-64971858D01*
X148518932Y-64838899D01*
X148339607Y-64620392D01*
X148121100Y-64441068D01*
X147871807Y-64307818D01*
X147601308Y-64225764D01*
X147320000Y-64198057D01*
X147038691Y-64225764D01*
X146768192Y-64307818D01*
X146518899Y-64441068D01*
X146300392Y-64620393D01*
X146121068Y-64838900D01*
X146050000Y-64971858D01*
X145978932Y-64838899D01*
X145799607Y-64620392D01*
X145581100Y-64441068D01*
X145331807Y-64307818D01*
X145061308Y-64225764D01*
X144780000Y-64198057D01*
X144498691Y-64225764D01*
X144228192Y-64307818D01*
X143978899Y-64441068D01*
X143760392Y-64620393D01*
X143581068Y-64838900D01*
X143510000Y-64971858D01*
X143438932Y-64838899D01*
X143259607Y-64620392D01*
X143041100Y-64441068D01*
X142791807Y-64307818D01*
X142521308Y-64225764D01*
X142240000Y-64198057D01*
X141958691Y-64225764D01*
X141688192Y-64307818D01*
X141438899Y-64441068D01*
X141220392Y-64620393D01*
X141041068Y-64838900D01*
X140970000Y-64971858D01*
X140898932Y-64838899D01*
X140719607Y-64620392D01*
X140501100Y-64441068D01*
X140251807Y-64307818D01*
X139981308Y-64225764D01*
X139700000Y-64198057D01*
X139418691Y-64225764D01*
X139148192Y-64307818D01*
X138898899Y-64441068D01*
X138680392Y-64620393D01*
X138501068Y-64838900D01*
X138430000Y-64971858D01*
X138358932Y-64838899D01*
X138179607Y-64620392D01*
X137961100Y-64441068D01*
X137711807Y-64307818D01*
X137441308Y-64225764D01*
X137160000Y-64198057D01*
X136878691Y-64225764D01*
X136608192Y-64307818D01*
X136358899Y-64441068D01*
X136140392Y-64620393D01*
X135961068Y-64838900D01*
X135892735Y-64966742D01*
X135742601Y-64737161D01*
X135544895Y-64535500D01*
X135311646Y-64376285D01*
X135051818Y-64265633D01*
X134969039Y-64248096D01*
X134747000Y-64370085D01*
X134747000Y-65913000D01*
X134767000Y-65913000D01*
X134767000Y-66167000D01*
X134747000Y-66167000D01*
X134747000Y-67709915D01*
X134969039Y-67831904D01*
X135051818Y-67814367D01*
X135311646Y-67703715D01*
X135544895Y-67544500D01*
X135742601Y-67342839D01*
X135892735Y-67113259D01*
X135961068Y-67241101D01*
X136140393Y-67459608D01*
X136358900Y-67638932D01*
X136608193Y-67772182D01*
X136878692Y-67854236D01*
X137160000Y-67881943D01*
X137441309Y-67854236D01*
X137711808Y-67772182D01*
X137961101Y-67638932D01*
X138179608Y-67459608D01*
X138358932Y-67241101D01*
X138430000Y-67108142D01*
X138501068Y-67241101D01*
X138653276Y-67426566D01*
X137864843Y-68215000D01*
X133673552Y-68215000D01*
X133634999Y-68211203D01*
X133596446Y-68215000D01*
X133596439Y-68215000D01*
X133495490Y-68224943D01*
X133481112Y-68226359D01*
X133446672Y-68236806D01*
X133333140Y-68271246D01*
X133196767Y-68344138D01*
X133136559Y-68393550D01*
X133107187Y-68417655D01*
X133107184Y-68417658D01*
X133077236Y-68442236D01*
X133052658Y-68472185D01*
X131907185Y-69617658D01*
X131877237Y-69642236D01*
X131852659Y-69672184D01*
X131852655Y-69672188D01*
X131835115Y-69693561D01*
X131779139Y-69761767D01*
X131757710Y-69801859D01*
X131752328Y-69811928D01*
X128847500Y-69811928D01*
X128723018Y-69824188D01*
X128603320Y-69860498D01*
X128493006Y-69919463D01*
X128396315Y-69998815D01*
X128316963Y-70095506D01*
X128257998Y-70205820D01*
X128221688Y-70325518D01*
X128209428Y-70450000D01*
X128209428Y-74550000D01*
X128221688Y-74674482D01*
X128257998Y-74794180D01*
X128316963Y-74904494D01*
X128396315Y-75001185D01*
X128493006Y-75080537D01*
X128603320Y-75139502D01*
X128723018Y-75175812D01*
X128847500Y-75188072D01*
X131540001Y-75188072D01*
X131540000Y-76493749D01*
X131506613Y-76511595D01*
X131372038Y-76622038D01*
X131261595Y-76756613D01*
X131179528Y-76910149D01*
X131128992Y-77076745D01*
X131111928Y-77249999D01*
X131111928Y-78150001D01*
X131128992Y-78323255D01*
X131179528Y-78489851D01*
X131261595Y-78643387D01*
X131279332Y-78665000D01*
X127020869Y-78665000D01*
X125769446Y-77413578D01*
X125743291Y-77381709D01*
X125616146Y-77277364D01*
X125538072Y-77235632D01*
X125538072Y-77200000D01*
X125525812Y-77075518D01*
X125489502Y-76955820D01*
X125430537Y-76845506D01*
X125351185Y-76748815D01*
X125254494Y-76669463D01*
X125144180Y-76610498D01*
X125085000Y-76592546D01*
X125085000Y-71407454D01*
X125144180Y-71389502D01*
X125254494Y-71330537D01*
X125351185Y-71251185D01*
X125430537Y-71154494D01*
X125489502Y-71044180D01*
X125525812Y-70924482D01*
X125538072Y-70800000D01*
X125538072Y-69250000D01*
X125525812Y-69125518D01*
X125489502Y-69005820D01*
X125430537Y-68895506D01*
X125351185Y-68798815D01*
X125254494Y-68719463D01*
X125144180Y-68660498D01*
X125024482Y-68624188D01*
X124900000Y-68611928D01*
X123600000Y-68611928D01*
X123475518Y-68624188D01*
X123355820Y-68660498D01*
X123245506Y-68719463D01*
X123148815Y-68798815D01*
X123069463Y-68895506D01*
X123010498Y-69005820D01*
X122974188Y-69125518D01*
X122961928Y-69250000D01*
X122961928Y-70800000D01*
X122974188Y-70924482D01*
X123010498Y-71044180D01*
X123069463Y-71154494D01*
X123148815Y-71251185D01*
X123245506Y-71330537D01*
X123355820Y-71389502D01*
X123415000Y-71407454D01*
X123415001Y-76592546D01*
X123355820Y-76610498D01*
X123245506Y-76669463D01*
X123148815Y-76748815D01*
X123069463Y-76845506D01*
X123010498Y-76955820D01*
X122974188Y-77075518D01*
X122961928Y-77200000D01*
X122961928Y-78750000D01*
X122974188Y-78874482D01*
X123010498Y-78994180D01*
X123069463Y-79104494D01*
X123148815Y-79201185D01*
X123217883Y-79257867D01*
X123152000Y-79323750D01*
X123152000Y-80373000D01*
X124076250Y-80373000D01*
X124235000Y-80214250D01*
X124238072Y-79800000D01*
X124225812Y-79675518D01*
X124189502Y-79555820D01*
X124130537Y-79445506D01*
X124083402Y-79388072D01*
X124900000Y-79388072D01*
X125024482Y-79375812D01*
X125144180Y-79339502D01*
X125254494Y-79280537D01*
X125265575Y-79271443D01*
X126055563Y-80061432D01*
X126081709Y-80093291D01*
X126113568Y-80119437D01*
X126113570Y-80119439D01*
X126158575Y-80156373D01*
X126208854Y-80197636D01*
X126353913Y-80275172D01*
X126511311Y-80322918D01*
X126633981Y-80335000D01*
X126633982Y-80335000D01*
X126675000Y-80339040D01*
X126716018Y-80335000D01*
X133233982Y-80335000D01*
X133275000Y-80339040D01*
X133316018Y-80335000D01*
X133316019Y-80335000D01*
X133438689Y-80322918D01*
X133596087Y-80275172D01*
X133741146Y-80197636D01*
X133868291Y-80093291D01*
X133894445Y-80061422D01*
X134936433Y-79019436D01*
X134968291Y-78993291D01*
X134969506Y-78991811D01*
X135039851Y-78970472D01*
X135193387Y-78888405D01*
X135327962Y-78777962D01*
X135438405Y-78643387D01*
X135496339Y-78535000D01*
X140338661Y-78535000D01*
X140396595Y-78643387D01*
X140507038Y-78777962D01*
X140641613Y-78888405D01*
X140795149Y-78970472D01*
X140865494Y-78991811D01*
X140866709Y-78993291D01*
X140898578Y-79019446D01*
X142160563Y-80281432D01*
X142186709Y-80313291D01*
X142218568Y-80339437D01*
X142218570Y-80339439D01*
X142313854Y-80417636D01*
X142458913Y-80495172D01*
X142616311Y-80542918D01*
X142780000Y-80559040D01*
X142821018Y-80555000D01*
X149582546Y-80555000D01*
X149600498Y-80614180D01*
X149659463Y-80724494D01*
X149738815Y-80821185D01*
X149835506Y-80900537D01*
X149945820Y-80959502D01*
X150065518Y-80995812D01*
X150190000Y-81008072D01*
X151740000Y-81008072D01*
X151864482Y-80995812D01*
X151984180Y-80959502D01*
X152094494Y-80900537D01*
X152191185Y-80821185D01*
X152270537Y-80724494D01*
X152329502Y-80614180D01*
X152347454Y-80555000D01*
X157532546Y-80555000D01*
X157550498Y-80614180D01*
X157609463Y-80724494D01*
X157688815Y-80821185D01*
X157785506Y-80900537D01*
X157895820Y-80959502D01*
X158015518Y-80995812D01*
X158140000Y-81008072D01*
X159690000Y-81008072D01*
X159814482Y-80995812D01*
X159934180Y-80959502D01*
X160044494Y-80900537D01*
X160141185Y-80821185D01*
X160220537Y-80724494D01*
X160279502Y-80614180D01*
X160297454Y-80555000D01*
X162282546Y-80555000D01*
X162300498Y-80614180D01*
X162359463Y-80724494D01*
X162438815Y-80821185D01*
X162535506Y-80900537D01*
X162645820Y-80959502D01*
X162765518Y-80995812D01*
X162890000Y-81008072D01*
X164440000Y-81008072D01*
X164564482Y-80995812D01*
X164684180Y-80959502D01*
X164794494Y-80900537D01*
X164891185Y-80821185D01*
X164970537Y-80724494D01*
X165029502Y-80614180D01*
X165047454Y-80555000D01*
X170232546Y-80555000D01*
X170250498Y-80614180D01*
X170309463Y-80724494D01*
X170388815Y-80821185D01*
X170485506Y-80900537D01*
X170595820Y-80959502D01*
X170715518Y-80995812D01*
X170840000Y-81008072D01*
X172390000Y-81008072D01*
X172514482Y-80995812D01*
X172634180Y-80959502D01*
X172744494Y-80900537D01*
X172841185Y-80821185D01*
X172920537Y-80724494D01*
X172979502Y-80614180D01*
X172997454Y-80555000D01*
X174982546Y-80555000D01*
X175000498Y-80614180D01*
X175059463Y-80724494D01*
X175138815Y-80821185D01*
X175235506Y-80900537D01*
X175345820Y-80959502D01*
X175465518Y-80995812D01*
X175590000Y-81008072D01*
X177140000Y-81008072D01*
X177264482Y-80995812D01*
X177384180Y-80959502D01*
X177494494Y-80900537D01*
X177591185Y-80821185D01*
X177670537Y-80724494D01*
X177729502Y-80614180D01*
X177747454Y-80555000D01*
X182932546Y-80555000D01*
X182950498Y-80614180D01*
X183009463Y-80724494D01*
X183088815Y-80821185D01*
X183185506Y-80900537D01*
X183295820Y-80959502D01*
X183415518Y-80995812D01*
X183540000Y-81008072D01*
X185090000Y-81008072D01*
X185214482Y-80995812D01*
X185334180Y-80959502D01*
X185444494Y-80900537D01*
X185541185Y-80821185D01*
X185620537Y-80724494D01*
X185679502Y-80614180D01*
X185715812Y-80494482D01*
X185718781Y-80464334D01*
X185806146Y-80417636D01*
X185933291Y-80313291D01*
X185959445Y-80281422D01*
X187061432Y-79179437D01*
X187093291Y-79153291D01*
X187142108Y-79093808D01*
X187197636Y-79026146D01*
X187275172Y-78881087D01*
X187300401Y-78797918D01*
X187322918Y-78723689D01*
X187335000Y-78601019D01*
X187335000Y-78601018D01*
X187339040Y-78560000D01*
X187335000Y-78518982D01*
X187335000Y-70731018D01*
X187339040Y-70690000D01*
X187322918Y-70526312D01*
X187315501Y-70501859D01*
X187275172Y-70368913D01*
X187197636Y-70223854D01*
X187148422Y-70163886D01*
X187119439Y-70128570D01*
X187119437Y-70128568D01*
X187093291Y-70096709D01*
X187061433Y-70070564D01*
X186542027Y-69551158D01*
X186548405Y-69543386D01*
X186630472Y-69389850D01*
X186681008Y-69223254D01*
X186698072Y-69050000D01*
X186698072Y-67950000D01*
X186681008Y-67776746D01*
X186630472Y-67610150D01*
X186548405Y-67456614D01*
X186437962Y-67322038D01*
X186303386Y-67211595D01*
X186149850Y-67129528D01*
X185983254Y-67078992D01*
X185810000Y-67061928D01*
X185145000Y-67061928D01*
X185145000Y-63751007D01*
X185149039Y-63709999D01*
X185145000Y-63668991D01*
X185145000Y-63668981D01*
X185132918Y-63546311D01*
X185085172Y-63388913D01*
X185007636Y-63243854D01*
X184903291Y-63116709D01*
X184871428Y-63090560D01*
X181780867Y-60000000D01*
X183680868Y-58100000D01*
X184011928Y-58100000D01*
X184011928Y-61900000D01*
X184024188Y-62024482D01*
X184060498Y-62144180D01*
X184119463Y-62254494D01*
X184198815Y-62351185D01*
X184295506Y-62430537D01*
X184405820Y-62489502D01*
X184525518Y-62525812D01*
X184650000Y-62538072D01*
X186650000Y-62538072D01*
X186774482Y-62525812D01*
X186894180Y-62489502D01*
X187004494Y-62430537D01*
X187101185Y-62351185D01*
X187180537Y-62254494D01*
X187239502Y-62144180D01*
X187275812Y-62024482D01*
X187288072Y-61900000D01*
X187288072Y-58100000D01*
X187275812Y-57975518D01*
X187239502Y-57855820D01*
X187180537Y-57745506D01*
X187101185Y-57648815D01*
X187004494Y-57569463D01*
X186894180Y-57510498D01*
X186774482Y-57474188D01*
X186650000Y-57461928D01*
X184650000Y-57461928D01*
X184525518Y-57474188D01*
X184405820Y-57510498D01*
X184295506Y-57569463D01*
X184198815Y-57648815D01*
X184119463Y-57745506D01*
X184060498Y-57855820D01*
X184024188Y-57975518D01*
X184011928Y-58100000D01*
X183680868Y-58100000D01*
X185261432Y-56519437D01*
X185293291Y-56493291D01*
X185397636Y-56366146D01*
X185475172Y-56221087D01*
X185522918Y-56063689D01*
X185535000Y-55941019D01*
X185535000Y-55941018D01*
X185539040Y-55900000D01*
X185535000Y-55858982D01*
X185535000Y-52938072D01*
X186200000Y-52938072D01*
X186373254Y-52921008D01*
X186539850Y-52870472D01*
X186693386Y-52788405D01*
X186827962Y-52677962D01*
X186938405Y-52543386D01*
X187020472Y-52389850D01*
X187071008Y-52223254D01*
X187088072Y-52050000D01*
X187088072Y-50950000D01*
X187071008Y-50776746D01*
X187020472Y-50610150D01*
X186938405Y-50456614D01*
X186827962Y-50322038D01*
X186693386Y-50211595D01*
X186539850Y-50129528D01*
X186373254Y-50078992D01*
X186200000Y-50061928D01*
X185535000Y-50061928D01*
X185535000Y-43171018D01*
X185539040Y-43130000D01*
X185522918Y-42966312D01*
X185522119Y-42963676D01*
X185475172Y-42808913D01*
X185397636Y-42663854D01*
X185293291Y-42536709D01*
X185261433Y-42510564D01*
X184099445Y-41348578D01*
X184073291Y-41316709D01*
X183946146Y-41212364D01*
X183865000Y-41168990D01*
X183865000Y-40734592D01*
X183842790Y-40509087D01*
X183755017Y-40219739D01*
X183612481Y-39953073D01*
X183420661Y-39719339D01*
X183186926Y-39527519D01*
X182920260Y-39384983D01*
X182630912Y-39297210D01*
X182330000Y-39267573D01*
X182029087Y-39297210D01*
X181739739Y-39384983D01*
X181473073Y-39527519D01*
X181239339Y-39719339D01*
X181047519Y-39953074D01*
X180904983Y-40219740D01*
X180817210Y-40509088D01*
X180795000Y-40734593D01*
X180795001Y-43085408D01*
X180817211Y-43310913D01*
X180904984Y-43600261D01*
X181047520Y-43866927D01*
X181239340Y-44100661D01*
X181473074Y-44292481D01*
X181739740Y-44435017D01*
X182029088Y-44522790D01*
X182330000Y-44552427D01*
X182630913Y-44522790D01*
X182920261Y-44435017D01*
X183186927Y-44292481D01*
X183420661Y-44100661D01*
X183612481Y-43866927D01*
X183755017Y-43600261D01*
X183809567Y-43420435D01*
X183865000Y-43475869D01*
X183865001Y-50061928D01*
X183200000Y-50061928D01*
X183026746Y-50078992D01*
X182860150Y-50129528D01*
X182706614Y-50211595D01*
X182572038Y-50322038D01*
X182461595Y-50456614D01*
X182379528Y-50610150D01*
X182328992Y-50776746D01*
X182311928Y-50950000D01*
X182311928Y-52050000D01*
X182328992Y-52223254D01*
X182379528Y-52389850D01*
X182461595Y-52543386D01*
X182572038Y-52677962D01*
X182706614Y-52788405D01*
X182860150Y-52870472D01*
X183026746Y-52921008D01*
X183200000Y-52938072D01*
X183865000Y-52938072D01*
X183865001Y-55554130D01*
X180988072Y-58431061D01*
X180988072Y-56950000D01*
X180975812Y-56825518D01*
X180939502Y-56705820D01*
X180880537Y-56595506D01*
X180801185Y-56498815D01*
X180704494Y-56419463D01*
X180594180Y-56360498D01*
X180474482Y-56324188D01*
X180435000Y-56320299D01*
X180435000Y-52938072D01*
X180800000Y-52938072D01*
X180973254Y-52921008D01*
X181139850Y-52870472D01*
X181293386Y-52788405D01*
X181427962Y-52677962D01*
X181538405Y-52543386D01*
X181620472Y-52389850D01*
X181671008Y-52223254D01*
X181688072Y-52050000D01*
X181688072Y-50950000D01*
X181671008Y-50776746D01*
X181620472Y-50610150D01*
X181538405Y-50456614D01*
X181427962Y-50322038D01*
X181293386Y-50211595D01*
X181139850Y-50129528D01*
X180973254Y-50078992D01*
X180800000Y-50061928D01*
X179467061Y-50061928D01*
X177665000Y-48259869D01*
X177665000Y-44702287D01*
X177674180Y-44699502D01*
X177784494Y-44640537D01*
X177881185Y-44561185D01*
X177960537Y-44464494D01*
X178019502Y-44354180D01*
X178055812Y-44234482D01*
X178068072Y-44110000D01*
X178068072Y-39710000D01*
X178055812Y-39585518D01*
X178019502Y-39465820D01*
X177960537Y-39355506D01*
X177881185Y-39258815D01*
X177784494Y-39179463D01*
X177674180Y-39120498D01*
X177554482Y-39084188D01*
X177430000Y-39071928D01*
X175630000Y-39071928D01*
X175505518Y-39084188D01*
X175385820Y-39120498D01*
X175275506Y-39179463D01*
X175178815Y-39258815D01*
X175099463Y-39355506D01*
X175040498Y-39465820D01*
X175004188Y-39585518D01*
X174991928Y-39710000D01*
X174991928Y-39916796D01*
X172185132Y-37110000D01*
X176887573Y-37110000D01*
X176917210Y-37410913D01*
X177004983Y-37700261D01*
X177147519Y-37966927D01*
X177339339Y-38200661D01*
X177573073Y-38392481D01*
X177839739Y-38535017D01*
X178129087Y-38622790D01*
X178354592Y-38645000D01*
X180705408Y-38645000D01*
X180930913Y-38622790D01*
X181220261Y-38535017D01*
X181486927Y-38392481D01*
X181720661Y-38200661D01*
X181912481Y-37966927D01*
X182055017Y-37700261D01*
X182142790Y-37410913D01*
X182172427Y-37110000D01*
X182142790Y-36809087D01*
X182055017Y-36519739D01*
X181912481Y-36253073D01*
X181720661Y-36019339D01*
X181486927Y-35827519D01*
X181220261Y-35684983D01*
X180930913Y-35597210D01*
X180705408Y-35575000D01*
X178354592Y-35575000D01*
X178129087Y-35597210D01*
X177839739Y-35684983D01*
X177573073Y-35827519D01*
X177339339Y-36019339D01*
X177147519Y-36253073D01*
X177004983Y-36519739D01*
X176917210Y-36809087D01*
X176887573Y-37110000D01*
X172185132Y-37110000D01*
X170311996Y-35236865D01*
X170276449Y-35193551D01*
X170103623Y-35051716D01*
X169906447Y-34946324D01*
X169692499Y-34881423D01*
X169525752Y-34865000D01*
X169525751Y-34865000D01*
X169470000Y-34859509D01*
X169414249Y-34865000D01*
X154100132Y-34865000D01*
X151731616Y-32496485D01*
X151811185Y-32431185D01*
X151890537Y-32334494D01*
X151949502Y-32224180D01*
X151985812Y-32104482D01*
X151998072Y-31980000D01*
X151998072Y-30269721D01*
X154075000Y-30269721D01*
X154075000Y-30690279D01*
X154157047Y-31102756D01*
X154317988Y-31491302D01*
X154551637Y-31840983D01*
X154849017Y-32138363D01*
X155198698Y-32372012D01*
X155587244Y-32532953D01*
X155999721Y-32615000D01*
X156420279Y-32615000D01*
X156832756Y-32532953D01*
X157221302Y-32372012D01*
X157570983Y-32138363D01*
X157868363Y-31840983D01*
X158102012Y-31491302D01*
X158262953Y-31102756D01*
X158345000Y-30690279D01*
X158345000Y-30269721D01*
X159155000Y-30269721D01*
X159155000Y-30690279D01*
X159237047Y-31102756D01*
X159397988Y-31491302D01*
X159631637Y-31840983D01*
X159929017Y-32138363D01*
X160278698Y-32372012D01*
X160667244Y-32532953D01*
X161079721Y-32615000D01*
X161500279Y-32615000D01*
X161912756Y-32532953D01*
X162301302Y-32372012D01*
X162650983Y-32138363D01*
X162948363Y-31840983D01*
X163182012Y-31491302D01*
X163342953Y-31102756D01*
X163425000Y-30690279D01*
X163425000Y-30269721D01*
X164235000Y-30269721D01*
X164235000Y-30690279D01*
X164317047Y-31102756D01*
X164477988Y-31491302D01*
X164711637Y-31840983D01*
X165009017Y-32138363D01*
X165358698Y-32372012D01*
X165747244Y-32532953D01*
X166159721Y-32615000D01*
X166580279Y-32615000D01*
X166992756Y-32532953D01*
X167381302Y-32372012D01*
X167730983Y-32138363D01*
X168028363Y-31840983D01*
X168262012Y-31491302D01*
X168422953Y-31102756D01*
X168505000Y-30690279D01*
X168505000Y-30269721D01*
X169315000Y-30269721D01*
X169315000Y-30690279D01*
X169397047Y-31102756D01*
X169557988Y-31491302D01*
X169791637Y-31840983D01*
X170089017Y-32138363D01*
X170438698Y-32372012D01*
X170827244Y-32532953D01*
X171239721Y-32615000D01*
X171660279Y-32615000D01*
X172072756Y-32532953D01*
X172461302Y-32372012D01*
X172810983Y-32138363D01*
X173108363Y-31840983D01*
X173342012Y-31491302D01*
X173502953Y-31102756D01*
X173585000Y-30690279D01*
X173585000Y-30269721D01*
X173502953Y-29857244D01*
X173342012Y-29468698D01*
X173108363Y-29119017D01*
X172969346Y-28980000D01*
X174391928Y-28980000D01*
X174391928Y-31980000D01*
X174404188Y-32104482D01*
X174440498Y-32224180D01*
X174499463Y-32334494D01*
X174578815Y-32431185D01*
X174675506Y-32510537D01*
X174785820Y-32569502D01*
X174905518Y-32605812D01*
X175030000Y-32618072D01*
X178030000Y-32618072D01*
X178154482Y-32605812D01*
X178274180Y-32569502D01*
X178384494Y-32510537D01*
X178481185Y-32431185D01*
X178560537Y-32334494D01*
X178619502Y-32224180D01*
X178655812Y-32104482D01*
X178668072Y-31980000D01*
X178668072Y-29539721D01*
X183365000Y-29539721D01*
X183365000Y-29960279D01*
X183447047Y-30372756D01*
X183607988Y-30761302D01*
X183841637Y-31110983D01*
X184139017Y-31408363D01*
X184488698Y-31642012D01*
X184877244Y-31802953D01*
X185289721Y-31885000D01*
X185710279Y-31885000D01*
X186122756Y-31802953D01*
X186511302Y-31642012D01*
X186860983Y-31408363D01*
X187158363Y-31110983D01*
X187392012Y-30761302D01*
X187552953Y-30372756D01*
X187635000Y-29960279D01*
X187635000Y-29539721D01*
X187552953Y-29127244D01*
X187392012Y-28738698D01*
X187158363Y-28389017D01*
X186860983Y-28091637D01*
X186511302Y-27857988D01*
X186122756Y-27697047D01*
X185710279Y-27615000D01*
X185289721Y-27615000D01*
X184877244Y-27697047D01*
X184488698Y-27857988D01*
X184139017Y-28091637D01*
X183841637Y-28389017D01*
X183607988Y-28738698D01*
X183447047Y-29127244D01*
X183365000Y-29539721D01*
X178668072Y-29539721D01*
X178668072Y-28980000D01*
X178655812Y-28855518D01*
X178619502Y-28735820D01*
X178560537Y-28625506D01*
X178481185Y-28528815D01*
X178384494Y-28449463D01*
X178274180Y-28390498D01*
X178154482Y-28354188D01*
X178030000Y-28341928D01*
X175030000Y-28341928D01*
X174905518Y-28354188D01*
X174785820Y-28390498D01*
X174675506Y-28449463D01*
X174578815Y-28528815D01*
X174499463Y-28625506D01*
X174440498Y-28735820D01*
X174404188Y-28855518D01*
X174391928Y-28980000D01*
X172969346Y-28980000D01*
X172810983Y-28821637D01*
X172461302Y-28587988D01*
X172072756Y-28427047D01*
X171660279Y-28345000D01*
X171239721Y-28345000D01*
X170827244Y-28427047D01*
X170438698Y-28587988D01*
X170089017Y-28821637D01*
X169791637Y-29119017D01*
X169557988Y-29468698D01*
X169397047Y-29857244D01*
X169315000Y-30269721D01*
X168505000Y-30269721D01*
X168422953Y-29857244D01*
X168262012Y-29468698D01*
X168028363Y-29119017D01*
X167730983Y-28821637D01*
X167381302Y-28587988D01*
X166992756Y-28427047D01*
X166580279Y-28345000D01*
X166159721Y-28345000D01*
X165747244Y-28427047D01*
X165358698Y-28587988D01*
X165009017Y-28821637D01*
X164711637Y-29119017D01*
X164477988Y-29468698D01*
X164317047Y-29857244D01*
X164235000Y-30269721D01*
X163425000Y-30269721D01*
X163342953Y-29857244D01*
X163182012Y-29468698D01*
X162948363Y-29119017D01*
X162650983Y-28821637D01*
X162301302Y-28587988D01*
X161912756Y-28427047D01*
X161500279Y-28345000D01*
X161079721Y-28345000D01*
X160667244Y-28427047D01*
X160278698Y-28587988D01*
X159929017Y-28821637D01*
X159631637Y-29119017D01*
X159397988Y-29468698D01*
X159237047Y-29857244D01*
X159155000Y-30269721D01*
X158345000Y-30269721D01*
X158262953Y-29857244D01*
X158102012Y-29468698D01*
X157868363Y-29119017D01*
X157570983Y-28821637D01*
X157221302Y-28587988D01*
X156832756Y-28427047D01*
X156420279Y-28345000D01*
X155999721Y-28345000D01*
X155587244Y-28427047D01*
X155198698Y-28587988D01*
X154849017Y-28821637D01*
X154551637Y-29119017D01*
X154317988Y-29468698D01*
X154157047Y-29857244D01*
X154075000Y-30269721D01*
X151998072Y-30269721D01*
X151998072Y-28980000D01*
X151985812Y-28855518D01*
X151949502Y-28735820D01*
X151890537Y-28625506D01*
X151811185Y-28528815D01*
X151714494Y-28449463D01*
X151604180Y-28390498D01*
X151484482Y-28354188D01*
X151360000Y-28341928D01*
X148360000Y-28341928D01*
X148235518Y-28354188D01*
X148115820Y-28390498D01*
X148005506Y-28449463D01*
X147908815Y-28528815D01*
X147829463Y-28625506D01*
X147770498Y-28735820D01*
X147734188Y-28855518D01*
X147721928Y-28980000D01*
X147721928Y-29345000D01*
X146589360Y-29345000D01*
X146438363Y-29119017D01*
X146140983Y-28821637D01*
X145791302Y-28587988D01*
X145402756Y-28427047D01*
X144990279Y-28345000D01*
X144569721Y-28345000D01*
X144157244Y-28427047D01*
X143768698Y-28587988D01*
X143419017Y-28821637D01*
X143121637Y-29119017D01*
X142970640Y-29345000D01*
X141509360Y-29345000D01*
X141358363Y-29119017D01*
X141060983Y-28821637D01*
X140711302Y-28587988D01*
X140322756Y-28427047D01*
X139910279Y-28345000D01*
X139489721Y-28345000D01*
X139077244Y-28427047D01*
X138688698Y-28587988D01*
X138339017Y-28821637D01*
X138041637Y-29119017D01*
X137890640Y-29345000D01*
X136429360Y-29345000D01*
X136278363Y-29119017D01*
X135980983Y-28821637D01*
X135631302Y-28587988D01*
X135242756Y-28427047D01*
X134830279Y-28345000D01*
X134409721Y-28345000D01*
X133997244Y-28427047D01*
X133608698Y-28587988D01*
X133259017Y-28821637D01*
X132961637Y-29119017D01*
X132810640Y-29345000D01*
X131349360Y-29345000D01*
X131198363Y-29119017D01*
X130900983Y-28821637D01*
X130551302Y-28587988D01*
X130162756Y-28427047D01*
X129750279Y-28345000D01*
X129329721Y-28345000D01*
X128917244Y-28427047D01*
X128528698Y-28587988D01*
X128179017Y-28821637D01*
X127881637Y-29119017D01*
X127647988Y-29468698D01*
X127487047Y-29857244D01*
X127405000Y-30269721D01*
X127405000Y-30690279D01*
X127487047Y-31102756D01*
X127647988Y-31491302D01*
X127881637Y-31840983D01*
X128179017Y-32138363D01*
X128528698Y-32372012D01*
X128917244Y-32532953D01*
X129329721Y-32615000D01*
X129750279Y-32615000D01*
X130162756Y-32532953D01*
X130551302Y-32372012D01*
X130900983Y-32138363D01*
X131198363Y-31840983D01*
X131349360Y-31615000D01*
X132810640Y-31615000D01*
X132961637Y-31840983D01*
X133259017Y-32138363D01*
X133608698Y-32372012D01*
X133997244Y-32532953D01*
X134409721Y-32615000D01*
X134830279Y-32615000D01*
X135242756Y-32532953D01*
X135631302Y-32372012D01*
X135980983Y-32138363D01*
X136278363Y-31840983D01*
X136429360Y-31615000D01*
X137890640Y-31615000D01*
X138041637Y-31840983D01*
X138339017Y-32138363D01*
X138688698Y-32372012D01*
X139077244Y-32532953D01*
X139489721Y-32615000D01*
X139910279Y-32615000D01*
X140322756Y-32532953D01*
X140711302Y-32372012D01*
X141060983Y-32138363D01*
X141358363Y-31840983D01*
X141509360Y-31615000D01*
X142970640Y-31615000D01*
X143121637Y-31840983D01*
X143419017Y-32138363D01*
X143768698Y-32372012D01*
X144157244Y-32532953D01*
X144569721Y-32615000D01*
X144990279Y-32615000D01*
X145402756Y-32532953D01*
X145791302Y-32372012D01*
X146140983Y-32138363D01*
X146438363Y-31840983D01*
X146589360Y-31615000D01*
X147721928Y-31615000D01*
X147721928Y-31980000D01*
X147734188Y-32104482D01*
X147770498Y-32224180D01*
X147829463Y-32334494D01*
X147908815Y-32431185D01*
X148005506Y-32510537D01*
X148115820Y-32569502D01*
X148235518Y-32605812D01*
X148360000Y-32618072D01*
X148791650Y-32618072D01*
X148806324Y-32666446D01*
X148911716Y-32863623D01*
X149053551Y-33036449D01*
X149096865Y-33071996D01*
X152788009Y-36763141D01*
X152823551Y-36806449D01*
X152996377Y-36948284D01*
X153193553Y-37053676D01*
X153357705Y-37103471D01*
X153407500Y-37118577D01*
X153629999Y-37140491D01*
X153685751Y-37135000D01*
X168999869Y-37135000D01*
X174538009Y-42673141D01*
X174573551Y-42716449D01*
X174746377Y-42858284D01*
X174943553Y-42963676D01*
X174991928Y-42978351D01*
X174991928Y-44110000D01*
X175004188Y-44234482D01*
X175040498Y-44354180D01*
X175099463Y-44464494D01*
X175178815Y-44561185D01*
X175275506Y-44640537D01*
X175385820Y-44699502D01*
X175395000Y-44702287D01*
X175395001Y-48674239D01*
X175389509Y-48730000D01*
X175411423Y-48952498D01*
X175476324Y-49166446D01*
X175476325Y-49166447D01*
X175581717Y-49363623D01*
X175723552Y-49536449D01*
X175766860Y-49571991D01*
X176938912Y-50744044D01*
X176928992Y-50776746D01*
X176911928Y-50950000D01*
X176911928Y-52050000D01*
X176928992Y-52223254D01*
X176979528Y-52389850D01*
X177061595Y-52543386D01*
X177172038Y-52677962D01*
X177306614Y-52788405D01*
X177460150Y-52870472D01*
X177626746Y-52921008D01*
X177800000Y-52938072D01*
X178165000Y-52938072D01*
X178165001Y-56342546D01*
X178105820Y-56360498D01*
X177995506Y-56419463D01*
X177898815Y-56498815D01*
X177819463Y-56595506D01*
X177760498Y-56705820D01*
X177724188Y-56825518D01*
X177711928Y-56950000D01*
X177711928Y-58450000D01*
X177724188Y-58574482D01*
X177760498Y-58694180D01*
X177819463Y-58804494D01*
X177856809Y-58850000D01*
X177819463Y-58895506D01*
X177760498Y-59005820D01*
X177724188Y-59125518D01*
X177711928Y-59250000D01*
X177711928Y-60750000D01*
X177724188Y-60874482D01*
X177760498Y-60994180D01*
X177819463Y-61104494D01*
X177856809Y-61150000D01*
X177819463Y-61195506D01*
X177760498Y-61305820D01*
X177724188Y-61425518D01*
X177711928Y-61550000D01*
X177715000Y-62014250D01*
X177873750Y-62173000D01*
X179223000Y-62173000D01*
X179223000Y-62153000D01*
X179477000Y-62153000D01*
X179477000Y-62173000D01*
X180826250Y-62173000D01*
X180985000Y-62014250D01*
X180987948Y-61568815D01*
X183475000Y-64055868D01*
X183475001Y-67061928D01*
X182810000Y-67061928D01*
X182636746Y-67078992D01*
X182470150Y-67129528D01*
X182316614Y-67211595D01*
X182182038Y-67322038D01*
X182071595Y-67456614D01*
X181989528Y-67610150D01*
X181938992Y-67776746D01*
X181921928Y-67950000D01*
X181921928Y-69050000D01*
X181938992Y-69223254D01*
X181989528Y-69389850D01*
X182071595Y-69543386D01*
X182182038Y-69677962D01*
X182316614Y-69788405D01*
X182470150Y-69870472D01*
X182636746Y-69921008D01*
X182810000Y-69938072D01*
X184567204Y-69938072D01*
X185665000Y-71035869D01*
X185665000Y-74298690D01*
X185620537Y-74215506D01*
X185541185Y-74118815D01*
X185444494Y-74039463D01*
X185334180Y-73980498D01*
X185214482Y-73944188D01*
X185090000Y-73931928D01*
X183540000Y-73931928D01*
X183415518Y-73944188D01*
X183295820Y-73980498D01*
X183185506Y-74039463D01*
X183088815Y-74118815D01*
X183009463Y-74215506D01*
X182950498Y-74325820D01*
X182917379Y-74435000D01*
X177762621Y-74435000D01*
X177729502Y-74325820D01*
X177670537Y-74215506D01*
X177591185Y-74118815D01*
X177494494Y-74039463D01*
X177384180Y-73980498D01*
X177264482Y-73944188D01*
X177140000Y-73931928D01*
X177047673Y-73931928D01*
X177020862Y-73881767D01*
X176922764Y-73762236D01*
X176892810Y-73737653D01*
X175785000Y-72629843D01*
X175785000Y-69300000D01*
X176521928Y-69300000D01*
X176534188Y-69424482D01*
X176570498Y-69544180D01*
X176629463Y-69654494D01*
X176708815Y-69751185D01*
X176805506Y-69830537D01*
X176915820Y-69889502D01*
X177035518Y-69925812D01*
X177160000Y-69938072D01*
X178624250Y-69935000D01*
X178783000Y-69776250D01*
X178783000Y-68627000D01*
X179037000Y-68627000D01*
X179037000Y-69776250D01*
X179195750Y-69935000D01*
X180660000Y-69938072D01*
X180784482Y-69925812D01*
X180904180Y-69889502D01*
X181014494Y-69830537D01*
X181111185Y-69751185D01*
X181190537Y-69654494D01*
X181249502Y-69544180D01*
X181285812Y-69424482D01*
X181298072Y-69300000D01*
X181295000Y-68785750D01*
X181136250Y-68627000D01*
X179037000Y-68627000D01*
X178783000Y-68627000D01*
X176683750Y-68627000D01*
X176525000Y-68785750D01*
X176521928Y-69300000D01*
X175785000Y-69300000D01*
X175785000Y-67700000D01*
X176521928Y-67700000D01*
X176525000Y-68214250D01*
X176683750Y-68373000D01*
X178783000Y-68373000D01*
X178783000Y-67223750D01*
X179037000Y-67223750D01*
X179037000Y-68373000D01*
X181136250Y-68373000D01*
X181295000Y-68214250D01*
X181298072Y-67700000D01*
X181285812Y-67575518D01*
X181249502Y-67455820D01*
X181190537Y-67345506D01*
X181111185Y-67248815D01*
X181014494Y-67169463D01*
X180904180Y-67110498D01*
X180784482Y-67074188D01*
X180660000Y-67061928D01*
X179195750Y-67065000D01*
X179037000Y-67223750D01*
X178783000Y-67223750D01*
X178624250Y-67065000D01*
X177160000Y-67061928D01*
X177035518Y-67074188D01*
X176915820Y-67110498D01*
X176805506Y-67169463D01*
X176708815Y-67248815D01*
X176629463Y-67345506D01*
X176570498Y-67455820D01*
X176534188Y-67575518D01*
X176521928Y-67700000D01*
X175785000Y-67700000D01*
X175785000Y-63050000D01*
X177711928Y-63050000D01*
X177724188Y-63174482D01*
X177760498Y-63294180D01*
X177819463Y-63404494D01*
X177898815Y-63501185D01*
X177995506Y-63580537D01*
X178105820Y-63639502D01*
X178225518Y-63675812D01*
X178350000Y-63688072D01*
X179064250Y-63685000D01*
X179223000Y-63526250D01*
X179223000Y-62427000D01*
X179477000Y-62427000D01*
X179477000Y-63526250D01*
X179635750Y-63685000D01*
X180350000Y-63688072D01*
X180474482Y-63675812D01*
X180594180Y-63639502D01*
X180704494Y-63580537D01*
X180801185Y-63501185D01*
X180880537Y-63404494D01*
X180939502Y-63294180D01*
X180975812Y-63174482D01*
X180988072Y-63050000D01*
X180985000Y-62585750D01*
X180826250Y-62427000D01*
X179477000Y-62427000D01*
X179223000Y-62427000D01*
X177873750Y-62427000D01*
X177715000Y-62585750D01*
X177711928Y-63050000D01*
X175785000Y-63050000D01*
X175785000Y-53463552D01*
X175788797Y-53424999D01*
X175785000Y-53386446D01*
X175785000Y-53386439D01*
X175773641Y-53271113D01*
X175728754Y-53123140D01*
X175655862Y-52986767D01*
X175601894Y-52921008D01*
X175582345Y-52897187D01*
X175582342Y-52897184D01*
X175557764Y-52867236D01*
X175527816Y-52842658D01*
X171210659Y-48525502D01*
X171196008Y-48376745D01*
X171145472Y-48210149D01*
X171063405Y-48056613D01*
X170952962Y-47922038D01*
X170818387Y-47811595D01*
X170664851Y-47729528D01*
X170498255Y-47678992D01*
X170488154Y-47677997D01*
X169782347Y-46972190D01*
X169757764Y-46942236D01*
X169638233Y-46844138D01*
X169501860Y-46771246D01*
X169353887Y-46726359D01*
X169238561Y-46715000D01*
X169238553Y-46715000D01*
X169200000Y-46711203D01*
X169161447Y-46715000D01*
X167145157Y-46715000D01*
X168477817Y-45382341D01*
X168507764Y-45357764D01*
X168605862Y-45238233D01*
X168678754Y-45101860D01*
X168723641Y-44953887D01*
X168735000Y-44838561D01*
X168735000Y-44838554D01*
X168738797Y-44800001D01*
X168735000Y-44761448D01*
X168735000Y-44706251D01*
X168768387Y-44688405D01*
X168902962Y-44577962D01*
X168975000Y-44490184D01*
X169047038Y-44577962D01*
X169181613Y-44688405D01*
X169335149Y-44770472D01*
X169501745Y-44821008D01*
X169674999Y-44838072D01*
X170325001Y-44838072D01*
X170498255Y-44821008D01*
X170664851Y-44770472D01*
X170818387Y-44688405D01*
X170952962Y-44577962D01*
X171063405Y-44443387D01*
X171145472Y-44289851D01*
X171196008Y-44123255D01*
X171213072Y-43950001D01*
X171213072Y-43049999D01*
X171196008Y-42876745D01*
X171145472Y-42710149D01*
X171063405Y-42556613D01*
X170952962Y-42422038D01*
X170818387Y-42311595D01*
X170810000Y-42307112D01*
X170810000Y-42206251D01*
X170843387Y-42188405D01*
X170977962Y-42077962D01*
X171088405Y-41943387D01*
X171170472Y-41789851D01*
X171221008Y-41623255D01*
X171238072Y-41450001D01*
X171238072Y-40549999D01*
X171221008Y-40376745D01*
X171170472Y-40210149D01*
X171088405Y-40056613D01*
X170977962Y-39922038D01*
X170843387Y-39811595D01*
X170689851Y-39729528D01*
X170523255Y-39678992D01*
X170350001Y-39661928D01*
X169699999Y-39661928D01*
X169526745Y-39678992D01*
X169360149Y-39729528D01*
X169206613Y-39811595D01*
X169072038Y-39922038D01*
X169000000Y-40009816D01*
X168927962Y-39922038D01*
X168793387Y-39811595D01*
X168639851Y-39729528D01*
X168473255Y-39678992D01*
X168300001Y-39661928D01*
X167649999Y-39661928D01*
X167476745Y-39678992D01*
X167310338Y-39729471D01*
X166519446Y-38938579D01*
X166493291Y-38906709D01*
X166366146Y-38802364D01*
X166221087Y-38724828D01*
X166063689Y-38677082D01*
X165941019Y-38665000D01*
X165941018Y-38665000D01*
X165900000Y-38660960D01*
X165858982Y-38665000D01*
X160041018Y-38665000D01*
X160000000Y-38660960D01*
X159958981Y-38665000D01*
X159836311Y-38677082D01*
X159678913Y-38724828D01*
X159533854Y-38802364D01*
X159406709Y-38906709D01*
X159380563Y-38938568D01*
X158188578Y-40130555D01*
X158156709Y-40156709D01*
X158062712Y-40271246D01*
X158052364Y-40283855D01*
X157974828Y-40428914D01*
X157927082Y-40586312D01*
X157925031Y-40607132D01*
X157920987Y-40609294D01*
X157694866Y-40794866D01*
X157509294Y-41020986D01*
X157371401Y-41278966D01*
X157286487Y-41558889D01*
X157265000Y-41777050D01*
X157265000Y-42222949D01*
X157286487Y-42441110D01*
X157371401Y-42721033D01*
X157509294Y-42979013D01*
X157694866Y-43205134D01*
X157920986Y-43390706D01*
X158178966Y-43528599D01*
X158458889Y-43613513D01*
X158750000Y-43642185D01*
X159041110Y-43613513D01*
X159321033Y-43528599D01*
X159579013Y-43390706D01*
X159799945Y-43209392D01*
X159810498Y-43244180D01*
X159869463Y-43354494D01*
X159948815Y-43451185D01*
X160045506Y-43530537D01*
X160155820Y-43589502D01*
X160275518Y-43625812D01*
X160400000Y-43638072D01*
X160964250Y-43635000D01*
X161123000Y-43476250D01*
X161123000Y-42127000D01*
X161377000Y-42127000D01*
X161377000Y-43476250D01*
X161535750Y-43635000D01*
X162100000Y-43638072D01*
X162224482Y-43625812D01*
X162344180Y-43589502D01*
X162454494Y-43530537D01*
X162551185Y-43451185D01*
X162630537Y-43354494D01*
X162689502Y-43244180D01*
X162725812Y-43124482D01*
X162738072Y-43000000D01*
X162735000Y-42285750D01*
X162576250Y-42127000D01*
X161377000Y-42127000D01*
X161123000Y-42127000D01*
X161103000Y-42127000D01*
X161103000Y-41873000D01*
X161123000Y-41873000D01*
X161123000Y-40523750D01*
X161377000Y-40523750D01*
X161377000Y-41873000D01*
X162576250Y-41873000D01*
X162735000Y-41714250D01*
X162738072Y-41000000D01*
X162725812Y-40875518D01*
X162689502Y-40755820D01*
X162630537Y-40645506D01*
X162551185Y-40548815D01*
X162454494Y-40469463D01*
X162344180Y-40410498D01*
X162224482Y-40374188D01*
X162100000Y-40361928D01*
X161535750Y-40365000D01*
X161377000Y-40523750D01*
X161123000Y-40523750D01*
X160964250Y-40365000D01*
X160400000Y-40361928D01*
X160310085Y-40370784D01*
X160345869Y-40335000D01*
X165554133Y-40335000D01*
X166772066Y-41552934D01*
X166778992Y-41623255D01*
X166829528Y-41789851D01*
X166911595Y-41943387D01*
X167022038Y-42077962D01*
X167156613Y-42188405D01*
X167259349Y-42243319D01*
X167131613Y-42311595D01*
X166997038Y-42422038D01*
X166886595Y-42556613D01*
X166804528Y-42710149D01*
X166753992Y-42876745D01*
X166736928Y-43049999D01*
X166736928Y-43950001D01*
X166753992Y-44123255D01*
X166804528Y-44289851D01*
X166886595Y-44443387D01*
X166997038Y-44577962D01*
X167032652Y-44607190D01*
X165674843Y-45965000D01*
X157288552Y-45965000D01*
X157249999Y-45961203D01*
X157211446Y-45965000D01*
X157211439Y-45965000D01*
X157110490Y-45974943D01*
X157096112Y-45976359D01*
X156948140Y-46021246D01*
X156811767Y-46094138D01*
X156758742Y-46137655D01*
X156722187Y-46167655D01*
X156722184Y-46167658D01*
X156692236Y-46192236D01*
X156667658Y-46222184D01*
X151485000Y-51404843D01*
X151485000Y-51372998D01*
X151326252Y-51372998D01*
X151485000Y-51214250D01*
X151488072Y-50525000D01*
X151475812Y-50400518D01*
X151439502Y-50280820D01*
X151380537Y-50170506D01*
X151301185Y-50073815D01*
X151204494Y-49994463D01*
X151094180Y-49935498D01*
X150974482Y-49899188D01*
X150850000Y-49886928D01*
X150285750Y-49890000D01*
X150127000Y-50048750D01*
X150127000Y-51373000D01*
X150147000Y-51373000D01*
X150147000Y-51627000D01*
X150127000Y-51627000D01*
X150127000Y-51647000D01*
X149873000Y-51647000D01*
X149873000Y-51627000D01*
X149853000Y-51627000D01*
X149853000Y-51373000D01*
X149873000Y-51373000D01*
X149873000Y-50048750D01*
X149714250Y-49890000D01*
X149150000Y-49886928D01*
X149025518Y-49899188D01*
X148905820Y-49935498D01*
X148795506Y-49994463D01*
X148698815Y-50073815D01*
X148619463Y-50170506D01*
X148560498Y-50280820D01*
X148549945Y-50315608D01*
X148329014Y-50134294D01*
X148071034Y-49996401D01*
X147791111Y-49911487D01*
X147500000Y-49882815D01*
X147208890Y-49911487D01*
X146928967Y-49996401D01*
X146670987Y-50134294D01*
X146444866Y-50319866D01*
X146259294Y-50545986D01*
X146250000Y-50563374D01*
X146240706Y-50545986D01*
X146055134Y-50319866D01*
X145829014Y-50134294D01*
X145571034Y-49996401D01*
X145291111Y-49911487D01*
X145000000Y-49882815D01*
X144708890Y-49911487D01*
X144428967Y-49996401D01*
X144170987Y-50134294D01*
X143944866Y-50319866D01*
X143759294Y-50545986D01*
X143621401Y-50803966D01*
X143536487Y-51083889D01*
X143515000Y-51302050D01*
X143515000Y-51697949D01*
X143536487Y-51916110D01*
X143621401Y-52196033D01*
X143759294Y-52454013D01*
X143944866Y-52680134D01*
X144170986Y-52865706D01*
X144428966Y-53003599D01*
X144708889Y-53088513D01*
X145000000Y-53117185D01*
X145291110Y-53088513D01*
X145571033Y-53003599D01*
X145829013Y-52865706D01*
X146055134Y-52680134D01*
X146240706Y-52454014D01*
X146250000Y-52436626D01*
X146259294Y-52454013D01*
X146444866Y-52680134D01*
X146670986Y-52865706D01*
X146928966Y-53003599D01*
X147208889Y-53088513D01*
X147500000Y-53117185D01*
X147791110Y-53088513D01*
X148071033Y-53003599D01*
X148329013Y-52865706D01*
X148549945Y-52684392D01*
X148560498Y-52719180D01*
X148619463Y-52829494D01*
X148698815Y-52926185D01*
X148795506Y-53005537D01*
X148905820Y-53064502D01*
X149025518Y-53100812D01*
X149150000Y-53113072D01*
X149714250Y-53110000D01*
X149872998Y-52951252D01*
X149872998Y-53016845D01*
X149174843Y-53715000D01*
X145798556Y-53715000D01*
X145760000Y-53711203D01*
X145721444Y-53715000D01*
X145721439Y-53715000D01*
X145681026Y-53718980D01*
X145606113Y-53726358D01*
X145458140Y-53771246D01*
X145321767Y-53844138D01*
X145202236Y-53942236D01*
X145177655Y-53972188D01*
X142538779Y-56611064D01*
X142521308Y-56605764D01*
X142240000Y-56578057D01*
X141958691Y-56605764D01*
X141688192Y-56687818D01*
X141438899Y-56821068D01*
X141220392Y-57000393D01*
X141041068Y-57218900D01*
X140972735Y-57346742D01*
X140822601Y-57117161D01*
X140624895Y-56915500D01*
X140391646Y-56756285D01*
X140131818Y-56645633D01*
X140049039Y-56628096D01*
X139827000Y-56750085D01*
X139827000Y-58293000D01*
X139847000Y-58293000D01*
X139847000Y-58547000D01*
X139827000Y-58547000D01*
X139827000Y-58567000D01*
X139573000Y-58567000D01*
X139573000Y-58547000D01*
X137287000Y-58547000D01*
X137287000Y-58567000D01*
X137033000Y-58567000D01*
X137033000Y-58547000D01*
X137013000Y-58547000D01*
X137013000Y-58293000D01*
X137033000Y-58293000D01*
X137033000Y-56750085D01*
X137287000Y-56750085D01*
X137287000Y-58293000D01*
X139573000Y-58293000D01*
X139573000Y-56750085D01*
X139350961Y-56628096D01*
X139268182Y-56645633D01*
X139008354Y-56756285D01*
X138775105Y-56915500D01*
X138577399Y-57117161D01*
X138430000Y-57342559D01*
X138282601Y-57117161D01*
X138084895Y-56915500D01*
X137851646Y-56756285D01*
X137591818Y-56645633D01*
X137509039Y-56628096D01*
X137287000Y-56750085D01*
X137033000Y-56750085D01*
X136810961Y-56628096D01*
X136728182Y-56645633D01*
X136468354Y-56756285D01*
X136235105Y-56915500D01*
X136037399Y-57117161D01*
X135887265Y-57346741D01*
X135818932Y-57218899D01*
X135639607Y-57000392D01*
X135421100Y-56821068D01*
X135171807Y-56687818D01*
X134901308Y-56605764D01*
X134620000Y-56578057D01*
X134338691Y-56605764D01*
X134068192Y-56687818D01*
X133818899Y-56821068D01*
X133600392Y-57000393D01*
X133421068Y-57218900D01*
X133350000Y-57351858D01*
X133278932Y-57218899D01*
X133099607Y-57000392D01*
X132881100Y-56821068D01*
X132631807Y-56687818D01*
X132361308Y-56605764D01*
X132080000Y-56578057D01*
X131798691Y-56605764D01*
X131528192Y-56687818D01*
X131278899Y-56821068D01*
X131060392Y-57000393D01*
X130881068Y-57218900D01*
X130810000Y-57351858D01*
X130738932Y-57218899D01*
X130559607Y-57000392D01*
X130341100Y-56821068D01*
X130091807Y-56687818D01*
X129821308Y-56605764D01*
X129540000Y-56578057D01*
X129258691Y-56605764D01*
X128988192Y-56687818D01*
X128738899Y-56821068D01*
X128520392Y-57000393D01*
X128341068Y-57218900D01*
X128270000Y-57351858D01*
X128198932Y-57218899D01*
X128046724Y-57033434D01*
X129795158Y-55285000D01*
X131086447Y-55285000D01*
X131125000Y-55288797D01*
X131163553Y-55285000D01*
X131163561Y-55285000D01*
X131278887Y-55273641D01*
X131426860Y-55228754D01*
X131563233Y-55155862D01*
X131682764Y-55057764D01*
X131707347Y-55027810D01*
X133661132Y-53074026D01*
X133708889Y-53088513D01*
X134000000Y-53117185D01*
X134291110Y-53088513D01*
X134571033Y-53003599D01*
X134829013Y-52865706D01*
X135049945Y-52684392D01*
X135060498Y-52719180D01*
X135119463Y-52829494D01*
X135198815Y-52926185D01*
X135295506Y-53005537D01*
X135405820Y-53064502D01*
X135525518Y-53100812D01*
X135650000Y-53113072D01*
X136214250Y-53110000D01*
X136373000Y-52951250D01*
X136373000Y-51627000D01*
X136627000Y-51627000D01*
X136627000Y-52951250D01*
X136785750Y-53110000D01*
X137350000Y-53113072D01*
X137474482Y-53100812D01*
X137594180Y-53064502D01*
X137704494Y-53005537D01*
X137801185Y-52926185D01*
X137880537Y-52829494D01*
X137939502Y-52719180D01*
X137975812Y-52599482D01*
X137988072Y-52475000D01*
X137985000Y-51785750D01*
X137826250Y-51627000D01*
X136627000Y-51627000D01*
X136373000Y-51627000D01*
X136353000Y-51627000D01*
X136353000Y-51373000D01*
X136373000Y-51373000D01*
X136373000Y-50048750D01*
X136627000Y-50048750D01*
X136627000Y-51373000D01*
X137826250Y-51373000D01*
X137985000Y-51214250D01*
X137988072Y-50525000D01*
X137975812Y-50400518D01*
X137939502Y-50280820D01*
X137880537Y-50170506D01*
X137801185Y-50073815D01*
X137704494Y-49994463D01*
X137594180Y-49935498D01*
X137474482Y-49899188D01*
X137350000Y-49886928D01*
X136785750Y-49890000D01*
X136627000Y-50048750D01*
X136373000Y-50048750D01*
X136214250Y-49890000D01*
X135650000Y-49886928D01*
X135525518Y-49899188D01*
X135405820Y-49935498D01*
X135295506Y-49994463D01*
X135198815Y-50073815D01*
X135119463Y-50170506D01*
X135060498Y-50280820D01*
X135049945Y-50315608D01*
X134829014Y-50134294D01*
X134571034Y-49996401D01*
X134291111Y-49911487D01*
X134000000Y-49882815D01*
X133708890Y-49911487D01*
X133428967Y-49996401D01*
X133170987Y-50134294D01*
X132944866Y-50319866D01*
X132759294Y-50545986D01*
X132750000Y-50563374D01*
X132740706Y-50545986D01*
X132555134Y-50319866D01*
X132329014Y-50134294D01*
X132071034Y-49996401D01*
X131791111Y-49911487D01*
X131500000Y-49882815D01*
X131208890Y-49911487D01*
X130928967Y-49996401D01*
X130670987Y-50134294D01*
X130444866Y-50319866D01*
X130259294Y-50545986D01*
X130121401Y-50803966D01*
X130036487Y-51083889D01*
X130015000Y-51302050D01*
X130015000Y-51697949D01*
X130036487Y-51916110D01*
X130121401Y-52196033D01*
X130259294Y-52454013D01*
X130444866Y-52680134D01*
X130670986Y-52865706D01*
X130928966Y-53003599D01*
X131208889Y-53088513D01*
X131406834Y-53108009D01*
X130799843Y-53715000D01*
X129508552Y-53715000D01*
X129469999Y-53711203D01*
X129431446Y-53715000D01*
X129431439Y-53715000D01*
X129330490Y-53724943D01*
X129316112Y-53726359D01*
X129281672Y-53736806D01*
X129168140Y-53771246D01*
X129031767Y-53844138D01*
X128959753Y-53903239D01*
X128942187Y-53917655D01*
X128942184Y-53917658D01*
X128912236Y-53942236D01*
X128887658Y-53972184D01*
X126472190Y-56387653D01*
X126442236Y-56412236D01*
X126344138Y-56531768D01*
X126271246Y-56668141D01*
X126229879Y-56804509D01*
X126198899Y-56821068D01*
X125980392Y-57000393D01*
X125801068Y-57218900D01*
X125730000Y-57351858D01*
X125658932Y-57218899D01*
X125506724Y-57033434D01*
X127322363Y-55217795D01*
X127438233Y-55155862D01*
X127557764Y-55057764D01*
X127655862Y-54938233D01*
X127728754Y-54801860D01*
X127773641Y-54653887D01*
X127785000Y-54538561D01*
X127788798Y-54500000D01*
X127785000Y-54461439D01*
X127785000Y-52864159D01*
X134527816Y-46121344D01*
X134557764Y-46096766D01*
X134655862Y-45977235D01*
X134728754Y-45840862D01*
X134773642Y-45692889D01*
X134783893Y-45588798D01*
X134785000Y-45577563D01*
X134785000Y-45577558D01*
X134788797Y-45539002D01*
X134785000Y-45500447D01*
X134785000Y-43389231D01*
X134829013Y-43365706D01*
X135049945Y-43184392D01*
X135060498Y-43219180D01*
X135119463Y-43329494D01*
X135198815Y-43426185D01*
X135295506Y-43505537D01*
X135405820Y-43564502D01*
X135525518Y-43600812D01*
X135650000Y-43613072D01*
X136214250Y-43610000D01*
X136373000Y-43451250D01*
X136373000Y-42127000D01*
X136627000Y-42127000D01*
X136627000Y-43451250D01*
X136785750Y-43610000D01*
X137350000Y-43613072D01*
X137474482Y-43600812D01*
X137594180Y-43564502D01*
X137704494Y-43505537D01*
X137801185Y-43426185D01*
X137880537Y-43329494D01*
X137939502Y-43219180D01*
X137975812Y-43099482D01*
X137988072Y-42975000D01*
X137985000Y-42285750D01*
X137826250Y-42127000D01*
X136627000Y-42127000D01*
X136373000Y-42127000D01*
X136353000Y-42127000D01*
X136353000Y-41873000D01*
X136373000Y-41873000D01*
X136373000Y-40548750D01*
X136627000Y-40548750D01*
X136627000Y-41873000D01*
X137826250Y-41873000D01*
X137897200Y-41802050D01*
X143515000Y-41802050D01*
X143515000Y-42197949D01*
X143536487Y-42416110D01*
X143621401Y-42696033D01*
X143759294Y-42954013D01*
X143944866Y-43180134D01*
X144170986Y-43365706D01*
X144428966Y-43503599D01*
X144708889Y-43588513D01*
X145000000Y-43617185D01*
X145291110Y-43588513D01*
X145571033Y-43503599D01*
X145829013Y-43365706D01*
X146055134Y-43180134D01*
X146240706Y-42954014D01*
X146250000Y-42936626D01*
X146259294Y-42954013D01*
X146444866Y-43180134D01*
X146670986Y-43365706D01*
X146928966Y-43503599D01*
X147208889Y-43588513D01*
X147500000Y-43617185D01*
X147791110Y-43588513D01*
X148071033Y-43503599D01*
X148329013Y-43365706D01*
X148549945Y-43184392D01*
X148560498Y-43219180D01*
X148619463Y-43329494D01*
X148698815Y-43426185D01*
X148795506Y-43505537D01*
X148905820Y-43564502D01*
X149025518Y-43600812D01*
X149150000Y-43613072D01*
X149714250Y-43610000D01*
X149873000Y-43451250D01*
X149873000Y-42127000D01*
X150127000Y-42127000D01*
X150127000Y-43451250D01*
X150285750Y-43610000D01*
X150850000Y-43613072D01*
X150974482Y-43600812D01*
X151094180Y-43564502D01*
X151204494Y-43505537D01*
X151301185Y-43426185D01*
X151380537Y-43329494D01*
X151439502Y-43219180D01*
X151475812Y-43099482D01*
X151488072Y-42975000D01*
X151485000Y-42285750D01*
X151326250Y-42127000D01*
X150127000Y-42127000D01*
X149873000Y-42127000D01*
X149853000Y-42127000D01*
X149853000Y-41873000D01*
X149873000Y-41873000D01*
X149873000Y-40548750D01*
X150127000Y-40548750D01*
X150127000Y-41873000D01*
X151326250Y-41873000D01*
X151485000Y-41714250D01*
X151488072Y-41025000D01*
X151475812Y-40900518D01*
X151439502Y-40780820D01*
X151380537Y-40670506D01*
X151301185Y-40573815D01*
X151204494Y-40494463D01*
X151094180Y-40435498D01*
X150974482Y-40399188D01*
X150850000Y-40386928D01*
X150285750Y-40390000D01*
X150127000Y-40548750D01*
X149873000Y-40548750D01*
X149714250Y-40390000D01*
X149150000Y-40386928D01*
X149025518Y-40399188D01*
X148905820Y-40435498D01*
X148795506Y-40494463D01*
X148698815Y-40573815D01*
X148619463Y-40670506D01*
X148560498Y-40780820D01*
X148549945Y-40815608D01*
X148329014Y-40634294D01*
X148071034Y-40496401D01*
X147791111Y-40411487D01*
X147500000Y-40382815D01*
X147208890Y-40411487D01*
X146928967Y-40496401D01*
X146670987Y-40634294D01*
X146444866Y-40819866D01*
X146259294Y-41045986D01*
X146250000Y-41063374D01*
X146240706Y-41045986D01*
X146055134Y-40819866D01*
X145829014Y-40634294D01*
X145571034Y-40496401D01*
X145291111Y-40411487D01*
X145000000Y-40382815D01*
X144708890Y-40411487D01*
X144428967Y-40496401D01*
X144170987Y-40634294D01*
X143944866Y-40819866D01*
X143759294Y-41045986D01*
X143621401Y-41303966D01*
X143536487Y-41583889D01*
X143515000Y-41802050D01*
X137897200Y-41802050D01*
X137985000Y-41714250D01*
X137988072Y-41025000D01*
X137975812Y-40900518D01*
X137939502Y-40780820D01*
X137880537Y-40670506D01*
X137801185Y-40573815D01*
X137704494Y-40494463D01*
X137594180Y-40435498D01*
X137474482Y-40399188D01*
X137350000Y-40386928D01*
X136785750Y-40390000D01*
X136627000Y-40548750D01*
X136373000Y-40548750D01*
X136214250Y-40390000D01*
X135650000Y-40386928D01*
X135525518Y-40399188D01*
X135405820Y-40435498D01*
X135295506Y-40494463D01*
X135198815Y-40573815D01*
X135119463Y-40670506D01*
X135060498Y-40780820D01*
X135049945Y-40815608D01*
X134829014Y-40634294D01*
X134571034Y-40496401D01*
X134291111Y-40411487D01*
X134000000Y-40382815D01*
X133708890Y-40411487D01*
X133428967Y-40496401D01*
X133170987Y-40634294D01*
X132944866Y-40819866D01*
X132759294Y-41045986D01*
X132750000Y-41063374D01*
X132740706Y-41045986D01*
X132555134Y-40819866D01*
X132329014Y-40634294D01*
X132071034Y-40496401D01*
X131791111Y-40411487D01*
X131500000Y-40382815D01*
X131208890Y-40411487D01*
X130928967Y-40496401D01*
X130670987Y-40634294D01*
X130444866Y-40819866D01*
X130259294Y-41045986D01*
X130121401Y-41303966D01*
X130036487Y-41583889D01*
X130015000Y-41802050D01*
X130015000Y-42197949D01*
X130036487Y-42416110D01*
X130121401Y-42696033D01*
X130259294Y-42954013D01*
X130444866Y-43180134D01*
X130670986Y-43365706D01*
X130928966Y-43503599D01*
X131208889Y-43588513D01*
X131500000Y-43617185D01*
X131791110Y-43588513D01*
X132071033Y-43503599D01*
X132329013Y-43365706D01*
X132555134Y-43180134D01*
X132740706Y-42954014D01*
X132750000Y-42936626D01*
X132759294Y-42954013D01*
X132944866Y-43180134D01*
X133170986Y-43365706D01*
X133215000Y-43389232D01*
X133215001Y-45213843D01*
X126472190Y-51956655D01*
X126442236Y-51981238D01*
X126344138Y-52100770D01*
X126271246Y-52237143D01*
X126226359Y-52385116D01*
X126215000Y-52500442D01*
X126215000Y-52500449D01*
X126211203Y-52539002D01*
X126215000Y-52577555D01*
X126215001Y-54104841D01*
X123932190Y-56387653D01*
X123902236Y-56412236D01*
X123804138Y-56531768D01*
X123731246Y-56668141D01*
X123689879Y-56804509D01*
X123658899Y-56821068D01*
X123440392Y-57000393D01*
X123261068Y-57218900D01*
X123190000Y-57351858D01*
X123118932Y-57218899D01*
X122939607Y-57000392D01*
X122721100Y-56821068D01*
X122705000Y-56812462D01*
X122705000Y-51125157D01*
X122975000Y-50855157D01*
X122975000Y-50927002D01*
X123139844Y-50927002D01*
X123018524Y-51156890D01*
X123063175Y-51304099D01*
X123188359Y-51566920D01*
X123362412Y-51800269D01*
X123578645Y-51995178D01*
X123695534Y-52064805D01*
X123513368Y-52186525D01*
X123306525Y-52393368D01*
X123144010Y-52636589D01*
X123032068Y-52906842D01*
X122975000Y-53193740D01*
X122975000Y-53486260D01*
X123032068Y-53773158D01*
X123144010Y-54043411D01*
X123306525Y-54286632D01*
X123513368Y-54493475D01*
X123756589Y-54655990D01*
X124026842Y-54767932D01*
X124313740Y-54825000D01*
X124606260Y-54825000D01*
X124893158Y-54767932D01*
X125163411Y-54655990D01*
X125406632Y-54493475D01*
X125613475Y-54286632D01*
X125775990Y-54043411D01*
X125887932Y-53773158D01*
X125945000Y-53486260D01*
X125945000Y-53193740D01*
X125887932Y-52906842D01*
X125775990Y-52636589D01*
X125613475Y-52393368D01*
X125406632Y-52186525D01*
X125224466Y-52064805D01*
X125341355Y-51995178D01*
X125557588Y-51800269D01*
X125731641Y-51566920D01*
X125856825Y-51304099D01*
X125901476Y-51156890D01*
X125780155Y-50927000D01*
X124587000Y-50927000D01*
X124587000Y-50947000D01*
X124333000Y-50947000D01*
X124333000Y-50927000D01*
X124313000Y-50927000D01*
X124313000Y-50673000D01*
X124333000Y-50673000D01*
X124333000Y-50653000D01*
X124587000Y-50653000D01*
X124587000Y-50673000D01*
X125780155Y-50673000D01*
X125901476Y-50443110D01*
X125856825Y-50295901D01*
X125731641Y-50033080D01*
X125557588Y-49799731D01*
X125341355Y-49604822D01*
X125224466Y-49535195D01*
X125406632Y-49413475D01*
X125613475Y-49206632D01*
X125775990Y-48963411D01*
X125887932Y-48693158D01*
X125945000Y-48406260D01*
X125945000Y-48113740D01*
X125907075Y-47923082D01*
X126527810Y-47302347D01*
X126557764Y-47277764D01*
X126655862Y-47158233D01*
X126728754Y-47021860D01*
X126773642Y-46873887D01*
X126783381Y-46775000D01*
X126785000Y-46758561D01*
X126785000Y-46758556D01*
X126788797Y-46720000D01*
X126785000Y-46681444D01*
X126785000Y-38493555D01*
X126788797Y-38455000D01*
X126785000Y-38416440D01*
X126785000Y-38416439D01*
X126781020Y-38376026D01*
X126773642Y-38301113D01*
X126728754Y-38153140D01*
X126655862Y-38016767D01*
X126557764Y-37897236D01*
X126527817Y-37872659D01*
X122457347Y-33802190D01*
X122432764Y-33772236D01*
X122313233Y-33674138D01*
X122176860Y-33601246D01*
X122048480Y-33562303D01*
X122015706Y-33500986D01*
X121830134Y-33274866D01*
X121604014Y-33089294D01*
X121578278Y-33075538D01*
X121784429Y-32919049D01*
X121977496Y-32701193D01*
X122124352Y-32449858D01*
X122216476Y-32186890D01*
X122095155Y-31957000D01*
X120777000Y-31957000D01*
X120777000Y-31977000D01*
X120523000Y-31977000D01*
X120523000Y-31957000D01*
X119204845Y-31957000D01*
X119083524Y-32186890D01*
X119175648Y-32449858D01*
X119322504Y-32701193D01*
X119515571Y-32919049D01*
X119721722Y-33075538D01*
X119695986Y-33089294D01*
X119469866Y-33274866D01*
X119284294Y-33500986D01*
X119146401Y-33758966D01*
X119061487Y-34038889D01*
X119032815Y-34330000D01*
X119061487Y-34621111D01*
X119146401Y-34901034D01*
X119284294Y-35159014D01*
X119469866Y-35385134D01*
X119533337Y-35437223D01*
X119431614Y-35491595D01*
X119297038Y-35602038D01*
X119186595Y-35736614D01*
X119104528Y-35890150D01*
X119053992Y-36056746D01*
X119036928Y-36230000D01*
X119036928Y-37430000D01*
X119053992Y-37603254D01*
X119104528Y-37769850D01*
X119186595Y-37923386D01*
X119297038Y-38057962D01*
X119431614Y-38168405D01*
X119585150Y-38250472D01*
X119751746Y-38301008D01*
X119865000Y-38312163D01*
X119865001Y-41871437D01*
X119861203Y-41910000D01*
X119876359Y-42063886D01*
X119921246Y-42211859D01*
X119931523Y-42231086D01*
X119994139Y-42348233D01*
X120017046Y-42376145D01*
X120067655Y-42437812D01*
X120067659Y-42437816D01*
X120092237Y-42467764D01*
X120122185Y-42492342D01*
X123012925Y-45383082D01*
X122975000Y-45573740D01*
X122975000Y-45866260D01*
X123012924Y-46056918D01*
X120865000Y-48204843D01*
X120865000Y-48132998D01*
X120700156Y-48132998D01*
X120821476Y-47903110D01*
X120776825Y-47755901D01*
X120651641Y-47493080D01*
X120477588Y-47259731D01*
X120261355Y-47064822D01*
X120144466Y-46995195D01*
X120326632Y-46873475D01*
X120533475Y-46666632D01*
X120695990Y-46423411D01*
X120807932Y-46153158D01*
X120865000Y-45866260D01*
X120865000Y-45573740D01*
X120807932Y-45286842D01*
X120695990Y-45016589D01*
X120533475Y-44773368D01*
X120326632Y-44566525D01*
X120083411Y-44404010D01*
X119813158Y-44292068D01*
X119526260Y-44235000D01*
X119233740Y-44235000D01*
X118946842Y-44292068D01*
X118676589Y-44404010D01*
X118433368Y-44566525D01*
X118226525Y-44773368D01*
X118064010Y-45016589D01*
X117952068Y-45286842D01*
X117895000Y-45573740D01*
X117895000Y-45866260D01*
X117952068Y-46153158D01*
X118064010Y-46423411D01*
X118226525Y-46666632D01*
X118433368Y-46873475D01*
X118615534Y-46995195D01*
X118498645Y-47064822D01*
X118282412Y-47259731D01*
X118108359Y-47493080D01*
X117983175Y-47755901D01*
X117938524Y-47903110D01*
X118059845Y-48133000D01*
X119253000Y-48133000D01*
X119253000Y-48113000D01*
X119507000Y-48113000D01*
X119507000Y-48133000D01*
X119527000Y-48133000D01*
X119527000Y-48387000D01*
X119507000Y-48387000D01*
X119507000Y-48407000D01*
X119253000Y-48407000D01*
X119253000Y-48387000D01*
X118059845Y-48387000D01*
X117938524Y-48616890D01*
X117983175Y-48764099D01*
X118108359Y-49026920D01*
X118282412Y-49260269D01*
X118498645Y-49455178D01*
X118615534Y-49524805D01*
X118433368Y-49646525D01*
X118226525Y-49853368D01*
X118064010Y-50096589D01*
X117952068Y-50366842D01*
X117895000Y-50653740D01*
X117895000Y-50946260D01*
X117952068Y-51233158D01*
X118064010Y-51503411D01*
X118226525Y-51746632D01*
X118358380Y-51878487D01*
X118285820Y-51900498D01*
X118175506Y-51959463D01*
X118078815Y-52038815D01*
X117999463Y-52135506D01*
X117940498Y-52245820D01*
X117904188Y-52365518D01*
X117891928Y-52490000D01*
X117891928Y-52657327D01*
X117841767Y-52684138D01*
X117722236Y-52782236D01*
X117697653Y-52812190D01*
X116972190Y-53537653D01*
X116942236Y-53562236D01*
X116844138Y-53681768D01*
X116771246Y-53818141D01*
X116726359Y-53966114D01*
X116715000Y-54081440D01*
X116715000Y-54081447D01*
X116711203Y-54120000D01*
X116627000Y-54120000D01*
X116627000Y-44602633D01*
X116789721Y-44635000D01*
X117210279Y-44635000D01*
X117622756Y-44552953D01*
X118011302Y-44392012D01*
X118360983Y-44158363D01*
X118658363Y-43860983D01*
X118892012Y-43511302D01*
X119052953Y-43122756D01*
X119135000Y-42710279D01*
X119135000Y-42289721D01*
X119052953Y-41877244D01*
X118892012Y-41488698D01*
X118658363Y-41139017D01*
X118360983Y-40841637D01*
X118011302Y-40607988D01*
X117622756Y-40447047D01*
X117210279Y-40365000D01*
X116789721Y-40365000D01*
X116627000Y-40397367D01*
X116627000Y-29330000D01*
X119032815Y-29330000D01*
X119061487Y-29621111D01*
X119146401Y-29901034D01*
X119284294Y-30159014D01*
X119469866Y-30385134D01*
X119695986Y-30570706D01*
X119721722Y-30584462D01*
X119515571Y-30740951D01*
X119322504Y-30958807D01*
X119175648Y-31210142D01*
X119083524Y-31473110D01*
X119204845Y-31703000D01*
X120523000Y-31703000D01*
X120523000Y-31683000D01*
X120777000Y-31683000D01*
X120777000Y-31703000D01*
X122095155Y-31703000D01*
X122216476Y-31473110D01*
X122124352Y-31210142D01*
X121977496Y-30958807D01*
X121784429Y-30740951D01*
X121578278Y-30584462D01*
X121604014Y-30570706D01*
X121830134Y-30385134D01*
X122015706Y-30159014D01*
X122153599Y-29901034D01*
X122238513Y-29621111D01*
X122267185Y-29330000D01*
X122238513Y-29038889D01*
X122153599Y-28758966D01*
X122015706Y-28500986D01*
X121830134Y-28274866D01*
X121604014Y-28089294D01*
X121346034Y-27951401D01*
X121066111Y-27866487D01*
X120847950Y-27845000D01*
X120452050Y-27845000D01*
X120233889Y-27866487D01*
X119953966Y-27951401D01*
X119695986Y-28089294D01*
X119469866Y-28274866D01*
X119284294Y-28500986D01*
X119146401Y-28758966D01*
X119061487Y-29038889D01*
X119032815Y-29330000D01*
X116627000Y-29330000D01*
X116627000Y-28552606D01*
X119552606Y-25627000D01*
X185447394Y-25627000D01*
X188373000Y-28552606D01*
G37*
X188373000Y-28552606D02*
X188373000Y-79447394D01*
X185447394Y-82373000D01*
X139567378Y-82373000D01*
X139642012Y-82261302D01*
X139802953Y-81872756D01*
X139885000Y-81460279D01*
X139885000Y-81039721D01*
X139802953Y-80627244D01*
X139642012Y-80238698D01*
X139408363Y-79889017D01*
X139110983Y-79591637D01*
X138761302Y-79357988D01*
X138372756Y-79197047D01*
X137960279Y-79115000D01*
X137539721Y-79115000D01*
X137127244Y-79197047D01*
X136738698Y-79357988D01*
X136389017Y-79591637D01*
X136091637Y-79889017D01*
X135857988Y-80238698D01*
X135697047Y-80627244D01*
X135615000Y-81039721D01*
X135615000Y-81460279D01*
X135697047Y-81872756D01*
X135857988Y-82261302D01*
X135932622Y-82373000D01*
X119552606Y-82373000D01*
X116627000Y-79447394D01*
X116627000Y-54120000D01*
X116711203Y-54120000D01*
X116715000Y-54158553D01*
X116715001Y-60131437D01*
X116711203Y-60170000D01*
X116726359Y-60323886D01*
X116771246Y-60471859D01*
X116771247Y-60471860D01*
X116844139Y-60608233D01*
X116853335Y-60619438D01*
X116917655Y-60697812D01*
X116917659Y-60697816D01*
X116942237Y-60727764D01*
X116972185Y-60752342D01*
X120523347Y-64303505D01*
X120424180Y-64250498D01*
X120304482Y-64214188D01*
X120180000Y-64201928D01*
X118580000Y-64201928D01*
X118455518Y-64214188D01*
X118335820Y-64250498D01*
X118225506Y-64309463D01*
X118128815Y-64388815D01*
X118049463Y-64485506D01*
X117990498Y-64595820D01*
X117954188Y-64715518D01*
X117941928Y-64840000D01*
X117941928Y-67240000D01*
X117954188Y-67364482D01*
X117990498Y-67484180D01*
X118049463Y-67594494D01*
X118128815Y-67691185D01*
X118225506Y-67770537D01*
X118335820Y-67829502D01*
X118455518Y-67865812D01*
X118580000Y-67878072D01*
X118595001Y-67878072D01*
X118595001Y-68864388D01*
X118569463Y-68895506D01*
X118510498Y-69005820D01*
X118474188Y-69125518D01*
X118461928Y-69250000D01*
X118461928Y-70800000D01*
X118474188Y-70924482D01*
X118510498Y-71044180D01*
X118569463Y-71154494D01*
X118648815Y-71251185D01*
X118745506Y-71330537D01*
X118855820Y-71389502D01*
X118965000Y-71422621D01*
X118965001Y-76577378D01*
X118855820Y-76610498D01*
X118745506Y-76669463D01*
X118648815Y-76748815D01*
X118569463Y-76845506D01*
X118510498Y-76955820D01*
X118474188Y-77075518D01*
X118461928Y-77200000D01*
X118461928Y-78750000D01*
X118474188Y-78874482D01*
X118510498Y-78994180D01*
X118569463Y-79104494D01*
X118648815Y-79201185D01*
X118745506Y-79280537D01*
X118855820Y-79339502D01*
X118965000Y-79372621D01*
X118965000Y-79811447D01*
X118961203Y-79850000D01*
X118965000Y-79888553D01*
X118965000Y-79888560D01*
X118976359Y-80003886D01*
X119021246Y-80151859D01*
X119094138Y-80288232D01*
X119192236Y-80407764D01*
X119222190Y-80432347D01*
X119764341Y-80974498D01*
X119778992Y-81123255D01*
X119829528Y-81289851D01*
X119911595Y-81443387D01*
X120022038Y-81577962D01*
X120156613Y-81688405D01*
X120310149Y-81770472D01*
X120476745Y-81821008D01*
X120649999Y-81838072D01*
X121300001Y-81838072D01*
X121473255Y-81821008D01*
X121639851Y-81770472D01*
X121793387Y-81688405D01*
X121927962Y-81577962D01*
X121933342Y-81571406D01*
X121998815Y-81651185D01*
X122095506Y-81730537D01*
X122205820Y-81789502D01*
X122325518Y-81825812D01*
X122450000Y-81838072D01*
X122739250Y-81835000D01*
X122898000Y-81676250D01*
X122898000Y-80627000D01*
X123152000Y-80627000D01*
X123152000Y-81676250D01*
X123310750Y-81835000D01*
X123600000Y-81838072D01*
X123724482Y-81825812D01*
X123844180Y-81789502D01*
X123954494Y-81730537D01*
X124051185Y-81651185D01*
X124130537Y-81554494D01*
X124189502Y-81444180D01*
X124225812Y-81324482D01*
X124238072Y-81200000D01*
X124235000Y-80785750D01*
X124076250Y-80627000D01*
X123152000Y-80627000D01*
X122898000Y-80627000D01*
X122878000Y-80627000D01*
X122878000Y-80373000D01*
X122898000Y-80373000D01*
X122898000Y-79323750D01*
X122739250Y-79165000D01*
X122450000Y-79161928D01*
X122325518Y-79174188D01*
X122205820Y-79210498D01*
X122095506Y-79269463D01*
X121998815Y-79348815D01*
X121933342Y-79428594D01*
X121927962Y-79422038D01*
X121793387Y-79311595D01*
X121639851Y-79229528D01*
X121473255Y-79178992D01*
X121300001Y-79161928D01*
X120883402Y-79161928D01*
X120930537Y-79104494D01*
X120989502Y-78994180D01*
X121025812Y-78874482D01*
X121038072Y-78750000D01*
X121038072Y-77200000D01*
X121025812Y-77075518D01*
X120989502Y-76955820D01*
X120930537Y-76845506D01*
X120851185Y-76748815D01*
X120754494Y-76669463D01*
X120644180Y-76610498D01*
X120535000Y-76577379D01*
X120535000Y-71422621D01*
X120644180Y-71389502D01*
X120754494Y-71330537D01*
X120851185Y-71251185D01*
X120930537Y-71154494D01*
X120989502Y-71044180D01*
X121025812Y-70924482D01*
X121038072Y-70800000D01*
X121038072Y-69250000D01*
X121025812Y-69125518D01*
X120989502Y-69005820D01*
X120930537Y-68895506D01*
X120851185Y-68798815D01*
X120754494Y-68719463D01*
X120644180Y-68660498D01*
X120524482Y-68624188D01*
X120400000Y-68611928D01*
X120165000Y-68611928D01*
X120165000Y-67878072D01*
X120180000Y-67878072D01*
X120304482Y-67865812D01*
X120424180Y-67829502D01*
X120534494Y-67770537D01*
X120631185Y-67691185D01*
X120710537Y-67594494D01*
X120769502Y-67484180D01*
X120805812Y-67364482D01*
X120807581Y-67346517D01*
X120900393Y-67459608D01*
X121118900Y-67638932D01*
X121368193Y-67772182D01*
X121638692Y-67854236D01*
X121920000Y-67881943D01*
X122201309Y-67854236D01*
X122471808Y-67772182D01*
X122721101Y-67638932D01*
X122939608Y-67459608D01*
X123118932Y-67241101D01*
X123190000Y-67108142D01*
X123261068Y-67241101D01*
X123440393Y-67459608D01*
X123658900Y-67638932D01*
X123908193Y-67772182D01*
X124178692Y-67854236D01*
X124460000Y-67881943D01*
X124741309Y-67854236D01*
X125011808Y-67772182D01*
X125261101Y-67638932D01*
X125479608Y-67459608D01*
X125658932Y-67241101D01*
X125730000Y-67108142D01*
X125801068Y-67241101D01*
X125980393Y-67459608D01*
X126198900Y-67638932D01*
X126448193Y-67772182D01*
X126718692Y-67854236D01*
X127000000Y-67881943D01*
X127281309Y-67854236D01*
X127551808Y-67772182D01*
X127801101Y-67638932D01*
X128019608Y-67459608D01*
X128198932Y-67241101D01*
X128270000Y-67108142D01*
X128341068Y-67241101D01*
X128520393Y-67459608D01*
X128738900Y-67638932D01*
X128988193Y-67772182D01*
X129258692Y-67854236D01*
X129540000Y-67881943D01*
X129821309Y-67854236D01*
X130091808Y-67772182D01*
X130341101Y-67638932D01*
X130559608Y-67459608D01*
X130738932Y-67241101D01*
X130810000Y-67108142D01*
X130881068Y-67241101D01*
X131060393Y-67459608D01*
X131278900Y-67638932D01*
X131528193Y-67772182D01*
X131798692Y-67854236D01*
X132080000Y-67881943D01*
X132361309Y-67854236D01*
X132631808Y-67772182D01*
X132881101Y-67638932D01*
X133099608Y-67459608D01*
X133278932Y-67241101D01*
X133347265Y-67113259D01*
X133497399Y-67342839D01*
X133695105Y-67544500D01*
X133928354Y-67703715D01*
X134188182Y-67814367D01*
X134270961Y-67831904D01*
X134493000Y-67709915D01*
X134493000Y-66167000D01*
X134473000Y-66167000D01*
X134473000Y-65913000D01*
X134493000Y-65913000D01*
X134493000Y-64370085D01*
X134270961Y-64248096D01*
X134188182Y-64265633D01*
X133928354Y-64376285D01*
X133695105Y-64535500D01*
X133497399Y-64737161D01*
X133347265Y-64966741D01*
X133278932Y-64838899D01*
X133126724Y-64653434D01*
X135495158Y-62285000D01*
X151054843Y-62285000D01*
X149332190Y-64007653D01*
X149302236Y-64032236D01*
X149204138Y-64151768D01*
X149131246Y-64288141D01*
X149089879Y-64424509D01*
X149058899Y-64441068D01*
X148840392Y-64620393D01*
X148661068Y-64838900D01*
X148590000Y-64971858D01*
X148518932Y-64838899D01*
X148339607Y-64620392D01*
X148121100Y-64441068D01*
X147871807Y-64307818D01*
X147601308Y-64225764D01*
X147320000Y-64198057D01*
X147038691Y-64225764D01*
X146768192Y-64307818D01*
X146518899Y-64441068D01*
X146300392Y-64620393D01*
X146121068Y-64838900D01*
X146050000Y-64971858D01*
X145978932Y-64838899D01*
X145799607Y-64620392D01*
X145581100Y-64441068D01*
X145331807Y-64307818D01*
X145061308Y-64225764D01*
X144780000Y-64198057D01*
X144498691Y-64225764D01*
X144228192Y-64307818D01*
X143978899Y-64441068D01*
X143760392Y-64620393D01*
X143581068Y-64838900D01*
X143510000Y-64971858D01*
X143438932Y-64838899D01*
X143259607Y-64620392D01*
X143041100Y-64441068D01*
X142791807Y-64307818D01*
X142521308Y-64225764D01*
X142240000Y-64198057D01*
X141958691Y-64225764D01*
X141688192Y-64307818D01*
X141438899Y-64441068D01*
X141220392Y-64620393D01*
X141041068Y-64838900D01*
X140970000Y-64971858D01*
X140898932Y-64838899D01*
X140719607Y-64620392D01*
X140501100Y-64441068D01*
X140251807Y-64307818D01*
X139981308Y-64225764D01*
X139700000Y-64198057D01*
X139418691Y-64225764D01*
X139148192Y-64307818D01*
X138898899Y-64441068D01*
X138680392Y-64620393D01*
X138501068Y-64838900D01*
X138430000Y-64971858D01*
X138358932Y-64838899D01*
X138179607Y-64620392D01*
X137961100Y-64441068D01*
X137711807Y-64307818D01*
X137441308Y-64225764D01*
X137160000Y-64198057D01*
X136878691Y-64225764D01*
X136608192Y-64307818D01*
X136358899Y-64441068D01*
X136140392Y-64620393D01*
X135961068Y-64838900D01*
X135892735Y-64966742D01*
X135742601Y-64737161D01*
X135544895Y-64535500D01*
X135311646Y-64376285D01*
X135051818Y-64265633D01*
X134969039Y-64248096D01*
X134747000Y-64370085D01*
X134747000Y-65913000D01*
X134767000Y-65913000D01*
X134767000Y-66167000D01*
X134747000Y-66167000D01*
X134747000Y-67709915D01*
X134969039Y-67831904D01*
X135051818Y-67814367D01*
X135311646Y-67703715D01*
X135544895Y-67544500D01*
X135742601Y-67342839D01*
X135892735Y-67113259D01*
X135961068Y-67241101D01*
X136140393Y-67459608D01*
X136358900Y-67638932D01*
X136608193Y-67772182D01*
X136878692Y-67854236D01*
X137160000Y-67881943D01*
X137441309Y-67854236D01*
X137711808Y-67772182D01*
X137961101Y-67638932D01*
X138179608Y-67459608D01*
X138358932Y-67241101D01*
X138430000Y-67108142D01*
X138501068Y-67241101D01*
X138653276Y-67426566D01*
X137864843Y-68215000D01*
X133673552Y-68215000D01*
X133634999Y-68211203D01*
X133596446Y-68215000D01*
X133596439Y-68215000D01*
X133495490Y-68224943D01*
X133481112Y-68226359D01*
X133446672Y-68236806D01*
X133333140Y-68271246D01*
X133196767Y-68344138D01*
X133136559Y-68393550D01*
X133107187Y-68417655D01*
X133107184Y-68417658D01*
X133077236Y-68442236D01*
X133052658Y-68472185D01*
X131907185Y-69617658D01*
X131877237Y-69642236D01*
X131852659Y-69672184D01*
X131852655Y-69672188D01*
X131835115Y-69693561D01*
X131779139Y-69761767D01*
X131757710Y-69801859D01*
X131752328Y-69811928D01*
X128847500Y-69811928D01*
X128723018Y-69824188D01*
X128603320Y-69860498D01*
X128493006Y-69919463D01*
X128396315Y-69998815D01*
X128316963Y-70095506D01*
X128257998Y-70205820D01*
X128221688Y-70325518D01*
X128209428Y-70450000D01*
X128209428Y-74550000D01*
X128221688Y-74674482D01*
X128257998Y-74794180D01*
X128316963Y-74904494D01*
X128396315Y-75001185D01*
X128493006Y-75080537D01*
X128603320Y-75139502D01*
X128723018Y-75175812D01*
X128847500Y-75188072D01*
X131540001Y-75188072D01*
X131540000Y-76493749D01*
X131506613Y-76511595D01*
X131372038Y-76622038D01*
X131261595Y-76756613D01*
X131179528Y-76910149D01*
X131128992Y-77076745D01*
X131111928Y-77249999D01*
X131111928Y-78150001D01*
X131128992Y-78323255D01*
X131179528Y-78489851D01*
X131261595Y-78643387D01*
X131279332Y-78665000D01*
X127020869Y-78665000D01*
X125769446Y-77413578D01*
X125743291Y-77381709D01*
X125616146Y-77277364D01*
X125538072Y-77235632D01*
X125538072Y-77200000D01*
X125525812Y-77075518D01*
X125489502Y-76955820D01*
X125430537Y-76845506D01*
X125351185Y-76748815D01*
X125254494Y-76669463D01*
X125144180Y-76610498D01*
X125085000Y-76592546D01*
X125085000Y-71407454D01*
X125144180Y-71389502D01*
X125254494Y-71330537D01*
X125351185Y-71251185D01*
X125430537Y-71154494D01*
X125489502Y-71044180D01*
X125525812Y-70924482D01*
X125538072Y-70800000D01*
X125538072Y-69250000D01*
X125525812Y-69125518D01*
X125489502Y-69005820D01*
X125430537Y-68895506D01*
X125351185Y-68798815D01*
X125254494Y-68719463D01*
X125144180Y-68660498D01*
X125024482Y-68624188D01*
X124900000Y-68611928D01*
X123600000Y-68611928D01*
X123475518Y-68624188D01*
X123355820Y-68660498D01*
X123245506Y-68719463D01*
X123148815Y-68798815D01*
X123069463Y-68895506D01*
X123010498Y-69005820D01*
X122974188Y-69125518D01*
X122961928Y-69250000D01*
X122961928Y-70800000D01*
X122974188Y-70924482D01*
X123010498Y-71044180D01*
X123069463Y-71154494D01*
X123148815Y-71251185D01*
X123245506Y-71330537D01*
X123355820Y-71389502D01*
X123415000Y-71407454D01*
X123415001Y-76592546D01*
X123355820Y-76610498D01*
X123245506Y-76669463D01*
X123148815Y-76748815D01*
X123069463Y-76845506D01*
X123010498Y-76955820D01*
X122974188Y-77075518D01*
X122961928Y-77200000D01*
X122961928Y-78750000D01*
X122974188Y-78874482D01*
X123010498Y-78994180D01*
X123069463Y-79104494D01*
X123148815Y-79201185D01*
X123217883Y-79257867D01*
X123152000Y-79323750D01*
X123152000Y-80373000D01*
X124076250Y-80373000D01*
X124235000Y-80214250D01*
X124238072Y-79800000D01*
X124225812Y-79675518D01*
X124189502Y-79555820D01*
X124130537Y-79445506D01*
X124083402Y-79388072D01*
X124900000Y-79388072D01*
X125024482Y-79375812D01*
X125144180Y-79339502D01*
X125254494Y-79280537D01*
X125265575Y-79271443D01*
X126055563Y-80061432D01*
X126081709Y-80093291D01*
X126113568Y-80119437D01*
X126113570Y-80119439D01*
X126158575Y-80156373D01*
X126208854Y-80197636D01*
X126353913Y-80275172D01*
X126511311Y-80322918D01*
X126633981Y-80335000D01*
X126633982Y-80335000D01*
X126675000Y-80339040D01*
X126716018Y-80335000D01*
X133233982Y-80335000D01*
X133275000Y-80339040D01*
X133316018Y-80335000D01*
X133316019Y-80335000D01*
X133438689Y-80322918D01*
X133596087Y-80275172D01*
X133741146Y-80197636D01*
X133868291Y-80093291D01*
X133894445Y-80061422D01*
X134936433Y-79019436D01*
X134968291Y-78993291D01*
X134969506Y-78991811D01*
X135039851Y-78970472D01*
X135193387Y-78888405D01*
X135327962Y-78777962D01*
X135438405Y-78643387D01*
X135496339Y-78535000D01*
X140338661Y-78535000D01*
X140396595Y-78643387D01*
X140507038Y-78777962D01*
X140641613Y-78888405D01*
X140795149Y-78970472D01*
X140865494Y-78991811D01*
X140866709Y-78993291D01*
X140898578Y-79019446D01*
X142160563Y-80281432D01*
X142186709Y-80313291D01*
X142218568Y-80339437D01*
X142218570Y-80339439D01*
X142313854Y-80417636D01*
X142458913Y-80495172D01*
X142616311Y-80542918D01*
X142780000Y-80559040D01*
X142821018Y-80555000D01*
X149582546Y-80555000D01*
X149600498Y-80614180D01*
X149659463Y-80724494D01*
X149738815Y-80821185D01*
X149835506Y-80900537D01*
X149945820Y-80959502D01*
X150065518Y-80995812D01*
X150190000Y-81008072D01*
X151740000Y-81008072D01*
X151864482Y-80995812D01*
X151984180Y-80959502D01*
X152094494Y-80900537D01*
X152191185Y-80821185D01*
X152270537Y-80724494D01*
X152329502Y-80614180D01*
X152347454Y-80555000D01*
X157532546Y-80555000D01*
X157550498Y-80614180D01*
X157609463Y-80724494D01*
X157688815Y-80821185D01*
X157785506Y-80900537D01*
X157895820Y-80959502D01*
X158015518Y-80995812D01*
X158140000Y-81008072D01*
X159690000Y-81008072D01*
X159814482Y-80995812D01*
X159934180Y-80959502D01*
X160044494Y-80900537D01*
X160141185Y-80821185D01*
X160220537Y-80724494D01*
X160279502Y-80614180D01*
X160297454Y-80555000D01*
X162282546Y-80555000D01*
X162300498Y-80614180D01*
X162359463Y-80724494D01*
X162438815Y-80821185D01*
X162535506Y-80900537D01*
X162645820Y-80959502D01*
X162765518Y-80995812D01*
X162890000Y-81008072D01*
X164440000Y-81008072D01*
X164564482Y-80995812D01*
X164684180Y-80959502D01*
X164794494Y-80900537D01*
X164891185Y-80821185D01*
X164970537Y-80724494D01*
X165029502Y-80614180D01*
X165047454Y-80555000D01*
X170232546Y-80555000D01*
X170250498Y-80614180D01*
X170309463Y-80724494D01*
X170388815Y-80821185D01*
X170485506Y-80900537D01*
X170595820Y-80959502D01*
X170715518Y-80995812D01*
X170840000Y-81008072D01*
X172390000Y-81008072D01*
X172514482Y-80995812D01*
X172634180Y-80959502D01*
X172744494Y-80900537D01*
X172841185Y-80821185D01*
X172920537Y-80724494D01*
X172979502Y-80614180D01*
X172997454Y-80555000D01*
X174982546Y-80555000D01*
X175000498Y-80614180D01*
X175059463Y-80724494D01*
X175138815Y-80821185D01*
X175235506Y-80900537D01*
X175345820Y-80959502D01*
X175465518Y-80995812D01*
X175590000Y-81008072D01*
X177140000Y-81008072D01*
X177264482Y-80995812D01*
X177384180Y-80959502D01*
X177494494Y-80900537D01*
X177591185Y-80821185D01*
X177670537Y-80724494D01*
X177729502Y-80614180D01*
X177747454Y-80555000D01*
X182932546Y-80555000D01*
X182950498Y-80614180D01*
X183009463Y-80724494D01*
X183088815Y-80821185D01*
X183185506Y-80900537D01*
X183295820Y-80959502D01*
X183415518Y-80995812D01*
X183540000Y-81008072D01*
X185090000Y-81008072D01*
X185214482Y-80995812D01*
X185334180Y-80959502D01*
X185444494Y-80900537D01*
X185541185Y-80821185D01*
X185620537Y-80724494D01*
X185679502Y-80614180D01*
X185715812Y-80494482D01*
X185718781Y-80464334D01*
X185806146Y-80417636D01*
X185933291Y-80313291D01*
X185959445Y-80281422D01*
X187061432Y-79179437D01*
X187093291Y-79153291D01*
X187142108Y-79093808D01*
X187197636Y-79026146D01*
X187275172Y-78881087D01*
X187300401Y-78797918D01*
X187322918Y-78723689D01*
X187335000Y-78601019D01*
X187335000Y-78601018D01*
X187339040Y-78560000D01*
X187335000Y-78518982D01*
X187335000Y-70731018D01*
X187339040Y-70690000D01*
X187322918Y-70526312D01*
X187315501Y-70501859D01*
X187275172Y-70368913D01*
X187197636Y-70223854D01*
X187148422Y-70163886D01*
X187119439Y-70128570D01*
X187119437Y-70128568D01*
X187093291Y-70096709D01*
X187061433Y-70070564D01*
X186542027Y-69551158D01*
X186548405Y-69543386D01*
X186630472Y-69389850D01*
X186681008Y-69223254D01*
X186698072Y-69050000D01*
X186698072Y-67950000D01*
X186681008Y-67776746D01*
X186630472Y-67610150D01*
X186548405Y-67456614D01*
X186437962Y-67322038D01*
X186303386Y-67211595D01*
X186149850Y-67129528D01*
X185983254Y-67078992D01*
X185810000Y-67061928D01*
X185145000Y-67061928D01*
X185145000Y-63751007D01*
X185149039Y-63709999D01*
X185145000Y-63668991D01*
X185145000Y-63668981D01*
X185132918Y-63546311D01*
X185085172Y-63388913D01*
X185007636Y-63243854D01*
X184903291Y-63116709D01*
X184871428Y-63090560D01*
X181780867Y-60000000D01*
X183680868Y-58100000D01*
X184011928Y-58100000D01*
X184011928Y-61900000D01*
X184024188Y-62024482D01*
X184060498Y-62144180D01*
X184119463Y-62254494D01*
X184198815Y-62351185D01*
X184295506Y-62430537D01*
X184405820Y-62489502D01*
X184525518Y-62525812D01*
X184650000Y-62538072D01*
X186650000Y-62538072D01*
X186774482Y-62525812D01*
X186894180Y-62489502D01*
X187004494Y-62430537D01*
X187101185Y-62351185D01*
X187180537Y-62254494D01*
X187239502Y-62144180D01*
X187275812Y-62024482D01*
X187288072Y-61900000D01*
X187288072Y-58100000D01*
X187275812Y-57975518D01*
X187239502Y-57855820D01*
X187180537Y-57745506D01*
X187101185Y-57648815D01*
X187004494Y-57569463D01*
X186894180Y-57510498D01*
X186774482Y-57474188D01*
X186650000Y-57461928D01*
X184650000Y-57461928D01*
X184525518Y-57474188D01*
X184405820Y-57510498D01*
X184295506Y-57569463D01*
X184198815Y-57648815D01*
X184119463Y-57745506D01*
X184060498Y-57855820D01*
X184024188Y-57975518D01*
X184011928Y-58100000D01*
X183680868Y-58100000D01*
X185261432Y-56519437D01*
X185293291Y-56493291D01*
X185397636Y-56366146D01*
X185475172Y-56221087D01*
X185522918Y-56063689D01*
X185535000Y-55941019D01*
X185535000Y-55941018D01*
X185539040Y-55900000D01*
X185535000Y-55858982D01*
X185535000Y-52938072D01*
X186200000Y-52938072D01*
X186373254Y-52921008D01*
X186539850Y-52870472D01*
X186693386Y-52788405D01*
X186827962Y-52677962D01*
X186938405Y-52543386D01*
X187020472Y-52389850D01*
X187071008Y-52223254D01*
X187088072Y-52050000D01*
X187088072Y-50950000D01*
X187071008Y-50776746D01*
X187020472Y-50610150D01*
X186938405Y-50456614D01*
X186827962Y-50322038D01*
X186693386Y-50211595D01*
X186539850Y-50129528D01*
X186373254Y-50078992D01*
X186200000Y-50061928D01*
X185535000Y-50061928D01*
X185535000Y-43171018D01*
X185539040Y-43130000D01*
X185522918Y-42966312D01*
X185522119Y-42963676D01*
X185475172Y-42808913D01*
X185397636Y-42663854D01*
X185293291Y-42536709D01*
X185261433Y-42510564D01*
X184099445Y-41348578D01*
X184073291Y-41316709D01*
X183946146Y-41212364D01*
X183865000Y-41168990D01*
X183865000Y-40734592D01*
X183842790Y-40509087D01*
X183755017Y-40219739D01*
X183612481Y-39953073D01*
X183420661Y-39719339D01*
X183186926Y-39527519D01*
X182920260Y-39384983D01*
X182630912Y-39297210D01*
X182330000Y-39267573D01*
X182029087Y-39297210D01*
X181739739Y-39384983D01*
X181473073Y-39527519D01*
X181239339Y-39719339D01*
X181047519Y-39953074D01*
X180904983Y-40219740D01*
X180817210Y-40509088D01*
X180795000Y-40734593D01*
X180795001Y-43085408D01*
X180817211Y-43310913D01*
X180904984Y-43600261D01*
X181047520Y-43866927D01*
X181239340Y-44100661D01*
X181473074Y-44292481D01*
X181739740Y-44435017D01*
X182029088Y-44522790D01*
X182330000Y-44552427D01*
X182630913Y-44522790D01*
X182920261Y-44435017D01*
X183186927Y-44292481D01*
X183420661Y-44100661D01*
X183612481Y-43866927D01*
X183755017Y-43600261D01*
X183809567Y-43420435D01*
X183865000Y-43475869D01*
X183865001Y-50061928D01*
X183200000Y-50061928D01*
X183026746Y-50078992D01*
X182860150Y-50129528D01*
X182706614Y-50211595D01*
X182572038Y-50322038D01*
X182461595Y-50456614D01*
X182379528Y-50610150D01*
X182328992Y-50776746D01*
X182311928Y-50950000D01*
X182311928Y-52050000D01*
X182328992Y-52223254D01*
X182379528Y-52389850D01*
X182461595Y-52543386D01*
X182572038Y-52677962D01*
X182706614Y-52788405D01*
X182860150Y-52870472D01*
X183026746Y-52921008D01*
X183200000Y-52938072D01*
X183865000Y-52938072D01*
X183865001Y-55554130D01*
X180988072Y-58431061D01*
X180988072Y-56950000D01*
X180975812Y-56825518D01*
X180939502Y-56705820D01*
X180880537Y-56595506D01*
X180801185Y-56498815D01*
X180704494Y-56419463D01*
X180594180Y-56360498D01*
X180474482Y-56324188D01*
X180435000Y-56320299D01*
X180435000Y-52938072D01*
X180800000Y-52938072D01*
X180973254Y-52921008D01*
X181139850Y-52870472D01*
X181293386Y-52788405D01*
X181427962Y-52677962D01*
X181538405Y-52543386D01*
X181620472Y-52389850D01*
X181671008Y-52223254D01*
X181688072Y-52050000D01*
X181688072Y-50950000D01*
X181671008Y-50776746D01*
X181620472Y-50610150D01*
X181538405Y-50456614D01*
X181427962Y-50322038D01*
X181293386Y-50211595D01*
X181139850Y-50129528D01*
X180973254Y-50078992D01*
X180800000Y-50061928D01*
X179467061Y-50061928D01*
X177665000Y-48259869D01*
X177665000Y-44702287D01*
X177674180Y-44699502D01*
X177784494Y-44640537D01*
X177881185Y-44561185D01*
X177960537Y-44464494D01*
X178019502Y-44354180D01*
X178055812Y-44234482D01*
X178068072Y-44110000D01*
X178068072Y-39710000D01*
X178055812Y-39585518D01*
X178019502Y-39465820D01*
X177960537Y-39355506D01*
X177881185Y-39258815D01*
X177784494Y-39179463D01*
X177674180Y-39120498D01*
X177554482Y-39084188D01*
X177430000Y-39071928D01*
X175630000Y-39071928D01*
X175505518Y-39084188D01*
X175385820Y-39120498D01*
X175275506Y-39179463D01*
X175178815Y-39258815D01*
X175099463Y-39355506D01*
X175040498Y-39465820D01*
X175004188Y-39585518D01*
X174991928Y-39710000D01*
X174991928Y-39916796D01*
X172185132Y-37110000D01*
X176887573Y-37110000D01*
X176917210Y-37410913D01*
X177004983Y-37700261D01*
X177147519Y-37966927D01*
X177339339Y-38200661D01*
X177573073Y-38392481D01*
X177839739Y-38535017D01*
X178129087Y-38622790D01*
X178354592Y-38645000D01*
X180705408Y-38645000D01*
X180930913Y-38622790D01*
X181220261Y-38535017D01*
X181486927Y-38392481D01*
X181720661Y-38200661D01*
X181912481Y-37966927D01*
X182055017Y-37700261D01*
X182142790Y-37410913D01*
X182172427Y-37110000D01*
X182142790Y-36809087D01*
X182055017Y-36519739D01*
X181912481Y-36253073D01*
X181720661Y-36019339D01*
X181486927Y-35827519D01*
X181220261Y-35684983D01*
X180930913Y-35597210D01*
X180705408Y-35575000D01*
X178354592Y-35575000D01*
X178129087Y-35597210D01*
X177839739Y-35684983D01*
X177573073Y-35827519D01*
X177339339Y-36019339D01*
X177147519Y-36253073D01*
X177004983Y-36519739D01*
X176917210Y-36809087D01*
X176887573Y-37110000D01*
X172185132Y-37110000D01*
X170311996Y-35236865D01*
X170276449Y-35193551D01*
X170103623Y-35051716D01*
X169906447Y-34946324D01*
X169692499Y-34881423D01*
X169525752Y-34865000D01*
X169525751Y-34865000D01*
X169470000Y-34859509D01*
X169414249Y-34865000D01*
X154100132Y-34865000D01*
X151731616Y-32496485D01*
X151811185Y-32431185D01*
X151890537Y-32334494D01*
X151949502Y-32224180D01*
X151985812Y-32104482D01*
X151998072Y-31980000D01*
X151998072Y-30269721D01*
X154075000Y-30269721D01*
X154075000Y-30690279D01*
X154157047Y-31102756D01*
X154317988Y-31491302D01*
X154551637Y-31840983D01*
X154849017Y-32138363D01*
X155198698Y-32372012D01*
X155587244Y-32532953D01*
X155999721Y-32615000D01*
X156420279Y-32615000D01*
X156832756Y-32532953D01*
X157221302Y-32372012D01*
X157570983Y-32138363D01*
X157868363Y-31840983D01*
X158102012Y-31491302D01*
X158262953Y-31102756D01*
X158345000Y-30690279D01*
X158345000Y-30269721D01*
X159155000Y-30269721D01*
X159155000Y-30690279D01*
X159237047Y-31102756D01*
X159397988Y-31491302D01*
X159631637Y-31840983D01*
X159929017Y-32138363D01*
X160278698Y-32372012D01*
X160667244Y-32532953D01*
X161079721Y-32615000D01*
X161500279Y-32615000D01*
X161912756Y-32532953D01*
X162301302Y-32372012D01*
X162650983Y-32138363D01*
X162948363Y-31840983D01*
X163182012Y-31491302D01*
X163342953Y-31102756D01*
X163425000Y-30690279D01*
X163425000Y-30269721D01*
X164235000Y-30269721D01*
X164235000Y-30690279D01*
X164317047Y-31102756D01*
X164477988Y-31491302D01*
X164711637Y-31840983D01*
X165009017Y-32138363D01*
X165358698Y-32372012D01*
X165747244Y-32532953D01*
X166159721Y-32615000D01*
X166580279Y-32615000D01*
X166992756Y-32532953D01*
X167381302Y-32372012D01*
X167730983Y-32138363D01*
X168028363Y-31840983D01*
X168262012Y-31491302D01*
X168422953Y-31102756D01*
X168505000Y-30690279D01*
X168505000Y-30269721D01*
X169315000Y-30269721D01*
X169315000Y-30690279D01*
X169397047Y-31102756D01*
X169557988Y-31491302D01*
X169791637Y-31840983D01*
X170089017Y-32138363D01*
X170438698Y-32372012D01*
X170827244Y-32532953D01*
X171239721Y-32615000D01*
X171660279Y-32615000D01*
X172072756Y-32532953D01*
X172461302Y-32372012D01*
X172810983Y-32138363D01*
X173108363Y-31840983D01*
X173342012Y-31491302D01*
X173502953Y-31102756D01*
X173585000Y-30690279D01*
X173585000Y-30269721D01*
X173502953Y-29857244D01*
X173342012Y-29468698D01*
X173108363Y-29119017D01*
X172969346Y-28980000D01*
X174391928Y-28980000D01*
X174391928Y-31980000D01*
X174404188Y-32104482D01*
X174440498Y-32224180D01*
X174499463Y-32334494D01*
X174578815Y-32431185D01*
X174675506Y-32510537D01*
X174785820Y-32569502D01*
X174905518Y-32605812D01*
X175030000Y-32618072D01*
X178030000Y-32618072D01*
X178154482Y-32605812D01*
X178274180Y-32569502D01*
X178384494Y-32510537D01*
X178481185Y-32431185D01*
X178560537Y-32334494D01*
X178619502Y-32224180D01*
X178655812Y-32104482D01*
X178668072Y-31980000D01*
X178668072Y-29539721D01*
X183365000Y-29539721D01*
X183365000Y-29960279D01*
X183447047Y-30372756D01*
X183607988Y-30761302D01*
X183841637Y-31110983D01*
X184139017Y-31408363D01*
X184488698Y-31642012D01*
X184877244Y-31802953D01*
X185289721Y-31885000D01*
X185710279Y-31885000D01*
X186122756Y-31802953D01*
X186511302Y-31642012D01*
X186860983Y-31408363D01*
X187158363Y-31110983D01*
X187392012Y-30761302D01*
X187552953Y-30372756D01*
X187635000Y-29960279D01*
X187635000Y-29539721D01*
X187552953Y-29127244D01*
X187392012Y-28738698D01*
X187158363Y-28389017D01*
X186860983Y-28091637D01*
X186511302Y-27857988D01*
X186122756Y-27697047D01*
X185710279Y-27615000D01*
X185289721Y-27615000D01*
X184877244Y-27697047D01*
X184488698Y-27857988D01*
X184139017Y-28091637D01*
X183841637Y-28389017D01*
X183607988Y-28738698D01*
X183447047Y-29127244D01*
X183365000Y-29539721D01*
X178668072Y-29539721D01*
X178668072Y-28980000D01*
X178655812Y-28855518D01*
X178619502Y-28735820D01*
X178560537Y-28625506D01*
X178481185Y-28528815D01*
X178384494Y-28449463D01*
X178274180Y-28390498D01*
X178154482Y-28354188D01*
X178030000Y-28341928D01*
X175030000Y-28341928D01*
X174905518Y-28354188D01*
X174785820Y-28390498D01*
X174675506Y-28449463D01*
X174578815Y-28528815D01*
X174499463Y-28625506D01*
X174440498Y-28735820D01*
X174404188Y-28855518D01*
X174391928Y-28980000D01*
X172969346Y-28980000D01*
X172810983Y-28821637D01*
X172461302Y-28587988D01*
X172072756Y-28427047D01*
X171660279Y-28345000D01*
X171239721Y-28345000D01*
X170827244Y-28427047D01*
X170438698Y-28587988D01*
X170089017Y-28821637D01*
X169791637Y-29119017D01*
X169557988Y-29468698D01*
X169397047Y-29857244D01*
X169315000Y-30269721D01*
X168505000Y-30269721D01*
X168422953Y-29857244D01*
X168262012Y-29468698D01*
X168028363Y-29119017D01*
X167730983Y-28821637D01*
X167381302Y-28587988D01*
X166992756Y-28427047D01*
X166580279Y-28345000D01*
X166159721Y-28345000D01*
X165747244Y-28427047D01*
X165358698Y-28587988D01*
X165009017Y-28821637D01*
X164711637Y-29119017D01*
X164477988Y-29468698D01*
X164317047Y-29857244D01*
X164235000Y-30269721D01*
X163425000Y-30269721D01*
X163342953Y-29857244D01*
X163182012Y-29468698D01*
X162948363Y-29119017D01*
X162650983Y-28821637D01*
X162301302Y-28587988D01*
X161912756Y-28427047D01*
X161500279Y-28345000D01*
X161079721Y-28345000D01*
X160667244Y-28427047D01*
X160278698Y-28587988D01*
X159929017Y-28821637D01*
X159631637Y-29119017D01*
X159397988Y-29468698D01*
X159237047Y-29857244D01*
X159155000Y-30269721D01*
X158345000Y-30269721D01*
X158262953Y-29857244D01*
X158102012Y-29468698D01*
X157868363Y-29119017D01*
X157570983Y-28821637D01*
X157221302Y-28587988D01*
X156832756Y-28427047D01*
X156420279Y-28345000D01*
X155999721Y-28345000D01*
X155587244Y-28427047D01*
X155198698Y-28587988D01*
X154849017Y-28821637D01*
X154551637Y-29119017D01*
X154317988Y-29468698D01*
X154157047Y-29857244D01*
X154075000Y-30269721D01*
X151998072Y-30269721D01*
X151998072Y-28980000D01*
X151985812Y-28855518D01*
X151949502Y-28735820D01*
X151890537Y-28625506D01*
X151811185Y-28528815D01*
X151714494Y-28449463D01*
X151604180Y-28390498D01*
X151484482Y-28354188D01*
X151360000Y-28341928D01*
X148360000Y-28341928D01*
X148235518Y-28354188D01*
X148115820Y-28390498D01*
X148005506Y-28449463D01*
X147908815Y-28528815D01*
X147829463Y-28625506D01*
X147770498Y-28735820D01*
X147734188Y-28855518D01*
X147721928Y-28980000D01*
X147721928Y-29345000D01*
X146589360Y-29345000D01*
X146438363Y-29119017D01*
X146140983Y-28821637D01*
X145791302Y-28587988D01*
X145402756Y-28427047D01*
X144990279Y-28345000D01*
X144569721Y-28345000D01*
X144157244Y-28427047D01*
X143768698Y-28587988D01*
X143419017Y-28821637D01*
X143121637Y-29119017D01*
X142970640Y-29345000D01*
X141509360Y-29345000D01*
X141358363Y-29119017D01*
X141060983Y-28821637D01*
X140711302Y-28587988D01*
X140322756Y-28427047D01*
X139910279Y-28345000D01*
X139489721Y-28345000D01*
X139077244Y-28427047D01*
X138688698Y-28587988D01*
X138339017Y-28821637D01*
X138041637Y-29119017D01*
X137890640Y-29345000D01*
X136429360Y-29345000D01*
X136278363Y-29119017D01*
X135980983Y-28821637D01*
X135631302Y-28587988D01*
X135242756Y-28427047D01*
X134830279Y-28345000D01*
X134409721Y-28345000D01*
X133997244Y-28427047D01*
X133608698Y-28587988D01*
X133259017Y-28821637D01*
X132961637Y-29119017D01*
X132810640Y-29345000D01*
X131349360Y-29345000D01*
X131198363Y-29119017D01*
X130900983Y-28821637D01*
X130551302Y-28587988D01*
X130162756Y-28427047D01*
X129750279Y-28345000D01*
X129329721Y-28345000D01*
X128917244Y-28427047D01*
X128528698Y-28587988D01*
X128179017Y-28821637D01*
X127881637Y-29119017D01*
X127647988Y-29468698D01*
X127487047Y-29857244D01*
X127405000Y-30269721D01*
X127405000Y-30690279D01*
X127487047Y-31102756D01*
X127647988Y-31491302D01*
X127881637Y-31840983D01*
X128179017Y-32138363D01*
X128528698Y-32372012D01*
X128917244Y-32532953D01*
X129329721Y-32615000D01*
X129750279Y-32615000D01*
X130162756Y-32532953D01*
X130551302Y-32372012D01*
X130900983Y-32138363D01*
X131198363Y-31840983D01*
X131349360Y-31615000D01*
X132810640Y-31615000D01*
X132961637Y-31840983D01*
X133259017Y-32138363D01*
X133608698Y-32372012D01*
X133997244Y-32532953D01*
X134409721Y-32615000D01*
X134830279Y-32615000D01*
X135242756Y-32532953D01*
X135631302Y-32372012D01*
X135980983Y-32138363D01*
X136278363Y-31840983D01*
X136429360Y-31615000D01*
X137890640Y-31615000D01*
X138041637Y-31840983D01*
X138339017Y-32138363D01*
X138688698Y-32372012D01*
X139077244Y-32532953D01*
X139489721Y-32615000D01*
X139910279Y-32615000D01*
X140322756Y-32532953D01*
X140711302Y-32372012D01*
X141060983Y-32138363D01*
X141358363Y-31840983D01*
X141509360Y-31615000D01*
X142970640Y-31615000D01*
X143121637Y-31840983D01*
X143419017Y-32138363D01*
X143768698Y-32372012D01*
X144157244Y-32532953D01*
X144569721Y-32615000D01*
X144990279Y-32615000D01*
X145402756Y-32532953D01*
X145791302Y-32372012D01*
X146140983Y-32138363D01*
X146438363Y-31840983D01*
X146589360Y-31615000D01*
X147721928Y-31615000D01*
X147721928Y-31980000D01*
X147734188Y-32104482D01*
X147770498Y-32224180D01*
X147829463Y-32334494D01*
X147908815Y-32431185D01*
X148005506Y-32510537D01*
X148115820Y-32569502D01*
X148235518Y-32605812D01*
X148360000Y-32618072D01*
X148791650Y-32618072D01*
X148806324Y-32666446D01*
X148911716Y-32863623D01*
X149053551Y-33036449D01*
X149096865Y-33071996D01*
X152788009Y-36763141D01*
X152823551Y-36806449D01*
X152996377Y-36948284D01*
X153193553Y-37053676D01*
X153357705Y-37103471D01*
X153407500Y-37118577D01*
X153629999Y-37140491D01*
X153685751Y-37135000D01*
X168999869Y-37135000D01*
X174538009Y-42673141D01*
X174573551Y-42716449D01*
X174746377Y-42858284D01*
X174943553Y-42963676D01*
X174991928Y-42978351D01*
X174991928Y-44110000D01*
X175004188Y-44234482D01*
X175040498Y-44354180D01*
X175099463Y-44464494D01*
X175178815Y-44561185D01*
X175275506Y-44640537D01*
X175385820Y-44699502D01*
X175395000Y-44702287D01*
X175395001Y-48674239D01*
X175389509Y-48730000D01*
X175411423Y-48952498D01*
X175476324Y-49166446D01*
X175476325Y-49166447D01*
X175581717Y-49363623D01*
X175723552Y-49536449D01*
X175766860Y-49571991D01*
X176938912Y-50744044D01*
X176928992Y-50776746D01*
X176911928Y-50950000D01*
X176911928Y-52050000D01*
X176928992Y-52223254D01*
X176979528Y-52389850D01*
X177061595Y-52543386D01*
X177172038Y-52677962D01*
X177306614Y-52788405D01*
X177460150Y-52870472D01*
X177626746Y-52921008D01*
X177800000Y-52938072D01*
X178165000Y-52938072D01*
X178165001Y-56342546D01*
X178105820Y-56360498D01*
X177995506Y-56419463D01*
X177898815Y-56498815D01*
X177819463Y-56595506D01*
X177760498Y-56705820D01*
X177724188Y-56825518D01*
X177711928Y-56950000D01*
X177711928Y-58450000D01*
X177724188Y-58574482D01*
X177760498Y-58694180D01*
X177819463Y-58804494D01*
X177856809Y-58850000D01*
X177819463Y-58895506D01*
X177760498Y-59005820D01*
X177724188Y-59125518D01*
X177711928Y-59250000D01*
X177711928Y-60750000D01*
X177724188Y-60874482D01*
X177760498Y-60994180D01*
X177819463Y-61104494D01*
X177856809Y-61150000D01*
X177819463Y-61195506D01*
X177760498Y-61305820D01*
X177724188Y-61425518D01*
X177711928Y-61550000D01*
X177715000Y-62014250D01*
X177873750Y-62173000D01*
X179223000Y-62173000D01*
X179223000Y-62153000D01*
X179477000Y-62153000D01*
X179477000Y-62173000D01*
X180826250Y-62173000D01*
X180985000Y-62014250D01*
X180987948Y-61568815D01*
X183475000Y-64055868D01*
X183475001Y-67061928D01*
X182810000Y-67061928D01*
X182636746Y-67078992D01*
X182470150Y-67129528D01*
X182316614Y-67211595D01*
X182182038Y-67322038D01*
X182071595Y-67456614D01*
X181989528Y-67610150D01*
X181938992Y-67776746D01*
X181921928Y-67950000D01*
X181921928Y-69050000D01*
X181938992Y-69223254D01*
X181989528Y-69389850D01*
X182071595Y-69543386D01*
X182182038Y-69677962D01*
X182316614Y-69788405D01*
X182470150Y-69870472D01*
X182636746Y-69921008D01*
X182810000Y-69938072D01*
X184567204Y-69938072D01*
X185665000Y-71035869D01*
X185665000Y-74298690D01*
X185620537Y-74215506D01*
X185541185Y-74118815D01*
X185444494Y-74039463D01*
X185334180Y-73980498D01*
X185214482Y-73944188D01*
X185090000Y-73931928D01*
X183540000Y-73931928D01*
X183415518Y-73944188D01*
X183295820Y-73980498D01*
X183185506Y-74039463D01*
X183088815Y-74118815D01*
X183009463Y-74215506D01*
X182950498Y-74325820D01*
X182917379Y-74435000D01*
X177762621Y-74435000D01*
X177729502Y-74325820D01*
X177670537Y-74215506D01*
X177591185Y-74118815D01*
X177494494Y-74039463D01*
X177384180Y-73980498D01*
X177264482Y-73944188D01*
X177140000Y-73931928D01*
X177047673Y-73931928D01*
X177020862Y-73881767D01*
X176922764Y-73762236D01*
X176892810Y-73737653D01*
X175785000Y-72629843D01*
X175785000Y-69300000D01*
X176521928Y-69300000D01*
X176534188Y-69424482D01*
X176570498Y-69544180D01*
X176629463Y-69654494D01*
X176708815Y-69751185D01*
X176805506Y-69830537D01*
X176915820Y-69889502D01*
X177035518Y-69925812D01*
X177160000Y-69938072D01*
X178624250Y-69935000D01*
X178783000Y-69776250D01*
X178783000Y-68627000D01*
X179037000Y-68627000D01*
X179037000Y-69776250D01*
X179195750Y-69935000D01*
X180660000Y-69938072D01*
X180784482Y-69925812D01*
X180904180Y-69889502D01*
X181014494Y-69830537D01*
X181111185Y-69751185D01*
X181190537Y-69654494D01*
X181249502Y-69544180D01*
X181285812Y-69424482D01*
X181298072Y-69300000D01*
X181295000Y-68785750D01*
X181136250Y-68627000D01*
X179037000Y-68627000D01*
X178783000Y-68627000D01*
X176683750Y-68627000D01*
X176525000Y-68785750D01*
X176521928Y-69300000D01*
X175785000Y-69300000D01*
X175785000Y-67700000D01*
X176521928Y-67700000D01*
X176525000Y-68214250D01*
X176683750Y-68373000D01*
X178783000Y-68373000D01*
X178783000Y-67223750D01*
X179037000Y-67223750D01*
X179037000Y-68373000D01*
X181136250Y-68373000D01*
X181295000Y-68214250D01*
X181298072Y-67700000D01*
X181285812Y-67575518D01*
X181249502Y-67455820D01*
X181190537Y-67345506D01*
X181111185Y-67248815D01*
X181014494Y-67169463D01*
X180904180Y-67110498D01*
X180784482Y-67074188D01*
X180660000Y-67061928D01*
X179195750Y-67065000D01*
X179037000Y-67223750D01*
X178783000Y-67223750D01*
X178624250Y-67065000D01*
X177160000Y-67061928D01*
X177035518Y-67074188D01*
X176915820Y-67110498D01*
X176805506Y-67169463D01*
X176708815Y-67248815D01*
X176629463Y-67345506D01*
X176570498Y-67455820D01*
X176534188Y-67575518D01*
X176521928Y-67700000D01*
X175785000Y-67700000D01*
X175785000Y-63050000D01*
X177711928Y-63050000D01*
X177724188Y-63174482D01*
X177760498Y-63294180D01*
X177819463Y-63404494D01*
X177898815Y-63501185D01*
X177995506Y-63580537D01*
X178105820Y-63639502D01*
X178225518Y-63675812D01*
X178350000Y-63688072D01*
X179064250Y-63685000D01*
X179223000Y-63526250D01*
X179223000Y-62427000D01*
X179477000Y-62427000D01*
X179477000Y-63526250D01*
X179635750Y-63685000D01*
X180350000Y-63688072D01*
X180474482Y-63675812D01*
X180594180Y-63639502D01*
X180704494Y-63580537D01*
X180801185Y-63501185D01*
X180880537Y-63404494D01*
X180939502Y-63294180D01*
X180975812Y-63174482D01*
X180988072Y-63050000D01*
X180985000Y-62585750D01*
X180826250Y-62427000D01*
X179477000Y-62427000D01*
X179223000Y-62427000D01*
X177873750Y-62427000D01*
X177715000Y-62585750D01*
X177711928Y-63050000D01*
X175785000Y-63050000D01*
X175785000Y-53463552D01*
X175788797Y-53424999D01*
X175785000Y-53386446D01*
X175785000Y-53386439D01*
X175773641Y-53271113D01*
X175728754Y-53123140D01*
X175655862Y-52986767D01*
X175601894Y-52921008D01*
X175582345Y-52897187D01*
X175582342Y-52897184D01*
X175557764Y-52867236D01*
X175527816Y-52842658D01*
X171210659Y-48525502D01*
X171196008Y-48376745D01*
X171145472Y-48210149D01*
X171063405Y-48056613D01*
X170952962Y-47922038D01*
X170818387Y-47811595D01*
X170664851Y-47729528D01*
X170498255Y-47678992D01*
X170488154Y-47677997D01*
X169782347Y-46972190D01*
X169757764Y-46942236D01*
X169638233Y-46844138D01*
X169501860Y-46771246D01*
X169353887Y-46726359D01*
X169238561Y-46715000D01*
X169238553Y-46715000D01*
X169200000Y-46711203D01*
X169161447Y-46715000D01*
X167145157Y-46715000D01*
X168477817Y-45382341D01*
X168507764Y-45357764D01*
X168605862Y-45238233D01*
X168678754Y-45101860D01*
X168723641Y-44953887D01*
X168735000Y-44838561D01*
X168735000Y-44838554D01*
X168738797Y-44800001D01*
X168735000Y-44761448D01*
X168735000Y-44706251D01*
X168768387Y-44688405D01*
X168902962Y-44577962D01*
X168975000Y-44490184D01*
X169047038Y-44577962D01*
X169181613Y-44688405D01*
X169335149Y-44770472D01*
X169501745Y-44821008D01*
X169674999Y-44838072D01*
X170325001Y-44838072D01*
X170498255Y-44821008D01*
X170664851Y-44770472D01*
X170818387Y-44688405D01*
X170952962Y-44577962D01*
X171063405Y-44443387D01*
X171145472Y-44289851D01*
X171196008Y-44123255D01*
X171213072Y-43950001D01*
X171213072Y-43049999D01*
X171196008Y-42876745D01*
X171145472Y-42710149D01*
X171063405Y-42556613D01*
X170952962Y-42422038D01*
X170818387Y-42311595D01*
X170810000Y-42307112D01*
X170810000Y-42206251D01*
X170843387Y-42188405D01*
X170977962Y-42077962D01*
X171088405Y-41943387D01*
X171170472Y-41789851D01*
X171221008Y-41623255D01*
X171238072Y-41450001D01*
X171238072Y-40549999D01*
X171221008Y-40376745D01*
X171170472Y-40210149D01*
X171088405Y-40056613D01*
X170977962Y-39922038D01*
X170843387Y-39811595D01*
X170689851Y-39729528D01*
X170523255Y-39678992D01*
X170350001Y-39661928D01*
X169699999Y-39661928D01*
X169526745Y-39678992D01*
X169360149Y-39729528D01*
X169206613Y-39811595D01*
X169072038Y-39922038D01*
X169000000Y-40009816D01*
X168927962Y-39922038D01*
X168793387Y-39811595D01*
X168639851Y-39729528D01*
X168473255Y-39678992D01*
X168300001Y-39661928D01*
X167649999Y-39661928D01*
X167476745Y-39678992D01*
X167310338Y-39729471D01*
X166519446Y-38938579D01*
X166493291Y-38906709D01*
X166366146Y-38802364D01*
X166221087Y-38724828D01*
X166063689Y-38677082D01*
X165941019Y-38665000D01*
X165941018Y-38665000D01*
X165900000Y-38660960D01*
X165858982Y-38665000D01*
X160041018Y-38665000D01*
X160000000Y-38660960D01*
X159958981Y-38665000D01*
X159836311Y-38677082D01*
X159678913Y-38724828D01*
X159533854Y-38802364D01*
X159406709Y-38906709D01*
X159380563Y-38938568D01*
X158188578Y-40130555D01*
X158156709Y-40156709D01*
X158062712Y-40271246D01*
X158052364Y-40283855D01*
X157974828Y-40428914D01*
X157927082Y-40586312D01*
X157925031Y-40607132D01*
X157920987Y-40609294D01*
X157694866Y-40794866D01*
X157509294Y-41020986D01*
X157371401Y-41278966D01*
X157286487Y-41558889D01*
X157265000Y-41777050D01*
X157265000Y-42222949D01*
X157286487Y-42441110D01*
X157371401Y-42721033D01*
X157509294Y-42979013D01*
X157694866Y-43205134D01*
X157920986Y-43390706D01*
X158178966Y-43528599D01*
X158458889Y-43613513D01*
X158750000Y-43642185D01*
X159041110Y-43613513D01*
X159321033Y-43528599D01*
X159579013Y-43390706D01*
X159799945Y-43209392D01*
X159810498Y-43244180D01*
X159869463Y-43354494D01*
X159948815Y-43451185D01*
X160045506Y-43530537D01*
X160155820Y-43589502D01*
X160275518Y-43625812D01*
X160400000Y-43638072D01*
X160964250Y-43635000D01*
X161123000Y-43476250D01*
X161123000Y-42127000D01*
X161377000Y-42127000D01*
X161377000Y-43476250D01*
X161535750Y-43635000D01*
X162100000Y-43638072D01*
X162224482Y-43625812D01*
X162344180Y-43589502D01*
X162454494Y-43530537D01*
X162551185Y-43451185D01*
X162630537Y-43354494D01*
X162689502Y-43244180D01*
X162725812Y-43124482D01*
X162738072Y-43000000D01*
X162735000Y-42285750D01*
X162576250Y-42127000D01*
X161377000Y-42127000D01*
X161123000Y-42127000D01*
X161103000Y-42127000D01*
X161103000Y-41873000D01*
X161123000Y-41873000D01*
X161123000Y-40523750D01*
X161377000Y-40523750D01*
X161377000Y-41873000D01*
X162576250Y-41873000D01*
X162735000Y-41714250D01*
X162738072Y-41000000D01*
X162725812Y-40875518D01*
X162689502Y-40755820D01*
X162630537Y-40645506D01*
X162551185Y-40548815D01*
X162454494Y-40469463D01*
X162344180Y-40410498D01*
X162224482Y-40374188D01*
X162100000Y-40361928D01*
X161535750Y-40365000D01*
X161377000Y-40523750D01*
X161123000Y-40523750D01*
X160964250Y-40365000D01*
X160400000Y-40361928D01*
X160310085Y-40370784D01*
X160345869Y-40335000D01*
X165554133Y-40335000D01*
X166772066Y-41552934D01*
X166778992Y-41623255D01*
X166829528Y-41789851D01*
X166911595Y-41943387D01*
X167022038Y-42077962D01*
X167156613Y-42188405D01*
X167259349Y-42243319D01*
X167131613Y-42311595D01*
X166997038Y-42422038D01*
X166886595Y-42556613D01*
X166804528Y-42710149D01*
X166753992Y-42876745D01*
X166736928Y-43049999D01*
X166736928Y-43950001D01*
X166753992Y-44123255D01*
X166804528Y-44289851D01*
X166886595Y-44443387D01*
X166997038Y-44577962D01*
X167032652Y-44607190D01*
X165674843Y-45965000D01*
X157288552Y-45965000D01*
X157249999Y-45961203D01*
X157211446Y-45965000D01*
X157211439Y-45965000D01*
X157110490Y-45974943D01*
X157096112Y-45976359D01*
X156948140Y-46021246D01*
X156811767Y-46094138D01*
X156758742Y-46137655D01*
X156722187Y-46167655D01*
X156722184Y-46167658D01*
X156692236Y-46192236D01*
X156667658Y-46222184D01*
X151485000Y-51404843D01*
X151485000Y-51372998D01*
X151326252Y-51372998D01*
X151485000Y-51214250D01*
X151488072Y-50525000D01*
X151475812Y-50400518D01*
X151439502Y-50280820D01*
X151380537Y-50170506D01*
X151301185Y-50073815D01*
X151204494Y-49994463D01*
X151094180Y-49935498D01*
X150974482Y-49899188D01*
X150850000Y-49886928D01*
X150285750Y-49890000D01*
X150127000Y-50048750D01*
X150127000Y-51373000D01*
X150147000Y-51373000D01*
X150147000Y-51627000D01*
X150127000Y-51627000D01*
X150127000Y-51647000D01*
X149873000Y-51647000D01*
X149873000Y-51627000D01*
X149853000Y-51627000D01*
X149853000Y-51373000D01*
X149873000Y-51373000D01*
X149873000Y-50048750D01*
X149714250Y-49890000D01*
X149150000Y-49886928D01*
X149025518Y-49899188D01*
X148905820Y-49935498D01*
X148795506Y-49994463D01*
X148698815Y-50073815D01*
X148619463Y-50170506D01*
X148560498Y-50280820D01*
X148549945Y-50315608D01*
X148329014Y-50134294D01*
X148071034Y-49996401D01*
X147791111Y-49911487D01*
X147500000Y-49882815D01*
X147208890Y-49911487D01*
X146928967Y-49996401D01*
X146670987Y-50134294D01*
X146444866Y-50319866D01*
X146259294Y-50545986D01*
X146250000Y-50563374D01*
X146240706Y-50545986D01*
X146055134Y-50319866D01*
X145829014Y-50134294D01*
X145571034Y-49996401D01*
X145291111Y-49911487D01*
X145000000Y-49882815D01*
X144708890Y-49911487D01*
X144428967Y-49996401D01*
X144170987Y-50134294D01*
X143944866Y-50319866D01*
X143759294Y-50545986D01*
X143621401Y-50803966D01*
X143536487Y-51083889D01*
X143515000Y-51302050D01*
X143515000Y-51697949D01*
X143536487Y-51916110D01*
X143621401Y-52196033D01*
X143759294Y-52454013D01*
X143944866Y-52680134D01*
X144170986Y-52865706D01*
X144428966Y-53003599D01*
X144708889Y-53088513D01*
X145000000Y-53117185D01*
X145291110Y-53088513D01*
X145571033Y-53003599D01*
X145829013Y-52865706D01*
X146055134Y-52680134D01*
X146240706Y-52454014D01*
X146250000Y-52436626D01*
X146259294Y-52454013D01*
X146444866Y-52680134D01*
X146670986Y-52865706D01*
X146928966Y-53003599D01*
X147208889Y-53088513D01*
X147500000Y-53117185D01*
X147791110Y-53088513D01*
X148071033Y-53003599D01*
X148329013Y-52865706D01*
X148549945Y-52684392D01*
X148560498Y-52719180D01*
X148619463Y-52829494D01*
X148698815Y-52926185D01*
X148795506Y-53005537D01*
X148905820Y-53064502D01*
X149025518Y-53100812D01*
X149150000Y-53113072D01*
X149714250Y-53110000D01*
X149872998Y-52951252D01*
X149872998Y-53016845D01*
X149174843Y-53715000D01*
X145798556Y-53715000D01*
X145760000Y-53711203D01*
X145721444Y-53715000D01*
X145721439Y-53715000D01*
X145681026Y-53718980D01*
X145606113Y-53726358D01*
X145458140Y-53771246D01*
X145321767Y-53844138D01*
X145202236Y-53942236D01*
X145177655Y-53972188D01*
X142538779Y-56611064D01*
X142521308Y-56605764D01*
X142240000Y-56578057D01*
X141958691Y-56605764D01*
X141688192Y-56687818D01*
X141438899Y-56821068D01*
X141220392Y-57000393D01*
X141041068Y-57218900D01*
X140972735Y-57346742D01*
X140822601Y-57117161D01*
X140624895Y-56915500D01*
X140391646Y-56756285D01*
X140131818Y-56645633D01*
X140049039Y-56628096D01*
X139827000Y-56750085D01*
X139827000Y-58293000D01*
X139847000Y-58293000D01*
X139847000Y-58547000D01*
X139827000Y-58547000D01*
X139827000Y-58567000D01*
X139573000Y-58567000D01*
X139573000Y-58547000D01*
X137287000Y-58547000D01*
X137287000Y-58567000D01*
X137033000Y-58567000D01*
X137033000Y-58547000D01*
X137013000Y-58547000D01*
X137013000Y-58293000D01*
X137033000Y-58293000D01*
X137033000Y-56750085D01*
X137287000Y-56750085D01*
X137287000Y-58293000D01*
X139573000Y-58293000D01*
X139573000Y-56750085D01*
X139350961Y-56628096D01*
X139268182Y-56645633D01*
X139008354Y-56756285D01*
X138775105Y-56915500D01*
X138577399Y-57117161D01*
X138430000Y-57342559D01*
X138282601Y-57117161D01*
X138084895Y-56915500D01*
X137851646Y-56756285D01*
X137591818Y-56645633D01*
X137509039Y-56628096D01*
X137287000Y-56750085D01*
X137033000Y-56750085D01*
X136810961Y-56628096D01*
X136728182Y-56645633D01*
X136468354Y-56756285D01*
X136235105Y-56915500D01*
X136037399Y-57117161D01*
X135887265Y-57346741D01*
X135818932Y-57218899D01*
X135639607Y-57000392D01*
X135421100Y-56821068D01*
X135171807Y-56687818D01*
X134901308Y-56605764D01*
X134620000Y-56578057D01*
X134338691Y-56605764D01*
X134068192Y-56687818D01*
X133818899Y-56821068D01*
X133600392Y-57000393D01*
X133421068Y-57218900D01*
X133350000Y-57351858D01*
X133278932Y-57218899D01*
X133099607Y-57000392D01*
X132881100Y-56821068D01*
X132631807Y-56687818D01*
X132361308Y-56605764D01*
X132080000Y-56578057D01*
X131798691Y-56605764D01*
X131528192Y-56687818D01*
X131278899Y-56821068D01*
X131060392Y-57000393D01*
X130881068Y-57218900D01*
X130810000Y-57351858D01*
X130738932Y-57218899D01*
X130559607Y-57000392D01*
X130341100Y-56821068D01*
X130091807Y-56687818D01*
X129821308Y-56605764D01*
X129540000Y-56578057D01*
X129258691Y-56605764D01*
X128988192Y-56687818D01*
X128738899Y-56821068D01*
X128520392Y-57000393D01*
X128341068Y-57218900D01*
X128270000Y-57351858D01*
X128198932Y-57218899D01*
X128046724Y-57033434D01*
X129795158Y-55285000D01*
X131086447Y-55285000D01*
X131125000Y-55288797D01*
X131163553Y-55285000D01*
X131163561Y-55285000D01*
X131278887Y-55273641D01*
X131426860Y-55228754D01*
X131563233Y-55155862D01*
X131682764Y-55057764D01*
X131707347Y-55027810D01*
X133661132Y-53074026D01*
X133708889Y-53088513D01*
X134000000Y-53117185D01*
X134291110Y-53088513D01*
X134571033Y-53003599D01*
X134829013Y-52865706D01*
X135049945Y-52684392D01*
X135060498Y-52719180D01*
X135119463Y-52829494D01*
X135198815Y-52926185D01*
X135295506Y-53005537D01*
X135405820Y-53064502D01*
X135525518Y-53100812D01*
X135650000Y-53113072D01*
X136214250Y-53110000D01*
X136373000Y-52951250D01*
X136373000Y-51627000D01*
X136627000Y-51627000D01*
X136627000Y-52951250D01*
X136785750Y-53110000D01*
X137350000Y-53113072D01*
X137474482Y-53100812D01*
X137594180Y-53064502D01*
X137704494Y-53005537D01*
X137801185Y-52926185D01*
X137880537Y-52829494D01*
X137939502Y-52719180D01*
X137975812Y-52599482D01*
X137988072Y-52475000D01*
X137985000Y-51785750D01*
X137826250Y-51627000D01*
X136627000Y-51627000D01*
X136373000Y-51627000D01*
X136353000Y-51627000D01*
X136353000Y-51373000D01*
X136373000Y-51373000D01*
X136373000Y-50048750D01*
X136627000Y-50048750D01*
X136627000Y-51373000D01*
X137826250Y-51373000D01*
X137985000Y-51214250D01*
X137988072Y-50525000D01*
X137975812Y-50400518D01*
X137939502Y-50280820D01*
X137880537Y-50170506D01*
X137801185Y-50073815D01*
X137704494Y-49994463D01*
X137594180Y-49935498D01*
X137474482Y-49899188D01*
X137350000Y-49886928D01*
X136785750Y-49890000D01*
X136627000Y-50048750D01*
X136373000Y-50048750D01*
X136214250Y-49890000D01*
X135650000Y-49886928D01*
X135525518Y-49899188D01*
X135405820Y-49935498D01*
X135295506Y-49994463D01*
X135198815Y-50073815D01*
X135119463Y-50170506D01*
X135060498Y-50280820D01*
X135049945Y-50315608D01*
X134829014Y-50134294D01*
X134571034Y-49996401D01*
X134291111Y-49911487D01*
X134000000Y-49882815D01*
X133708890Y-49911487D01*
X133428967Y-49996401D01*
X133170987Y-50134294D01*
X132944866Y-50319866D01*
X132759294Y-50545986D01*
X132750000Y-50563374D01*
X132740706Y-50545986D01*
X132555134Y-50319866D01*
X132329014Y-50134294D01*
X132071034Y-49996401D01*
X131791111Y-49911487D01*
X131500000Y-49882815D01*
X131208890Y-49911487D01*
X130928967Y-49996401D01*
X130670987Y-50134294D01*
X130444866Y-50319866D01*
X130259294Y-50545986D01*
X130121401Y-50803966D01*
X130036487Y-51083889D01*
X130015000Y-51302050D01*
X130015000Y-51697949D01*
X130036487Y-51916110D01*
X130121401Y-52196033D01*
X130259294Y-52454013D01*
X130444866Y-52680134D01*
X130670986Y-52865706D01*
X130928966Y-53003599D01*
X131208889Y-53088513D01*
X131406834Y-53108009D01*
X130799843Y-53715000D01*
X129508552Y-53715000D01*
X129469999Y-53711203D01*
X129431446Y-53715000D01*
X129431439Y-53715000D01*
X129330490Y-53724943D01*
X129316112Y-53726359D01*
X129281672Y-53736806D01*
X129168140Y-53771246D01*
X129031767Y-53844138D01*
X128959753Y-53903239D01*
X128942187Y-53917655D01*
X128942184Y-53917658D01*
X128912236Y-53942236D01*
X128887658Y-53972184D01*
X126472190Y-56387653D01*
X126442236Y-56412236D01*
X126344138Y-56531768D01*
X126271246Y-56668141D01*
X126229879Y-56804509D01*
X126198899Y-56821068D01*
X125980392Y-57000393D01*
X125801068Y-57218900D01*
X125730000Y-57351858D01*
X125658932Y-57218899D01*
X125506724Y-57033434D01*
X127322363Y-55217795D01*
X127438233Y-55155862D01*
X127557764Y-55057764D01*
X127655862Y-54938233D01*
X127728754Y-54801860D01*
X127773641Y-54653887D01*
X127785000Y-54538561D01*
X127788798Y-54500000D01*
X127785000Y-54461439D01*
X127785000Y-52864159D01*
X134527816Y-46121344D01*
X134557764Y-46096766D01*
X134655862Y-45977235D01*
X134728754Y-45840862D01*
X134773642Y-45692889D01*
X134783893Y-45588798D01*
X134785000Y-45577563D01*
X134785000Y-45577558D01*
X134788797Y-45539002D01*
X134785000Y-45500447D01*
X134785000Y-43389231D01*
X134829013Y-43365706D01*
X135049945Y-43184392D01*
X135060498Y-43219180D01*
X135119463Y-43329494D01*
X135198815Y-43426185D01*
X135295506Y-43505537D01*
X135405820Y-43564502D01*
X135525518Y-43600812D01*
X135650000Y-43613072D01*
X136214250Y-43610000D01*
X136373000Y-43451250D01*
X136373000Y-42127000D01*
X136627000Y-42127000D01*
X136627000Y-43451250D01*
X136785750Y-43610000D01*
X137350000Y-43613072D01*
X137474482Y-43600812D01*
X137594180Y-43564502D01*
X137704494Y-43505537D01*
X137801185Y-43426185D01*
X137880537Y-43329494D01*
X137939502Y-43219180D01*
X137975812Y-43099482D01*
X137988072Y-42975000D01*
X137985000Y-42285750D01*
X137826250Y-42127000D01*
X136627000Y-42127000D01*
X136373000Y-42127000D01*
X136353000Y-42127000D01*
X136353000Y-41873000D01*
X136373000Y-41873000D01*
X136373000Y-40548750D01*
X136627000Y-40548750D01*
X136627000Y-41873000D01*
X137826250Y-41873000D01*
X137897200Y-41802050D01*
X143515000Y-41802050D01*
X143515000Y-42197949D01*
X143536487Y-42416110D01*
X143621401Y-42696033D01*
X143759294Y-42954013D01*
X143944866Y-43180134D01*
X144170986Y-43365706D01*
X144428966Y-43503599D01*
X144708889Y-43588513D01*
X145000000Y-43617185D01*
X145291110Y-43588513D01*
X145571033Y-43503599D01*
X145829013Y-43365706D01*
X146055134Y-43180134D01*
X146240706Y-42954014D01*
X146250000Y-42936626D01*
X146259294Y-42954013D01*
X146444866Y-43180134D01*
X146670986Y-43365706D01*
X146928966Y-43503599D01*
X147208889Y-43588513D01*
X147500000Y-43617185D01*
X147791110Y-43588513D01*
X148071033Y-43503599D01*
X148329013Y-43365706D01*
X148549945Y-43184392D01*
X148560498Y-43219180D01*
X148619463Y-43329494D01*
X148698815Y-43426185D01*
X148795506Y-43505537D01*
X148905820Y-43564502D01*
X149025518Y-43600812D01*
X149150000Y-43613072D01*
X149714250Y-43610000D01*
X149873000Y-43451250D01*
X149873000Y-42127000D01*
X150127000Y-42127000D01*
X150127000Y-43451250D01*
X150285750Y-43610000D01*
X150850000Y-43613072D01*
X150974482Y-43600812D01*
X151094180Y-43564502D01*
X151204494Y-43505537D01*
X151301185Y-43426185D01*
X151380537Y-43329494D01*
X151439502Y-43219180D01*
X151475812Y-43099482D01*
X151488072Y-42975000D01*
X151485000Y-42285750D01*
X151326250Y-42127000D01*
X150127000Y-42127000D01*
X149873000Y-42127000D01*
X149853000Y-42127000D01*
X149853000Y-41873000D01*
X149873000Y-41873000D01*
X149873000Y-40548750D01*
X150127000Y-40548750D01*
X150127000Y-41873000D01*
X151326250Y-41873000D01*
X151485000Y-41714250D01*
X151488072Y-41025000D01*
X151475812Y-40900518D01*
X151439502Y-40780820D01*
X151380537Y-40670506D01*
X151301185Y-40573815D01*
X151204494Y-40494463D01*
X151094180Y-40435498D01*
X150974482Y-40399188D01*
X150850000Y-40386928D01*
X150285750Y-40390000D01*
X150127000Y-40548750D01*
X149873000Y-40548750D01*
X149714250Y-40390000D01*
X149150000Y-40386928D01*
X149025518Y-40399188D01*
X148905820Y-40435498D01*
X148795506Y-40494463D01*
X148698815Y-40573815D01*
X148619463Y-40670506D01*
X148560498Y-40780820D01*
X148549945Y-40815608D01*
X148329014Y-40634294D01*
X148071034Y-40496401D01*
X147791111Y-40411487D01*
X147500000Y-40382815D01*
X147208890Y-40411487D01*
X146928967Y-40496401D01*
X146670987Y-40634294D01*
X146444866Y-40819866D01*
X146259294Y-41045986D01*
X146250000Y-41063374D01*
X146240706Y-41045986D01*
X146055134Y-40819866D01*
X145829014Y-40634294D01*
X145571034Y-40496401D01*
X145291111Y-40411487D01*
X145000000Y-40382815D01*
X144708890Y-40411487D01*
X144428967Y-40496401D01*
X144170987Y-40634294D01*
X143944866Y-40819866D01*
X143759294Y-41045986D01*
X143621401Y-41303966D01*
X143536487Y-41583889D01*
X143515000Y-41802050D01*
X137897200Y-41802050D01*
X137985000Y-41714250D01*
X137988072Y-41025000D01*
X137975812Y-40900518D01*
X137939502Y-40780820D01*
X137880537Y-40670506D01*
X137801185Y-40573815D01*
X137704494Y-40494463D01*
X137594180Y-40435498D01*
X137474482Y-40399188D01*
X137350000Y-40386928D01*
X136785750Y-40390000D01*
X136627000Y-40548750D01*
X136373000Y-40548750D01*
X136214250Y-40390000D01*
X135650000Y-40386928D01*
X135525518Y-40399188D01*
X135405820Y-40435498D01*
X135295506Y-40494463D01*
X135198815Y-40573815D01*
X135119463Y-40670506D01*
X135060498Y-40780820D01*
X135049945Y-40815608D01*
X134829014Y-40634294D01*
X134571034Y-40496401D01*
X134291111Y-40411487D01*
X134000000Y-40382815D01*
X133708890Y-40411487D01*
X133428967Y-40496401D01*
X133170987Y-40634294D01*
X132944866Y-40819866D01*
X132759294Y-41045986D01*
X132750000Y-41063374D01*
X132740706Y-41045986D01*
X132555134Y-40819866D01*
X132329014Y-40634294D01*
X132071034Y-40496401D01*
X131791111Y-40411487D01*
X131500000Y-40382815D01*
X131208890Y-40411487D01*
X130928967Y-40496401D01*
X130670987Y-40634294D01*
X130444866Y-40819866D01*
X130259294Y-41045986D01*
X130121401Y-41303966D01*
X130036487Y-41583889D01*
X130015000Y-41802050D01*
X130015000Y-42197949D01*
X130036487Y-42416110D01*
X130121401Y-42696033D01*
X130259294Y-42954013D01*
X130444866Y-43180134D01*
X130670986Y-43365706D01*
X130928966Y-43503599D01*
X131208889Y-43588513D01*
X131500000Y-43617185D01*
X131791110Y-43588513D01*
X132071033Y-43503599D01*
X132329013Y-43365706D01*
X132555134Y-43180134D01*
X132740706Y-42954014D01*
X132750000Y-42936626D01*
X132759294Y-42954013D01*
X132944866Y-43180134D01*
X133170986Y-43365706D01*
X133215000Y-43389232D01*
X133215001Y-45213843D01*
X126472190Y-51956655D01*
X126442236Y-51981238D01*
X126344138Y-52100770D01*
X126271246Y-52237143D01*
X126226359Y-52385116D01*
X126215000Y-52500442D01*
X126215000Y-52500449D01*
X126211203Y-52539002D01*
X126215000Y-52577555D01*
X126215001Y-54104841D01*
X123932190Y-56387653D01*
X123902236Y-56412236D01*
X123804138Y-56531768D01*
X123731246Y-56668141D01*
X123689879Y-56804509D01*
X123658899Y-56821068D01*
X123440392Y-57000393D01*
X123261068Y-57218900D01*
X123190000Y-57351858D01*
X123118932Y-57218899D01*
X122939607Y-57000392D01*
X122721100Y-56821068D01*
X122705000Y-56812462D01*
X122705000Y-51125157D01*
X122975000Y-50855157D01*
X122975000Y-50927002D01*
X123139844Y-50927002D01*
X123018524Y-51156890D01*
X123063175Y-51304099D01*
X123188359Y-51566920D01*
X123362412Y-51800269D01*
X123578645Y-51995178D01*
X123695534Y-52064805D01*
X123513368Y-52186525D01*
X123306525Y-52393368D01*
X123144010Y-52636589D01*
X123032068Y-52906842D01*
X122975000Y-53193740D01*
X122975000Y-53486260D01*
X123032068Y-53773158D01*
X123144010Y-54043411D01*
X123306525Y-54286632D01*
X123513368Y-54493475D01*
X123756589Y-54655990D01*
X124026842Y-54767932D01*
X124313740Y-54825000D01*
X124606260Y-54825000D01*
X124893158Y-54767932D01*
X125163411Y-54655990D01*
X125406632Y-54493475D01*
X125613475Y-54286632D01*
X125775990Y-54043411D01*
X125887932Y-53773158D01*
X125945000Y-53486260D01*
X125945000Y-53193740D01*
X125887932Y-52906842D01*
X125775990Y-52636589D01*
X125613475Y-52393368D01*
X125406632Y-52186525D01*
X125224466Y-52064805D01*
X125341355Y-51995178D01*
X125557588Y-51800269D01*
X125731641Y-51566920D01*
X125856825Y-51304099D01*
X125901476Y-51156890D01*
X125780155Y-50927000D01*
X124587000Y-50927000D01*
X124587000Y-50947000D01*
X124333000Y-50947000D01*
X124333000Y-50927000D01*
X124313000Y-50927000D01*
X124313000Y-50673000D01*
X124333000Y-50673000D01*
X124333000Y-50653000D01*
X124587000Y-50653000D01*
X124587000Y-50673000D01*
X125780155Y-50673000D01*
X125901476Y-50443110D01*
X125856825Y-50295901D01*
X125731641Y-50033080D01*
X125557588Y-49799731D01*
X125341355Y-49604822D01*
X125224466Y-49535195D01*
X125406632Y-49413475D01*
X125613475Y-49206632D01*
X125775990Y-48963411D01*
X125887932Y-48693158D01*
X125945000Y-48406260D01*
X125945000Y-48113740D01*
X125907075Y-47923082D01*
X126527810Y-47302347D01*
X126557764Y-47277764D01*
X126655862Y-47158233D01*
X126728754Y-47021860D01*
X126773642Y-46873887D01*
X126783381Y-46775000D01*
X126785000Y-46758561D01*
X126785000Y-46758556D01*
X126788797Y-46720000D01*
X126785000Y-46681444D01*
X126785000Y-38493555D01*
X126788797Y-38455000D01*
X126785000Y-38416440D01*
X126785000Y-38416439D01*
X126781020Y-38376026D01*
X126773642Y-38301113D01*
X126728754Y-38153140D01*
X126655862Y-38016767D01*
X126557764Y-37897236D01*
X126527817Y-37872659D01*
X122457347Y-33802190D01*
X122432764Y-33772236D01*
X122313233Y-33674138D01*
X122176860Y-33601246D01*
X122048480Y-33562303D01*
X122015706Y-33500986D01*
X121830134Y-33274866D01*
X121604014Y-33089294D01*
X121578278Y-33075538D01*
X121784429Y-32919049D01*
X121977496Y-32701193D01*
X122124352Y-32449858D01*
X122216476Y-32186890D01*
X122095155Y-31957000D01*
X120777000Y-31957000D01*
X120777000Y-31977000D01*
X120523000Y-31977000D01*
X120523000Y-31957000D01*
X119204845Y-31957000D01*
X119083524Y-32186890D01*
X119175648Y-32449858D01*
X119322504Y-32701193D01*
X119515571Y-32919049D01*
X119721722Y-33075538D01*
X119695986Y-33089294D01*
X119469866Y-33274866D01*
X119284294Y-33500986D01*
X119146401Y-33758966D01*
X119061487Y-34038889D01*
X119032815Y-34330000D01*
X119061487Y-34621111D01*
X119146401Y-34901034D01*
X119284294Y-35159014D01*
X119469866Y-35385134D01*
X119533337Y-35437223D01*
X119431614Y-35491595D01*
X119297038Y-35602038D01*
X119186595Y-35736614D01*
X119104528Y-35890150D01*
X119053992Y-36056746D01*
X119036928Y-36230000D01*
X119036928Y-37430000D01*
X119053992Y-37603254D01*
X119104528Y-37769850D01*
X119186595Y-37923386D01*
X119297038Y-38057962D01*
X119431614Y-38168405D01*
X119585150Y-38250472D01*
X119751746Y-38301008D01*
X119865000Y-38312163D01*
X119865001Y-41871437D01*
X119861203Y-41910000D01*
X119876359Y-42063886D01*
X119921246Y-42211859D01*
X119931523Y-42231086D01*
X119994139Y-42348233D01*
X120017046Y-42376145D01*
X120067655Y-42437812D01*
X120067659Y-42437816D01*
X120092237Y-42467764D01*
X120122185Y-42492342D01*
X123012925Y-45383082D01*
X122975000Y-45573740D01*
X122975000Y-45866260D01*
X123012924Y-46056918D01*
X120865000Y-48204843D01*
X120865000Y-48132998D01*
X120700156Y-48132998D01*
X120821476Y-47903110D01*
X120776825Y-47755901D01*
X120651641Y-47493080D01*
X120477588Y-47259731D01*
X120261355Y-47064822D01*
X120144466Y-46995195D01*
X120326632Y-46873475D01*
X120533475Y-46666632D01*
X120695990Y-46423411D01*
X120807932Y-46153158D01*
X120865000Y-45866260D01*
X120865000Y-45573740D01*
X120807932Y-45286842D01*
X120695990Y-45016589D01*
X120533475Y-44773368D01*
X120326632Y-44566525D01*
X120083411Y-44404010D01*
X119813158Y-44292068D01*
X119526260Y-44235000D01*
X119233740Y-44235000D01*
X118946842Y-44292068D01*
X118676589Y-44404010D01*
X118433368Y-44566525D01*
X118226525Y-44773368D01*
X118064010Y-45016589D01*
X117952068Y-45286842D01*
X117895000Y-45573740D01*
X117895000Y-45866260D01*
X117952068Y-46153158D01*
X118064010Y-46423411D01*
X118226525Y-46666632D01*
X118433368Y-46873475D01*
X118615534Y-46995195D01*
X118498645Y-47064822D01*
X118282412Y-47259731D01*
X118108359Y-47493080D01*
X117983175Y-47755901D01*
X117938524Y-47903110D01*
X118059845Y-48133000D01*
X119253000Y-48133000D01*
X119253000Y-48113000D01*
X119507000Y-48113000D01*
X119507000Y-48133000D01*
X119527000Y-48133000D01*
X119527000Y-48387000D01*
X119507000Y-48387000D01*
X119507000Y-48407000D01*
X119253000Y-48407000D01*
X119253000Y-48387000D01*
X118059845Y-48387000D01*
X117938524Y-48616890D01*
X117983175Y-48764099D01*
X118108359Y-49026920D01*
X118282412Y-49260269D01*
X118498645Y-49455178D01*
X118615534Y-49524805D01*
X118433368Y-49646525D01*
X118226525Y-49853368D01*
X118064010Y-50096589D01*
X117952068Y-50366842D01*
X117895000Y-50653740D01*
X117895000Y-50946260D01*
X117952068Y-51233158D01*
X118064010Y-51503411D01*
X118226525Y-51746632D01*
X118358380Y-51878487D01*
X118285820Y-51900498D01*
X118175506Y-51959463D01*
X118078815Y-52038815D01*
X117999463Y-52135506D01*
X117940498Y-52245820D01*
X117904188Y-52365518D01*
X117891928Y-52490000D01*
X117891928Y-52657327D01*
X117841767Y-52684138D01*
X117722236Y-52782236D01*
X117697653Y-52812190D01*
X116972190Y-53537653D01*
X116942236Y-53562236D01*
X116844138Y-53681768D01*
X116771246Y-53818141D01*
X116726359Y-53966114D01*
X116715000Y-54081440D01*
X116715000Y-54081447D01*
X116711203Y-54120000D01*
X116627000Y-54120000D01*
X116627000Y-44602633D01*
X116789721Y-44635000D01*
X117210279Y-44635000D01*
X117622756Y-44552953D01*
X118011302Y-44392012D01*
X118360983Y-44158363D01*
X118658363Y-43860983D01*
X118892012Y-43511302D01*
X119052953Y-43122756D01*
X119135000Y-42710279D01*
X119135000Y-42289721D01*
X119052953Y-41877244D01*
X118892012Y-41488698D01*
X118658363Y-41139017D01*
X118360983Y-40841637D01*
X118011302Y-40607988D01*
X117622756Y-40447047D01*
X117210279Y-40365000D01*
X116789721Y-40365000D01*
X116627000Y-40397367D01*
X116627000Y-29330000D01*
X119032815Y-29330000D01*
X119061487Y-29621111D01*
X119146401Y-29901034D01*
X119284294Y-30159014D01*
X119469866Y-30385134D01*
X119695986Y-30570706D01*
X119721722Y-30584462D01*
X119515571Y-30740951D01*
X119322504Y-30958807D01*
X119175648Y-31210142D01*
X119083524Y-31473110D01*
X119204845Y-31703000D01*
X120523000Y-31703000D01*
X120523000Y-31683000D01*
X120777000Y-31683000D01*
X120777000Y-31703000D01*
X122095155Y-31703000D01*
X122216476Y-31473110D01*
X122124352Y-31210142D01*
X121977496Y-30958807D01*
X121784429Y-30740951D01*
X121578278Y-30584462D01*
X121604014Y-30570706D01*
X121830134Y-30385134D01*
X122015706Y-30159014D01*
X122153599Y-29901034D01*
X122238513Y-29621111D01*
X122267185Y-29330000D01*
X122238513Y-29038889D01*
X122153599Y-28758966D01*
X122015706Y-28500986D01*
X121830134Y-28274866D01*
X121604014Y-28089294D01*
X121346034Y-27951401D01*
X121066111Y-27866487D01*
X120847950Y-27845000D01*
X120452050Y-27845000D01*
X120233889Y-27866487D01*
X119953966Y-27951401D01*
X119695986Y-28089294D01*
X119469866Y-28274866D01*
X119284294Y-28500986D01*
X119146401Y-28758966D01*
X119061487Y-29038889D01*
X119032815Y-29330000D01*
X116627000Y-29330000D01*
X116627000Y-28552606D01*
X119552606Y-25627000D01*
X185447394Y-25627000D01*
X188373000Y-28552606D01*
M02*
