G04 #@! TF.GenerationSoftware,KiCad,Pcbnew,(5.1.5)-2*
G04 #@! TF.CreationDate,2019-12-21T23:21:24+01:00*
G04 #@! TF.ProjectId,garden-water-system,67617264-656e-42d7-9761-7465722d7379,rev?*
G04 #@! TF.SameCoordinates,Original*
G04 #@! TF.FileFunction,Copper,L2,Bot*
G04 #@! TF.FilePolarity,Positive*
%FSLAX46Y46*%
G04 Gerber Fmt 4.6, Leading zero omitted, Abs format (unit mm)*
G04 Created by KiCad (PCBNEW (5.1.5)-2) date 2019-12-21 23:21:24*
%MOMM*%
%LPD*%
G04 APERTURE LIST*
%ADD10R,1.800000X4.400000*%
%ADD11O,1.800000X4.000000*%
%ADD12O,4.000000X1.800000*%
%ADD13O,1.950000X1.700000*%
%ADD14C,0.100000*%
%ADD15O,1.700000X1.950000*%
%ADD16O,1.700000X2.000000*%
%ADD17O,1.600000X2.400000*%
%ADD18R,1.600000X2.400000*%
%ADD19O,1.700000X1.700000*%
%ADD20R,1.700000X1.700000*%
%ADD21C,3.000000*%
%ADD22R,3.000000X3.000000*%
%ADD23C,0.800000*%
%ADD24C,0.300000*%
%ADD25C,0.250000*%
%ADD26C,0.254000*%
G04 APERTURE END LIST*
D10*
X176530000Y-41910000D03*
D11*
X182330000Y-41910000D03*
D12*
X179530000Y-37110000D03*
D13*
X120650000Y-29330000D03*
X120650000Y-31830000D03*
X120650000Y-34330000D03*
G04 #@! TA.AperFunction,ComponentPad*
D14*
G36*
X121399504Y-35981204D02*
G01*
X121423773Y-35984804D01*
X121447571Y-35990765D01*
X121470671Y-35999030D01*
X121492849Y-36009520D01*
X121513893Y-36022133D01*
X121533598Y-36036747D01*
X121551777Y-36053223D01*
X121568253Y-36071402D01*
X121582867Y-36091107D01*
X121595480Y-36112151D01*
X121605970Y-36134329D01*
X121614235Y-36157429D01*
X121620196Y-36181227D01*
X121623796Y-36205496D01*
X121625000Y-36230000D01*
X121625000Y-37430000D01*
X121623796Y-37454504D01*
X121620196Y-37478773D01*
X121614235Y-37502571D01*
X121605970Y-37525671D01*
X121595480Y-37547849D01*
X121582867Y-37568893D01*
X121568253Y-37588598D01*
X121551777Y-37606777D01*
X121533598Y-37623253D01*
X121513893Y-37637867D01*
X121492849Y-37650480D01*
X121470671Y-37660970D01*
X121447571Y-37669235D01*
X121423773Y-37675196D01*
X121399504Y-37678796D01*
X121375000Y-37680000D01*
X119925000Y-37680000D01*
X119900496Y-37678796D01*
X119876227Y-37675196D01*
X119852429Y-37669235D01*
X119829329Y-37660970D01*
X119807151Y-37650480D01*
X119786107Y-37637867D01*
X119766402Y-37623253D01*
X119748223Y-37606777D01*
X119731747Y-37588598D01*
X119717133Y-37568893D01*
X119704520Y-37547849D01*
X119694030Y-37525671D01*
X119685765Y-37502571D01*
X119679804Y-37478773D01*
X119676204Y-37454504D01*
X119675000Y-37430000D01*
X119675000Y-36230000D01*
X119676204Y-36205496D01*
X119679804Y-36181227D01*
X119685765Y-36157429D01*
X119694030Y-36134329D01*
X119704520Y-36112151D01*
X119717133Y-36091107D01*
X119731747Y-36071402D01*
X119748223Y-36053223D01*
X119766402Y-36036747D01*
X119786107Y-36022133D01*
X119807151Y-36009520D01*
X119829329Y-35999030D01*
X119852429Y-35990765D01*
X119876227Y-35984804D01*
X119900496Y-35981204D01*
X119925000Y-35980000D01*
X121375000Y-35980000D01*
X121399504Y-35981204D01*
G37*
G04 #@! TD.AperFunction*
D15*
X160180000Y-63500000D03*
X162680000Y-63500000D03*
X165180000Y-63500000D03*
X167680000Y-63500000D03*
G04 #@! TA.AperFunction,ComponentPad*
D14*
G36*
X170804504Y-62526204D02*
G01*
X170828773Y-62529804D01*
X170852571Y-62535765D01*
X170875671Y-62544030D01*
X170897849Y-62554520D01*
X170918893Y-62567133D01*
X170938598Y-62581747D01*
X170956777Y-62598223D01*
X170973253Y-62616402D01*
X170987867Y-62636107D01*
X171000480Y-62657151D01*
X171010970Y-62679329D01*
X171019235Y-62702429D01*
X171025196Y-62726227D01*
X171028796Y-62750496D01*
X171030000Y-62775000D01*
X171030000Y-64225000D01*
X171028796Y-64249504D01*
X171025196Y-64273773D01*
X171019235Y-64297571D01*
X171010970Y-64320671D01*
X171000480Y-64342849D01*
X170987867Y-64363893D01*
X170973253Y-64383598D01*
X170956777Y-64401777D01*
X170938598Y-64418253D01*
X170918893Y-64432867D01*
X170897849Y-64445480D01*
X170875671Y-64455970D01*
X170852571Y-64464235D01*
X170828773Y-64470196D01*
X170804504Y-64473796D01*
X170780000Y-64475000D01*
X169580000Y-64475000D01*
X169555496Y-64473796D01*
X169531227Y-64470196D01*
X169507429Y-64464235D01*
X169484329Y-64455970D01*
X169462151Y-64445480D01*
X169441107Y-64432867D01*
X169421402Y-64418253D01*
X169403223Y-64401777D01*
X169386747Y-64383598D01*
X169372133Y-64363893D01*
X169359520Y-64342849D01*
X169349030Y-64320671D01*
X169340765Y-64297571D01*
X169334804Y-64273773D01*
X169331204Y-64249504D01*
X169330000Y-64225000D01*
X169330000Y-62775000D01*
X169331204Y-62750496D01*
X169334804Y-62726227D01*
X169340765Y-62702429D01*
X169349030Y-62679329D01*
X169359520Y-62657151D01*
X169372133Y-62636107D01*
X169386747Y-62616402D01*
X169403223Y-62598223D01*
X169421402Y-62581747D01*
X169441107Y-62567133D01*
X169462151Y-62554520D01*
X169484329Y-62544030D01*
X169507429Y-62535765D01*
X169531227Y-62529804D01*
X169555496Y-62526204D01*
X169580000Y-62525000D01*
X170780000Y-62525000D01*
X170804504Y-62526204D01*
G37*
G04 #@! TD.AperFunction*
D16*
X158750000Y-51500000D03*
G04 #@! TA.AperFunction,ComponentPad*
D14*
G36*
X161874504Y-50501204D02*
G01*
X161898773Y-50504804D01*
X161922571Y-50510765D01*
X161945671Y-50519030D01*
X161967849Y-50529520D01*
X161988893Y-50542133D01*
X162008598Y-50556747D01*
X162026777Y-50573223D01*
X162043253Y-50591402D01*
X162057867Y-50611107D01*
X162070480Y-50632151D01*
X162080970Y-50654329D01*
X162089235Y-50677429D01*
X162095196Y-50701227D01*
X162098796Y-50725496D01*
X162100000Y-50750000D01*
X162100000Y-52250000D01*
X162098796Y-52274504D01*
X162095196Y-52298773D01*
X162089235Y-52322571D01*
X162080970Y-52345671D01*
X162070480Y-52367849D01*
X162057867Y-52388893D01*
X162043253Y-52408598D01*
X162026777Y-52426777D01*
X162008598Y-52443253D01*
X161988893Y-52457867D01*
X161967849Y-52470480D01*
X161945671Y-52480970D01*
X161922571Y-52489235D01*
X161898773Y-52495196D01*
X161874504Y-52498796D01*
X161850000Y-52500000D01*
X160650000Y-52500000D01*
X160625496Y-52498796D01*
X160601227Y-52495196D01*
X160577429Y-52489235D01*
X160554329Y-52480970D01*
X160532151Y-52470480D01*
X160511107Y-52457867D01*
X160491402Y-52443253D01*
X160473223Y-52426777D01*
X160456747Y-52408598D01*
X160442133Y-52388893D01*
X160429520Y-52367849D01*
X160419030Y-52345671D01*
X160410765Y-52322571D01*
X160404804Y-52298773D01*
X160401204Y-52274504D01*
X160400000Y-52250000D01*
X160400000Y-50750000D01*
X160401204Y-50725496D01*
X160404804Y-50701227D01*
X160410765Y-50677429D01*
X160419030Y-50654329D01*
X160429520Y-50632151D01*
X160442133Y-50611107D01*
X160456747Y-50591402D01*
X160473223Y-50573223D01*
X160491402Y-50556747D01*
X160511107Y-50542133D01*
X160532151Y-50529520D01*
X160554329Y-50519030D01*
X160577429Y-50510765D01*
X160601227Y-50504804D01*
X160625496Y-50501204D01*
X160650000Y-50500000D01*
X161850000Y-50500000D01*
X161874504Y-50501204D01*
G37*
G04 #@! TD.AperFunction*
D16*
X158750000Y-42000000D03*
G04 #@! TA.AperFunction,ComponentPad*
D14*
G36*
X161874504Y-41001204D02*
G01*
X161898773Y-41004804D01*
X161922571Y-41010765D01*
X161945671Y-41019030D01*
X161967849Y-41029520D01*
X161988893Y-41042133D01*
X162008598Y-41056747D01*
X162026777Y-41073223D01*
X162043253Y-41091402D01*
X162057867Y-41111107D01*
X162070480Y-41132151D01*
X162080970Y-41154329D01*
X162089235Y-41177429D01*
X162095196Y-41201227D01*
X162098796Y-41225496D01*
X162100000Y-41250000D01*
X162100000Y-42750000D01*
X162098796Y-42774504D01*
X162095196Y-42798773D01*
X162089235Y-42822571D01*
X162080970Y-42845671D01*
X162070480Y-42867849D01*
X162057867Y-42888893D01*
X162043253Y-42908598D01*
X162026777Y-42926777D01*
X162008598Y-42943253D01*
X161988893Y-42957867D01*
X161967849Y-42970480D01*
X161945671Y-42980970D01*
X161922571Y-42989235D01*
X161898773Y-42995196D01*
X161874504Y-42998796D01*
X161850000Y-43000000D01*
X160650000Y-43000000D01*
X160625496Y-42998796D01*
X160601227Y-42995196D01*
X160577429Y-42989235D01*
X160554329Y-42980970D01*
X160532151Y-42970480D01*
X160511107Y-42957867D01*
X160491402Y-42943253D01*
X160473223Y-42926777D01*
X160456747Y-42908598D01*
X160442133Y-42888893D01*
X160429520Y-42867849D01*
X160419030Y-42845671D01*
X160410765Y-42822571D01*
X160404804Y-42798773D01*
X160401204Y-42774504D01*
X160400000Y-42750000D01*
X160400000Y-41250000D01*
X160401204Y-41225496D01*
X160404804Y-41201227D01*
X160410765Y-41177429D01*
X160419030Y-41154329D01*
X160429520Y-41132151D01*
X160442133Y-41111107D01*
X160456747Y-41091402D01*
X160473223Y-41073223D01*
X160491402Y-41056747D01*
X160511107Y-41042133D01*
X160532151Y-41029520D01*
X160554329Y-41019030D01*
X160577429Y-41010765D01*
X160601227Y-41004804D01*
X160625496Y-41001204D01*
X160650000Y-41000000D01*
X161850000Y-41000000D01*
X161874504Y-41001204D01*
G37*
G04 #@! TD.AperFunction*
D17*
X119380000Y-58420000D03*
X152400000Y-66040000D03*
X121920000Y-58420000D03*
X149860000Y-66040000D03*
X124460000Y-58420000D03*
X147320000Y-66040000D03*
X127000000Y-58420000D03*
X144780000Y-66040000D03*
X129540000Y-58420000D03*
X142240000Y-66040000D03*
X132080000Y-58420000D03*
X139700000Y-66040000D03*
X134620000Y-58420000D03*
X137160000Y-66040000D03*
X137160000Y-58420000D03*
X134620000Y-66040000D03*
X139700000Y-58420000D03*
X132080000Y-66040000D03*
X142240000Y-58420000D03*
X129540000Y-66040000D03*
X144780000Y-58420000D03*
X127000000Y-66040000D03*
X147320000Y-58420000D03*
X124460000Y-66040000D03*
X149860000Y-58420000D03*
X121920000Y-66040000D03*
X152400000Y-58420000D03*
D18*
X119380000Y-66040000D03*
D19*
X124460000Y-53340000D03*
X124460000Y-50800000D03*
X124460000Y-48260000D03*
X124460000Y-45720000D03*
D20*
X124460000Y-43180000D03*
D19*
X119380000Y-45720000D03*
X119380000Y-48260000D03*
X119380000Y-50800000D03*
D20*
X119380000Y-53340000D03*
D21*
X129540000Y-30480000D03*
X134620000Y-30480000D03*
D22*
X149860000Y-30480000D03*
D21*
X139700000Y-30480000D03*
X144780000Y-30480000D03*
X171450000Y-30480000D03*
X166370000Y-30480000D03*
D22*
X176530000Y-30480000D03*
D21*
X161290000Y-30480000D03*
X156210000Y-30480000D03*
D15*
X131500000Y-42000000D03*
X134000000Y-42000000D03*
G04 #@! TA.AperFunction,ComponentPad*
D14*
G36*
X137124504Y-41026204D02*
G01*
X137148773Y-41029804D01*
X137172571Y-41035765D01*
X137195671Y-41044030D01*
X137217849Y-41054520D01*
X137238893Y-41067133D01*
X137258598Y-41081747D01*
X137276777Y-41098223D01*
X137293253Y-41116402D01*
X137307867Y-41136107D01*
X137320480Y-41157151D01*
X137330970Y-41179329D01*
X137339235Y-41202429D01*
X137345196Y-41226227D01*
X137348796Y-41250496D01*
X137350000Y-41275000D01*
X137350000Y-42725000D01*
X137348796Y-42749504D01*
X137345196Y-42773773D01*
X137339235Y-42797571D01*
X137330970Y-42820671D01*
X137320480Y-42842849D01*
X137307867Y-42863893D01*
X137293253Y-42883598D01*
X137276777Y-42901777D01*
X137258598Y-42918253D01*
X137238893Y-42932867D01*
X137217849Y-42945480D01*
X137195671Y-42955970D01*
X137172571Y-42964235D01*
X137148773Y-42970196D01*
X137124504Y-42973796D01*
X137100000Y-42975000D01*
X135900000Y-42975000D01*
X135875496Y-42973796D01*
X135851227Y-42970196D01*
X135827429Y-42964235D01*
X135804329Y-42955970D01*
X135782151Y-42945480D01*
X135761107Y-42932867D01*
X135741402Y-42918253D01*
X135723223Y-42901777D01*
X135706747Y-42883598D01*
X135692133Y-42863893D01*
X135679520Y-42842849D01*
X135669030Y-42820671D01*
X135660765Y-42797571D01*
X135654804Y-42773773D01*
X135651204Y-42749504D01*
X135650000Y-42725000D01*
X135650000Y-41275000D01*
X135651204Y-41250496D01*
X135654804Y-41226227D01*
X135660765Y-41202429D01*
X135669030Y-41179329D01*
X135679520Y-41157151D01*
X135692133Y-41136107D01*
X135706747Y-41116402D01*
X135723223Y-41098223D01*
X135741402Y-41081747D01*
X135761107Y-41067133D01*
X135782151Y-41054520D01*
X135804329Y-41044030D01*
X135827429Y-41035765D01*
X135851227Y-41029804D01*
X135875496Y-41026204D01*
X135900000Y-41025000D01*
X137100000Y-41025000D01*
X137124504Y-41026204D01*
G37*
G04 #@! TD.AperFunction*
D15*
X131500000Y-51500000D03*
X134000000Y-51500000D03*
G04 #@! TA.AperFunction,ComponentPad*
D14*
G36*
X137124504Y-50526204D02*
G01*
X137148773Y-50529804D01*
X137172571Y-50535765D01*
X137195671Y-50544030D01*
X137217849Y-50554520D01*
X137238893Y-50567133D01*
X137258598Y-50581747D01*
X137276777Y-50598223D01*
X137293253Y-50616402D01*
X137307867Y-50636107D01*
X137320480Y-50657151D01*
X137330970Y-50679329D01*
X137339235Y-50702429D01*
X137345196Y-50726227D01*
X137348796Y-50750496D01*
X137350000Y-50775000D01*
X137350000Y-52225000D01*
X137348796Y-52249504D01*
X137345196Y-52273773D01*
X137339235Y-52297571D01*
X137330970Y-52320671D01*
X137320480Y-52342849D01*
X137307867Y-52363893D01*
X137293253Y-52383598D01*
X137276777Y-52401777D01*
X137258598Y-52418253D01*
X137238893Y-52432867D01*
X137217849Y-52445480D01*
X137195671Y-52455970D01*
X137172571Y-52464235D01*
X137148773Y-52470196D01*
X137124504Y-52473796D01*
X137100000Y-52475000D01*
X135900000Y-52475000D01*
X135875496Y-52473796D01*
X135851227Y-52470196D01*
X135827429Y-52464235D01*
X135804329Y-52455970D01*
X135782151Y-52445480D01*
X135761107Y-52432867D01*
X135741402Y-52418253D01*
X135723223Y-52401777D01*
X135706747Y-52383598D01*
X135692133Y-52363893D01*
X135679520Y-52342849D01*
X135669030Y-52320671D01*
X135660765Y-52297571D01*
X135654804Y-52273773D01*
X135651204Y-52249504D01*
X135650000Y-52225000D01*
X135650000Y-50775000D01*
X135651204Y-50750496D01*
X135654804Y-50726227D01*
X135660765Y-50702429D01*
X135669030Y-50679329D01*
X135679520Y-50657151D01*
X135692133Y-50636107D01*
X135706747Y-50616402D01*
X135723223Y-50598223D01*
X135741402Y-50581747D01*
X135761107Y-50567133D01*
X135782151Y-50554520D01*
X135804329Y-50544030D01*
X135827429Y-50535765D01*
X135851227Y-50529804D01*
X135875496Y-50526204D01*
X135900000Y-50525000D01*
X137100000Y-50525000D01*
X137124504Y-50526204D01*
G37*
G04 #@! TD.AperFunction*
D15*
X145000000Y-42000000D03*
X147500000Y-42000000D03*
G04 #@! TA.AperFunction,ComponentPad*
D14*
G36*
X150624504Y-41026204D02*
G01*
X150648773Y-41029804D01*
X150672571Y-41035765D01*
X150695671Y-41044030D01*
X150717849Y-41054520D01*
X150738893Y-41067133D01*
X150758598Y-41081747D01*
X150776777Y-41098223D01*
X150793253Y-41116402D01*
X150807867Y-41136107D01*
X150820480Y-41157151D01*
X150830970Y-41179329D01*
X150839235Y-41202429D01*
X150845196Y-41226227D01*
X150848796Y-41250496D01*
X150850000Y-41275000D01*
X150850000Y-42725000D01*
X150848796Y-42749504D01*
X150845196Y-42773773D01*
X150839235Y-42797571D01*
X150830970Y-42820671D01*
X150820480Y-42842849D01*
X150807867Y-42863893D01*
X150793253Y-42883598D01*
X150776777Y-42901777D01*
X150758598Y-42918253D01*
X150738893Y-42932867D01*
X150717849Y-42945480D01*
X150695671Y-42955970D01*
X150672571Y-42964235D01*
X150648773Y-42970196D01*
X150624504Y-42973796D01*
X150600000Y-42975000D01*
X149400000Y-42975000D01*
X149375496Y-42973796D01*
X149351227Y-42970196D01*
X149327429Y-42964235D01*
X149304329Y-42955970D01*
X149282151Y-42945480D01*
X149261107Y-42932867D01*
X149241402Y-42918253D01*
X149223223Y-42901777D01*
X149206747Y-42883598D01*
X149192133Y-42863893D01*
X149179520Y-42842849D01*
X149169030Y-42820671D01*
X149160765Y-42797571D01*
X149154804Y-42773773D01*
X149151204Y-42749504D01*
X149150000Y-42725000D01*
X149150000Y-41275000D01*
X149151204Y-41250496D01*
X149154804Y-41226227D01*
X149160765Y-41202429D01*
X149169030Y-41179329D01*
X149179520Y-41157151D01*
X149192133Y-41136107D01*
X149206747Y-41116402D01*
X149223223Y-41098223D01*
X149241402Y-41081747D01*
X149261107Y-41067133D01*
X149282151Y-41054520D01*
X149304329Y-41044030D01*
X149327429Y-41035765D01*
X149351227Y-41029804D01*
X149375496Y-41026204D01*
X149400000Y-41025000D01*
X150600000Y-41025000D01*
X150624504Y-41026204D01*
G37*
G04 #@! TD.AperFunction*
D15*
X145000000Y-51500000D03*
X147500000Y-51500000D03*
G04 #@! TA.AperFunction,ComponentPad*
D14*
G36*
X150624504Y-50526204D02*
G01*
X150648773Y-50529804D01*
X150672571Y-50535765D01*
X150695671Y-50544030D01*
X150717849Y-50554520D01*
X150738893Y-50567133D01*
X150758598Y-50581747D01*
X150776777Y-50598223D01*
X150793253Y-50616402D01*
X150807867Y-50636107D01*
X150820480Y-50657151D01*
X150830970Y-50679329D01*
X150839235Y-50702429D01*
X150845196Y-50726227D01*
X150848796Y-50750496D01*
X150850000Y-50775000D01*
X150850000Y-52225000D01*
X150848796Y-52249504D01*
X150845196Y-52273773D01*
X150839235Y-52297571D01*
X150830970Y-52320671D01*
X150820480Y-52342849D01*
X150807867Y-52363893D01*
X150793253Y-52383598D01*
X150776777Y-52401777D01*
X150758598Y-52418253D01*
X150738893Y-52432867D01*
X150717849Y-52445480D01*
X150695671Y-52455970D01*
X150672571Y-52464235D01*
X150648773Y-52470196D01*
X150624504Y-52473796D01*
X150600000Y-52475000D01*
X149400000Y-52475000D01*
X149375496Y-52473796D01*
X149351227Y-52470196D01*
X149327429Y-52464235D01*
X149304329Y-52455970D01*
X149282151Y-52445480D01*
X149261107Y-52432867D01*
X149241402Y-52418253D01*
X149223223Y-52401777D01*
X149206747Y-52383598D01*
X149192133Y-52363893D01*
X149179520Y-52342849D01*
X149169030Y-52320671D01*
X149160765Y-52297571D01*
X149154804Y-52273773D01*
X149151204Y-52249504D01*
X149150000Y-52225000D01*
X149150000Y-50775000D01*
X149151204Y-50750496D01*
X149154804Y-50726227D01*
X149160765Y-50702429D01*
X149169030Y-50679329D01*
X149179520Y-50657151D01*
X149192133Y-50636107D01*
X149206747Y-50616402D01*
X149223223Y-50598223D01*
X149241402Y-50581747D01*
X149261107Y-50567133D01*
X149282151Y-50554520D01*
X149304329Y-50544030D01*
X149327429Y-50535765D01*
X149351227Y-50529804D01*
X149375496Y-50526204D01*
X149400000Y-50525000D01*
X150600000Y-50525000D01*
X150624504Y-50526204D01*
G37*
G04 #@! TD.AperFunction*
D23*
X151000000Y-71500000D03*
X165000000Y-71500000D03*
D24*
X150910000Y-58420000D02*
X149860000Y-58420000D01*
X151000000Y-58510000D02*
X150910000Y-58420000D01*
D25*
X151000000Y-71500000D02*
X151000000Y-58510000D01*
D24*
X165000000Y-71500000D02*
X154500000Y-61000000D01*
X147320000Y-56970000D02*
X147320000Y-58420000D01*
X154500000Y-57500000D02*
X153000000Y-56000000D01*
X153000000Y-56000000D02*
X148290000Y-56000000D01*
X154500000Y-61000000D02*
X154500000Y-57500000D01*
X148290000Y-56000000D02*
X147320000Y-56970000D01*
X147500000Y-51500000D02*
X147500000Y-52725000D01*
X147500000Y-52725000D02*
X143725000Y-56500000D01*
X132080000Y-56970000D02*
X132080000Y-58420000D01*
X132550000Y-56500000D02*
X132080000Y-56970000D01*
X143725000Y-56500000D02*
X132550000Y-56500000D01*
X129540000Y-56970000D02*
X130760000Y-55750000D01*
X129540000Y-58420000D02*
X129540000Y-56970000D01*
X130760000Y-55750000D02*
X137500000Y-55750000D01*
X147500000Y-45750000D02*
X147500000Y-42000000D01*
X137500000Y-55750000D02*
X147500000Y-45750000D01*
X124460000Y-64590000D02*
X121870000Y-62000000D01*
X124460000Y-66040000D02*
X124460000Y-64590000D01*
X121870000Y-62000000D02*
X119500000Y-62000000D01*
X119500000Y-62000000D02*
X117500000Y-60000000D01*
X117500000Y-52680000D02*
X119380000Y-50800000D01*
X117500000Y-60000000D02*
X117500000Y-52680000D01*
X125610000Y-43180000D02*
X125750000Y-43320000D01*
X124460000Y-43180000D02*
X125610000Y-43180000D01*
X125750000Y-43320000D02*
X125750000Y-62250000D01*
X127000000Y-63500000D02*
X127000000Y-66040000D01*
X125750000Y-62250000D02*
X127000000Y-63500000D01*
D26*
G36*
X188373000Y-28552606D02*
G01*
X188373000Y-79447394D01*
X185447394Y-82373000D01*
X139567378Y-82373000D01*
X139642012Y-82261302D01*
X139802953Y-81872756D01*
X139885000Y-81460279D01*
X139885000Y-81039721D01*
X139802953Y-80627244D01*
X139642012Y-80238698D01*
X139408363Y-79889017D01*
X139110983Y-79591637D01*
X138761302Y-79357988D01*
X138372756Y-79197047D01*
X137960279Y-79115000D01*
X137539721Y-79115000D01*
X137127244Y-79197047D01*
X136738698Y-79357988D01*
X136389017Y-79591637D01*
X136091637Y-79889017D01*
X135857988Y-80238698D01*
X135697047Y-80627244D01*
X135615000Y-81039721D01*
X135615000Y-81460279D01*
X135697047Y-81872756D01*
X135857988Y-82261302D01*
X135932622Y-82373000D01*
X119552606Y-82373000D01*
X116627000Y-79447394D01*
X116627000Y-52680000D01*
X116711203Y-52680000D01*
X116715001Y-52718563D01*
X116715000Y-59961447D01*
X116711203Y-60000000D01*
X116715000Y-60038553D01*
X116715000Y-60038560D01*
X116726359Y-60153886D01*
X116771246Y-60301859D01*
X116844138Y-60438232D01*
X116942236Y-60557764D01*
X116972190Y-60582347D01*
X118917658Y-62527816D01*
X118942236Y-62557764D01*
X118972184Y-62582342D01*
X118972187Y-62582345D01*
X118995827Y-62601746D01*
X119061767Y-62655862D01*
X119193659Y-62726359D01*
X119198140Y-62728754D01*
X119346112Y-62773641D01*
X119359911Y-62775000D01*
X119461439Y-62785000D01*
X119461446Y-62785000D01*
X119499999Y-62788797D01*
X119538552Y-62785000D01*
X121544843Y-62785000D01*
X123413276Y-64653434D01*
X123261068Y-64838900D01*
X123190000Y-64971858D01*
X123118932Y-64838899D01*
X122939607Y-64620392D01*
X122721100Y-64441068D01*
X122471807Y-64307818D01*
X122201308Y-64225764D01*
X121920000Y-64198057D01*
X121638691Y-64225764D01*
X121368192Y-64307818D01*
X121118899Y-64441068D01*
X120900392Y-64620393D01*
X120807581Y-64733483D01*
X120805812Y-64715518D01*
X120769502Y-64595820D01*
X120710537Y-64485506D01*
X120631185Y-64388815D01*
X120534494Y-64309463D01*
X120424180Y-64250498D01*
X120304482Y-64214188D01*
X120180000Y-64201928D01*
X118580000Y-64201928D01*
X118455518Y-64214188D01*
X118335820Y-64250498D01*
X118225506Y-64309463D01*
X118128815Y-64388815D01*
X118049463Y-64485506D01*
X117990498Y-64595820D01*
X117954188Y-64715518D01*
X117941928Y-64840000D01*
X117941928Y-67240000D01*
X117954188Y-67364482D01*
X117990498Y-67484180D01*
X118049463Y-67594494D01*
X118128815Y-67691185D01*
X118225506Y-67770537D01*
X118335820Y-67829502D01*
X118455518Y-67865812D01*
X118580000Y-67878072D01*
X120180000Y-67878072D01*
X120304482Y-67865812D01*
X120424180Y-67829502D01*
X120534494Y-67770537D01*
X120631185Y-67691185D01*
X120710537Y-67594494D01*
X120769502Y-67484180D01*
X120805812Y-67364482D01*
X120807581Y-67346517D01*
X120900393Y-67459608D01*
X121118900Y-67638932D01*
X121368193Y-67772182D01*
X121638692Y-67854236D01*
X121920000Y-67881943D01*
X122201309Y-67854236D01*
X122471808Y-67772182D01*
X122721101Y-67638932D01*
X122939608Y-67459608D01*
X123118932Y-67241101D01*
X123190000Y-67108142D01*
X123261068Y-67241101D01*
X123440393Y-67459608D01*
X123658900Y-67638932D01*
X123908193Y-67772182D01*
X124178692Y-67854236D01*
X124460000Y-67881943D01*
X124741309Y-67854236D01*
X125011808Y-67772182D01*
X125261101Y-67638932D01*
X125479608Y-67459608D01*
X125658932Y-67241101D01*
X125730000Y-67108142D01*
X125801068Y-67241101D01*
X125980393Y-67459608D01*
X126198900Y-67638932D01*
X126448193Y-67772182D01*
X126718692Y-67854236D01*
X127000000Y-67881943D01*
X127281309Y-67854236D01*
X127551808Y-67772182D01*
X127801101Y-67638932D01*
X128019608Y-67459608D01*
X128198932Y-67241101D01*
X128270000Y-67108142D01*
X128341068Y-67241101D01*
X128520393Y-67459608D01*
X128738900Y-67638932D01*
X128988193Y-67772182D01*
X129258692Y-67854236D01*
X129540000Y-67881943D01*
X129821309Y-67854236D01*
X130091808Y-67772182D01*
X130341101Y-67638932D01*
X130559608Y-67459608D01*
X130738932Y-67241101D01*
X130810000Y-67108142D01*
X130881068Y-67241101D01*
X131060393Y-67459608D01*
X131278900Y-67638932D01*
X131528193Y-67772182D01*
X131798692Y-67854236D01*
X132080000Y-67881943D01*
X132361309Y-67854236D01*
X132631808Y-67772182D01*
X132881101Y-67638932D01*
X133099608Y-67459608D01*
X133278932Y-67241101D01*
X133350000Y-67108142D01*
X133421068Y-67241101D01*
X133600393Y-67459608D01*
X133818900Y-67638932D01*
X134068193Y-67772182D01*
X134338692Y-67854236D01*
X134620000Y-67881943D01*
X134901309Y-67854236D01*
X135171808Y-67772182D01*
X135421101Y-67638932D01*
X135639608Y-67459608D01*
X135818932Y-67241101D01*
X135887265Y-67113259D01*
X136037399Y-67342839D01*
X136235105Y-67544500D01*
X136468354Y-67703715D01*
X136728182Y-67814367D01*
X136810961Y-67831904D01*
X137033000Y-67709915D01*
X137033000Y-66167000D01*
X137013000Y-66167000D01*
X137013000Y-65913000D01*
X137033000Y-65913000D01*
X137033000Y-64370085D01*
X136810961Y-64248096D01*
X136728182Y-64265633D01*
X136468354Y-64376285D01*
X136235105Y-64535500D01*
X136037399Y-64737161D01*
X135887265Y-64966741D01*
X135818932Y-64838899D01*
X135639607Y-64620392D01*
X135421100Y-64441068D01*
X135171807Y-64307818D01*
X134901308Y-64225764D01*
X134620000Y-64198057D01*
X134338691Y-64225764D01*
X134068192Y-64307818D01*
X133818899Y-64441068D01*
X133600392Y-64620393D01*
X133421068Y-64838900D01*
X133350000Y-64971858D01*
X133278932Y-64838899D01*
X133099607Y-64620392D01*
X132881100Y-64441068D01*
X132631807Y-64307818D01*
X132361308Y-64225764D01*
X132080000Y-64198057D01*
X131798691Y-64225764D01*
X131528192Y-64307818D01*
X131278899Y-64441068D01*
X131060392Y-64620393D01*
X130881068Y-64838900D01*
X130810000Y-64971858D01*
X130738932Y-64838899D01*
X130559607Y-64620392D01*
X130341100Y-64441068D01*
X130091807Y-64307818D01*
X129821308Y-64225764D01*
X129540000Y-64198057D01*
X129258691Y-64225764D01*
X128988192Y-64307818D01*
X128738899Y-64441068D01*
X128520392Y-64620393D01*
X128341068Y-64838900D01*
X128270000Y-64971858D01*
X128198932Y-64838899D01*
X128019607Y-64620392D01*
X127801100Y-64441068D01*
X127785000Y-64432462D01*
X127785000Y-63538555D01*
X127788797Y-63500000D01*
X127785000Y-63461440D01*
X127785000Y-63461439D01*
X127781020Y-63421026D01*
X127773642Y-63346113D01*
X127728754Y-63198140D01*
X127655862Y-63061767D01*
X127557764Y-62942236D01*
X127527817Y-62917659D01*
X126535000Y-61924843D01*
X126535000Y-60178514D01*
X126718692Y-60234236D01*
X127000000Y-60261943D01*
X127281309Y-60234236D01*
X127551808Y-60152182D01*
X127801101Y-60018932D01*
X128019608Y-59839608D01*
X128198932Y-59621101D01*
X128270000Y-59488142D01*
X128341068Y-59621101D01*
X128520393Y-59839608D01*
X128738900Y-60018932D01*
X128988193Y-60152182D01*
X129258692Y-60234236D01*
X129540000Y-60261943D01*
X129821309Y-60234236D01*
X130091808Y-60152182D01*
X130341101Y-60018932D01*
X130559608Y-59839608D01*
X130738932Y-59621101D01*
X130810000Y-59488142D01*
X130881068Y-59621101D01*
X131060393Y-59839608D01*
X131278900Y-60018932D01*
X131528193Y-60152182D01*
X131798692Y-60234236D01*
X132080000Y-60261943D01*
X132361309Y-60234236D01*
X132631808Y-60152182D01*
X132881101Y-60018932D01*
X133099608Y-59839608D01*
X133278932Y-59621101D01*
X133347265Y-59493259D01*
X133497399Y-59722839D01*
X133695105Y-59924500D01*
X133928354Y-60083715D01*
X134188182Y-60194367D01*
X134270961Y-60211904D01*
X134493000Y-60089915D01*
X134493000Y-58547000D01*
X134473000Y-58547000D01*
X134473000Y-58293000D01*
X134493000Y-58293000D01*
X134493000Y-58273000D01*
X134747000Y-58273000D01*
X134747000Y-58293000D01*
X134767000Y-58293000D01*
X134767000Y-58547000D01*
X134747000Y-58547000D01*
X134747000Y-60089915D01*
X134969039Y-60211904D01*
X135051818Y-60194367D01*
X135311646Y-60083715D01*
X135544895Y-59924500D01*
X135742601Y-59722839D01*
X135892735Y-59493259D01*
X135961068Y-59621101D01*
X136140393Y-59839608D01*
X136358900Y-60018932D01*
X136608193Y-60152182D01*
X136878692Y-60234236D01*
X137160000Y-60261943D01*
X137441309Y-60234236D01*
X137711808Y-60152182D01*
X137961101Y-60018932D01*
X138179608Y-59839608D01*
X138358932Y-59621101D01*
X138430000Y-59488142D01*
X138501068Y-59621101D01*
X138680393Y-59839608D01*
X138898900Y-60018932D01*
X139148193Y-60152182D01*
X139418692Y-60234236D01*
X139700000Y-60261943D01*
X139981309Y-60234236D01*
X140251808Y-60152182D01*
X140501101Y-60018932D01*
X140719608Y-59839608D01*
X140898932Y-59621101D01*
X140970000Y-59488142D01*
X141041068Y-59621101D01*
X141220393Y-59839608D01*
X141438900Y-60018932D01*
X141688193Y-60152182D01*
X141958692Y-60234236D01*
X142240000Y-60261943D01*
X142521309Y-60234236D01*
X142791808Y-60152182D01*
X143041101Y-60018932D01*
X143259608Y-59839608D01*
X143438932Y-59621101D01*
X143510000Y-59488142D01*
X143581068Y-59621101D01*
X143760393Y-59839608D01*
X143978900Y-60018932D01*
X144228193Y-60152182D01*
X144498692Y-60234236D01*
X144780000Y-60261943D01*
X145061309Y-60234236D01*
X145331808Y-60152182D01*
X145581101Y-60018932D01*
X145799608Y-59839608D01*
X145978932Y-59621101D01*
X146050000Y-59488142D01*
X146121068Y-59621101D01*
X146300393Y-59839608D01*
X146518900Y-60018932D01*
X146768193Y-60152182D01*
X147038692Y-60234236D01*
X147320000Y-60261943D01*
X147601309Y-60234236D01*
X147871808Y-60152182D01*
X148121101Y-60018932D01*
X148339608Y-59839608D01*
X148518932Y-59621101D01*
X148590000Y-59488142D01*
X148661068Y-59621101D01*
X148840393Y-59839608D01*
X149058900Y-60018932D01*
X149308193Y-60152182D01*
X149578692Y-60234236D01*
X149860000Y-60261943D01*
X150141309Y-60234236D01*
X150240001Y-60204299D01*
X150240001Y-64255702D01*
X150141308Y-64225764D01*
X149860000Y-64198057D01*
X149578691Y-64225764D01*
X149308192Y-64307818D01*
X149058899Y-64441068D01*
X148840392Y-64620393D01*
X148661068Y-64838900D01*
X148590000Y-64971858D01*
X148518932Y-64838899D01*
X148339607Y-64620392D01*
X148121100Y-64441068D01*
X147871807Y-64307818D01*
X147601308Y-64225764D01*
X147320000Y-64198057D01*
X147038691Y-64225764D01*
X146768192Y-64307818D01*
X146518899Y-64441068D01*
X146300392Y-64620393D01*
X146121068Y-64838900D01*
X146050000Y-64971858D01*
X145978932Y-64838899D01*
X145799607Y-64620392D01*
X145581100Y-64441068D01*
X145331807Y-64307818D01*
X145061308Y-64225764D01*
X144780000Y-64198057D01*
X144498691Y-64225764D01*
X144228192Y-64307818D01*
X143978899Y-64441068D01*
X143760392Y-64620393D01*
X143581068Y-64838900D01*
X143510000Y-64971858D01*
X143438932Y-64838899D01*
X143259607Y-64620392D01*
X143041100Y-64441068D01*
X142791807Y-64307818D01*
X142521308Y-64225764D01*
X142240000Y-64198057D01*
X141958691Y-64225764D01*
X141688192Y-64307818D01*
X141438899Y-64441068D01*
X141220392Y-64620393D01*
X141041068Y-64838900D01*
X140970000Y-64971858D01*
X140898932Y-64838899D01*
X140719607Y-64620392D01*
X140501100Y-64441068D01*
X140251807Y-64307818D01*
X139981308Y-64225764D01*
X139700000Y-64198057D01*
X139418691Y-64225764D01*
X139148192Y-64307818D01*
X138898899Y-64441068D01*
X138680392Y-64620393D01*
X138501068Y-64838900D01*
X138432735Y-64966742D01*
X138282601Y-64737161D01*
X138084895Y-64535500D01*
X137851646Y-64376285D01*
X137591818Y-64265633D01*
X137509039Y-64248096D01*
X137287000Y-64370085D01*
X137287000Y-65913000D01*
X137307000Y-65913000D01*
X137307000Y-66167000D01*
X137287000Y-66167000D01*
X137287000Y-67709915D01*
X137509039Y-67831904D01*
X137591818Y-67814367D01*
X137851646Y-67703715D01*
X138084895Y-67544500D01*
X138282601Y-67342839D01*
X138432735Y-67113259D01*
X138501068Y-67241101D01*
X138680393Y-67459608D01*
X138898900Y-67638932D01*
X139148193Y-67772182D01*
X139418692Y-67854236D01*
X139700000Y-67881943D01*
X139981309Y-67854236D01*
X140251808Y-67772182D01*
X140501101Y-67638932D01*
X140719608Y-67459608D01*
X140898932Y-67241101D01*
X140970000Y-67108142D01*
X141041068Y-67241101D01*
X141220393Y-67459608D01*
X141438900Y-67638932D01*
X141688193Y-67772182D01*
X141958692Y-67854236D01*
X142240000Y-67881943D01*
X142521309Y-67854236D01*
X142791808Y-67772182D01*
X143041101Y-67638932D01*
X143259608Y-67459608D01*
X143438932Y-67241101D01*
X143510000Y-67108142D01*
X143581068Y-67241101D01*
X143760393Y-67459608D01*
X143978900Y-67638932D01*
X144228193Y-67772182D01*
X144498692Y-67854236D01*
X144780000Y-67881943D01*
X145061309Y-67854236D01*
X145331808Y-67772182D01*
X145581101Y-67638932D01*
X145799608Y-67459608D01*
X145978932Y-67241101D01*
X146050000Y-67108142D01*
X146121068Y-67241101D01*
X146300393Y-67459608D01*
X146518900Y-67638932D01*
X146768193Y-67772182D01*
X147038692Y-67854236D01*
X147320000Y-67881943D01*
X147601309Y-67854236D01*
X147871808Y-67772182D01*
X148121101Y-67638932D01*
X148339608Y-67459608D01*
X148518932Y-67241101D01*
X148590000Y-67108142D01*
X148661068Y-67241101D01*
X148840393Y-67459608D01*
X149058900Y-67638932D01*
X149308193Y-67772182D01*
X149578692Y-67854236D01*
X149860000Y-67881943D01*
X150141309Y-67854236D01*
X150240000Y-67824299D01*
X150240000Y-70796289D01*
X150196063Y-70840226D01*
X150082795Y-71009744D01*
X150004774Y-71198102D01*
X149965000Y-71398061D01*
X149965000Y-71601939D01*
X150004774Y-71801898D01*
X150082795Y-71990256D01*
X150196063Y-72159774D01*
X150340226Y-72303937D01*
X150509744Y-72417205D01*
X150698102Y-72495226D01*
X150898061Y-72535000D01*
X151101939Y-72535000D01*
X151301898Y-72495226D01*
X151490256Y-72417205D01*
X151659774Y-72303937D01*
X151803937Y-72159774D01*
X151917205Y-71990256D01*
X151995226Y-71801898D01*
X152035000Y-71601939D01*
X152035000Y-71398061D01*
X151995226Y-71198102D01*
X151917205Y-71009744D01*
X151803937Y-70840226D01*
X151760000Y-70796289D01*
X151760000Y-67725042D01*
X151848193Y-67772182D01*
X152118692Y-67854236D01*
X152400000Y-67881943D01*
X152681309Y-67854236D01*
X152951808Y-67772182D01*
X153201101Y-67638932D01*
X153419608Y-67459608D01*
X153598932Y-67241101D01*
X153732182Y-66991808D01*
X153814236Y-66721309D01*
X153835000Y-66510491D01*
X153835000Y-65569508D01*
X153814236Y-65358691D01*
X153732182Y-65088192D01*
X153598932Y-64838899D01*
X153419607Y-64620392D01*
X153201100Y-64441068D01*
X152951807Y-64307818D01*
X152681308Y-64225764D01*
X152400000Y-64198057D01*
X152118691Y-64225764D01*
X151848192Y-64307818D01*
X151760000Y-64354958D01*
X151760000Y-60105042D01*
X151848193Y-60152182D01*
X152118692Y-60234236D01*
X152400000Y-60261943D01*
X152681309Y-60234236D01*
X152951808Y-60152182D01*
X153201101Y-60018932D01*
X153419608Y-59839608D01*
X153598932Y-59621101D01*
X153715000Y-59403952D01*
X153715000Y-60961447D01*
X153711203Y-61000000D01*
X153715000Y-61038553D01*
X153715000Y-61038560D01*
X153726359Y-61153886D01*
X153771246Y-61301859D01*
X153844138Y-61438232D01*
X153942236Y-61557764D01*
X153972190Y-61582347D01*
X163965000Y-71575158D01*
X163965000Y-71601939D01*
X164004774Y-71801898D01*
X164082795Y-71990256D01*
X164196063Y-72159774D01*
X164340226Y-72303937D01*
X164509744Y-72417205D01*
X164698102Y-72495226D01*
X164898061Y-72535000D01*
X165101939Y-72535000D01*
X165301898Y-72495226D01*
X165490256Y-72417205D01*
X165659774Y-72303937D01*
X165803937Y-72159774D01*
X165917205Y-71990256D01*
X165995226Y-71801898D01*
X166035000Y-71601939D01*
X166035000Y-71398061D01*
X165995226Y-71198102D01*
X165917205Y-71009744D01*
X165803937Y-70840226D01*
X165659774Y-70696063D01*
X165490256Y-70582795D01*
X165301898Y-70504774D01*
X165101939Y-70465000D01*
X165075158Y-70465000D01*
X164899879Y-70289721D01*
X167865000Y-70289721D01*
X167865000Y-70710279D01*
X167947047Y-71122756D01*
X168107988Y-71511302D01*
X168341637Y-71860983D01*
X168639017Y-72158363D01*
X168988698Y-72392012D01*
X169377244Y-72552953D01*
X169789721Y-72635000D01*
X170210279Y-72635000D01*
X170622756Y-72552953D01*
X171011302Y-72392012D01*
X171360983Y-72158363D01*
X171658363Y-71860983D01*
X171892012Y-71511302D01*
X172052953Y-71122756D01*
X172135000Y-70710279D01*
X172135000Y-70289721D01*
X172052953Y-69877244D01*
X171892012Y-69488698D01*
X171658363Y-69139017D01*
X171360983Y-68841637D01*
X171011302Y-68607988D01*
X170622756Y-68447047D01*
X170210279Y-68365000D01*
X169789721Y-68365000D01*
X169377244Y-68447047D01*
X168988698Y-68607988D01*
X168639017Y-68841637D01*
X168341637Y-69139017D01*
X168107988Y-69488698D01*
X167947047Y-69877244D01*
X167865000Y-70289721D01*
X164899879Y-70289721D01*
X159615842Y-65005685D01*
X159888889Y-65088513D01*
X160180000Y-65117185D01*
X160471110Y-65088513D01*
X160751033Y-65003599D01*
X161009013Y-64865706D01*
X161235134Y-64680134D01*
X161420706Y-64454014D01*
X161430000Y-64436626D01*
X161439294Y-64454013D01*
X161624866Y-64680134D01*
X161850986Y-64865706D01*
X162108966Y-65003599D01*
X162388889Y-65088513D01*
X162680000Y-65117185D01*
X162971110Y-65088513D01*
X163251033Y-65003599D01*
X163509013Y-64865706D01*
X163735134Y-64680134D01*
X163920706Y-64454014D01*
X163930000Y-64436626D01*
X163939294Y-64454013D01*
X164124866Y-64680134D01*
X164350986Y-64865706D01*
X164608966Y-65003599D01*
X164888889Y-65088513D01*
X165180000Y-65117185D01*
X165471110Y-65088513D01*
X165751033Y-65003599D01*
X166009013Y-64865706D01*
X166235134Y-64680134D01*
X166420706Y-64454014D01*
X166430000Y-64436626D01*
X166439294Y-64454013D01*
X166624866Y-64680134D01*
X166850986Y-64865706D01*
X167108966Y-65003599D01*
X167388889Y-65088513D01*
X167680000Y-65117185D01*
X167971110Y-65088513D01*
X168251033Y-65003599D01*
X168509013Y-64865706D01*
X168735134Y-64680134D01*
X168787223Y-64616663D01*
X168841595Y-64718386D01*
X168952038Y-64852962D01*
X169086614Y-64963405D01*
X169240150Y-65045472D01*
X169406746Y-65096008D01*
X169580000Y-65113072D01*
X170780000Y-65113072D01*
X170953254Y-65096008D01*
X171119850Y-65045472D01*
X171273386Y-64963405D01*
X171407962Y-64852962D01*
X171518405Y-64718386D01*
X171600472Y-64564850D01*
X171651008Y-64398254D01*
X171668072Y-64225000D01*
X171668072Y-62775000D01*
X171651008Y-62601746D01*
X171600472Y-62435150D01*
X171518405Y-62281614D01*
X171407962Y-62147038D01*
X171273386Y-62036595D01*
X171119850Y-61954528D01*
X170953254Y-61903992D01*
X170780000Y-61886928D01*
X169580000Y-61886928D01*
X169406746Y-61903992D01*
X169240150Y-61954528D01*
X169086614Y-62036595D01*
X168952038Y-62147038D01*
X168841595Y-62281614D01*
X168787223Y-62383337D01*
X168735134Y-62319866D01*
X168509014Y-62134294D01*
X168251034Y-61996401D01*
X167971111Y-61911487D01*
X167680000Y-61882815D01*
X167388890Y-61911487D01*
X167108967Y-61996401D01*
X166850987Y-62134294D01*
X166624866Y-62319866D01*
X166439294Y-62545986D01*
X166430000Y-62563374D01*
X166420706Y-62545986D01*
X166235134Y-62319866D01*
X166009014Y-62134294D01*
X165751034Y-61996401D01*
X165471111Y-61911487D01*
X165180000Y-61882815D01*
X164888890Y-61911487D01*
X164608967Y-61996401D01*
X164350987Y-62134294D01*
X164124866Y-62319866D01*
X163939294Y-62545986D01*
X163930000Y-62563374D01*
X163920706Y-62545986D01*
X163735134Y-62319866D01*
X163509014Y-62134294D01*
X163251034Y-61996401D01*
X162971111Y-61911487D01*
X162680000Y-61882815D01*
X162388890Y-61911487D01*
X162108967Y-61996401D01*
X161850987Y-62134294D01*
X161624866Y-62319866D01*
X161439294Y-62545986D01*
X161430000Y-62563374D01*
X161420706Y-62545986D01*
X161235134Y-62319866D01*
X161009014Y-62134294D01*
X160751034Y-61996401D01*
X160471111Y-61911487D01*
X160180000Y-61882815D01*
X159888890Y-61911487D01*
X159608967Y-61996401D01*
X159350987Y-62134294D01*
X159124866Y-62319866D01*
X158939294Y-62545986D01*
X158801401Y-62803966D01*
X158716487Y-63083889D01*
X158695000Y-63302050D01*
X158695000Y-63697949D01*
X158716487Y-63916110D01*
X158799316Y-64189158D01*
X155285000Y-60674843D01*
X155285000Y-57538552D01*
X155288797Y-57499999D01*
X155285000Y-57461446D01*
X155285000Y-57461439D01*
X155273641Y-57346113D01*
X155228754Y-57198140D01*
X155155862Y-57061767D01*
X155057764Y-56942236D01*
X155027816Y-56917658D01*
X153582347Y-55472190D01*
X153557764Y-55442236D01*
X153438233Y-55344138D01*
X153301860Y-55271246D01*
X153153887Y-55226359D01*
X153038561Y-55215000D01*
X153038553Y-55215000D01*
X153000000Y-55211203D01*
X152961447Y-55215000D01*
X148328552Y-55215000D01*
X148289999Y-55211203D01*
X148251446Y-55215000D01*
X148251439Y-55215000D01*
X148150490Y-55224943D01*
X148136112Y-55226359D01*
X147988140Y-55271246D01*
X147851767Y-55344138D01*
X147791559Y-55393550D01*
X147762187Y-55417655D01*
X147762184Y-55417658D01*
X147732236Y-55442236D01*
X147707657Y-55472185D01*
X146792190Y-56387653D01*
X146762236Y-56412236D01*
X146664138Y-56531768D01*
X146591246Y-56668141D01*
X146549879Y-56804509D01*
X146518899Y-56821068D01*
X146300392Y-57000393D01*
X146121068Y-57218900D01*
X146050000Y-57351858D01*
X145978932Y-57218899D01*
X145799607Y-57000392D01*
X145581100Y-56821068D01*
X145331807Y-56687818D01*
X145061308Y-56605764D01*
X144780000Y-56578057D01*
X144754598Y-56580559D01*
X148027816Y-53307342D01*
X148057764Y-53282764D01*
X148155862Y-53163233D01*
X148228754Y-53026860D01*
X148267698Y-52898480D01*
X148329013Y-52865706D01*
X148555134Y-52680134D01*
X148607223Y-52616663D01*
X148661595Y-52718386D01*
X148772038Y-52852962D01*
X148906614Y-52963405D01*
X149060150Y-53045472D01*
X149226746Y-53096008D01*
X149400000Y-53113072D01*
X150600000Y-53113072D01*
X150773254Y-53096008D01*
X150939850Y-53045472D01*
X151093386Y-52963405D01*
X151227962Y-52852962D01*
X151338405Y-52718386D01*
X151420472Y-52564850D01*
X151471008Y-52398254D01*
X151488072Y-52225000D01*
X151488072Y-51859742D01*
X157278715Y-51859742D01*
X157347904Y-52142745D01*
X157470975Y-52406812D01*
X157643198Y-52641795D01*
X157857954Y-52838664D01*
X158106991Y-52989854D01*
X158380739Y-53089554D01*
X158393110Y-53091476D01*
X158623000Y-52970155D01*
X158623000Y-51627000D01*
X157422768Y-51627000D01*
X157278715Y-51859742D01*
X151488072Y-51859742D01*
X151488072Y-51140258D01*
X157278715Y-51140258D01*
X157422768Y-51373000D01*
X158623000Y-51373000D01*
X158623000Y-50029845D01*
X158877000Y-50029845D01*
X158877000Y-51373000D01*
X158897000Y-51373000D01*
X158897000Y-51627000D01*
X158877000Y-51627000D01*
X158877000Y-52970155D01*
X159106890Y-53091476D01*
X159119261Y-53089554D01*
X159393009Y-52989854D01*
X159642046Y-52838664D01*
X159856802Y-52641795D01*
X159857086Y-52641407D01*
X159911595Y-52743386D01*
X160022038Y-52877962D01*
X160156614Y-52988405D01*
X160310150Y-53070472D01*
X160476746Y-53121008D01*
X160650000Y-53138072D01*
X161850000Y-53138072D01*
X162023254Y-53121008D01*
X162189850Y-53070472D01*
X162343386Y-52988405D01*
X162477962Y-52877962D01*
X162588405Y-52743386D01*
X162670472Y-52589850D01*
X162721008Y-52423254D01*
X162738072Y-52250000D01*
X162738072Y-50750000D01*
X162721008Y-50576746D01*
X162670472Y-50410150D01*
X162588405Y-50256614D01*
X162477962Y-50122038D01*
X162343386Y-50011595D01*
X162189850Y-49929528D01*
X162023254Y-49878992D01*
X161850000Y-49861928D01*
X160650000Y-49861928D01*
X160476746Y-49878992D01*
X160310150Y-49929528D01*
X160156614Y-50011595D01*
X160022038Y-50122038D01*
X159911595Y-50256614D01*
X159857086Y-50358593D01*
X159856802Y-50358205D01*
X159642046Y-50161336D01*
X159393009Y-50010146D01*
X159119261Y-49910446D01*
X159106890Y-49908524D01*
X158877000Y-50029845D01*
X158623000Y-50029845D01*
X158393110Y-49908524D01*
X158380739Y-49910446D01*
X158106991Y-50010146D01*
X157857954Y-50161336D01*
X157643198Y-50358205D01*
X157470975Y-50593188D01*
X157347904Y-50857255D01*
X157278715Y-51140258D01*
X151488072Y-51140258D01*
X151488072Y-50775000D01*
X151471008Y-50601746D01*
X151420472Y-50435150D01*
X151338405Y-50281614D01*
X151227962Y-50147038D01*
X151093386Y-50036595D01*
X150939850Y-49954528D01*
X150773254Y-49903992D01*
X150600000Y-49886928D01*
X149400000Y-49886928D01*
X149226746Y-49903992D01*
X149060150Y-49954528D01*
X148906614Y-50036595D01*
X148772038Y-50147038D01*
X148661595Y-50281614D01*
X148607223Y-50383337D01*
X148555134Y-50319866D01*
X148329014Y-50134294D01*
X148071034Y-49996401D01*
X147791111Y-49911487D01*
X147500000Y-49882815D01*
X147208890Y-49911487D01*
X146928967Y-49996401D01*
X146670987Y-50134294D01*
X146444866Y-50319866D01*
X146259294Y-50545986D01*
X146245538Y-50571722D01*
X146089049Y-50365571D01*
X145871193Y-50172504D01*
X145619858Y-50025648D01*
X145356890Y-49933524D01*
X145127000Y-50054845D01*
X145127000Y-51373000D01*
X145147000Y-51373000D01*
X145147000Y-51627000D01*
X145127000Y-51627000D01*
X145127000Y-52945155D01*
X145356890Y-53066476D01*
X145619858Y-52974352D01*
X145871193Y-52827496D01*
X146089049Y-52634429D01*
X146245538Y-52428278D01*
X146259294Y-52454013D01*
X146440287Y-52674555D01*
X143399843Y-55715000D01*
X138645157Y-55715000D01*
X142500890Y-51859267D01*
X143533680Y-51859267D01*
X143607558Y-52140830D01*
X143734947Y-52402570D01*
X143910951Y-52634429D01*
X144128807Y-52827496D01*
X144380142Y-52974352D01*
X144643110Y-53066476D01*
X144873000Y-52945155D01*
X144873000Y-51627000D01*
X143673835Y-51627000D01*
X143533680Y-51859267D01*
X142500890Y-51859267D01*
X143708607Y-50651550D01*
X143607558Y-50859170D01*
X143533680Y-51140733D01*
X143673835Y-51373000D01*
X144873000Y-51373000D01*
X144873000Y-50054845D01*
X144643110Y-49933524D01*
X144380142Y-50025648D01*
X144270367Y-50089790D01*
X148027811Y-46332346D01*
X148057764Y-46307764D01*
X148155862Y-46188233D01*
X148228754Y-46051860D01*
X148228754Y-46051859D01*
X148273642Y-45903887D01*
X148281020Y-45828974D01*
X148285000Y-45788561D01*
X148285000Y-45788556D01*
X148288797Y-45750000D01*
X148285000Y-45711444D01*
X148285000Y-43389231D01*
X148329013Y-43365706D01*
X148555134Y-43180134D01*
X148607223Y-43116663D01*
X148661595Y-43218386D01*
X148772038Y-43352962D01*
X148906614Y-43463405D01*
X149060150Y-43545472D01*
X149226746Y-43596008D01*
X149400000Y-43613072D01*
X150600000Y-43613072D01*
X150773254Y-43596008D01*
X150939850Y-43545472D01*
X151093386Y-43463405D01*
X151227962Y-43352962D01*
X151338405Y-43218386D01*
X151420472Y-43064850D01*
X151471008Y-42898254D01*
X151488072Y-42725000D01*
X151488072Y-42359742D01*
X157278715Y-42359742D01*
X157347904Y-42642745D01*
X157470975Y-42906812D01*
X157643198Y-43141795D01*
X157857954Y-43338664D01*
X158106991Y-43489854D01*
X158380739Y-43589554D01*
X158393110Y-43591476D01*
X158623000Y-43470155D01*
X158623000Y-42127000D01*
X157422768Y-42127000D01*
X157278715Y-42359742D01*
X151488072Y-42359742D01*
X151488072Y-41640258D01*
X157278715Y-41640258D01*
X157422768Y-41873000D01*
X158623000Y-41873000D01*
X158623000Y-40529845D01*
X158877000Y-40529845D01*
X158877000Y-41873000D01*
X158897000Y-41873000D01*
X158897000Y-42127000D01*
X158877000Y-42127000D01*
X158877000Y-43470155D01*
X159106890Y-43591476D01*
X159119261Y-43589554D01*
X159393009Y-43489854D01*
X159642046Y-43338664D01*
X159856802Y-43141795D01*
X159857086Y-43141407D01*
X159911595Y-43243386D01*
X160022038Y-43377962D01*
X160156614Y-43488405D01*
X160310150Y-43570472D01*
X160476746Y-43621008D01*
X160650000Y-43638072D01*
X161850000Y-43638072D01*
X162023254Y-43621008D01*
X162189850Y-43570472D01*
X162343386Y-43488405D01*
X162477962Y-43377962D01*
X162588405Y-43243386D01*
X162670472Y-43089850D01*
X162721008Y-42923254D01*
X162738072Y-42750000D01*
X162738072Y-41250000D01*
X162721008Y-41076746D01*
X162670472Y-40910150D01*
X162588405Y-40756614D01*
X162477962Y-40622038D01*
X162343386Y-40511595D01*
X162189850Y-40429528D01*
X162023254Y-40378992D01*
X161850000Y-40361928D01*
X160650000Y-40361928D01*
X160476746Y-40378992D01*
X160310150Y-40429528D01*
X160156614Y-40511595D01*
X160022038Y-40622038D01*
X159911595Y-40756614D01*
X159857086Y-40858593D01*
X159856802Y-40858205D01*
X159642046Y-40661336D01*
X159393009Y-40510146D01*
X159119261Y-40410446D01*
X159106890Y-40408524D01*
X158877000Y-40529845D01*
X158623000Y-40529845D01*
X158393110Y-40408524D01*
X158380739Y-40410446D01*
X158106991Y-40510146D01*
X157857954Y-40661336D01*
X157643198Y-40858205D01*
X157470975Y-41093188D01*
X157347904Y-41357255D01*
X157278715Y-41640258D01*
X151488072Y-41640258D01*
X151488072Y-41275000D01*
X151471008Y-41101746D01*
X151420472Y-40935150D01*
X151338405Y-40781614D01*
X151227962Y-40647038D01*
X151093386Y-40536595D01*
X150939850Y-40454528D01*
X150773254Y-40403992D01*
X150600000Y-40386928D01*
X149400000Y-40386928D01*
X149226746Y-40403992D01*
X149060150Y-40454528D01*
X148906614Y-40536595D01*
X148772038Y-40647038D01*
X148661595Y-40781614D01*
X148607223Y-40883337D01*
X148555134Y-40819866D01*
X148329014Y-40634294D01*
X148071034Y-40496401D01*
X147791111Y-40411487D01*
X147500000Y-40382815D01*
X147208890Y-40411487D01*
X146928967Y-40496401D01*
X146670987Y-40634294D01*
X146444866Y-40819866D01*
X146259294Y-41045986D01*
X146245538Y-41071722D01*
X146089049Y-40865571D01*
X145871193Y-40672504D01*
X145619858Y-40525648D01*
X145356890Y-40433524D01*
X145127000Y-40554845D01*
X145127000Y-41873000D01*
X145147000Y-41873000D01*
X145147000Y-42127000D01*
X145127000Y-42127000D01*
X145127000Y-43445155D01*
X145356890Y-43566476D01*
X145619858Y-43474352D01*
X145871193Y-43327496D01*
X146089049Y-43134429D01*
X146245538Y-42928278D01*
X146259294Y-42954013D01*
X146444866Y-43180134D01*
X146670986Y-43365706D01*
X146715001Y-43389232D01*
X146715000Y-45424843D01*
X137174843Y-54965000D01*
X130798556Y-54965000D01*
X130760000Y-54961203D01*
X130721444Y-54965000D01*
X130721439Y-54965000D01*
X130681026Y-54968980D01*
X130606113Y-54976358D01*
X130458140Y-55021246D01*
X130321767Y-55094138D01*
X130202236Y-55192236D01*
X130177655Y-55222188D01*
X129012185Y-56387658D01*
X128982237Y-56412236D01*
X128957659Y-56442184D01*
X128957655Y-56442188D01*
X128927646Y-56478754D01*
X128884139Y-56531767D01*
X128859397Y-56578057D01*
X128811246Y-56668141D01*
X128769879Y-56804509D01*
X128738899Y-56821068D01*
X128520392Y-57000393D01*
X128341068Y-57218900D01*
X128270000Y-57351858D01*
X128198932Y-57218899D01*
X128019607Y-57000392D01*
X127801100Y-56821068D01*
X127551807Y-56687818D01*
X127281308Y-56605764D01*
X127000000Y-56578057D01*
X126718691Y-56605764D01*
X126535000Y-56661485D01*
X126535000Y-51859267D01*
X130033680Y-51859267D01*
X130107558Y-52140830D01*
X130234947Y-52402570D01*
X130410951Y-52634429D01*
X130628807Y-52827496D01*
X130880142Y-52974352D01*
X131143110Y-53066476D01*
X131373000Y-52945155D01*
X131373000Y-51627000D01*
X130173835Y-51627000D01*
X130033680Y-51859267D01*
X126535000Y-51859267D01*
X126535000Y-51140733D01*
X130033680Y-51140733D01*
X130173835Y-51373000D01*
X131373000Y-51373000D01*
X131373000Y-50054845D01*
X131627000Y-50054845D01*
X131627000Y-51373000D01*
X131647000Y-51373000D01*
X131647000Y-51627000D01*
X131627000Y-51627000D01*
X131627000Y-52945155D01*
X131856890Y-53066476D01*
X132119858Y-52974352D01*
X132371193Y-52827496D01*
X132589049Y-52634429D01*
X132745538Y-52428278D01*
X132759294Y-52454013D01*
X132944866Y-52680134D01*
X133170986Y-52865706D01*
X133428966Y-53003599D01*
X133708889Y-53088513D01*
X134000000Y-53117185D01*
X134291110Y-53088513D01*
X134571033Y-53003599D01*
X134829013Y-52865706D01*
X135055134Y-52680134D01*
X135107223Y-52616663D01*
X135161595Y-52718386D01*
X135272038Y-52852962D01*
X135406614Y-52963405D01*
X135560150Y-53045472D01*
X135726746Y-53096008D01*
X135900000Y-53113072D01*
X137100000Y-53113072D01*
X137273254Y-53096008D01*
X137439850Y-53045472D01*
X137593386Y-52963405D01*
X137727962Y-52852962D01*
X137838405Y-52718386D01*
X137920472Y-52564850D01*
X137971008Y-52398254D01*
X137988072Y-52225000D01*
X137988072Y-50775000D01*
X137971008Y-50601746D01*
X137920472Y-50435150D01*
X137838405Y-50281614D01*
X137727962Y-50147038D01*
X137593386Y-50036595D01*
X137439850Y-49954528D01*
X137273254Y-49903992D01*
X137100000Y-49886928D01*
X135900000Y-49886928D01*
X135726746Y-49903992D01*
X135560150Y-49954528D01*
X135406614Y-50036595D01*
X135272038Y-50147038D01*
X135161595Y-50281614D01*
X135107223Y-50383337D01*
X135055134Y-50319866D01*
X134829014Y-50134294D01*
X134571034Y-49996401D01*
X134291111Y-49911487D01*
X134000000Y-49882815D01*
X133708890Y-49911487D01*
X133428967Y-49996401D01*
X133170987Y-50134294D01*
X132944866Y-50319866D01*
X132759294Y-50545986D01*
X132745538Y-50571722D01*
X132589049Y-50365571D01*
X132371193Y-50172504D01*
X132119858Y-50025648D01*
X131856890Y-49933524D01*
X131627000Y-50054845D01*
X131373000Y-50054845D01*
X131143110Y-49933524D01*
X130880142Y-50025648D01*
X130628807Y-50172504D01*
X130410951Y-50365571D01*
X130234947Y-50597430D01*
X130107558Y-50859170D01*
X130033680Y-51140733D01*
X126535000Y-51140733D01*
X126535000Y-43358556D01*
X126538797Y-43320000D01*
X126535000Y-43281440D01*
X126535000Y-43281439D01*
X126528790Y-43218386D01*
X126523642Y-43166114D01*
X126481173Y-43026114D01*
X126478754Y-43018140D01*
X126405862Y-42881767D01*
X126307764Y-42762236D01*
X126277811Y-42737654D01*
X126192347Y-42652190D01*
X126167764Y-42622236D01*
X126048233Y-42524138D01*
X125948072Y-42470601D01*
X125948072Y-42359267D01*
X130033680Y-42359267D01*
X130107558Y-42640830D01*
X130234947Y-42902570D01*
X130410951Y-43134429D01*
X130628807Y-43327496D01*
X130880142Y-43474352D01*
X131143110Y-43566476D01*
X131373000Y-43445155D01*
X131373000Y-42127000D01*
X130173835Y-42127000D01*
X130033680Y-42359267D01*
X125948072Y-42359267D01*
X125948072Y-42330000D01*
X125935812Y-42205518D01*
X125899502Y-42085820D01*
X125840537Y-41975506D01*
X125761185Y-41878815D01*
X125664494Y-41799463D01*
X125554180Y-41740498D01*
X125434482Y-41704188D01*
X125310000Y-41691928D01*
X123610000Y-41691928D01*
X123485518Y-41704188D01*
X123365820Y-41740498D01*
X123255506Y-41799463D01*
X123158815Y-41878815D01*
X123079463Y-41975506D01*
X123020498Y-42085820D01*
X122984188Y-42205518D01*
X122971928Y-42330000D01*
X122971928Y-44030000D01*
X122984188Y-44154482D01*
X123020498Y-44274180D01*
X123079463Y-44384494D01*
X123158815Y-44481185D01*
X123255506Y-44560537D01*
X123365820Y-44619502D01*
X123438380Y-44641513D01*
X123306525Y-44773368D01*
X123144010Y-45016589D01*
X123032068Y-45286842D01*
X122975000Y-45573740D01*
X122975000Y-45866260D01*
X123032068Y-46153158D01*
X123144010Y-46423411D01*
X123306525Y-46666632D01*
X123513368Y-46873475D01*
X123687760Y-46990000D01*
X123513368Y-47106525D01*
X123306525Y-47313368D01*
X123144010Y-47556589D01*
X123032068Y-47826842D01*
X122975000Y-48113740D01*
X122975000Y-48406260D01*
X123032068Y-48693158D01*
X123144010Y-48963411D01*
X123306525Y-49206632D01*
X123513368Y-49413475D01*
X123687760Y-49530000D01*
X123513368Y-49646525D01*
X123306525Y-49853368D01*
X123144010Y-50096589D01*
X123032068Y-50366842D01*
X122975000Y-50653740D01*
X122975000Y-50946260D01*
X123032068Y-51233158D01*
X123144010Y-51503411D01*
X123306525Y-51746632D01*
X123513368Y-51953475D01*
X123695534Y-52075195D01*
X123578645Y-52144822D01*
X123362412Y-52339731D01*
X123188359Y-52573080D01*
X123063175Y-52835901D01*
X123018524Y-52983110D01*
X123139845Y-53213000D01*
X124333000Y-53213000D01*
X124333000Y-53193000D01*
X124587000Y-53193000D01*
X124587000Y-53213000D01*
X124607000Y-53213000D01*
X124607000Y-53467000D01*
X124587000Y-53467000D01*
X124587000Y-54660814D01*
X124816891Y-54781481D01*
X124965001Y-54728942D01*
X124965001Y-56673620D01*
X124741308Y-56605764D01*
X124460000Y-56578057D01*
X124178691Y-56605764D01*
X123908192Y-56687818D01*
X123658899Y-56821068D01*
X123440392Y-57000393D01*
X123261068Y-57218900D01*
X123190000Y-57351858D01*
X123118932Y-57218899D01*
X122939607Y-57000392D01*
X122721100Y-56821068D01*
X122471807Y-56687818D01*
X122201308Y-56605764D01*
X121920000Y-56578057D01*
X121638691Y-56605764D01*
X121368192Y-56687818D01*
X121118899Y-56821068D01*
X120900392Y-57000393D01*
X120721068Y-57218900D01*
X120650000Y-57351858D01*
X120578932Y-57218899D01*
X120399607Y-57000392D01*
X120181100Y-56821068D01*
X119931807Y-56687818D01*
X119661308Y-56605764D01*
X119380000Y-56578057D01*
X119098691Y-56605764D01*
X118828192Y-56687818D01*
X118578899Y-56821068D01*
X118360392Y-57000393D01*
X118285000Y-57092258D01*
X118285000Y-54779064D01*
X118285820Y-54779502D01*
X118405518Y-54815812D01*
X118530000Y-54828072D01*
X120230000Y-54828072D01*
X120354482Y-54815812D01*
X120474180Y-54779502D01*
X120584494Y-54720537D01*
X120681185Y-54641185D01*
X120760537Y-54544494D01*
X120819502Y-54434180D01*
X120855812Y-54314482D01*
X120868072Y-54190000D01*
X120868072Y-53696890D01*
X123018524Y-53696890D01*
X123063175Y-53844099D01*
X123188359Y-54106920D01*
X123362412Y-54340269D01*
X123578645Y-54535178D01*
X123828748Y-54684157D01*
X124103109Y-54781481D01*
X124333000Y-54660814D01*
X124333000Y-53467000D01*
X123139845Y-53467000D01*
X123018524Y-53696890D01*
X120868072Y-53696890D01*
X120868072Y-52490000D01*
X120855812Y-52365518D01*
X120819502Y-52245820D01*
X120760537Y-52135506D01*
X120681185Y-52038815D01*
X120584494Y-51959463D01*
X120474180Y-51900498D01*
X120401620Y-51878487D01*
X120533475Y-51746632D01*
X120695990Y-51503411D01*
X120807932Y-51233158D01*
X120865000Y-50946260D01*
X120865000Y-50653740D01*
X120807932Y-50366842D01*
X120695990Y-50096589D01*
X120533475Y-49853368D01*
X120326632Y-49646525D01*
X120152240Y-49530000D01*
X120326632Y-49413475D01*
X120533475Y-49206632D01*
X120695990Y-48963411D01*
X120807932Y-48693158D01*
X120865000Y-48406260D01*
X120865000Y-48113740D01*
X120807932Y-47826842D01*
X120695990Y-47556589D01*
X120533475Y-47313368D01*
X120326632Y-47106525D01*
X120144466Y-46984805D01*
X120261355Y-46915178D01*
X120477588Y-46720269D01*
X120651641Y-46486920D01*
X120776825Y-46224099D01*
X120821476Y-46076890D01*
X120700155Y-45847000D01*
X119507000Y-45847000D01*
X119507000Y-45867000D01*
X119253000Y-45867000D01*
X119253000Y-45847000D01*
X118059845Y-45847000D01*
X117938524Y-46076890D01*
X117983175Y-46224099D01*
X118108359Y-46486920D01*
X118282412Y-46720269D01*
X118498645Y-46915178D01*
X118615534Y-46984805D01*
X118433368Y-47106525D01*
X118226525Y-47313368D01*
X118064010Y-47556589D01*
X117952068Y-47826842D01*
X117895000Y-48113740D01*
X117895000Y-48406260D01*
X117952068Y-48693158D01*
X118064010Y-48963411D01*
X118226525Y-49206632D01*
X118433368Y-49413475D01*
X118607760Y-49530000D01*
X118433368Y-49646525D01*
X118226525Y-49853368D01*
X118064010Y-50096589D01*
X117952068Y-50366842D01*
X117895000Y-50653740D01*
X117895000Y-50946260D01*
X117932925Y-51136918D01*
X116972185Y-52097658D01*
X116942237Y-52122236D01*
X116917659Y-52152184D01*
X116917655Y-52152188D01*
X116884690Y-52192356D01*
X116844139Y-52241767D01*
X116821031Y-52285000D01*
X116771246Y-52378141D01*
X116726359Y-52526114D01*
X116711203Y-52680000D01*
X116627000Y-52680000D01*
X116627000Y-45363110D01*
X117938524Y-45363110D01*
X118059845Y-45593000D01*
X119253000Y-45593000D01*
X119253000Y-44399186D01*
X119507000Y-44399186D01*
X119507000Y-45593000D01*
X120700155Y-45593000D01*
X120821476Y-45363110D01*
X120776825Y-45215901D01*
X120651641Y-44953080D01*
X120477588Y-44719731D01*
X120261355Y-44524822D01*
X120011252Y-44375843D01*
X119736891Y-44278519D01*
X119507000Y-44399186D01*
X119253000Y-44399186D01*
X119023109Y-44278519D01*
X118748748Y-44375843D01*
X118498645Y-44524822D01*
X118282412Y-44719731D01*
X118108359Y-44953080D01*
X117983175Y-45215901D01*
X117938524Y-45363110D01*
X116627000Y-45363110D01*
X116627000Y-44602633D01*
X116789721Y-44635000D01*
X117210279Y-44635000D01*
X117622756Y-44552953D01*
X118011302Y-44392012D01*
X118360983Y-44158363D01*
X118658363Y-43860983D01*
X118892012Y-43511302D01*
X119052953Y-43122756D01*
X119135000Y-42710279D01*
X119135000Y-42289721D01*
X119052953Y-41877244D01*
X118954987Y-41640733D01*
X130033680Y-41640733D01*
X130173835Y-41873000D01*
X131373000Y-41873000D01*
X131373000Y-40554845D01*
X131627000Y-40554845D01*
X131627000Y-41873000D01*
X131647000Y-41873000D01*
X131647000Y-42127000D01*
X131627000Y-42127000D01*
X131627000Y-43445155D01*
X131856890Y-43566476D01*
X132119858Y-43474352D01*
X132371193Y-43327496D01*
X132589049Y-43134429D01*
X132745538Y-42928278D01*
X132759294Y-42954013D01*
X132944866Y-43180134D01*
X133170986Y-43365706D01*
X133428966Y-43503599D01*
X133708889Y-43588513D01*
X134000000Y-43617185D01*
X134291110Y-43588513D01*
X134571033Y-43503599D01*
X134829013Y-43365706D01*
X135055134Y-43180134D01*
X135107223Y-43116663D01*
X135161595Y-43218386D01*
X135272038Y-43352962D01*
X135406614Y-43463405D01*
X135560150Y-43545472D01*
X135726746Y-43596008D01*
X135900000Y-43613072D01*
X137100000Y-43613072D01*
X137273254Y-43596008D01*
X137439850Y-43545472D01*
X137593386Y-43463405D01*
X137727962Y-43352962D01*
X137838405Y-43218386D01*
X137920472Y-43064850D01*
X137971008Y-42898254D01*
X137988072Y-42725000D01*
X137988072Y-42359267D01*
X143533680Y-42359267D01*
X143607558Y-42640830D01*
X143734947Y-42902570D01*
X143910951Y-43134429D01*
X144128807Y-43327496D01*
X144380142Y-43474352D01*
X144643110Y-43566476D01*
X144873000Y-43445155D01*
X144873000Y-42127000D01*
X143673835Y-42127000D01*
X143533680Y-42359267D01*
X137988072Y-42359267D01*
X137988072Y-41640733D01*
X143533680Y-41640733D01*
X143673835Y-41873000D01*
X144873000Y-41873000D01*
X144873000Y-40554845D01*
X144643110Y-40433524D01*
X144380142Y-40525648D01*
X144128807Y-40672504D01*
X143910951Y-40865571D01*
X143734947Y-41097430D01*
X143607558Y-41359170D01*
X143533680Y-41640733D01*
X137988072Y-41640733D01*
X137988072Y-41275000D01*
X137971008Y-41101746D01*
X137920472Y-40935150D01*
X137838405Y-40781614D01*
X137727962Y-40647038D01*
X137593386Y-40536595D01*
X137439850Y-40454528D01*
X137273254Y-40403992D01*
X137100000Y-40386928D01*
X135900000Y-40386928D01*
X135726746Y-40403992D01*
X135560150Y-40454528D01*
X135406614Y-40536595D01*
X135272038Y-40647038D01*
X135161595Y-40781614D01*
X135107223Y-40883337D01*
X135055134Y-40819866D01*
X134829014Y-40634294D01*
X134571034Y-40496401D01*
X134291111Y-40411487D01*
X134000000Y-40382815D01*
X133708890Y-40411487D01*
X133428967Y-40496401D01*
X133170987Y-40634294D01*
X132944866Y-40819866D01*
X132759294Y-41045986D01*
X132745538Y-41071722D01*
X132589049Y-40865571D01*
X132371193Y-40672504D01*
X132119858Y-40525648D01*
X131856890Y-40433524D01*
X131627000Y-40554845D01*
X131373000Y-40554845D01*
X131143110Y-40433524D01*
X130880142Y-40525648D01*
X130628807Y-40672504D01*
X130410951Y-40865571D01*
X130234947Y-41097430D01*
X130107558Y-41359170D01*
X130033680Y-41640733D01*
X118954987Y-41640733D01*
X118892012Y-41488698D01*
X118658363Y-41139017D01*
X118360983Y-40841637D01*
X118011302Y-40607988D01*
X117622756Y-40447047D01*
X117210279Y-40365000D01*
X116789721Y-40365000D01*
X116627000Y-40397367D01*
X116627000Y-39710000D01*
X174991928Y-39710000D01*
X174991928Y-44110000D01*
X175004188Y-44234482D01*
X175040498Y-44354180D01*
X175099463Y-44464494D01*
X175178815Y-44561185D01*
X175275506Y-44640537D01*
X175385820Y-44699502D01*
X175505518Y-44735812D01*
X175630000Y-44748072D01*
X177430000Y-44748072D01*
X177554482Y-44735812D01*
X177674180Y-44699502D01*
X177784494Y-44640537D01*
X177881185Y-44561185D01*
X177960537Y-44464494D01*
X178019502Y-44354180D01*
X178055812Y-44234482D01*
X178068072Y-44110000D01*
X178068072Y-42037000D01*
X180795000Y-42037000D01*
X180795000Y-43137000D01*
X180849271Y-43434023D01*
X180960446Y-43714751D01*
X181124252Y-43968396D01*
X181334394Y-44185210D01*
X181582796Y-44356862D01*
X181859913Y-44476755D01*
X181965260Y-44501036D01*
X182203000Y-44380378D01*
X182203000Y-42037000D01*
X182457000Y-42037000D01*
X182457000Y-44380378D01*
X182694740Y-44501036D01*
X182800087Y-44476755D01*
X183077204Y-44356862D01*
X183325606Y-44185210D01*
X183535748Y-43968396D01*
X183699554Y-43714751D01*
X183810729Y-43434023D01*
X183865000Y-43137000D01*
X183865000Y-42037000D01*
X182457000Y-42037000D01*
X182203000Y-42037000D01*
X180795000Y-42037000D01*
X178068072Y-42037000D01*
X178068072Y-40683000D01*
X180795000Y-40683000D01*
X180795000Y-41783000D01*
X182203000Y-41783000D01*
X182203000Y-39439622D01*
X182457000Y-39439622D01*
X182457000Y-41783000D01*
X183865000Y-41783000D01*
X183865000Y-40683000D01*
X183810729Y-40385977D01*
X183699554Y-40105249D01*
X183535748Y-39851604D01*
X183325606Y-39634790D01*
X183077204Y-39463138D01*
X182800087Y-39343245D01*
X182694740Y-39318964D01*
X182457000Y-39439622D01*
X182203000Y-39439622D01*
X181965260Y-39318964D01*
X181859913Y-39343245D01*
X181582796Y-39463138D01*
X181334394Y-39634790D01*
X181124252Y-39851604D01*
X180960446Y-40105249D01*
X180849271Y-40385977D01*
X180795000Y-40683000D01*
X178068072Y-40683000D01*
X178068072Y-39710000D01*
X178055812Y-39585518D01*
X178019502Y-39465820D01*
X177960537Y-39355506D01*
X177881185Y-39258815D01*
X177784494Y-39179463D01*
X177674180Y-39120498D01*
X177554482Y-39084188D01*
X177430000Y-39071928D01*
X175630000Y-39071928D01*
X175505518Y-39084188D01*
X175385820Y-39120498D01*
X175275506Y-39179463D01*
X175178815Y-39258815D01*
X175099463Y-39355506D01*
X175040498Y-39465820D01*
X175004188Y-39585518D01*
X174991928Y-39710000D01*
X116627000Y-39710000D01*
X116627000Y-31830000D01*
X119032815Y-31830000D01*
X119061487Y-32121111D01*
X119146401Y-32401034D01*
X119284294Y-32659014D01*
X119469866Y-32885134D01*
X119695986Y-33070706D01*
X119713374Y-33080000D01*
X119695986Y-33089294D01*
X119469866Y-33274866D01*
X119284294Y-33500986D01*
X119146401Y-33758966D01*
X119061487Y-34038889D01*
X119032815Y-34330000D01*
X119061487Y-34621111D01*
X119146401Y-34901034D01*
X119284294Y-35159014D01*
X119469866Y-35385134D01*
X119533337Y-35437223D01*
X119431614Y-35491595D01*
X119297038Y-35602038D01*
X119186595Y-35736614D01*
X119104528Y-35890150D01*
X119053992Y-36056746D01*
X119036928Y-36230000D01*
X119036928Y-37430000D01*
X119053992Y-37603254D01*
X119104528Y-37769850D01*
X119186595Y-37923386D01*
X119297038Y-38057962D01*
X119431614Y-38168405D01*
X119585150Y-38250472D01*
X119751746Y-38301008D01*
X119925000Y-38318072D01*
X121375000Y-38318072D01*
X121548254Y-38301008D01*
X121714850Y-38250472D01*
X121868386Y-38168405D01*
X122002962Y-38057962D01*
X122113405Y-37923386D01*
X122195472Y-37769850D01*
X122246008Y-37603254D01*
X122263072Y-37430000D01*
X122263072Y-37110000D01*
X176887573Y-37110000D01*
X176917210Y-37410913D01*
X177004983Y-37700261D01*
X177147519Y-37966927D01*
X177339339Y-38200661D01*
X177573073Y-38392481D01*
X177839739Y-38535017D01*
X178129087Y-38622790D01*
X178354592Y-38645000D01*
X180705408Y-38645000D01*
X180930913Y-38622790D01*
X181220261Y-38535017D01*
X181486927Y-38392481D01*
X181720661Y-38200661D01*
X181912481Y-37966927D01*
X182055017Y-37700261D01*
X182142790Y-37410913D01*
X182172427Y-37110000D01*
X182142790Y-36809087D01*
X182055017Y-36519739D01*
X181912481Y-36253073D01*
X181720661Y-36019339D01*
X181486927Y-35827519D01*
X181220261Y-35684983D01*
X180930913Y-35597210D01*
X180705408Y-35575000D01*
X178354592Y-35575000D01*
X178129087Y-35597210D01*
X177839739Y-35684983D01*
X177573073Y-35827519D01*
X177339339Y-36019339D01*
X177147519Y-36253073D01*
X177004983Y-36519739D01*
X176917210Y-36809087D01*
X176887573Y-37110000D01*
X122263072Y-37110000D01*
X122263072Y-36230000D01*
X122246008Y-36056746D01*
X122195472Y-35890150D01*
X122113405Y-35736614D01*
X122002962Y-35602038D01*
X121868386Y-35491595D01*
X121766663Y-35437223D01*
X121830134Y-35385134D01*
X122015706Y-35159014D01*
X122153599Y-34901034D01*
X122238513Y-34621111D01*
X122267185Y-34330000D01*
X122238513Y-34038889D01*
X122153599Y-33758966D01*
X122015706Y-33500986D01*
X121830134Y-33274866D01*
X121604014Y-33089294D01*
X121586626Y-33080000D01*
X121604014Y-33070706D01*
X121830134Y-32885134D01*
X122015706Y-32659014D01*
X122153599Y-32401034D01*
X122238513Y-32121111D01*
X122267185Y-31830000D01*
X122238513Y-31538889D01*
X122153599Y-31258966D01*
X122015706Y-31000986D01*
X121830134Y-30774866D01*
X121604014Y-30589294D01*
X121578278Y-30575538D01*
X121784429Y-30419049D01*
X121916765Y-30269721D01*
X127405000Y-30269721D01*
X127405000Y-30690279D01*
X127487047Y-31102756D01*
X127647988Y-31491302D01*
X127881637Y-31840983D01*
X128179017Y-32138363D01*
X128528698Y-32372012D01*
X128917244Y-32532953D01*
X129329721Y-32615000D01*
X129750279Y-32615000D01*
X130162756Y-32532953D01*
X130551302Y-32372012D01*
X130900983Y-32138363D01*
X131198363Y-31840983D01*
X131432012Y-31491302D01*
X131592953Y-31102756D01*
X131675000Y-30690279D01*
X131675000Y-30269721D01*
X132485000Y-30269721D01*
X132485000Y-30690279D01*
X132567047Y-31102756D01*
X132727988Y-31491302D01*
X132961637Y-31840983D01*
X133259017Y-32138363D01*
X133608698Y-32372012D01*
X133997244Y-32532953D01*
X134409721Y-32615000D01*
X134830279Y-32615000D01*
X135242756Y-32532953D01*
X135631302Y-32372012D01*
X135980983Y-32138363D01*
X136278363Y-31840983D01*
X136512012Y-31491302D01*
X136672953Y-31102756D01*
X136755000Y-30690279D01*
X136755000Y-30269721D01*
X137565000Y-30269721D01*
X137565000Y-30690279D01*
X137647047Y-31102756D01*
X137807988Y-31491302D01*
X138041637Y-31840983D01*
X138339017Y-32138363D01*
X138688698Y-32372012D01*
X139077244Y-32532953D01*
X139489721Y-32615000D01*
X139910279Y-32615000D01*
X140322756Y-32532953D01*
X140711302Y-32372012D01*
X141060983Y-32138363D01*
X141358363Y-31840983D01*
X141592012Y-31491302D01*
X141752953Y-31102756D01*
X141835000Y-30690279D01*
X141835000Y-30269721D01*
X142645000Y-30269721D01*
X142645000Y-30690279D01*
X142727047Y-31102756D01*
X142887988Y-31491302D01*
X143121637Y-31840983D01*
X143419017Y-32138363D01*
X143768698Y-32372012D01*
X144157244Y-32532953D01*
X144569721Y-32615000D01*
X144990279Y-32615000D01*
X145402756Y-32532953D01*
X145791302Y-32372012D01*
X146140983Y-32138363D01*
X146438363Y-31840983D01*
X146672012Y-31491302D01*
X146832953Y-31102756D01*
X146915000Y-30690279D01*
X146915000Y-30269721D01*
X146832953Y-29857244D01*
X146672012Y-29468698D01*
X146438363Y-29119017D01*
X146299346Y-28980000D01*
X147721928Y-28980000D01*
X147721928Y-31980000D01*
X147734188Y-32104482D01*
X147770498Y-32224180D01*
X147829463Y-32334494D01*
X147908815Y-32431185D01*
X148005506Y-32510537D01*
X148115820Y-32569502D01*
X148235518Y-32605812D01*
X148360000Y-32618072D01*
X151360000Y-32618072D01*
X151484482Y-32605812D01*
X151604180Y-32569502D01*
X151714494Y-32510537D01*
X151811185Y-32431185D01*
X151890537Y-32334494D01*
X151949502Y-32224180D01*
X151985812Y-32104482D01*
X151998072Y-31980000D01*
X151998072Y-31971653D01*
X154897952Y-31971653D01*
X155053962Y-32287214D01*
X155428745Y-32478020D01*
X155833551Y-32592044D01*
X156252824Y-32624902D01*
X156670451Y-32575334D01*
X157070383Y-32445243D01*
X157366038Y-32287214D01*
X157522048Y-31971653D01*
X159977952Y-31971653D01*
X160133962Y-32287214D01*
X160508745Y-32478020D01*
X160913551Y-32592044D01*
X161332824Y-32624902D01*
X161750451Y-32575334D01*
X162150383Y-32445243D01*
X162446038Y-32287214D01*
X162602048Y-31971653D01*
X165057952Y-31971653D01*
X165213962Y-32287214D01*
X165588745Y-32478020D01*
X165993551Y-32592044D01*
X166412824Y-32624902D01*
X166830451Y-32575334D01*
X167230383Y-32445243D01*
X167526038Y-32287214D01*
X167682048Y-31971653D01*
X170137952Y-31971653D01*
X170293962Y-32287214D01*
X170668745Y-32478020D01*
X171073551Y-32592044D01*
X171492824Y-32624902D01*
X171910451Y-32575334D01*
X172310383Y-32445243D01*
X172606038Y-32287214D01*
X172757921Y-31980000D01*
X174391928Y-31980000D01*
X174404188Y-32104482D01*
X174440498Y-32224180D01*
X174499463Y-32334494D01*
X174578815Y-32431185D01*
X174675506Y-32510537D01*
X174785820Y-32569502D01*
X174905518Y-32605812D01*
X175030000Y-32618072D01*
X176244250Y-32615000D01*
X176403000Y-32456250D01*
X176403000Y-30607000D01*
X176657000Y-30607000D01*
X176657000Y-32456250D01*
X176815750Y-32615000D01*
X178030000Y-32618072D01*
X178154482Y-32605812D01*
X178274180Y-32569502D01*
X178384494Y-32510537D01*
X178481185Y-32431185D01*
X178560537Y-32334494D01*
X178619502Y-32224180D01*
X178655812Y-32104482D01*
X178668072Y-31980000D01*
X178665000Y-30765750D01*
X178506250Y-30607000D01*
X176657000Y-30607000D01*
X176403000Y-30607000D01*
X174553750Y-30607000D01*
X174395000Y-30765750D01*
X174391928Y-31980000D01*
X172757921Y-31980000D01*
X172762048Y-31971653D01*
X171450000Y-30659605D01*
X170137952Y-31971653D01*
X167682048Y-31971653D01*
X166370000Y-30659605D01*
X165057952Y-31971653D01*
X162602048Y-31971653D01*
X161290000Y-30659605D01*
X159977952Y-31971653D01*
X157522048Y-31971653D01*
X156210000Y-30659605D01*
X154897952Y-31971653D01*
X151998072Y-31971653D01*
X151998072Y-30522824D01*
X154065098Y-30522824D01*
X154114666Y-30940451D01*
X154244757Y-31340383D01*
X154402786Y-31636038D01*
X154718347Y-31792048D01*
X156030395Y-30480000D01*
X156389605Y-30480000D01*
X157701653Y-31792048D01*
X158017214Y-31636038D01*
X158208020Y-31261255D01*
X158322044Y-30856449D01*
X158348189Y-30522824D01*
X159145098Y-30522824D01*
X159194666Y-30940451D01*
X159324757Y-31340383D01*
X159482786Y-31636038D01*
X159798347Y-31792048D01*
X161110395Y-30480000D01*
X161469605Y-30480000D01*
X162781653Y-31792048D01*
X163097214Y-31636038D01*
X163288020Y-31261255D01*
X163402044Y-30856449D01*
X163428189Y-30522824D01*
X164225098Y-30522824D01*
X164274666Y-30940451D01*
X164404757Y-31340383D01*
X164562786Y-31636038D01*
X164878347Y-31792048D01*
X166190395Y-30480000D01*
X166549605Y-30480000D01*
X167861653Y-31792048D01*
X168177214Y-31636038D01*
X168368020Y-31261255D01*
X168482044Y-30856449D01*
X168508189Y-30522824D01*
X169305098Y-30522824D01*
X169354666Y-30940451D01*
X169484757Y-31340383D01*
X169642786Y-31636038D01*
X169958347Y-31792048D01*
X171270395Y-30480000D01*
X171629605Y-30480000D01*
X172941653Y-31792048D01*
X173257214Y-31636038D01*
X173448020Y-31261255D01*
X173562044Y-30856449D01*
X173594902Y-30437176D01*
X173545334Y-30019549D01*
X173415243Y-29619617D01*
X173257214Y-29323962D01*
X172941653Y-29167952D01*
X171629605Y-30480000D01*
X171270395Y-30480000D01*
X169958347Y-29167952D01*
X169642786Y-29323962D01*
X169451980Y-29698745D01*
X169337956Y-30103551D01*
X169305098Y-30522824D01*
X168508189Y-30522824D01*
X168514902Y-30437176D01*
X168465334Y-30019549D01*
X168335243Y-29619617D01*
X168177214Y-29323962D01*
X167861653Y-29167952D01*
X166549605Y-30480000D01*
X166190395Y-30480000D01*
X164878347Y-29167952D01*
X164562786Y-29323962D01*
X164371980Y-29698745D01*
X164257956Y-30103551D01*
X164225098Y-30522824D01*
X163428189Y-30522824D01*
X163434902Y-30437176D01*
X163385334Y-30019549D01*
X163255243Y-29619617D01*
X163097214Y-29323962D01*
X162781653Y-29167952D01*
X161469605Y-30480000D01*
X161110395Y-30480000D01*
X159798347Y-29167952D01*
X159482786Y-29323962D01*
X159291980Y-29698745D01*
X159177956Y-30103551D01*
X159145098Y-30522824D01*
X158348189Y-30522824D01*
X158354902Y-30437176D01*
X158305334Y-30019549D01*
X158175243Y-29619617D01*
X158017214Y-29323962D01*
X157701653Y-29167952D01*
X156389605Y-30480000D01*
X156030395Y-30480000D01*
X154718347Y-29167952D01*
X154402786Y-29323962D01*
X154211980Y-29698745D01*
X154097956Y-30103551D01*
X154065098Y-30522824D01*
X151998072Y-30522824D01*
X151998072Y-28988347D01*
X154897952Y-28988347D01*
X156210000Y-30300395D01*
X157522048Y-28988347D01*
X159977952Y-28988347D01*
X161290000Y-30300395D01*
X162602048Y-28988347D01*
X165057952Y-28988347D01*
X166370000Y-30300395D01*
X167682048Y-28988347D01*
X170137952Y-28988347D01*
X171450000Y-30300395D01*
X172762048Y-28988347D01*
X172757922Y-28980000D01*
X174391928Y-28980000D01*
X174395000Y-30194250D01*
X174553750Y-30353000D01*
X176403000Y-30353000D01*
X176403000Y-28503750D01*
X176657000Y-28503750D01*
X176657000Y-30353000D01*
X178506250Y-30353000D01*
X178665000Y-30194250D01*
X178666655Y-29539721D01*
X183365000Y-29539721D01*
X183365000Y-29960279D01*
X183447047Y-30372756D01*
X183607988Y-30761302D01*
X183841637Y-31110983D01*
X184139017Y-31408363D01*
X184488698Y-31642012D01*
X184877244Y-31802953D01*
X185289721Y-31885000D01*
X185710279Y-31885000D01*
X186122756Y-31802953D01*
X186511302Y-31642012D01*
X186860983Y-31408363D01*
X187158363Y-31110983D01*
X187392012Y-30761302D01*
X187552953Y-30372756D01*
X187635000Y-29960279D01*
X187635000Y-29539721D01*
X187552953Y-29127244D01*
X187392012Y-28738698D01*
X187158363Y-28389017D01*
X186860983Y-28091637D01*
X186511302Y-27857988D01*
X186122756Y-27697047D01*
X185710279Y-27615000D01*
X185289721Y-27615000D01*
X184877244Y-27697047D01*
X184488698Y-27857988D01*
X184139017Y-28091637D01*
X183841637Y-28389017D01*
X183607988Y-28738698D01*
X183447047Y-29127244D01*
X183365000Y-29539721D01*
X178666655Y-29539721D01*
X178668072Y-28980000D01*
X178655812Y-28855518D01*
X178619502Y-28735820D01*
X178560537Y-28625506D01*
X178481185Y-28528815D01*
X178384494Y-28449463D01*
X178274180Y-28390498D01*
X178154482Y-28354188D01*
X178030000Y-28341928D01*
X176815750Y-28345000D01*
X176657000Y-28503750D01*
X176403000Y-28503750D01*
X176244250Y-28345000D01*
X175030000Y-28341928D01*
X174905518Y-28354188D01*
X174785820Y-28390498D01*
X174675506Y-28449463D01*
X174578815Y-28528815D01*
X174499463Y-28625506D01*
X174440498Y-28735820D01*
X174404188Y-28855518D01*
X174391928Y-28980000D01*
X172757922Y-28980000D01*
X172606038Y-28672786D01*
X172231255Y-28481980D01*
X171826449Y-28367956D01*
X171407176Y-28335098D01*
X170989549Y-28384666D01*
X170589617Y-28514757D01*
X170293962Y-28672786D01*
X170137952Y-28988347D01*
X167682048Y-28988347D01*
X167526038Y-28672786D01*
X167151255Y-28481980D01*
X166746449Y-28367956D01*
X166327176Y-28335098D01*
X165909549Y-28384666D01*
X165509617Y-28514757D01*
X165213962Y-28672786D01*
X165057952Y-28988347D01*
X162602048Y-28988347D01*
X162446038Y-28672786D01*
X162071255Y-28481980D01*
X161666449Y-28367956D01*
X161247176Y-28335098D01*
X160829549Y-28384666D01*
X160429617Y-28514757D01*
X160133962Y-28672786D01*
X159977952Y-28988347D01*
X157522048Y-28988347D01*
X157366038Y-28672786D01*
X156991255Y-28481980D01*
X156586449Y-28367956D01*
X156167176Y-28335098D01*
X155749549Y-28384666D01*
X155349617Y-28514757D01*
X155053962Y-28672786D01*
X154897952Y-28988347D01*
X151998072Y-28988347D01*
X151998072Y-28980000D01*
X151985812Y-28855518D01*
X151949502Y-28735820D01*
X151890537Y-28625506D01*
X151811185Y-28528815D01*
X151714494Y-28449463D01*
X151604180Y-28390498D01*
X151484482Y-28354188D01*
X151360000Y-28341928D01*
X148360000Y-28341928D01*
X148235518Y-28354188D01*
X148115820Y-28390498D01*
X148005506Y-28449463D01*
X147908815Y-28528815D01*
X147829463Y-28625506D01*
X147770498Y-28735820D01*
X147734188Y-28855518D01*
X147721928Y-28980000D01*
X146299346Y-28980000D01*
X146140983Y-28821637D01*
X145791302Y-28587988D01*
X145402756Y-28427047D01*
X144990279Y-28345000D01*
X144569721Y-28345000D01*
X144157244Y-28427047D01*
X143768698Y-28587988D01*
X143419017Y-28821637D01*
X143121637Y-29119017D01*
X142887988Y-29468698D01*
X142727047Y-29857244D01*
X142645000Y-30269721D01*
X141835000Y-30269721D01*
X141752953Y-29857244D01*
X141592012Y-29468698D01*
X141358363Y-29119017D01*
X141060983Y-28821637D01*
X140711302Y-28587988D01*
X140322756Y-28427047D01*
X139910279Y-28345000D01*
X139489721Y-28345000D01*
X139077244Y-28427047D01*
X138688698Y-28587988D01*
X138339017Y-28821637D01*
X138041637Y-29119017D01*
X137807988Y-29468698D01*
X137647047Y-29857244D01*
X137565000Y-30269721D01*
X136755000Y-30269721D01*
X136672953Y-29857244D01*
X136512012Y-29468698D01*
X136278363Y-29119017D01*
X135980983Y-28821637D01*
X135631302Y-28587988D01*
X135242756Y-28427047D01*
X134830279Y-28345000D01*
X134409721Y-28345000D01*
X133997244Y-28427047D01*
X133608698Y-28587988D01*
X133259017Y-28821637D01*
X132961637Y-29119017D01*
X132727988Y-29468698D01*
X132567047Y-29857244D01*
X132485000Y-30269721D01*
X131675000Y-30269721D01*
X131592953Y-29857244D01*
X131432012Y-29468698D01*
X131198363Y-29119017D01*
X130900983Y-28821637D01*
X130551302Y-28587988D01*
X130162756Y-28427047D01*
X129750279Y-28345000D01*
X129329721Y-28345000D01*
X128917244Y-28427047D01*
X128528698Y-28587988D01*
X128179017Y-28821637D01*
X127881637Y-29119017D01*
X127647988Y-29468698D01*
X127487047Y-29857244D01*
X127405000Y-30269721D01*
X121916765Y-30269721D01*
X121977496Y-30201193D01*
X122124352Y-29949858D01*
X122216476Y-29686890D01*
X122095155Y-29457000D01*
X120777000Y-29457000D01*
X120777000Y-29477000D01*
X120523000Y-29477000D01*
X120523000Y-29457000D01*
X119204845Y-29457000D01*
X119083524Y-29686890D01*
X119175648Y-29949858D01*
X119322504Y-30201193D01*
X119515571Y-30419049D01*
X119721722Y-30575538D01*
X119695986Y-30589294D01*
X119469866Y-30774866D01*
X119284294Y-31000986D01*
X119146401Y-31258966D01*
X119061487Y-31538889D01*
X119032815Y-31830000D01*
X116627000Y-31830000D01*
X116627000Y-28973110D01*
X119083524Y-28973110D01*
X119204845Y-29203000D01*
X120523000Y-29203000D01*
X120523000Y-28003835D01*
X120777000Y-28003835D01*
X120777000Y-29203000D01*
X122095155Y-29203000D01*
X122216476Y-28973110D01*
X122124352Y-28710142D01*
X121977496Y-28458807D01*
X121784429Y-28240951D01*
X121552570Y-28064947D01*
X121290830Y-27937558D01*
X121009267Y-27863680D01*
X120777000Y-28003835D01*
X120523000Y-28003835D01*
X120290733Y-27863680D01*
X120009170Y-27937558D01*
X119747430Y-28064947D01*
X119515571Y-28240951D01*
X119322504Y-28458807D01*
X119175648Y-28710142D01*
X119083524Y-28973110D01*
X116627000Y-28973110D01*
X116627000Y-28552606D01*
X119552606Y-25627000D01*
X185447394Y-25627000D01*
X188373000Y-28552606D01*
G37*
X188373000Y-28552606D02*
X188373000Y-79447394D01*
X185447394Y-82373000D01*
X139567378Y-82373000D01*
X139642012Y-82261302D01*
X139802953Y-81872756D01*
X139885000Y-81460279D01*
X139885000Y-81039721D01*
X139802953Y-80627244D01*
X139642012Y-80238698D01*
X139408363Y-79889017D01*
X139110983Y-79591637D01*
X138761302Y-79357988D01*
X138372756Y-79197047D01*
X137960279Y-79115000D01*
X137539721Y-79115000D01*
X137127244Y-79197047D01*
X136738698Y-79357988D01*
X136389017Y-79591637D01*
X136091637Y-79889017D01*
X135857988Y-80238698D01*
X135697047Y-80627244D01*
X135615000Y-81039721D01*
X135615000Y-81460279D01*
X135697047Y-81872756D01*
X135857988Y-82261302D01*
X135932622Y-82373000D01*
X119552606Y-82373000D01*
X116627000Y-79447394D01*
X116627000Y-52680000D01*
X116711203Y-52680000D01*
X116715001Y-52718563D01*
X116715000Y-59961447D01*
X116711203Y-60000000D01*
X116715000Y-60038553D01*
X116715000Y-60038560D01*
X116726359Y-60153886D01*
X116771246Y-60301859D01*
X116844138Y-60438232D01*
X116942236Y-60557764D01*
X116972190Y-60582347D01*
X118917658Y-62527816D01*
X118942236Y-62557764D01*
X118972184Y-62582342D01*
X118972187Y-62582345D01*
X118995827Y-62601746D01*
X119061767Y-62655862D01*
X119193659Y-62726359D01*
X119198140Y-62728754D01*
X119346112Y-62773641D01*
X119359911Y-62775000D01*
X119461439Y-62785000D01*
X119461446Y-62785000D01*
X119499999Y-62788797D01*
X119538552Y-62785000D01*
X121544843Y-62785000D01*
X123413276Y-64653434D01*
X123261068Y-64838900D01*
X123190000Y-64971858D01*
X123118932Y-64838899D01*
X122939607Y-64620392D01*
X122721100Y-64441068D01*
X122471807Y-64307818D01*
X122201308Y-64225764D01*
X121920000Y-64198057D01*
X121638691Y-64225764D01*
X121368192Y-64307818D01*
X121118899Y-64441068D01*
X120900392Y-64620393D01*
X120807581Y-64733483D01*
X120805812Y-64715518D01*
X120769502Y-64595820D01*
X120710537Y-64485506D01*
X120631185Y-64388815D01*
X120534494Y-64309463D01*
X120424180Y-64250498D01*
X120304482Y-64214188D01*
X120180000Y-64201928D01*
X118580000Y-64201928D01*
X118455518Y-64214188D01*
X118335820Y-64250498D01*
X118225506Y-64309463D01*
X118128815Y-64388815D01*
X118049463Y-64485506D01*
X117990498Y-64595820D01*
X117954188Y-64715518D01*
X117941928Y-64840000D01*
X117941928Y-67240000D01*
X117954188Y-67364482D01*
X117990498Y-67484180D01*
X118049463Y-67594494D01*
X118128815Y-67691185D01*
X118225506Y-67770537D01*
X118335820Y-67829502D01*
X118455518Y-67865812D01*
X118580000Y-67878072D01*
X120180000Y-67878072D01*
X120304482Y-67865812D01*
X120424180Y-67829502D01*
X120534494Y-67770537D01*
X120631185Y-67691185D01*
X120710537Y-67594494D01*
X120769502Y-67484180D01*
X120805812Y-67364482D01*
X120807581Y-67346517D01*
X120900393Y-67459608D01*
X121118900Y-67638932D01*
X121368193Y-67772182D01*
X121638692Y-67854236D01*
X121920000Y-67881943D01*
X122201309Y-67854236D01*
X122471808Y-67772182D01*
X122721101Y-67638932D01*
X122939608Y-67459608D01*
X123118932Y-67241101D01*
X123190000Y-67108142D01*
X123261068Y-67241101D01*
X123440393Y-67459608D01*
X123658900Y-67638932D01*
X123908193Y-67772182D01*
X124178692Y-67854236D01*
X124460000Y-67881943D01*
X124741309Y-67854236D01*
X125011808Y-67772182D01*
X125261101Y-67638932D01*
X125479608Y-67459608D01*
X125658932Y-67241101D01*
X125730000Y-67108142D01*
X125801068Y-67241101D01*
X125980393Y-67459608D01*
X126198900Y-67638932D01*
X126448193Y-67772182D01*
X126718692Y-67854236D01*
X127000000Y-67881943D01*
X127281309Y-67854236D01*
X127551808Y-67772182D01*
X127801101Y-67638932D01*
X128019608Y-67459608D01*
X128198932Y-67241101D01*
X128270000Y-67108142D01*
X128341068Y-67241101D01*
X128520393Y-67459608D01*
X128738900Y-67638932D01*
X128988193Y-67772182D01*
X129258692Y-67854236D01*
X129540000Y-67881943D01*
X129821309Y-67854236D01*
X130091808Y-67772182D01*
X130341101Y-67638932D01*
X130559608Y-67459608D01*
X130738932Y-67241101D01*
X130810000Y-67108142D01*
X130881068Y-67241101D01*
X131060393Y-67459608D01*
X131278900Y-67638932D01*
X131528193Y-67772182D01*
X131798692Y-67854236D01*
X132080000Y-67881943D01*
X132361309Y-67854236D01*
X132631808Y-67772182D01*
X132881101Y-67638932D01*
X133099608Y-67459608D01*
X133278932Y-67241101D01*
X133350000Y-67108142D01*
X133421068Y-67241101D01*
X133600393Y-67459608D01*
X133818900Y-67638932D01*
X134068193Y-67772182D01*
X134338692Y-67854236D01*
X134620000Y-67881943D01*
X134901309Y-67854236D01*
X135171808Y-67772182D01*
X135421101Y-67638932D01*
X135639608Y-67459608D01*
X135818932Y-67241101D01*
X135887265Y-67113259D01*
X136037399Y-67342839D01*
X136235105Y-67544500D01*
X136468354Y-67703715D01*
X136728182Y-67814367D01*
X136810961Y-67831904D01*
X137033000Y-67709915D01*
X137033000Y-66167000D01*
X137013000Y-66167000D01*
X137013000Y-65913000D01*
X137033000Y-65913000D01*
X137033000Y-64370085D01*
X136810961Y-64248096D01*
X136728182Y-64265633D01*
X136468354Y-64376285D01*
X136235105Y-64535500D01*
X136037399Y-64737161D01*
X135887265Y-64966741D01*
X135818932Y-64838899D01*
X135639607Y-64620392D01*
X135421100Y-64441068D01*
X135171807Y-64307818D01*
X134901308Y-64225764D01*
X134620000Y-64198057D01*
X134338691Y-64225764D01*
X134068192Y-64307818D01*
X133818899Y-64441068D01*
X133600392Y-64620393D01*
X133421068Y-64838900D01*
X133350000Y-64971858D01*
X133278932Y-64838899D01*
X133099607Y-64620392D01*
X132881100Y-64441068D01*
X132631807Y-64307818D01*
X132361308Y-64225764D01*
X132080000Y-64198057D01*
X131798691Y-64225764D01*
X131528192Y-64307818D01*
X131278899Y-64441068D01*
X131060392Y-64620393D01*
X130881068Y-64838900D01*
X130810000Y-64971858D01*
X130738932Y-64838899D01*
X130559607Y-64620392D01*
X130341100Y-64441068D01*
X130091807Y-64307818D01*
X129821308Y-64225764D01*
X129540000Y-64198057D01*
X129258691Y-64225764D01*
X128988192Y-64307818D01*
X128738899Y-64441068D01*
X128520392Y-64620393D01*
X128341068Y-64838900D01*
X128270000Y-64971858D01*
X128198932Y-64838899D01*
X128019607Y-64620392D01*
X127801100Y-64441068D01*
X127785000Y-64432462D01*
X127785000Y-63538555D01*
X127788797Y-63500000D01*
X127785000Y-63461440D01*
X127785000Y-63461439D01*
X127781020Y-63421026D01*
X127773642Y-63346113D01*
X127728754Y-63198140D01*
X127655862Y-63061767D01*
X127557764Y-62942236D01*
X127527817Y-62917659D01*
X126535000Y-61924843D01*
X126535000Y-60178514D01*
X126718692Y-60234236D01*
X127000000Y-60261943D01*
X127281309Y-60234236D01*
X127551808Y-60152182D01*
X127801101Y-60018932D01*
X128019608Y-59839608D01*
X128198932Y-59621101D01*
X128270000Y-59488142D01*
X128341068Y-59621101D01*
X128520393Y-59839608D01*
X128738900Y-60018932D01*
X128988193Y-60152182D01*
X129258692Y-60234236D01*
X129540000Y-60261943D01*
X129821309Y-60234236D01*
X130091808Y-60152182D01*
X130341101Y-60018932D01*
X130559608Y-59839608D01*
X130738932Y-59621101D01*
X130810000Y-59488142D01*
X130881068Y-59621101D01*
X131060393Y-59839608D01*
X131278900Y-60018932D01*
X131528193Y-60152182D01*
X131798692Y-60234236D01*
X132080000Y-60261943D01*
X132361309Y-60234236D01*
X132631808Y-60152182D01*
X132881101Y-60018932D01*
X133099608Y-59839608D01*
X133278932Y-59621101D01*
X133347265Y-59493259D01*
X133497399Y-59722839D01*
X133695105Y-59924500D01*
X133928354Y-60083715D01*
X134188182Y-60194367D01*
X134270961Y-60211904D01*
X134493000Y-60089915D01*
X134493000Y-58547000D01*
X134473000Y-58547000D01*
X134473000Y-58293000D01*
X134493000Y-58293000D01*
X134493000Y-58273000D01*
X134747000Y-58273000D01*
X134747000Y-58293000D01*
X134767000Y-58293000D01*
X134767000Y-58547000D01*
X134747000Y-58547000D01*
X134747000Y-60089915D01*
X134969039Y-60211904D01*
X135051818Y-60194367D01*
X135311646Y-60083715D01*
X135544895Y-59924500D01*
X135742601Y-59722839D01*
X135892735Y-59493259D01*
X135961068Y-59621101D01*
X136140393Y-59839608D01*
X136358900Y-60018932D01*
X136608193Y-60152182D01*
X136878692Y-60234236D01*
X137160000Y-60261943D01*
X137441309Y-60234236D01*
X137711808Y-60152182D01*
X137961101Y-60018932D01*
X138179608Y-59839608D01*
X138358932Y-59621101D01*
X138430000Y-59488142D01*
X138501068Y-59621101D01*
X138680393Y-59839608D01*
X138898900Y-60018932D01*
X139148193Y-60152182D01*
X139418692Y-60234236D01*
X139700000Y-60261943D01*
X139981309Y-60234236D01*
X140251808Y-60152182D01*
X140501101Y-60018932D01*
X140719608Y-59839608D01*
X140898932Y-59621101D01*
X140970000Y-59488142D01*
X141041068Y-59621101D01*
X141220393Y-59839608D01*
X141438900Y-60018932D01*
X141688193Y-60152182D01*
X141958692Y-60234236D01*
X142240000Y-60261943D01*
X142521309Y-60234236D01*
X142791808Y-60152182D01*
X143041101Y-60018932D01*
X143259608Y-59839608D01*
X143438932Y-59621101D01*
X143510000Y-59488142D01*
X143581068Y-59621101D01*
X143760393Y-59839608D01*
X143978900Y-60018932D01*
X144228193Y-60152182D01*
X144498692Y-60234236D01*
X144780000Y-60261943D01*
X145061309Y-60234236D01*
X145331808Y-60152182D01*
X145581101Y-60018932D01*
X145799608Y-59839608D01*
X145978932Y-59621101D01*
X146050000Y-59488142D01*
X146121068Y-59621101D01*
X146300393Y-59839608D01*
X146518900Y-60018932D01*
X146768193Y-60152182D01*
X147038692Y-60234236D01*
X147320000Y-60261943D01*
X147601309Y-60234236D01*
X147871808Y-60152182D01*
X148121101Y-60018932D01*
X148339608Y-59839608D01*
X148518932Y-59621101D01*
X148590000Y-59488142D01*
X148661068Y-59621101D01*
X148840393Y-59839608D01*
X149058900Y-60018932D01*
X149308193Y-60152182D01*
X149578692Y-60234236D01*
X149860000Y-60261943D01*
X150141309Y-60234236D01*
X150240001Y-60204299D01*
X150240001Y-64255702D01*
X150141308Y-64225764D01*
X149860000Y-64198057D01*
X149578691Y-64225764D01*
X149308192Y-64307818D01*
X149058899Y-64441068D01*
X148840392Y-64620393D01*
X148661068Y-64838900D01*
X148590000Y-64971858D01*
X148518932Y-64838899D01*
X148339607Y-64620392D01*
X148121100Y-64441068D01*
X147871807Y-64307818D01*
X147601308Y-64225764D01*
X147320000Y-64198057D01*
X147038691Y-64225764D01*
X146768192Y-64307818D01*
X146518899Y-64441068D01*
X146300392Y-64620393D01*
X146121068Y-64838900D01*
X146050000Y-64971858D01*
X145978932Y-64838899D01*
X145799607Y-64620392D01*
X145581100Y-64441068D01*
X145331807Y-64307818D01*
X145061308Y-64225764D01*
X144780000Y-64198057D01*
X144498691Y-64225764D01*
X144228192Y-64307818D01*
X143978899Y-64441068D01*
X143760392Y-64620393D01*
X143581068Y-64838900D01*
X143510000Y-64971858D01*
X143438932Y-64838899D01*
X143259607Y-64620392D01*
X143041100Y-64441068D01*
X142791807Y-64307818D01*
X142521308Y-64225764D01*
X142240000Y-64198057D01*
X141958691Y-64225764D01*
X141688192Y-64307818D01*
X141438899Y-64441068D01*
X141220392Y-64620393D01*
X141041068Y-64838900D01*
X140970000Y-64971858D01*
X140898932Y-64838899D01*
X140719607Y-64620392D01*
X140501100Y-64441068D01*
X140251807Y-64307818D01*
X139981308Y-64225764D01*
X139700000Y-64198057D01*
X139418691Y-64225764D01*
X139148192Y-64307818D01*
X138898899Y-64441068D01*
X138680392Y-64620393D01*
X138501068Y-64838900D01*
X138432735Y-64966742D01*
X138282601Y-64737161D01*
X138084895Y-64535500D01*
X137851646Y-64376285D01*
X137591818Y-64265633D01*
X137509039Y-64248096D01*
X137287000Y-64370085D01*
X137287000Y-65913000D01*
X137307000Y-65913000D01*
X137307000Y-66167000D01*
X137287000Y-66167000D01*
X137287000Y-67709915D01*
X137509039Y-67831904D01*
X137591818Y-67814367D01*
X137851646Y-67703715D01*
X138084895Y-67544500D01*
X138282601Y-67342839D01*
X138432735Y-67113259D01*
X138501068Y-67241101D01*
X138680393Y-67459608D01*
X138898900Y-67638932D01*
X139148193Y-67772182D01*
X139418692Y-67854236D01*
X139700000Y-67881943D01*
X139981309Y-67854236D01*
X140251808Y-67772182D01*
X140501101Y-67638932D01*
X140719608Y-67459608D01*
X140898932Y-67241101D01*
X140970000Y-67108142D01*
X141041068Y-67241101D01*
X141220393Y-67459608D01*
X141438900Y-67638932D01*
X141688193Y-67772182D01*
X141958692Y-67854236D01*
X142240000Y-67881943D01*
X142521309Y-67854236D01*
X142791808Y-67772182D01*
X143041101Y-67638932D01*
X143259608Y-67459608D01*
X143438932Y-67241101D01*
X143510000Y-67108142D01*
X143581068Y-67241101D01*
X143760393Y-67459608D01*
X143978900Y-67638932D01*
X144228193Y-67772182D01*
X144498692Y-67854236D01*
X144780000Y-67881943D01*
X145061309Y-67854236D01*
X145331808Y-67772182D01*
X145581101Y-67638932D01*
X145799608Y-67459608D01*
X145978932Y-67241101D01*
X146050000Y-67108142D01*
X146121068Y-67241101D01*
X146300393Y-67459608D01*
X146518900Y-67638932D01*
X146768193Y-67772182D01*
X147038692Y-67854236D01*
X147320000Y-67881943D01*
X147601309Y-67854236D01*
X147871808Y-67772182D01*
X148121101Y-67638932D01*
X148339608Y-67459608D01*
X148518932Y-67241101D01*
X148590000Y-67108142D01*
X148661068Y-67241101D01*
X148840393Y-67459608D01*
X149058900Y-67638932D01*
X149308193Y-67772182D01*
X149578692Y-67854236D01*
X149860000Y-67881943D01*
X150141309Y-67854236D01*
X150240000Y-67824299D01*
X150240000Y-70796289D01*
X150196063Y-70840226D01*
X150082795Y-71009744D01*
X150004774Y-71198102D01*
X149965000Y-71398061D01*
X149965000Y-71601939D01*
X150004774Y-71801898D01*
X150082795Y-71990256D01*
X150196063Y-72159774D01*
X150340226Y-72303937D01*
X150509744Y-72417205D01*
X150698102Y-72495226D01*
X150898061Y-72535000D01*
X151101939Y-72535000D01*
X151301898Y-72495226D01*
X151490256Y-72417205D01*
X151659774Y-72303937D01*
X151803937Y-72159774D01*
X151917205Y-71990256D01*
X151995226Y-71801898D01*
X152035000Y-71601939D01*
X152035000Y-71398061D01*
X151995226Y-71198102D01*
X151917205Y-71009744D01*
X151803937Y-70840226D01*
X151760000Y-70796289D01*
X151760000Y-67725042D01*
X151848193Y-67772182D01*
X152118692Y-67854236D01*
X152400000Y-67881943D01*
X152681309Y-67854236D01*
X152951808Y-67772182D01*
X153201101Y-67638932D01*
X153419608Y-67459608D01*
X153598932Y-67241101D01*
X153732182Y-66991808D01*
X153814236Y-66721309D01*
X153835000Y-66510491D01*
X153835000Y-65569508D01*
X153814236Y-65358691D01*
X153732182Y-65088192D01*
X153598932Y-64838899D01*
X153419607Y-64620392D01*
X153201100Y-64441068D01*
X152951807Y-64307818D01*
X152681308Y-64225764D01*
X152400000Y-64198057D01*
X152118691Y-64225764D01*
X151848192Y-64307818D01*
X151760000Y-64354958D01*
X151760000Y-60105042D01*
X151848193Y-60152182D01*
X152118692Y-60234236D01*
X152400000Y-60261943D01*
X152681309Y-60234236D01*
X152951808Y-60152182D01*
X153201101Y-60018932D01*
X153419608Y-59839608D01*
X153598932Y-59621101D01*
X153715000Y-59403952D01*
X153715000Y-60961447D01*
X153711203Y-61000000D01*
X153715000Y-61038553D01*
X153715000Y-61038560D01*
X153726359Y-61153886D01*
X153771246Y-61301859D01*
X153844138Y-61438232D01*
X153942236Y-61557764D01*
X153972190Y-61582347D01*
X163965000Y-71575158D01*
X163965000Y-71601939D01*
X164004774Y-71801898D01*
X164082795Y-71990256D01*
X164196063Y-72159774D01*
X164340226Y-72303937D01*
X164509744Y-72417205D01*
X164698102Y-72495226D01*
X164898061Y-72535000D01*
X165101939Y-72535000D01*
X165301898Y-72495226D01*
X165490256Y-72417205D01*
X165659774Y-72303937D01*
X165803937Y-72159774D01*
X165917205Y-71990256D01*
X165995226Y-71801898D01*
X166035000Y-71601939D01*
X166035000Y-71398061D01*
X165995226Y-71198102D01*
X165917205Y-71009744D01*
X165803937Y-70840226D01*
X165659774Y-70696063D01*
X165490256Y-70582795D01*
X165301898Y-70504774D01*
X165101939Y-70465000D01*
X165075158Y-70465000D01*
X164899879Y-70289721D01*
X167865000Y-70289721D01*
X167865000Y-70710279D01*
X167947047Y-71122756D01*
X168107988Y-71511302D01*
X168341637Y-71860983D01*
X168639017Y-72158363D01*
X168988698Y-72392012D01*
X169377244Y-72552953D01*
X169789721Y-72635000D01*
X170210279Y-72635000D01*
X170622756Y-72552953D01*
X171011302Y-72392012D01*
X171360983Y-72158363D01*
X171658363Y-71860983D01*
X171892012Y-71511302D01*
X172052953Y-71122756D01*
X172135000Y-70710279D01*
X172135000Y-70289721D01*
X172052953Y-69877244D01*
X171892012Y-69488698D01*
X171658363Y-69139017D01*
X171360983Y-68841637D01*
X171011302Y-68607988D01*
X170622756Y-68447047D01*
X170210279Y-68365000D01*
X169789721Y-68365000D01*
X169377244Y-68447047D01*
X168988698Y-68607988D01*
X168639017Y-68841637D01*
X168341637Y-69139017D01*
X168107988Y-69488698D01*
X167947047Y-69877244D01*
X167865000Y-70289721D01*
X164899879Y-70289721D01*
X159615842Y-65005685D01*
X159888889Y-65088513D01*
X160180000Y-65117185D01*
X160471110Y-65088513D01*
X160751033Y-65003599D01*
X161009013Y-64865706D01*
X161235134Y-64680134D01*
X161420706Y-64454014D01*
X161430000Y-64436626D01*
X161439294Y-64454013D01*
X161624866Y-64680134D01*
X161850986Y-64865706D01*
X162108966Y-65003599D01*
X162388889Y-65088513D01*
X162680000Y-65117185D01*
X162971110Y-65088513D01*
X163251033Y-65003599D01*
X163509013Y-64865706D01*
X163735134Y-64680134D01*
X163920706Y-64454014D01*
X163930000Y-64436626D01*
X163939294Y-64454013D01*
X164124866Y-64680134D01*
X164350986Y-64865706D01*
X164608966Y-65003599D01*
X164888889Y-65088513D01*
X165180000Y-65117185D01*
X165471110Y-65088513D01*
X165751033Y-65003599D01*
X166009013Y-64865706D01*
X166235134Y-64680134D01*
X166420706Y-64454014D01*
X166430000Y-64436626D01*
X166439294Y-64454013D01*
X166624866Y-64680134D01*
X166850986Y-64865706D01*
X167108966Y-65003599D01*
X167388889Y-65088513D01*
X167680000Y-65117185D01*
X167971110Y-65088513D01*
X168251033Y-65003599D01*
X168509013Y-64865706D01*
X168735134Y-64680134D01*
X168787223Y-64616663D01*
X168841595Y-64718386D01*
X168952038Y-64852962D01*
X169086614Y-64963405D01*
X169240150Y-65045472D01*
X169406746Y-65096008D01*
X169580000Y-65113072D01*
X170780000Y-65113072D01*
X170953254Y-65096008D01*
X171119850Y-65045472D01*
X171273386Y-64963405D01*
X171407962Y-64852962D01*
X171518405Y-64718386D01*
X171600472Y-64564850D01*
X171651008Y-64398254D01*
X171668072Y-64225000D01*
X171668072Y-62775000D01*
X171651008Y-62601746D01*
X171600472Y-62435150D01*
X171518405Y-62281614D01*
X171407962Y-62147038D01*
X171273386Y-62036595D01*
X171119850Y-61954528D01*
X170953254Y-61903992D01*
X170780000Y-61886928D01*
X169580000Y-61886928D01*
X169406746Y-61903992D01*
X169240150Y-61954528D01*
X169086614Y-62036595D01*
X168952038Y-62147038D01*
X168841595Y-62281614D01*
X168787223Y-62383337D01*
X168735134Y-62319866D01*
X168509014Y-62134294D01*
X168251034Y-61996401D01*
X167971111Y-61911487D01*
X167680000Y-61882815D01*
X167388890Y-61911487D01*
X167108967Y-61996401D01*
X166850987Y-62134294D01*
X166624866Y-62319866D01*
X166439294Y-62545986D01*
X166430000Y-62563374D01*
X166420706Y-62545986D01*
X166235134Y-62319866D01*
X166009014Y-62134294D01*
X165751034Y-61996401D01*
X165471111Y-61911487D01*
X165180000Y-61882815D01*
X164888890Y-61911487D01*
X164608967Y-61996401D01*
X164350987Y-62134294D01*
X164124866Y-62319866D01*
X163939294Y-62545986D01*
X163930000Y-62563374D01*
X163920706Y-62545986D01*
X163735134Y-62319866D01*
X163509014Y-62134294D01*
X163251034Y-61996401D01*
X162971111Y-61911487D01*
X162680000Y-61882815D01*
X162388890Y-61911487D01*
X162108967Y-61996401D01*
X161850987Y-62134294D01*
X161624866Y-62319866D01*
X161439294Y-62545986D01*
X161430000Y-62563374D01*
X161420706Y-62545986D01*
X161235134Y-62319866D01*
X161009014Y-62134294D01*
X160751034Y-61996401D01*
X160471111Y-61911487D01*
X160180000Y-61882815D01*
X159888890Y-61911487D01*
X159608967Y-61996401D01*
X159350987Y-62134294D01*
X159124866Y-62319866D01*
X158939294Y-62545986D01*
X158801401Y-62803966D01*
X158716487Y-63083889D01*
X158695000Y-63302050D01*
X158695000Y-63697949D01*
X158716487Y-63916110D01*
X158799316Y-64189158D01*
X155285000Y-60674843D01*
X155285000Y-57538552D01*
X155288797Y-57499999D01*
X155285000Y-57461446D01*
X155285000Y-57461439D01*
X155273641Y-57346113D01*
X155228754Y-57198140D01*
X155155862Y-57061767D01*
X155057764Y-56942236D01*
X155027816Y-56917658D01*
X153582347Y-55472190D01*
X153557764Y-55442236D01*
X153438233Y-55344138D01*
X153301860Y-55271246D01*
X153153887Y-55226359D01*
X153038561Y-55215000D01*
X153038553Y-55215000D01*
X153000000Y-55211203D01*
X152961447Y-55215000D01*
X148328552Y-55215000D01*
X148289999Y-55211203D01*
X148251446Y-55215000D01*
X148251439Y-55215000D01*
X148150490Y-55224943D01*
X148136112Y-55226359D01*
X147988140Y-55271246D01*
X147851767Y-55344138D01*
X147791559Y-55393550D01*
X147762187Y-55417655D01*
X147762184Y-55417658D01*
X147732236Y-55442236D01*
X147707657Y-55472185D01*
X146792190Y-56387653D01*
X146762236Y-56412236D01*
X146664138Y-56531768D01*
X146591246Y-56668141D01*
X146549879Y-56804509D01*
X146518899Y-56821068D01*
X146300392Y-57000393D01*
X146121068Y-57218900D01*
X146050000Y-57351858D01*
X145978932Y-57218899D01*
X145799607Y-57000392D01*
X145581100Y-56821068D01*
X145331807Y-56687818D01*
X145061308Y-56605764D01*
X144780000Y-56578057D01*
X144754598Y-56580559D01*
X148027816Y-53307342D01*
X148057764Y-53282764D01*
X148155862Y-53163233D01*
X148228754Y-53026860D01*
X148267698Y-52898480D01*
X148329013Y-52865706D01*
X148555134Y-52680134D01*
X148607223Y-52616663D01*
X148661595Y-52718386D01*
X148772038Y-52852962D01*
X148906614Y-52963405D01*
X149060150Y-53045472D01*
X149226746Y-53096008D01*
X149400000Y-53113072D01*
X150600000Y-53113072D01*
X150773254Y-53096008D01*
X150939850Y-53045472D01*
X151093386Y-52963405D01*
X151227962Y-52852962D01*
X151338405Y-52718386D01*
X151420472Y-52564850D01*
X151471008Y-52398254D01*
X151488072Y-52225000D01*
X151488072Y-51859742D01*
X157278715Y-51859742D01*
X157347904Y-52142745D01*
X157470975Y-52406812D01*
X157643198Y-52641795D01*
X157857954Y-52838664D01*
X158106991Y-52989854D01*
X158380739Y-53089554D01*
X158393110Y-53091476D01*
X158623000Y-52970155D01*
X158623000Y-51627000D01*
X157422768Y-51627000D01*
X157278715Y-51859742D01*
X151488072Y-51859742D01*
X151488072Y-51140258D01*
X157278715Y-51140258D01*
X157422768Y-51373000D01*
X158623000Y-51373000D01*
X158623000Y-50029845D01*
X158877000Y-50029845D01*
X158877000Y-51373000D01*
X158897000Y-51373000D01*
X158897000Y-51627000D01*
X158877000Y-51627000D01*
X158877000Y-52970155D01*
X159106890Y-53091476D01*
X159119261Y-53089554D01*
X159393009Y-52989854D01*
X159642046Y-52838664D01*
X159856802Y-52641795D01*
X159857086Y-52641407D01*
X159911595Y-52743386D01*
X160022038Y-52877962D01*
X160156614Y-52988405D01*
X160310150Y-53070472D01*
X160476746Y-53121008D01*
X160650000Y-53138072D01*
X161850000Y-53138072D01*
X162023254Y-53121008D01*
X162189850Y-53070472D01*
X162343386Y-52988405D01*
X162477962Y-52877962D01*
X162588405Y-52743386D01*
X162670472Y-52589850D01*
X162721008Y-52423254D01*
X162738072Y-52250000D01*
X162738072Y-50750000D01*
X162721008Y-50576746D01*
X162670472Y-50410150D01*
X162588405Y-50256614D01*
X162477962Y-50122038D01*
X162343386Y-50011595D01*
X162189850Y-49929528D01*
X162023254Y-49878992D01*
X161850000Y-49861928D01*
X160650000Y-49861928D01*
X160476746Y-49878992D01*
X160310150Y-49929528D01*
X160156614Y-50011595D01*
X160022038Y-50122038D01*
X159911595Y-50256614D01*
X159857086Y-50358593D01*
X159856802Y-50358205D01*
X159642046Y-50161336D01*
X159393009Y-50010146D01*
X159119261Y-49910446D01*
X159106890Y-49908524D01*
X158877000Y-50029845D01*
X158623000Y-50029845D01*
X158393110Y-49908524D01*
X158380739Y-49910446D01*
X158106991Y-50010146D01*
X157857954Y-50161336D01*
X157643198Y-50358205D01*
X157470975Y-50593188D01*
X157347904Y-50857255D01*
X157278715Y-51140258D01*
X151488072Y-51140258D01*
X151488072Y-50775000D01*
X151471008Y-50601746D01*
X151420472Y-50435150D01*
X151338405Y-50281614D01*
X151227962Y-50147038D01*
X151093386Y-50036595D01*
X150939850Y-49954528D01*
X150773254Y-49903992D01*
X150600000Y-49886928D01*
X149400000Y-49886928D01*
X149226746Y-49903992D01*
X149060150Y-49954528D01*
X148906614Y-50036595D01*
X148772038Y-50147038D01*
X148661595Y-50281614D01*
X148607223Y-50383337D01*
X148555134Y-50319866D01*
X148329014Y-50134294D01*
X148071034Y-49996401D01*
X147791111Y-49911487D01*
X147500000Y-49882815D01*
X147208890Y-49911487D01*
X146928967Y-49996401D01*
X146670987Y-50134294D01*
X146444866Y-50319866D01*
X146259294Y-50545986D01*
X146245538Y-50571722D01*
X146089049Y-50365571D01*
X145871193Y-50172504D01*
X145619858Y-50025648D01*
X145356890Y-49933524D01*
X145127000Y-50054845D01*
X145127000Y-51373000D01*
X145147000Y-51373000D01*
X145147000Y-51627000D01*
X145127000Y-51627000D01*
X145127000Y-52945155D01*
X145356890Y-53066476D01*
X145619858Y-52974352D01*
X145871193Y-52827496D01*
X146089049Y-52634429D01*
X146245538Y-52428278D01*
X146259294Y-52454013D01*
X146440287Y-52674555D01*
X143399843Y-55715000D01*
X138645157Y-55715000D01*
X142500890Y-51859267D01*
X143533680Y-51859267D01*
X143607558Y-52140830D01*
X143734947Y-52402570D01*
X143910951Y-52634429D01*
X144128807Y-52827496D01*
X144380142Y-52974352D01*
X144643110Y-53066476D01*
X144873000Y-52945155D01*
X144873000Y-51627000D01*
X143673835Y-51627000D01*
X143533680Y-51859267D01*
X142500890Y-51859267D01*
X143708607Y-50651550D01*
X143607558Y-50859170D01*
X143533680Y-51140733D01*
X143673835Y-51373000D01*
X144873000Y-51373000D01*
X144873000Y-50054845D01*
X144643110Y-49933524D01*
X144380142Y-50025648D01*
X144270367Y-50089790D01*
X148027811Y-46332346D01*
X148057764Y-46307764D01*
X148155862Y-46188233D01*
X148228754Y-46051860D01*
X148228754Y-46051859D01*
X148273642Y-45903887D01*
X148281020Y-45828974D01*
X148285000Y-45788561D01*
X148285000Y-45788556D01*
X148288797Y-45750000D01*
X148285000Y-45711444D01*
X148285000Y-43389231D01*
X148329013Y-43365706D01*
X148555134Y-43180134D01*
X148607223Y-43116663D01*
X148661595Y-43218386D01*
X148772038Y-43352962D01*
X148906614Y-43463405D01*
X149060150Y-43545472D01*
X149226746Y-43596008D01*
X149400000Y-43613072D01*
X150600000Y-43613072D01*
X150773254Y-43596008D01*
X150939850Y-43545472D01*
X151093386Y-43463405D01*
X151227962Y-43352962D01*
X151338405Y-43218386D01*
X151420472Y-43064850D01*
X151471008Y-42898254D01*
X151488072Y-42725000D01*
X151488072Y-42359742D01*
X157278715Y-42359742D01*
X157347904Y-42642745D01*
X157470975Y-42906812D01*
X157643198Y-43141795D01*
X157857954Y-43338664D01*
X158106991Y-43489854D01*
X158380739Y-43589554D01*
X158393110Y-43591476D01*
X158623000Y-43470155D01*
X158623000Y-42127000D01*
X157422768Y-42127000D01*
X157278715Y-42359742D01*
X151488072Y-42359742D01*
X151488072Y-41640258D01*
X157278715Y-41640258D01*
X157422768Y-41873000D01*
X158623000Y-41873000D01*
X158623000Y-40529845D01*
X158877000Y-40529845D01*
X158877000Y-41873000D01*
X158897000Y-41873000D01*
X158897000Y-42127000D01*
X158877000Y-42127000D01*
X158877000Y-43470155D01*
X159106890Y-43591476D01*
X159119261Y-43589554D01*
X159393009Y-43489854D01*
X159642046Y-43338664D01*
X159856802Y-43141795D01*
X159857086Y-43141407D01*
X159911595Y-43243386D01*
X160022038Y-43377962D01*
X160156614Y-43488405D01*
X160310150Y-43570472D01*
X160476746Y-43621008D01*
X160650000Y-43638072D01*
X161850000Y-43638072D01*
X162023254Y-43621008D01*
X162189850Y-43570472D01*
X162343386Y-43488405D01*
X162477962Y-43377962D01*
X162588405Y-43243386D01*
X162670472Y-43089850D01*
X162721008Y-42923254D01*
X162738072Y-42750000D01*
X162738072Y-41250000D01*
X162721008Y-41076746D01*
X162670472Y-40910150D01*
X162588405Y-40756614D01*
X162477962Y-40622038D01*
X162343386Y-40511595D01*
X162189850Y-40429528D01*
X162023254Y-40378992D01*
X161850000Y-40361928D01*
X160650000Y-40361928D01*
X160476746Y-40378992D01*
X160310150Y-40429528D01*
X160156614Y-40511595D01*
X160022038Y-40622038D01*
X159911595Y-40756614D01*
X159857086Y-40858593D01*
X159856802Y-40858205D01*
X159642046Y-40661336D01*
X159393009Y-40510146D01*
X159119261Y-40410446D01*
X159106890Y-40408524D01*
X158877000Y-40529845D01*
X158623000Y-40529845D01*
X158393110Y-40408524D01*
X158380739Y-40410446D01*
X158106991Y-40510146D01*
X157857954Y-40661336D01*
X157643198Y-40858205D01*
X157470975Y-41093188D01*
X157347904Y-41357255D01*
X157278715Y-41640258D01*
X151488072Y-41640258D01*
X151488072Y-41275000D01*
X151471008Y-41101746D01*
X151420472Y-40935150D01*
X151338405Y-40781614D01*
X151227962Y-40647038D01*
X151093386Y-40536595D01*
X150939850Y-40454528D01*
X150773254Y-40403992D01*
X150600000Y-40386928D01*
X149400000Y-40386928D01*
X149226746Y-40403992D01*
X149060150Y-40454528D01*
X148906614Y-40536595D01*
X148772038Y-40647038D01*
X148661595Y-40781614D01*
X148607223Y-40883337D01*
X148555134Y-40819866D01*
X148329014Y-40634294D01*
X148071034Y-40496401D01*
X147791111Y-40411487D01*
X147500000Y-40382815D01*
X147208890Y-40411487D01*
X146928967Y-40496401D01*
X146670987Y-40634294D01*
X146444866Y-40819866D01*
X146259294Y-41045986D01*
X146245538Y-41071722D01*
X146089049Y-40865571D01*
X145871193Y-40672504D01*
X145619858Y-40525648D01*
X145356890Y-40433524D01*
X145127000Y-40554845D01*
X145127000Y-41873000D01*
X145147000Y-41873000D01*
X145147000Y-42127000D01*
X145127000Y-42127000D01*
X145127000Y-43445155D01*
X145356890Y-43566476D01*
X145619858Y-43474352D01*
X145871193Y-43327496D01*
X146089049Y-43134429D01*
X146245538Y-42928278D01*
X146259294Y-42954013D01*
X146444866Y-43180134D01*
X146670986Y-43365706D01*
X146715001Y-43389232D01*
X146715000Y-45424843D01*
X137174843Y-54965000D01*
X130798556Y-54965000D01*
X130760000Y-54961203D01*
X130721444Y-54965000D01*
X130721439Y-54965000D01*
X130681026Y-54968980D01*
X130606113Y-54976358D01*
X130458140Y-55021246D01*
X130321767Y-55094138D01*
X130202236Y-55192236D01*
X130177655Y-55222188D01*
X129012185Y-56387658D01*
X128982237Y-56412236D01*
X128957659Y-56442184D01*
X128957655Y-56442188D01*
X128927646Y-56478754D01*
X128884139Y-56531767D01*
X128859397Y-56578057D01*
X128811246Y-56668141D01*
X128769879Y-56804509D01*
X128738899Y-56821068D01*
X128520392Y-57000393D01*
X128341068Y-57218900D01*
X128270000Y-57351858D01*
X128198932Y-57218899D01*
X128019607Y-57000392D01*
X127801100Y-56821068D01*
X127551807Y-56687818D01*
X127281308Y-56605764D01*
X127000000Y-56578057D01*
X126718691Y-56605764D01*
X126535000Y-56661485D01*
X126535000Y-51859267D01*
X130033680Y-51859267D01*
X130107558Y-52140830D01*
X130234947Y-52402570D01*
X130410951Y-52634429D01*
X130628807Y-52827496D01*
X130880142Y-52974352D01*
X131143110Y-53066476D01*
X131373000Y-52945155D01*
X131373000Y-51627000D01*
X130173835Y-51627000D01*
X130033680Y-51859267D01*
X126535000Y-51859267D01*
X126535000Y-51140733D01*
X130033680Y-51140733D01*
X130173835Y-51373000D01*
X131373000Y-51373000D01*
X131373000Y-50054845D01*
X131627000Y-50054845D01*
X131627000Y-51373000D01*
X131647000Y-51373000D01*
X131647000Y-51627000D01*
X131627000Y-51627000D01*
X131627000Y-52945155D01*
X131856890Y-53066476D01*
X132119858Y-52974352D01*
X132371193Y-52827496D01*
X132589049Y-52634429D01*
X132745538Y-52428278D01*
X132759294Y-52454013D01*
X132944866Y-52680134D01*
X133170986Y-52865706D01*
X133428966Y-53003599D01*
X133708889Y-53088513D01*
X134000000Y-53117185D01*
X134291110Y-53088513D01*
X134571033Y-53003599D01*
X134829013Y-52865706D01*
X135055134Y-52680134D01*
X135107223Y-52616663D01*
X135161595Y-52718386D01*
X135272038Y-52852962D01*
X135406614Y-52963405D01*
X135560150Y-53045472D01*
X135726746Y-53096008D01*
X135900000Y-53113072D01*
X137100000Y-53113072D01*
X137273254Y-53096008D01*
X137439850Y-53045472D01*
X137593386Y-52963405D01*
X137727962Y-52852962D01*
X137838405Y-52718386D01*
X137920472Y-52564850D01*
X137971008Y-52398254D01*
X137988072Y-52225000D01*
X137988072Y-50775000D01*
X137971008Y-50601746D01*
X137920472Y-50435150D01*
X137838405Y-50281614D01*
X137727962Y-50147038D01*
X137593386Y-50036595D01*
X137439850Y-49954528D01*
X137273254Y-49903992D01*
X137100000Y-49886928D01*
X135900000Y-49886928D01*
X135726746Y-49903992D01*
X135560150Y-49954528D01*
X135406614Y-50036595D01*
X135272038Y-50147038D01*
X135161595Y-50281614D01*
X135107223Y-50383337D01*
X135055134Y-50319866D01*
X134829014Y-50134294D01*
X134571034Y-49996401D01*
X134291111Y-49911487D01*
X134000000Y-49882815D01*
X133708890Y-49911487D01*
X133428967Y-49996401D01*
X133170987Y-50134294D01*
X132944866Y-50319866D01*
X132759294Y-50545986D01*
X132745538Y-50571722D01*
X132589049Y-50365571D01*
X132371193Y-50172504D01*
X132119858Y-50025648D01*
X131856890Y-49933524D01*
X131627000Y-50054845D01*
X131373000Y-50054845D01*
X131143110Y-49933524D01*
X130880142Y-50025648D01*
X130628807Y-50172504D01*
X130410951Y-50365571D01*
X130234947Y-50597430D01*
X130107558Y-50859170D01*
X130033680Y-51140733D01*
X126535000Y-51140733D01*
X126535000Y-43358556D01*
X126538797Y-43320000D01*
X126535000Y-43281440D01*
X126535000Y-43281439D01*
X126528790Y-43218386D01*
X126523642Y-43166114D01*
X126481173Y-43026114D01*
X126478754Y-43018140D01*
X126405862Y-42881767D01*
X126307764Y-42762236D01*
X126277811Y-42737654D01*
X126192347Y-42652190D01*
X126167764Y-42622236D01*
X126048233Y-42524138D01*
X125948072Y-42470601D01*
X125948072Y-42359267D01*
X130033680Y-42359267D01*
X130107558Y-42640830D01*
X130234947Y-42902570D01*
X130410951Y-43134429D01*
X130628807Y-43327496D01*
X130880142Y-43474352D01*
X131143110Y-43566476D01*
X131373000Y-43445155D01*
X131373000Y-42127000D01*
X130173835Y-42127000D01*
X130033680Y-42359267D01*
X125948072Y-42359267D01*
X125948072Y-42330000D01*
X125935812Y-42205518D01*
X125899502Y-42085820D01*
X125840537Y-41975506D01*
X125761185Y-41878815D01*
X125664494Y-41799463D01*
X125554180Y-41740498D01*
X125434482Y-41704188D01*
X125310000Y-41691928D01*
X123610000Y-41691928D01*
X123485518Y-41704188D01*
X123365820Y-41740498D01*
X123255506Y-41799463D01*
X123158815Y-41878815D01*
X123079463Y-41975506D01*
X123020498Y-42085820D01*
X122984188Y-42205518D01*
X122971928Y-42330000D01*
X122971928Y-44030000D01*
X122984188Y-44154482D01*
X123020498Y-44274180D01*
X123079463Y-44384494D01*
X123158815Y-44481185D01*
X123255506Y-44560537D01*
X123365820Y-44619502D01*
X123438380Y-44641513D01*
X123306525Y-44773368D01*
X123144010Y-45016589D01*
X123032068Y-45286842D01*
X122975000Y-45573740D01*
X122975000Y-45866260D01*
X123032068Y-46153158D01*
X123144010Y-46423411D01*
X123306525Y-46666632D01*
X123513368Y-46873475D01*
X123687760Y-46990000D01*
X123513368Y-47106525D01*
X123306525Y-47313368D01*
X123144010Y-47556589D01*
X123032068Y-47826842D01*
X122975000Y-48113740D01*
X122975000Y-48406260D01*
X123032068Y-48693158D01*
X123144010Y-48963411D01*
X123306525Y-49206632D01*
X123513368Y-49413475D01*
X123687760Y-49530000D01*
X123513368Y-49646525D01*
X123306525Y-49853368D01*
X123144010Y-50096589D01*
X123032068Y-50366842D01*
X122975000Y-50653740D01*
X122975000Y-50946260D01*
X123032068Y-51233158D01*
X123144010Y-51503411D01*
X123306525Y-51746632D01*
X123513368Y-51953475D01*
X123695534Y-52075195D01*
X123578645Y-52144822D01*
X123362412Y-52339731D01*
X123188359Y-52573080D01*
X123063175Y-52835901D01*
X123018524Y-52983110D01*
X123139845Y-53213000D01*
X124333000Y-53213000D01*
X124333000Y-53193000D01*
X124587000Y-53193000D01*
X124587000Y-53213000D01*
X124607000Y-53213000D01*
X124607000Y-53467000D01*
X124587000Y-53467000D01*
X124587000Y-54660814D01*
X124816891Y-54781481D01*
X124965001Y-54728942D01*
X124965001Y-56673620D01*
X124741308Y-56605764D01*
X124460000Y-56578057D01*
X124178691Y-56605764D01*
X123908192Y-56687818D01*
X123658899Y-56821068D01*
X123440392Y-57000393D01*
X123261068Y-57218900D01*
X123190000Y-57351858D01*
X123118932Y-57218899D01*
X122939607Y-57000392D01*
X122721100Y-56821068D01*
X122471807Y-56687818D01*
X122201308Y-56605764D01*
X121920000Y-56578057D01*
X121638691Y-56605764D01*
X121368192Y-56687818D01*
X121118899Y-56821068D01*
X120900392Y-57000393D01*
X120721068Y-57218900D01*
X120650000Y-57351858D01*
X120578932Y-57218899D01*
X120399607Y-57000392D01*
X120181100Y-56821068D01*
X119931807Y-56687818D01*
X119661308Y-56605764D01*
X119380000Y-56578057D01*
X119098691Y-56605764D01*
X118828192Y-56687818D01*
X118578899Y-56821068D01*
X118360392Y-57000393D01*
X118285000Y-57092258D01*
X118285000Y-54779064D01*
X118285820Y-54779502D01*
X118405518Y-54815812D01*
X118530000Y-54828072D01*
X120230000Y-54828072D01*
X120354482Y-54815812D01*
X120474180Y-54779502D01*
X120584494Y-54720537D01*
X120681185Y-54641185D01*
X120760537Y-54544494D01*
X120819502Y-54434180D01*
X120855812Y-54314482D01*
X120868072Y-54190000D01*
X120868072Y-53696890D01*
X123018524Y-53696890D01*
X123063175Y-53844099D01*
X123188359Y-54106920D01*
X123362412Y-54340269D01*
X123578645Y-54535178D01*
X123828748Y-54684157D01*
X124103109Y-54781481D01*
X124333000Y-54660814D01*
X124333000Y-53467000D01*
X123139845Y-53467000D01*
X123018524Y-53696890D01*
X120868072Y-53696890D01*
X120868072Y-52490000D01*
X120855812Y-52365518D01*
X120819502Y-52245820D01*
X120760537Y-52135506D01*
X120681185Y-52038815D01*
X120584494Y-51959463D01*
X120474180Y-51900498D01*
X120401620Y-51878487D01*
X120533475Y-51746632D01*
X120695990Y-51503411D01*
X120807932Y-51233158D01*
X120865000Y-50946260D01*
X120865000Y-50653740D01*
X120807932Y-50366842D01*
X120695990Y-50096589D01*
X120533475Y-49853368D01*
X120326632Y-49646525D01*
X120152240Y-49530000D01*
X120326632Y-49413475D01*
X120533475Y-49206632D01*
X120695990Y-48963411D01*
X120807932Y-48693158D01*
X120865000Y-48406260D01*
X120865000Y-48113740D01*
X120807932Y-47826842D01*
X120695990Y-47556589D01*
X120533475Y-47313368D01*
X120326632Y-47106525D01*
X120144466Y-46984805D01*
X120261355Y-46915178D01*
X120477588Y-46720269D01*
X120651641Y-46486920D01*
X120776825Y-46224099D01*
X120821476Y-46076890D01*
X120700155Y-45847000D01*
X119507000Y-45847000D01*
X119507000Y-45867000D01*
X119253000Y-45867000D01*
X119253000Y-45847000D01*
X118059845Y-45847000D01*
X117938524Y-46076890D01*
X117983175Y-46224099D01*
X118108359Y-46486920D01*
X118282412Y-46720269D01*
X118498645Y-46915178D01*
X118615534Y-46984805D01*
X118433368Y-47106525D01*
X118226525Y-47313368D01*
X118064010Y-47556589D01*
X117952068Y-47826842D01*
X117895000Y-48113740D01*
X117895000Y-48406260D01*
X117952068Y-48693158D01*
X118064010Y-48963411D01*
X118226525Y-49206632D01*
X118433368Y-49413475D01*
X118607760Y-49530000D01*
X118433368Y-49646525D01*
X118226525Y-49853368D01*
X118064010Y-50096589D01*
X117952068Y-50366842D01*
X117895000Y-50653740D01*
X117895000Y-50946260D01*
X117932925Y-51136918D01*
X116972185Y-52097658D01*
X116942237Y-52122236D01*
X116917659Y-52152184D01*
X116917655Y-52152188D01*
X116884690Y-52192356D01*
X116844139Y-52241767D01*
X116821031Y-52285000D01*
X116771246Y-52378141D01*
X116726359Y-52526114D01*
X116711203Y-52680000D01*
X116627000Y-52680000D01*
X116627000Y-45363110D01*
X117938524Y-45363110D01*
X118059845Y-45593000D01*
X119253000Y-45593000D01*
X119253000Y-44399186D01*
X119507000Y-44399186D01*
X119507000Y-45593000D01*
X120700155Y-45593000D01*
X120821476Y-45363110D01*
X120776825Y-45215901D01*
X120651641Y-44953080D01*
X120477588Y-44719731D01*
X120261355Y-44524822D01*
X120011252Y-44375843D01*
X119736891Y-44278519D01*
X119507000Y-44399186D01*
X119253000Y-44399186D01*
X119023109Y-44278519D01*
X118748748Y-44375843D01*
X118498645Y-44524822D01*
X118282412Y-44719731D01*
X118108359Y-44953080D01*
X117983175Y-45215901D01*
X117938524Y-45363110D01*
X116627000Y-45363110D01*
X116627000Y-44602633D01*
X116789721Y-44635000D01*
X117210279Y-44635000D01*
X117622756Y-44552953D01*
X118011302Y-44392012D01*
X118360983Y-44158363D01*
X118658363Y-43860983D01*
X118892012Y-43511302D01*
X119052953Y-43122756D01*
X119135000Y-42710279D01*
X119135000Y-42289721D01*
X119052953Y-41877244D01*
X118954987Y-41640733D01*
X130033680Y-41640733D01*
X130173835Y-41873000D01*
X131373000Y-41873000D01*
X131373000Y-40554845D01*
X131627000Y-40554845D01*
X131627000Y-41873000D01*
X131647000Y-41873000D01*
X131647000Y-42127000D01*
X131627000Y-42127000D01*
X131627000Y-43445155D01*
X131856890Y-43566476D01*
X132119858Y-43474352D01*
X132371193Y-43327496D01*
X132589049Y-43134429D01*
X132745538Y-42928278D01*
X132759294Y-42954013D01*
X132944866Y-43180134D01*
X133170986Y-43365706D01*
X133428966Y-43503599D01*
X133708889Y-43588513D01*
X134000000Y-43617185D01*
X134291110Y-43588513D01*
X134571033Y-43503599D01*
X134829013Y-43365706D01*
X135055134Y-43180134D01*
X135107223Y-43116663D01*
X135161595Y-43218386D01*
X135272038Y-43352962D01*
X135406614Y-43463405D01*
X135560150Y-43545472D01*
X135726746Y-43596008D01*
X135900000Y-43613072D01*
X137100000Y-43613072D01*
X137273254Y-43596008D01*
X137439850Y-43545472D01*
X137593386Y-43463405D01*
X137727962Y-43352962D01*
X137838405Y-43218386D01*
X137920472Y-43064850D01*
X137971008Y-42898254D01*
X137988072Y-42725000D01*
X137988072Y-42359267D01*
X143533680Y-42359267D01*
X143607558Y-42640830D01*
X143734947Y-42902570D01*
X143910951Y-43134429D01*
X144128807Y-43327496D01*
X144380142Y-43474352D01*
X144643110Y-43566476D01*
X144873000Y-43445155D01*
X144873000Y-42127000D01*
X143673835Y-42127000D01*
X143533680Y-42359267D01*
X137988072Y-42359267D01*
X137988072Y-41640733D01*
X143533680Y-41640733D01*
X143673835Y-41873000D01*
X144873000Y-41873000D01*
X144873000Y-40554845D01*
X144643110Y-40433524D01*
X144380142Y-40525648D01*
X144128807Y-40672504D01*
X143910951Y-40865571D01*
X143734947Y-41097430D01*
X143607558Y-41359170D01*
X143533680Y-41640733D01*
X137988072Y-41640733D01*
X137988072Y-41275000D01*
X137971008Y-41101746D01*
X137920472Y-40935150D01*
X137838405Y-40781614D01*
X137727962Y-40647038D01*
X137593386Y-40536595D01*
X137439850Y-40454528D01*
X137273254Y-40403992D01*
X137100000Y-40386928D01*
X135900000Y-40386928D01*
X135726746Y-40403992D01*
X135560150Y-40454528D01*
X135406614Y-40536595D01*
X135272038Y-40647038D01*
X135161595Y-40781614D01*
X135107223Y-40883337D01*
X135055134Y-40819866D01*
X134829014Y-40634294D01*
X134571034Y-40496401D01*
X134291111Y-40411487D01*
X134000000Y-40382815D01*
X133708890Y-40411487D01*
X133428967Y-40496401D01*
X133170987Y-40634294D01*
X132944866Y-40819866D01*
X132759294Y-41045986D01*
X132745538Y-41071722D01*
X132589049Y-40865571D01*
X132371193Y-40672504D01*
X132119858Y-40525648D01*
X131856890Y-40433524D01*
X131627000Y-40554845D01*
X131373000Y-40554845D01*
X131143110Y-40433524D01*
X130880142Y-40525648D01*
X130628807Y-40672504D01*
X130410951Y-40865571D01*
X130234947Y-41097430D01*
X130107558Y-41359170D01*
X130033680Y-41640733D01*
X118954987Y-41640733D01*
X118892012Y-41488698D01*
X118658363Y-41139017D01*
X118360983Y-40841637D01*
X118011302Y-40607988D01*
X117622756Y-40447047D01*
X117210279Y-40365000D01*
X116789721Y-40365000D01*
X116627000Y-40397367D01*
X116627000Y-39710000D01*
X174991928Y-39710000D01*
X174991928Y-44110000D01*
X175004188Y-44234482D01*
X175040498Y-44354180D01*
X175099463Y-44464494D01*
X175178815Y-44561185D01*
X175275506Y-44640537D01*
X175385820Y-44699502D01*
X175505518Y-44735812D01*
X175630000Y-44748072D01*
X177430000Y-44748072D01*
X177554482Y-44735812D01*
X177674180Y-44699502D01*
X177784494Y-44640537D01*
X177881185Y-44561185D01*
X177960537Y-44464494D01*
X178019502Y-44354180D01*
X178055812Y-44234482D01*
X178068072Y-44110000D01*
X178068072Y-42037000D01*
X180795000Y-42037000D01*
X180795000Y-43137000D01*
X180849271Y-43434023D01*
X180960446Y-43714751D01*
X181124252Y-43968396D01*
X181334394Y-44185210D01*
X181582796Y-44356862D01*
X181859913Y-44476755D01*
X181965260Y-44501036D01*
X182203000Y-44380378D01*
X182203000Y-42037000D01*
X182457000Y-42037000D01*
X182457000Y-44380378D01*
X182694740Y-44501036D01*
X182800087Y-44476755D01*
X183077204Y-44356862D01*
X183325606Y-44185210D01*
X183535748Y-43968396D01*
X183699554Y-43714751D01*
X183810729Y-43434023D01*
X183865000Y-43137000D01*
X183865000Y-42037000D01*
X182457000Y-42037000D01*
X182203000Y-42037000D01*
X180795000Y-42037000D01*
X178068072Y-42037000D01*
X178068072Y-40683000D01*
X180795000Y-40683000D01*
X180795000Y-41783000D01*
X182203000Y-41783000D01*
X182203000Y-39439622D01*
X182457000Y-39439622D01*
X182457000Y-41783000D01*
X183865000Y-41783000D01*
X183865000Y-40683000D01*
X183810729Y-40385977D01*
X183699554Y-40105249D01*
X183535748Y-39851604D01*
X183325606Y-39634790D01*
X183077204Y-39463138D01*
X182800087Y-39343245D01*
X182694740Y-39318964D01*
X182457000Y-39439622D01*
X182203000Y-39439622D01*
X181965260Y-39318964D01*
X181859913Y-39343245D01*
X181582796Y-39463138D01*
X181334394Y-39634790D01*
X181124252Y-39851604D01*
X180960446Y-40105249D01*
X180849271Y-40385977D01*
X180795000Y-40683000D01*
X178068072Y-40683000D01*
X178068072Y-39710000D01*
X178055812Y-39585518D01*
X178019502Y-39465820D01*
X177960537Y-39355506D01*
X177881185Y-39258815D01*
X177784494Y-39179463D01*
X177674180Y-39120498D01*
X177554482Y-39084188D01*
X177430000Y-39071928D01*
X175630000Y-39071928D01*
X175505518Y-39084188D01*
X175385820Y-39120498D01*
X175275506Y-39179463D01*
X175178815Y-39258815D01*
X175099463Y-39355506D01*
X175040498Y-39465820D01*
X175004188Y-39585518D01*
X174991928Y-39710000D01*
X116627000Y-39710000D01*
X116627000Y-31830000D01*
X119032815Y-31830000D01*
X119061487Y-32121111D01*
X119146401Y-32401034D01*
X119284294Y-32659014D01*
X119469866Y-32885134D01*
X119695986Y-33070706D01*
X119713374Y-33080000D01*
X119695986Y-33089294D01*
X119469866Y-33274866D01*
X119284294Y-33500986D01*
X119146401Y-33758966D01*
X119061487Y-34038889D01*
X119032815Y-34330000D01*
X119061487Y-34621111D01*
X119146401Y-34901034D01*
X119284294Y-35159014D01*
X119469866Y-35385134D01*
X119533337Y-35437223D01*
X119431614Y-35491595D01*
X119297038Y-35602038D01*
X119186595Y-35736614D01*
X119104528Y-35890150D01*
X119053992Y-36056746D01*
X119036928Y-36230000D01*
X119036928Y-37430000D01*
X119053992Y-37603254D01*
X119104528Y-37769850D01*
X119186595Y-37923386D01*
X119297038Y-38057962D01*
X119431614Y-38168405D01*
X119585150Y-38250472D01*
X119751746Y-38301008D01*
X119925000Y-38318072D01*
X121375000Y-38318072D01*
X121548254Y-38301008D01*
X121714850Y-38250472D01*
X121868386Y-38168405D01*
X122002962Y-38057962D01*
X122113405Y-37923386D01*
X122195472Y-37769850D01*
X122246008Y-37603254D01*
X122263072Y-37430000D01*
X122263072Y-37110000D01*
X176887573Y-37110000D01*
X176917210Y-37410913D01*
X177004983Y-37700261D01*
X177147519Y-37966927D01*
X177339339Y-38200661D01*
X177573073Y-38392481D01*
X177839739Y-38535017D01*
X178129087Y-38622790D01*
X178354592Y-38645000D01*
X180705408Y-38645000D01*
X180930913Y-38622790D01*
X181220261Y-38535017D01*
X181486927Y-38392481D01*
X181720661Y-38200661D01*
X181912481Y-37966927D01*
X182055017Y-37700261D01*
X182142790Y-37410913D01*
X182172427Y-37110000D01*
X182142790Y-36809087D01*
X182055017Y-36519739D01*
X181912481Y-36253073D01*
X181720661Y-36019339D01*
X181486927Y-35827519D01*
X181220261Y-35684983D01*
X180930913Y-35597210D01*
X180705408Y-35575000D01*
X178354592Y-35575000D01*
X178129087Y-35597210D01*
X177839739Y-35684983D01*
X177573073Y-35827519D01*
X177339339Y-36019339D01*
X177147519Y-36253073D01*
X177004983Y-36519739D01*
X176917210Y-36809087D01*
X176887573Y-37110000D01*
X122263072Y-37110000D01*
X122263072Y-36230000D01*
X122246008Y-36056746D01*
X122195472Y-35890150D01*
X122113405Y-35736614D01*
X122002962Y-35602038D01*
X121868386Y-35491595D01*
X121766663Y-35437223D01*
X121830134Y-35385134D01*
X122015706Y-35159014D01*
X122153599Y-34901034D01*
X122238513Y-34621111D01*
X122267185Y-34330000D01*
X122238513Y-34038889D01*
X122153599Y-33758966D01*
X122015706Y-33500986D01*
X121830134Y-33274866D01*
X121604014Y-33089294D01*
X121586626Y-33080000D01*
X121604014Y-33070706D01*
X121830134Y-32885134D01*
X122015706Y-32659014D01*
X122153599Y-32401034D01*
X122238513Y-32121111D01*
X122267185Y-31830000D01*
X122238513Y-31538889D01*
X122153599Y-31258966D01*
X122015706Y-31000986D01*
X121830134Y-30774866D01*
X121604014Y-30589294D01*
X121578278Y-30575538D01*
X121784429Y-30419049D01*
X121916765Y-30269721D01*
X127405000Y-30269721D01*
X127405000Y-30690279D01*
X127487047Y-31102756D01*
X127647988Y-31491302D01*
X127881637Y-31840983D01*
X128179017Y-32138363D01*
X128528698Y-32372012D01*
X128917244Y-32532953D01*
X129329721Y-32615000D01*
X129750279Y-32615000D01*
X130162756Y-32532953D01*
X130551302Y-32372012D01*
X130900983Y-32138363D01*
X131198363Y-31840983D01*
X131432012Y-31491302D01*
X131592953Y-31102756D01*
X131675000Y-30690279D01*
X131675000Y-30269721D01*
X132485000Y-30269721D01*
X132485000Y-30690279D01*
X132567047Y-31102756D01*
X132727988Y-31491302D01*
X132961637Y-31840983D01*
X133259017Y-32138363D01*
X133608698Y-32372012D01*
X133997244Y-32532953D01*
X134409721Y-32615000D01*
X134830279Y-32615000D01*
X135242756Y-32532953D01*
X135631302Y-32372012D01*
X135980983Y-32138363D01*
X136278363Y-31840983D01*
X136512012Y-31491302D01*
X136672953Y-31102756D01*
X136755000Y-30690279D01*
X136755000Y-30269721D01*
X137565000Y-30269721D01*
X137565000Y-30690279D01*
X137647047Y-31102756D01*
X137807988Y-31491302D01*
X138041637Y-31840983D01*
X138339017Y-32138363D01*
X138688698Y-32372012D01*
X139077244Y-32532953D01*
X139489721Y-32615000D01*
X139910279Y-32615000D01*
X140322756Y-32532953D01*
X140711302Y-32372012D01*
X141060983Y-32138363D01*
X141358363Y-31840983D01*
X141592012Y-31491302D01*
X141752953Y-31102756D01*
X141835000Y-30690279D01*
X141835000Y-30269721D01*
X142645000Y-30269721D01*
X142645000Y-30690279D01*
X142727047Y-31102756D01*
X142887988Y-31491302D01*
X143121637Y-31840983D01*
X143419017Y-32138363D01*
X143768698Y-32372012D01*
X144157244Y-32532953D01*
X144569721Y-32615000D01*
X144990279Y-32615000D01*
X145402756Y-32532953D01*
X145791302Y-32372012D01*
X146140983Y-32138363D01*
X146438363Y-31840983D01*
X146672012Y-31491302D01*
X146832953Y-31102756D01*
X146915000Y-30690279D01*
X146915000Y-30269721D01*
X146832953Y-29857244D01*
X146672012Y-29468698D01*
X146438363Y-29119017D01*
X146299346Y-28980000D01*
X147721928Y-28980000D01*
X147721928Y-31980000D01*
X147734188Y-32104482D01*
X147770498Y-32224180D01*
X147829463Y-32334494D01*
X147908815Y-32431185D01*
X148005506Y-32510537D01*
X148115820Y-32569502D01*
X148235518Y-32605812D01*
X148360000Y-32618072D01*
X151360000Y-32618072D01*
X151484482Y-32605812D01*
X151604180Y-32569502D01*
X151714494Y-32510537D01*
X151811185Y-32431185D01*
X151890537Y-32334494D01*
X151949502Y-32224180D01*
X151985812Y-32104482D01*
X151998072Y-31980000D01*
X151998072Y-31971653D01*
X154897952Y-31971653D01*
X155053962Y-32287214D01*
X155428745Y-32478020D01*
X155833551Y-32592044D01*
X156252824Y-32624902D01*
X156670451Y-32575334D01*
X157070383Y-32445243D01*
X157366038Y-32287214D01*
X157522048Y-31971653D01*
X159977952Y-31971653D01*
X160133962Y-32287214D01*
X160508745Y-32478020D01*
X160913551Y-32592044D01*
X161332824Y-32624902D01*
X161750451Y-32575334D01*
X162150383Y-32445243D01*
X162446038Y-32287214D01*
X162602048Y-31971653D01*
X165057952Y-31971653D01*
X165213962Y-32287214D01*
X165588745Y-32478020D01*
X165993551Y-32592044D01*
X166412824Y-32624902D01*
X166830451Y-32575334D01*
X167230383Y-32445243D01*
X167526038Y-32287214D01*
X167682048Y-31971653D01*
X170137952Y-31971653D01*
X170293962Y-32287214D01*
X170668745Y-32478020D01*
X171073551Y-32592044D01*
X171492824Y-32624902D01*
X171910451Y-32575334D01*
X172310383Y-32445243D01*
X172606038Y-32287214D01*
X172757921Y-31980000D01*
X174391928Y-31980000D01*
X174404188Y-32104482D01*
X174440498Y-32224180D01*
X174499463Y-32334494D01*
X174578815Y-32431185D01*
X174675506Y-32510537D01*
X174785820Y-32569502D01*
X174905518Y-32605812D01*
X175030000Y-32618072D01*
X176244250Y-32615000D01*
X176403000Y-32456250D01*
X176403000Y-30607000D01*
X176657000Y-30607000D01*
X176657000Y-32456250D01*
X176815750Y-32615000D01*
X178030000Y-32618072D01*
X178154482Y-32605812D01*
X178274180Y-32569502D01*
X178384494Y-32510537D01*
X178481185Y-32431185D01*
X178560537Y-32334494D01*
X178619502Y-32224180D01*
X178655812Y-32104482D01*
X178668072Y-31980000D01*
X178665000Y-30765750D01*
X178506250Y-30607000D01*
X176657000Y-30607000D01*
X176403000Y-30607000D01*
X174553750Y-30607000D01*
X174395000Y-30765750D01*
X174391928Y-31980000D01*
X172757921Y-31980000D01*
X172762048Y-31971653D01*
X171450000Y-30659605D01*
X170137952Y-31971653D01*
X167682048Y-31971653D01*
X166370000Y-30659605D01*
X165057952Y-31971653D01*
X162602048Y-31971653D01*
X161290000Y-30659605D01*
X159977952Y-31971653D01*
X157522048Y-31971653D01*
X156210000Y-30659605D01*
X154897952Y-31971653D01*
X151998072Y-31971653D01*
X151998072Y-30522824D01*
X154065098Y-30522824D01*
X154114666Y-30940451D01*
X154244757Y-31340383D01*
X154402786Y-31636038D01*
X154718347Y-31792048D01*
X156030395Y-30480000D01*
X156389605Y-30480000D01*
X157701653Y-31792048D01*
X158017214Y-31636038D01*
X158208020Y-31261255D01*
X158322044Y-30856449D01*
X158348189Y-30522824D01*
X159145098Y-30522824D01*
X159194666Y-30940451D01*
X159324757Y-31340383D01*
X159482786Y-31636038D01*
X159798347Y-31792048D01*
X161110395Y-30480000D01*
X161469605Y-30480000D01*
X162781653Y-31792048D01*
X163097214Y-31636038D01*
X163288020Y-31261255D01*
X163402044Y-30856449D01*
X163428189Y-30522824D01*
X164225098Y-30522824D01*
X164274666Y-30940451D01*
X164404757Y-31340383D01*
X164562786Y-31636038D01*
X164878347Y-31792048D01*
X166190395Y-30480000D01*
X166549605Y-30480000D01*
X167861653Y-31792048D01*
X168177214Y-31636038D01*
X168368020Y-31261255D01*
X168482044Y-30856449D01*
X168508189Y-30522824D01*
X169305098Y-30522824D01*
X169354666Y-30940451D01*
X169484757Y-31340383D01*
X169642786Y-31636038D01*
X169958347Y-31792048D01*
X171270395Y-30480000D01*
X171629605Y-30480000D01*
X172941653Y-31792048D01*
X173257214Y-31636038D01*
X173448020Y-31261255D01*
X173562044Y-30856449D01*
X173594902Y-30437176D01*
X173545334Y-30019549D01*
X173415243Y-29619617D01*
X173257214Y-29323962D01*
X172941653Y-29167952D01*
X171629605Y-30480000D01*
X171270395Y-30480000D01*
X169958347Y-29167952D01*
X169642786Y-29323962D01*
X169451980Y-29698745D01*
X169337956Y-30103551D01*
X169305098Y-30522824D01*
X168508189Y-30522824D01*
X168514902Y-30437176D01*
X168465334Y-30019549D01*
X168335243Y-29619617D01*
X168177214Y-29323962D01*
X167861653Y-29167952D01*
X166549605Y-30480000D01*
X166190395Y-30480000D01*
X164878347Y-29167952D01*
X164562786Y-29323962D01*
X164371980Y-29698745D01*
X164257956Y-30103551D01*
X164225098Y-30522824D01*
X163428189Y-30522824D01*
X163434902Y-30437176D01*
X163385334Y-30019549D01*
X163255243Y-29619617D01*
X163097214Y-29323962D01*
X162781653Y-29167952D01*
X161469605Y-30480000D01*
X161110395Y-30480000D01*
X159798347Y-29167952D01*
X159482786Y-29323962D01*
X159291980Y-29698745D01*
X159177956Y-30103551D01*
X159145098Y-30522824D01*
X158348189Y-30522824D01*
X158354902Y-30437176D01*
X158305334Y-30019549D01*
X158175243Y-29619617D01*
X158017214Y-29323962D01*
X157701653Y-29167952D01*
X156389605Y-30480000D01*
X156030395Y-30480000D01*
X154718347Y-29167952D01*
X154402786Y-29323962D01*
X154211980Y-29698745D01*
X154097956Y-30103551D01*
X154065098Y-30522824D01*
X151998072Y-30522824D01*
X151998072Y-28988347D01*
X154897952Y-28988347D01*
X156210000Y-30300395D01*
X157522048Y-28988347D01*
X159977952Y-28988347D01*
X161290000Y-30300395D01*
X162602048Y-28988347D01*
X165057952Y-28988347D01*
X166370000Y-30300395D01*
X167682048Y-28988347D01*
X170137952Y-28988347D01*
X171450000Y-30300395D01*
X172762048Y-28988347D01*
X172757922Y-28980000D01*
X174391928Y-28980000D01*
X174395000Y-30194250D01*
X174553750Y-30353000D01*
X176403000Y-30353000D01*
X176403000Y-28503750D01*
X176657000Y-28503750D01*
X176657000Y-30353000D01*
X178506250Y-30353000D01*
X178665000Y-30194250D01*
X178666655Y-29539721D01*
X183365000Y-29539721D01*
X183365000Y-29960279D01*
X183447047Y-30372756D01*
X183607988Y-30761302D01*
X183841637Y-31110983D01*
X184139017Y-31408363D01*
X184488698Y-31642012D01*
X184877244Y-31802953D01*
X185289721Y-31885000D01*
X185710279Y-31885000D01*
X186122756Y-31802953D01*
X186511302Y-31642012D01*
X186860983Y-31408363D01*
X187158363Y-31110983D01*
X187392012Y-30761302D01*
X187552953Y-30372756D01*
X187635000Y-29960279D01*
X187635000Y-29539721D01*
X187552953Y-29127244D01*
X187392012Y-28738698D01*
X187158363Y-28389017D01*
X186860983Y-28091637D01*
X186511302Y-27857988D01*
X186122756Y-27697047D01*
X185710279Y-27615000D01*
X185289721Y-27615000D01*
X184877244Y-27697047D01*
X184488698Y-27857988D01*
X184139017Y-28091637D01*
X183841637Y-28389017D01*
X183607988Y-28738698D01*
X183447047Y-29127244D01*
X183365000Y-29539721D01*
X178666655Y-29539721D01*
X178668072Y-28980000D01*
X178655812Y-28855518D01*
X178619502Y-28735820D01*
X178560537Y-28625506D01*
X178481185Y-28528815D01*
X178384494Y-28449463D01*
X178274180Y-28390498D01*
X178154482Y-28354188D01*
X178030000Y-28341928D01*
X176815750Y-28345000D01*
X176657000Y-28503750D01*
X176403000Y-28503750D01*
X176244250Y-28345000D01*
X175030000Y-28341928D01*
X174905518Y-28354188D01*
X174785820Y-28390498D01*
X174675506Y-28449463D01*
X174578815Y-28528815D01*
X174499463Y-28625506D01*
X174440498Y-28735820D01*
X174404188Y-28855518D01*
X174391928Y-28980000D01*
X172757922Y-28980000D01*
X172606038Y-28672786D01*
X172231255Y-28481980D01*
X171826449Y-28367956D01*
X171407176Y-28335098D01*
X170989549Y-28384666D01*
X170589617Y-28514757D01*
X170293962Y-28672786D01*
X170137952Y-28988347D01*
X167682048Y-28988347D01*
X167526038Y-28672786D01*
X167151255Y-28481980D01*
X166746449Y-28367956D01*
X166327176Y-28335098D01*
X165909549Y-28384666D01*
X165509617Y-28514757D01*
X165213962Y-28672786D01*
X165057952Y-28988347D01*
X162602048Y-28988347D01*
X162446038Y-28672786D01*
X162071255Y-28481980D01*
X161666449Y-28367956D01*
X161247176Y-28335098D01*
X160829549Y-28384666D01*
X160429617Y-28514757D01*
X160133962Y-28672786D01*
X159977952Y-28988347D01*
X157522048Y-28988347D01*
X157366038Y-28672786D01*
X156991255Y-28481980D01*
X156586449Y-28367956D01*
X156167176Y-28335098D01*
X155749549Y-28384666D01*
X155349617Y-28514757D01*
X155053962Y-28672786D01*
X154897952Y-28988347D01*
X151998072Y-28988347D01*
X151998072Y-28980000D01*
X151985812Y-28855518D01*
X151949502Y-28735820D01*
X151890537Y-28625506D01*
X151811185Y-28528815D01*
X151714494Y-28449463D01*
X151604180Y-28390498D01*
X151484482Y-28354188D01*
X151360000Y-28341928D01*
X148360000Y-28341928D01*
X148235518Y-28354188D01*
X148115820Y-28390498D01*
X148005506Y-28449463D01*
X147908815Y-28528815D01*
X147829463Y-28625506D01*
X147770498Y-28735820D01*
X147734188Y-28855518D01*
X147721928Y-28980000D01*
X146299346Y-28980000D01*
X146140983Y-28821637D01*
X145791302Y-28587988D01*
X145402756Y-28427047D01*
X144990279Y-28345000D01*
X144569721Y-28345000D01*
X144157244Y-28427047D01*
X143768698Y-28587988D01*
X143419017Y-28821637D01*
X143121637Y-29119017D01*
X142887988Y-29468698D01*
X142727047Y-29857244D01*
X142645000Y-30269721D01*
X141835000Y-30269721D01*
X141752953Y-29857244D01*
X141592012Y-29468698D01*
X141358363Y-29119017D01*
X141060983Y-28821637D01*
X140711302Y-28587988D01*
X140322756Y-28427047D01*
X139910279Y-28345000D01*
X139489721Y-28345000D01*
X139077244Y-28427047D01*
X138688698Y-28587988D01*
X138339017Y-28821637D01*
X138041637Y-29119017D01*
X137807988Y-29468698D01*
X137647047Y-29857244D01*
X137565000Y-30269721D01*
X136755000Y-30269721D01*
X136672953Y-29857244D01*
X136512012Y-29468698D01*
X136278363Y-29119017D01*
X135980983Y-28821637D01*
X135631302Y-28587988D01*
X135242756Y-28427047D01*
X134830279Y-28345000D01*
X134409721Y-28345000D01*
X133997244Y-28427047D01*
X133608698Y-28587988D01*
X133259017Y-28821637D01*
X132961637Y-29119017D01*
X132727988Y-29468698D01*
X132567047Y-29857244D01*
X132485000Y-30269721D01*
X131675000Y-30269721D01*
X131592953Y-29857244D01*
X131432012Y-29468698D01*
X131198363Y-29119017D01*
X130900983Y-28821637D01*
X130551302Y-28587988D01*
X130162756Y-28427047D01*
X129750279Y-28345000D01*
X129329721Y-28345000D01*
X128917244Y-28427047D01*
X128528698Y-28587988D01*
X128179017Y-28821637D01*
X127881637Y-29119017D01*
X127647988Y-29468698D01*
X127487047Y-29857244D01*
X127405000Y-30269721D01*
X121916765Y-30269721D01*
X121977496Y-30201193D01*
X122124352Y-29949858D01*
X122216476Y-29686890D01*
X122095155Y-29457000D01*
X120777000Y-29457000D01*
X120777000Y-29477000D01*
X120523000Y-29477000D01*
X120523000Y-29457000D01*
X119204845Y-29457000D01*
X119083524Y-29686890D01*
X119175648Y-29949858D01*
X119322504Y-30201193D01*
X119515571Y-30419049D01*
X119721722Y-30575538D01*
X119695986Y-30589294D01*
X119469866Y-30774866D01*
X119284294Y-31000986D01*
X119146401Y-31258966D01*
X119061487Y-31538889D01*
X119032815Y-31830000D01*
X116627000Y-31830000D01*
X116627000Y-28973110D01*
X119083524Y-28973110D01*
X119204845Y-29203000D01*
X120523000Y-29203000D01*
X120523000Y-28003835D01*
X120777000Y-28003835D01*
X120777000Y-29203000D01*
X122095155Y-29203000D01*
X122216476Y-28973110D01*
X122124352Y-28710142D01*
X121977496Y-28458807D01*
X121784429Y-28240951D01*
X121552570Y-28064947D01*
X121290830Y-27937558D01*
X121009267Y-27863680D01*
X120777000Y-28003835D01*
X120523000Y-28003835D01*
X120290733Y-27863680D01*
X120009170Y-27937558D01*
X119747430Y-28064947D01*
X119515571Y-28240951D01*
X119322504Y-28458807D01*
X119175648Y-28710142D01*
X119083524Y-28973110D01*
X116627000Y-28973110D01*
X116627000Y-28552606D01*
X119552606Y-25627000D01*
X185447394Y-25627000D01*
X188373000Y-28552606D01*
M02*
