M48
; DRILL file {KiCad (5.1.5)-2} date 21/12/2019 21:13:58
; FORMAT={-:-/ absolute / inch / decimal}
; #@! TF.CreationDate,2019-12-21T21:13:58+01:00
; #@! TF.GenerationSoftware,Kicad,Pcbnew,(5.1.5)-2
; #@! TF.FileFunction,Plated,1,2,PTH
FMAT,2
INCH
T1C0.0157
T2C0.0315
T3C0.0374
T4C0.0394
T5C0.0598
%
G90
G05
T1
X5.9449Y-2.815
X6.4961Y-2.815
T2
X4.7Y-2.3
X4.7Y-2.6
X4.8Y-2.3
X4.8Y-2.6
X4.9Y-2.3
X4.9Y-2.6
X5.0Y-2.3
X5.0Y-2.6
X5.1Y-2.3
X5.1Y-2.6
X5.2Y-2.3
X5.2Y-2.6
X5.3Y-2.3
X5.3Y-2.6
X5.4Y-2.3
X5.4Y-2.6
X5.5Y-2.3
X5.5Y-2.6
X5.6Y-2.3
X5.6Y-2.6
X5.7Y-2.3
X5.7Y-2.6
X5.8Y-2.3
X5.8Y-2.6
X5.9Y-2.3
X5.9Y-2.6
X6.0Y-2.3
X6.0Y-2.6
T3
X5.1772Y-1.6535
X5.2756Y-1.6535
X5.374Y-1.6535
X5.1772Y-2.0276
X5.2756Y-2.0276
X5.374Y-2.0276
X6.3063Y-2.5
X6.4047Y-2.5
X6.5031Y-2.5
X6.6016Y-2.5
X6.7Y-2.5
X5.7087Y-2.0276
X5.8071Y-2.0276
X5.9055Y-2.0276
X4.75Y-1.1547
X4.75Y-1.2531
X4.75Y-1.3516
X4.75Y-1.45
X5.7087Y-1.6535
X5.8071Y-1.6535
X5.9055Y-1.6535
T4
X6.25Y-1.6535
X6.3484Y-1.6535
X6.25Y-2.0276
X6.3484Y-2.0276
X4.7Y-1.8
X4.7Y-1.9
X4.7Y-2.0
X4.7Y-2.1
X4.9Y-1.7
X4.9Y-1.8
X4.9Y-1.9
X4.9Y-2.0
X4.9Y-2.1
T5
X5.1Y-1.2
X5.3Y-1.2
X5.5Y-1.2
X5.7Y-1.2
X5.9Y-1.2
X6.15Y-1.2
X6.35Y-1.2
X6.55Y-1.2
X6.75Y-1.2
X6.95Y-1.2
T2
G00X6.95Y-1.7012
M15
G01X6.95Y-1.5988
M16
G05
G00X7.1114Y-1.461
M15
G01X7.0248Y-1.461
M16
G05
G00X7.1783Y-1.6933
M15
G01X7.1783Y-1.6067
M16
G05
T0
M30
